/* XPM */
static char *_e450fff539f46c097eecea7797c9c46o2VW6kpOK5VBox1R[] = {
/* columns rows colors chars-per-pixel */
"50 50 6 1 ",
"  c None",
". c black",
"X c #242B33",
"o c #1498DC",
"O c #10D3C3",
"+ c #A0FCD8",
/* pixels */
"      XXXXXXXXXXXXXXXXXXXXXXXXXXXXXXXXXXXXXX      ",
"      XXXXXXXXXXXXXXXXXXXXXXXXXXXXXXXXXXXXXX      ",
"      XXXXXXXXXXXXXXXXXXXXXXXXXXXXXXXXXXXXXX      ",
"   XXX++++++++++++++++++++++++++++++++++++++XXX   ",
"   XXX++++++++++++++++++++++++++++++++++++++XXX   ",
"   XXX++++++++++++++++++++++++++++++++++++++XXX   ",
"XXX+++++++++OOOOOOOOOOOOOOOOOOOOOOOOOO+++++++++XXX",
"XXX+++++++++OOOOOOOOOOOOOOOOOOOOOOOOOO+++++++++XXX",
"XXX+++++++++OOOOOOOOOOOOOOOOOOOOOOOOOO+++++++++XXX",
"XXX++++++OOOOOOOOOOOOOOOOOOOOOOOOOOOOOOOO++++++XXX",
"XXX++++++OOOOOOOOOOOOOOOOOOOOOOOOOOOOOOOO++++++XXX",
"XXX++++++OOOOOOOOOOOOOOOOOOOOOOOOOOOOOOOO++++++XXX",
"XXX+++OOOOOOOOOOOOOOOOOOOOOOOOOOOOOOOOOOOOOO+++XXX",
"XXX+++OOOOOOOOOOOOOOOOOOOOOOOOOOOOOOOOOOOOOO+++XXX",
"XXX+++OOOOOOOOOOOOOOOO........OOOOOOOOOOOOOO+++XXX",
"XXX+++OOOOOOOOOOOOOOOO........OOOOOOOOOOOOOO+++XXX",
"XXX+++OOOOOOOOOOOOOO..OOOOOOOO..OOOOOOOOOOOO+++XXX",
"XXX+++OOOOOOOOOOOOOO..OOOOOOOO..OOOOOOOOOOOO+++XXX",
"XXX+++OOOOOOOOOOOOOO..OOOOOOOO..OOOOOOOOOOOO+++XXX",
"XXX+++OOOOOOOOOOOOOO..OOOOOOOO..OOOOOOOOOOOO+++XXX",
"XXX+++OOOOOOOOOOOOOO..OOOOOOOO..OOOOOOOOOOOO+++XXX",
"XXX+++OOOOOOOOOOOOOO..OOOOOOOO..OOOOOOOOOOOO+++XXX",
"XXX+++OOOOOOOOOOOOOO..OOOOOOOO..OOOOOOOOOOOO+++XXX",
"XXX+++OOOOOOOOOOOOOO..OOOOOOOO..OOOOOOOOOOOO+++XXX",
"XXX+++OOOOOOOOOOOOOOOOOOOOOOOOOOOOOOOOOOOOOO+++XXX",
"XXXoooOOOOOOOOOOOOOOOOOOOOOOOOOOOOOOOOOOOOOOoooXXX",
"XXXoooOOOOOOOOOOOOOO..OOOOOOOO..OOOOOOOOOOOOoooXXX",
"XXXoooOOOOOOOOOOOOOO..OOOOOOOO..OOOOOOOOOOOOoooXXX",
"XXXoooOOOOOOOOOOOOOO..OOOOOOOO..OOOOOOOOOOOOoooXXX",
"XXXoooOOOOOOOOOOOOOO..OOOOOOOO..OOOOOOOOOOOOoooXXX",
"XXXoooOOOOOOOOOOOOOO..OOOOOOOO..OOOOOOOOOOOOoooXXX",
"XXXoooOOOOOOOOOOOOOO..OOOOOOOO..OOOOOOOOOOOOoooXXX",
"XXXoooOOOOOOOOOOOOOO..OOOOOOOO..OOOOOOOOOOOOoooXXX",
"XXXoooOOOOOOOOOOOOOO..OOOOOOOO..OOOOOOOOOOOOoooXXX",
"XXXoooOOOOOOOOOOOOOOOO........OOOOOOOOOOOOOOoooXXX",
"XXXoooOOOOOOOOOOOOOOOO........OOOOOOOOOOOOOOoooXXX",
"XXXoooOOOOOOOOOOOOOOOOOOOOOOOOOOOOOOOOOOOOOOoooXXX",
"XXXoooOOOOOOOOOOOOOOOOOOOOOOOOOOOOOOOOOOOOOOoooXXX",
"XXXoooOOOOOOOOOOOOOOOOOOOOOOOOOOOOOOOOOOOOOOoooXXX",
"XXXoooOOOOOOOOOOOOOOOOOOOOOOOOOOOOOOOOOOOOOOoooXXX",
"XXXoooOOOOOOOOOOOOOOOOOOOOOOOOOOOOOOOOOOOOOOoooXXX",
"XXXoooOOOOOOOOOOOOOOOOOOOOOOOOOOOOOOOOOOOOOOoooXXX",
"XXXoooOOOOOOOOOOOOOOOOOOOOOOOOOOOOOOOOOOOOOOoooXXX",
"XXXoooOOOOOOOOOOOOOOOOOOOOOOOOOOOOOOOOOOOOOOoooXXX",
"   XXXooooooooooooooooooooooooooooooooooooooXXX   ",
"   XXXooooooooooooooooooooooooooooooooooooooXXX   ",
"   XXXooooooooooooooooooooooooooooooooooooooXXX   ",
"      XXXXXXXXXXXXXXXXXXXXXXXXXXXXXXXXXXXXXX      ",
"      XXXXXXXXXXXXXXXXXXXXXXXXXXXXXXXXXXXXXX      ",
"      XXXXXXXXXXXXXXXXXXXXXXXXXXXXXXXXXXXXXX      "
};
