/* XPM */
static char *bbc9d71b7e534c23c5c3f54264daa8bbXAa3tvimQgtQ8sod[] = {
/* columns rows colors chars-per-pixel */
"50 50 6 1 ",
"  c None",
". c black",
"X c #242B33",
"o c #1498DC",
"O c #10D3C3",
"+ c #A0FCD8",
/* pixels */
"      XXXXXXXXXXXXXXXXXXXXXXXXXXXXXXXXXXXXXX      ",
"      XXXXXXXXXXXXXXXXXXXXXXXXXXXXXXXXXXXXXX      ",
"      XXXXXXXXXXXXXXXXXXXXXXXXXXXXXXXXXXXXXX      ",
"   XXX++++++++++++++++++++++++++++++++++++++XXX   ",
"   XXX++++++++++++++++++++++++++++++++++++++XXX   ",
"   XXX++++++++++++++++++++++++++++++++++++++XXX   ",
"XXX+++++++++OOOOOOOOOOOOOOOOOOOOOOOOOO+++++++++XXX",
"XXX+++++++++OOOOOOOOOOOOOOOOOOOOOOOOOO+++++++++XXX",
"XXX+++++++++OOOOOOOOOOOOOOOOOOOOOOOOOO+++++++++XXX",
"XXX++++++OOOOOOOOOOOOOOOOOOOOOOOOOOOOOOOO++++++XXX",
"XXX++++++OOOOOOOOOOOOOOOOOOOOOOOOOOOOOOOO++++++XXX",
"XXX++++++OOOOOOOOOOOOOOOOOOOOOOOOOOOOOOOO++++++XXX",
"XXX+++OOOOOOOOOOOOOOOOOOOOOOOOOOOOOOOOOOOOOO+++XXX",
"XXX+++OOOOOOOOOOOOOOOOOOOOOOOOOOOOOOOOOOOOOO+++XXX",
"XXX+++OOOOOOOOOOOOOOOOOOOOOOOOOOOOOOOOOOOOOO+++XXX",
"XXX+++OOOOOOOOOOOOOOOOOOOOOOOOOOOOOOOOOOOOOO+++XXX",
"XXX+++OOOOOOOOOOOOOOOOOOOOOOOO..OOOOOOOOOOOO+++XXX",
"XXX+++OOOOOOOOOOOOOOOOOOOOOOOO..OOOOOOOOOOOO+++XXX",
"XXX+++OOOOOOOOOOOOOOOOOOOOOOOO..OOOOOOOOOOOO+++XXX",
"XXX+++OOOOOOOOOOOOOOOOOOOOOOOO..OOOOOOOOOOOO+++XXX",
"XXX+++OOOOOOOOOOOOOOOOOOOOOOOO..OOOOOOOOOOOO+++XXX",
"XXX+++OOOOOOOOOOOOOOOOOOOOOOOO..OOOOOOOOOOOO+++XXX",
"XXX+++OOOOOOOOOOOOOOOOOOOOOOOO..OOOOOOOOOOOO+++XXX",
"XXX+++OOOOOOOOOOOOOOOOOOOOOOOO..OOOOOOOOOOOO+++XXX",
"XXX+++OOOOOOOOOOOOOOOOOOOOOOOOOOOOOOOOOOOOOO+++XXX",
"XXXoooOOOOOOOOOOOOOOOOOOOOOOOOOOOOOOOOOOOOOOoooXXX",
"XXXoooOOOOOOOOOOOOOOOOOOOOOOOO..OOOOOOOOOOOOoooXXX",
"XXXoooOOOOOOOOOOOOOOOOOOOOOOOO..OOOOOOOOOOOOoooXXX",
"XXXoooOOOOOOOOOOOOOOOOOOOOOOOO..OOOOOOOOOOOOoooXXX",
"XXXoooOOOOOOOOOOOOOOOOOOOOOOOO..OOOOOOOOOOOOoooXXX",
"XXXoooOOOOOOOOOOOOOOOOOOOOOOOO..OOOOOOOOOOOOoooXXX",
"XXXoooOOOOOOOOOOOOOOOOOOOOOOOO..OOOOOOOOOOOOoooXXX",
"XXXoooOOOOOOOOOOOOOOOOOOOOOOOO..OOOOOOOOOOOOoooXXX",
"XXXoooOOOOOOOOOOOOOOOOOOOOOOOO..OOOOOOOOOOOOoooXXX",
"XXXoooOOOOOOOOOOOOOOOOOOOOOOOOOOOOOOOOOOOOOOoooXXX",
"XXXoooOOOOOOOOOOOOOOOOOOOOOOOOOOOOOOOOOOOOOOoooXXX",
"XXXoooOOOOOOOOOOOOOOOOOOOOOOOOOOOOOOOOOOOOOOoooXXX",
"XXXoooOOOOOOOOOOOOOOOOOOOOOOOOOOOOOOOOOOOOOOoooXXX",
"XXXoooOOOOOOOOOOOOOOOOOOOOOOOOOOOOOOOOOOOOOOoooXXX",
"XXXoooOOOOOOOOOOOOOOOOOOOOOOOOOOOOOOOOOOOOOOoooXXX",
"XXXoooOOOOOOOOOOOOOOOOOOOOOOOOOOOOOOOOOOOOOOoooXXX",
"XXXoooOOOOOOOOOOOOOOOOOOOOOOOOOOOOOOOOOOOOOOoooXXX",
"XXXoooOOOOOOOOOOOOOOOOOOOOOOOOOOOOOOOOOOOOOOoooXXX",
"XXXoooOOOOOOOOOOOOOOOOOOOOOOOOOOOOOOOOOOOOOOoooXXX",
"   XXXooooooooooooooooooooooooooooooooooooooXXX   ",
"   XXXooooooooooooooooooooooooooooooooooooooXXX   ",
"   XXXooooooooooooooooooooooooooooooooooooooXXX   ",
"      XXXXXXXXXXXXXXXXXXXXXXXXXXXXXXXXXXXXXX      ",
"      XXXXXXXXXXXXXXXXXXXXXXXXXXXXXXXXXXXXXX      ",
"      XXXXXXXXXXXXXXXXXXXXXXXXXXXXXXXXXXXXXX      "
};
