/* XPM */
static char *xpm_[] = {
/* columns rows colors chars-per-pixel */
"50 50 5 1 ",
"  c black",
". c #F2741B",
"X c #FFF21B",
"o c #F1C549",
"O c #DAF4E8",
/* pixels */
"OOOOOOOOOOOOOOOOOOOOOOOOOOOOOOOOOOOOOOOOOOOOOOOOOO",
"OOOOOOOOOOOOOOOOOOOOOOOOOOOOOOOOOOOOOOOOOOOOOOOOOO",
"OOOOOOOOOOOOOOOOOOOOOOOOOOOOOOOOOOOOOOOOOOOOOOOOOO",
"OOOOOOOOOOOOOOOOOOOOOOOOOOOOOOOOOOOOOOOOOOOOOOOOOO",
"OOOOOOOOOOOOOOOOOOOOOOOOOOOOOOOOOOOOOOOOOOOOOOOOOO",
"OOOOOOOOOOOOOOOOOOOOOOOOOOOOOOOOOOOOOOOOOOOOOOOOOO",
"OOOOOOOOOOOOOOOOOOOOOOOOOOOOOOOOOOOOOOOOOOOOOOOOOO",
"OOOOOOOOOOOOOOOOOOOOOOOOOOOOOOOOOOOOOOOOOOOOOOOOOO",
"OOOOOOOOOOOOOOOOOOOOOOOOOOOOOOOOOOOOOOOOOOOOOOOOOO",
"OOOOOOOOOOOOOOOOOOOOOOOOOOOOOOOOOOOOOOOOOOOOOOOOOO",
"OOOOOOOOOOOOOOOOOOOOOOOOOOOOOOOOOOOOOOOOOOOOOOOOOO",
"OOOOOOOOOOOOOOOOO                 OOOOOOOOOOOOOOOO",
"OOOOOOOOOOOOOOOOO                 OOOOOOOOOOOOOOOO",
"OOOOOOOOOOOOOOOOO                 OOOOOOOOOOOOOOOO",
"OOOOOOOOOOOOOO   XXXXXXXXXXXXXXXXX   OOOOOOOOOOOOO",
"OOOOOOOOOOOOOO   XXXXXXXXXXXXXXXXX   OOOOOOOOOOOOO",
"OOOOOOOOOOOOOO   XXXXXXXXXXXXXXXXX   OOOOOOOOOOOOO",
"OOOOOOOOOOO   XXXXXXoooooooooooooo...   OOOOOOOOOO",
"OOOOOOOOOOO   XXXXXXoooooooooooooo...   OOOOOOOOOO",
"OOOOOOOOOOO   XXXXXXoooooooooooooo...   OOOOOOOOOO",
"OOOOOOOOOOO   XXXooooooooooooooooo...   OOOOOOOOOO",
"OOOOOOOOOOO   XXXooooooooooooooooo...   OOOOOOOOOO",
"OOOOOOOOOOO   XXXoooooXXXo...ooooo...   OOOOOOOOOO",
"OOOOOOOOOOO   XXXoooooXXXo...ooooo...   OOOOOOOOOO",
"OOOOOOOOOOO   XXXoooooXXXo...ooooo...   OOOOOOOOOO",
"OOOOOOOOOOO   XXXooooooooooooooooo...   OOOOOOOOOO",
"OOOOOOOOOOO   XXXooooo...oXXXooooo...   OOOOOOOOOO",
"OOOOOOOOOOO   XXXooooo...oXXXooooo...   OOOOOOOOOO",
"OOOOOOOOOOO   XXXooooo...oXXXooooo...   OOOOOOOOOO",
"OOOOOOOOOOO   XXXooooooooooooooooo...   OOOOOOOOOO",
"OOOOOOOOOOO   XXXooooooooooooooooo...   OOOOOOOOOO",
"OOOOOOOOOOO   XXXoooooooooooooo......   OOOOOOOOOO",
"OOOOOOOOOOO   XXXoooooooooooooo......   OOOOOOOOOO",
"OOOOOOOOOOO   XXXoooooooooooooo......   OOOOOOOOOO",
"OOOOOOOOOOOOOO   .................   OOOOOOOOOOOOO",
"OOOOOOOOOOOOOO   .................   OOOOOOOOOOOOO",
"OOOOOOOOOOOOOO   .................   OOOOOOOOOOOOO",
"OOOOOOOOOOOOOOOOO                 OOOOOOOOOOOOOOOO",
"OOOOOOOOOOOOOOOOO                 OOOOOOOOOOOOOOOO",
"OOOOOOOOOOOOOOOOO                 OOOOOOOOOOOOOOOO",
"OOOOOOOOOOOOOOOOOOOOOOOOOOOOOOOOOOOOOOOOOOOOOOOOOO",
"OOOOOOOOOOOOOOOOOOOOOOOOOOOOOOOOOOOOOOOOOOOOOOOOOO",
"OOOOOOOOOOOOOOOOOOOOOOOOOOOOOOOOOOOOOOOOOOOOOOOOOO",
"OOOOOOOOOOOOOOOOOOOOOOOOOOOOOOOOOOOOOOOOOOOOOOOOOO",
"OOOOOOOOOOOOOOOOOOOOOOOOOOOOOOOOOOOOOOOOOOOOOOOOOO",
"OOOOOOOOOOOOOOOOOOOOOOOOOOOOOOOOOOOOOOOOOOOOOOOOOO",
"OOOOOOOOOOOOOOOOOOOOOOOOOOOOOOOOOOOOOOOOOOOOOOOOOO",
"OOOOOOOOOOOOOOOOOOOOOOOOOOOOOOOOOOOOOOOOOOOOOOOOOO",
"OOOOOOOOOOOOOOOOOOOOOOOOOOOOOOOOOOOOOOOOOOOOOOOOOO",
"OOOOOOOOOOOOOOOOOOOOOOOOOOOOOOOOOOOOOOOOOOOOOOOOOO"
};
