/* XPM */
static char *xpm_[] = {
/* columns rows colors chars-per-pixel */
"50 50 5 1 ",
"  c black",
". c #F2741B",
"X c #FFF21B",
"o c #F1C549",
"O c #DAF4E8",
/* pixels */
"OOOOOOOOOOOOOOOOOOOOOOOOOOOOOOOOOOOOOOOOOOOOOOOOOO",
"OOOOOOOOOOOOOOOOOOOOOOOOOOOOOOOOOOOOOOOOOOOOOOOOOO",
"OOOOOOOOOOOOOOOOOOOOOOOOOOOOOOOOOOOOOOOOOOOOOOOOOO",
"OOOOOOOOOOOOOOOOOOOOOOOOOOOOOOOOOOOOOOOOOOOOOOOOOO",
"OOOOOOOOOOOOOOOOOOOOOOOOOOOOOOOOOOOOOOOOOOOOOOOOOO",
"OOOOOOOOOOOOOOOOOOOOOOOOOOOOOOOOOOOOOOOOOOOOOOOOOO",
"OOOOOOOOOOOOOOOOOOOOOOOOOOOOOOOOOOOOOOOOOOOOOOOOOO",
"OOOOOOOOOOOOOOOOOOOOOOOOOOOOOOOOOOOOOOOOOOOOOOOOOO",
"OOOOOOOOOOOOOOOOOOOOOOOOOOOOOOOOOOOOOOOOOOOOOOOOOO",
"OOOOOOOOOOOOOOOOOOOOOOOOOOOOOOOOOOOOOOOOOOOOOOOOOO",
"OOOOOOOOOOOOOOOOOOOOOOOOOOOOOOOOOOOOOOOOOOOOOOOOOO",
"OOOOOOOOOOOOOOOOOOOO           OOOOOOOOOOOOOOOOOOO",
"OOOOOOOOOOOOOOOOOOOO           OOOOOOOOOOOOOOOOOOO",
"OOOOOOOOOOOOOOOOOOOO           OOOOOOOOOOOOOOOOOOO",
"OOOOOOOOOOOOOOOOO   XXXXXXXXXXX   OOOOOOOOOOOOOOOO",
"OOOOOOOOOOOOOOOOO   XXXXXXXXXXX   OOOOOOOOOOOOOOOO",
"OOOOOOOOOOOOOOOOO   XXXXXXXXXXX   OOOOOOOOOOOOOOOO",
"OOOOOOOOOOOOOOOOO   ...ooXXXXXX   OOOOOOOOOOOOOOOO",
"OOOOOOOOOOOOOOOOO   ...ooXXXXXX   OOOOOOOOOOOOOOOO",
"OOOOOOOOOOOOOOOOO   ...ooXXXXXX   OOOOOOOOOOOOOOOO",
"OOOOOOOOOOOOOOOOO   ...oooooXXX   OOOOOOOOOOOOOOOO",
"OOOOOOOOOOOOOOOOO   ...oooooXXX   OOOOOOOOOOOOOOOO",
"OOOOOOOOOOOOOOOOO   ...XXo..XXX   OOOOOOOOOOOOOOOO",
"OOOOOOOOOOOOOOOOO   ...XXo..XXX   OOOOOOOOOOOOOOOO",
"OOOOOOOOOOOOOOOOO   ...XXo..XXX   OOOOOOOOOOOOOOOO",
"OOOOOOOOOOOOOOOOO   ...oooooXXX   OOOOOOOOOOOOOOOO",
"OOOOOOOOOOOOOOOOO   .....oXXXXX   OOOOOOOOOOOOOOOO",
"OOOOOOOOOOOOOOOOO   .....oXXXXX   OOOOOOOOOOOOOOOO",
"OOOOOOOOOOOOOOOOO   .....oXXXXX   OOOOOOOOOOOOOOOO",
"OOOOOOOOOOOOOOOOO   ...oooooXXX   OOOOOOOOOOOOOOOO",
"OOOOOOOOOOOOOOOOO   ...oooooXXX   OOOOOOOOOOOOOOOO",
"OOOOOOOOOOOOOOOOO   ......ooXXX   OOOOOOOOOOOOOOOO",
"OOOOOOOOOOOOOOOOO   ......ooXXX   OOOOOOOOOOOOOOOO",
"OOOOOOOOOOOOOOOOO   ......ooXXX   OOOOOOOOOOOOOOOO",
"OOOOOOOOOOOOOOOOO   ...........   OOOOOOOOOOOOOOOO",
"OOOOOOOOOOOOOOOOO   ...........   OOOOOOOOOOOOOOOO",
"OOOOOOOOOOOOOOOOO   ...........   OOOOOOOOOOOOOOOO",
"OOOOOOOOOOOOOOOOOOOO           OOOOOOOOOOOOOOOOOOO",
"OOOOOOOOOOOOOOOOOOOO           OOOOOOOOOOOOOOOOOOO",
"OOOOOOOOOOOOOOOOOOOO           OOOOOOOOOOOOOOOOOOO",
"OOOOOOOOOOOOOOOOOOOOOOOOOOOOOOOOOOOOOOOOOOOOOOOOOO",
"OOOOOOOOOOOOOOOOOOOOOOOOOOOOOOOOOOOOOOOOOOOOOOOOOO",
"OOOOOOOOOOOOOOOOOOOOOOOOOOOOOOOOOOOOOOOOOOOOOOOOOO",
"OOOOOOOOOOOOOOOOOOOOOOOOOOOOOOOOOOOOOOOOOOOOOOOOOO",
"OOOOOOOOOOOOOOOOOOOOOOOOOOOOOOOOOOOOOOOOOOOOOOOOOO",
"OOOOOOOOOOOOOOOOOOOOOOOOOOOOOOOOOOOOOOOOOOOOOOOOOO",
"OOOOOOOOOOOOOOOOOOOOOOOOOOOOOOOOOOOOOOOOOOOOOOOOOO",
"OOOOOOOOOOOOOOOOOOOOOOOOOOOOOOOOOOOOOOOOOOOOOOOOOO",
"OOOOOOOOOOOOOOOOOOOOOOOOOOOOOOOOOOOOOOOOOOOOOOOOOO",
"OOOOOOOOOOOOOOOOOOOOOOOOOOOOOOOOOOOOOOOOOOOOOOOOOO"
};
