/* XPM */
static char *xpm_[] = {
/* columns rows colors chars-per-pixel */
"50 50 4 1 ",
"  c black",
". c #F2741B",
"X c #FFF21B",
"o c #DAF4E8",
/* pixels */
"oooooooooooooooooooooooooooooooooooooooooooooooooo",
"oooooooooooooooooooooooooooooooooooooooooooooooooo",
"oooooooooooooooooooooooooooooooooooooooooooooooooo",
"oooooooooooooooooooooooooooooooooooooooooooooooooo",
"oooooooooooooooooooooooooooooooooooooooooooooooooo",
"oooooooooooooooooooooooooooooooooooooooooooooooooo",
"oooooooooooooooooooooooooooooooooooooooooooooooooo",
"oooooooooooooooooooooooooooooooooooooooooooooooooo",
"oooooooooooooooooooooooooooooooooooooooooooooooooo",
"oooooooooooooooooooooooooooooooooooooooooooooooooo",
"oooooooooooooooooooooooooooooooooooooooooooooooooo",
"ooooooooooooooooooooooo     oooooooooooooooooooooo",
"ooooooooooooooooooooooo     oooooooooooooooooooooo",
"ooooooooooooooooooooooo     oooooooooooooooooooooo",
"oooooooooooooooooooo   XXXXX   ooooooooooooooooooo",
"oooooooooooooooooooo   XXXXX   ooooooooooooooooooo",
"oooooooooooooooooooo   XXXXX   ooooooooooooooooooo",
"oooooooooooooooooooo   ..XXX   ooooooooooooooooooo",
"oooooooooooooooooooo   ..XXX   ooooooooooooooooooo",
"oooooooooooooooooooo   ..XXX   ooooooooooooooooooo",
"oooooooooooooooooooo   ..XXX   ooooooooooooooooooo",
"oooooooooooooooooooo   ..XXX   ooooooooooooooooooo",
"oooooooooooooooooooo   ..XXX   ooooooooooooooooooo",
"oooooooooooooooooooo   ..XXX   ooooooooooooooooooo",
"oooooooooooooooooooo   ..XXX   ooooooooooooooooooo",
"oooooooooooooooooooo   ..XXX   ooooooooooooooooooo",
"oooooooooooooooooooo   ...XX   ooooooooooooooooooo",
"oooooooooooooooooooo   ...XX   ooooooooooooooooooo",
"oooooooooooooooooooo   ...XX   ooooooooooooooooooo",
"oooooooooooooooooooo   ...XX   ooooooooooooooooooo",
"oooooooooooooooooooo   ...XX   ooooooooooooooooooo",
"oooooooooooooooooooo   ...XX   ooooooooooooooooooo",
"oooooooooooooooooooo   ...XX   ooooooooooooooooooo",
"oooooooooooooooooooo   ...XX   ooooooooooooooooooo",
"oooooooooooooooooooo   .....   ooooooooooooooooooo",
"oooooooooooooooooooo   .....   ooooooooooooooooooo",
"oooooooooooooooooooo   .....   ooooooooooooooooooo",
"ooooooooooooooooooooooo     oooooooooooooooooooooo",
"ooooooooooooooooooooooo     oooooooooooooooooooooo",
"ooooooooooooooooooooooo     oooooooooooooooooooooo",
"oooooooooooooooooooooooooooooooooooooooooooooooooo",
"oooooooooooooooooooooooooooooooooooooooooooooooooo",
"oooooooooooooooooooooooooooooooooooooooooooooooooo",
"oooooooooooooooooooooooooooooooooooooooooooooooooo",
"oooooooooooooooooooooooooooooooooooooooooooooooooo",
"oooooooooooooooooooooooooooooooooooooooooooooooooo",
"oooooooooooooooooooooooooooooooooooooooooooooooooo",
"oooooooooooooooooooooooooooooooooooooooooooooooooo",
"oooooooooooooooooooooooooooooooooooooooooooooooooo",
"oooooooooooooooooooooooooooooooooooooooooooooooooo"
};
