/* XPM */
static char *xpm_[] = {
/* columns rows colors chars-per-pixel */
"50 50 5 1 ",
"  c black",
". c #F2741B",
"X c #FFF21B",
"o c #F1C549",
"O c #DAF4E8",
/* pixels */
"OOOOOOOOOOOOOOOOOOOOOOOOOOOOOOOOOOOOOOOOOOOOOOOOOO",
"OOOOOOOOOOOOOOOOOOOOOOOOOOOOOOOOOOOOOOOOOOOOOOOOOO",
"OOOOOOOOOOOOOOOOOOOOOOOOOOOOOOOOOOOOOOOOOOOOOOOOOO",
"OOOOOOOOOOOOOOOOOOOOOOOOOOOOOOOOOOOOOOOOOOOOOOOOOO",
"OOOOOOOOOOOOOOOOOOOOOOOOOOOOOOOOOOOOOOOOOOOOOOOOOO",
"OOOOOOOOOOOOOOOOOOOOOOOOOOOOOOOOOOOOOOOOOOOOOOOOOO",
"OOOOOOOOOOOOOOOOOOOOOOOOOOOOOOOOOOOOOOOOOOOOOOOOOO",
"OOOOOOOOOOOOOOOOOOOOOOOOOOOOOOOOOOOOOOOOOOOOOOOOOO",
"OOOOOOOOOOOOOOOOOOOOOOOOOOOOOOOOOOOOOOOOOOOOOOOOOO",
"OOOOOOOOOOOOOOOOOOOOOOOOOOOOOOOOOOOOOOOOOOOOOOOOOO",
"OOOOOOOOOOOOOOOOOOOOOOOOOOOOOOOOOOOOOOOOOOOOOOOOOO",
"OOOOOOOOOOOOOOOOOOOO           OOOOOOOOOOOOOOOOOOO",
"OOOOOOOOOOOOOOOOOOOO           OOOOOOOOOOOOOOOOOOO",
"OOOOOOOOOOOOOOOOOOOO           OOOOOOOOOOOOOOOOOOO",
"OOOOOOOOOOOOOOOOO   XXXXXXXXXXX   OOOOOOOOOOOOOOOO",
"OOOOOOOOOOOOOOOOO   XXXXXXXXXXX   OOOOOOOOOOOOOOOO",
"OOOOOOOOOOOOOOOOO   XXXXXXXXXXX   OOOOOOOOOOOOOOOO",
"OOOOOOOOOOOOOO   ...ooooooooXXXXXX   OOOOOOOOOOOOO",
"OOOOOOOOOOOOOO   ...ooooooooXXXXXX   OOOOOOOOOOOOO",
"OOOOOOOOOOOOOO   ...ooooooooXXXXXX   OOOOOOOOOOOOO",
"OOOOOOOOOOOOOO   ...oooooooooooXXX   OOOOOOOOOOOOO",
"OOOOOOOOOOOOOO   ...oooooooooooXXX   OOOOOOOOOOOOO",
"OOOOOOOOOOOOOO   ...oooXXo..oooXXX   OOOOOOOOOOOOO",
"OOOOOOOOOOOOOO   ...oooXXo..oooXXX   OOOOOOOOOOOOO",
"OOOOOOOOOOOOOO   ...oooXXo..oooXXX   OOOOOOOOOOOOO",
"OOOOOOOOOOOOOO   ...oooooooooooXXX   OOOOOOOOOOOOO",
"OOOOOOOOOOOOOO   ...ooo..oXXoooXXX   OOOOOOOOOOOOO",
"OOOOOOOOOOOOOO   ...ooo..oXXoooXXX   OOOOOOOOOOOOO",
"OOOOOOOOOOOOOO   ...ooo..oXXoooXXX   OOOOOOOOOOOOO",
"OOOOOOOOOOOOOO   ...oooooooooooXXX   OOOOOOOOOOOOO",
"OOOOOOOOOOOOOO   ...oooooooooooXXX   OOOOOOOOOOOOO",
"OOOOOOOOOOOOOO   ......ooooooooXXX   OOOOOOOOOOOOO",
"OOOOOOOOOOOOOO   ......ooooooooXXX   OOOOOOOOOOOOO",
"OOOOOOOOOOOOOO   ......ooooooooXXX   OOOOOOOOOOOOO",
"OOOOOOOOOOOOOOOOO   ...........   OOOOOOOOOOOOOOOO",
"OOOOOOOOOOOOOOOOO   ...........   OOOOOOOOOOOOOOOO",
"OOOOOOOOOOOOOOOOO   ...........   OOOOOOOOOOOOOOOO",
"OOOOOOOOOOOOOOOOOOOO           OOOOOOOOOOOOOOOOOOO",
"OOOOOOOOOOOOOOOOOOOO           OOOOOOOOOOOOOOOOOOO",
"OOOOOOOOOOOOOOOOOOOO           OOOOOOOOOOOOOOOOOOO",
"OOOOOOOOOOOOOOOOOOOOOOOOOOOOOOOOOOOOOOOOOOOOOOOOOO",
"OOOOOOOOOOOOOOOOOOOOOOOOOOOOOOOOOOOOOOOOOOOOOOOOOO",
"OOOOOOOOOOOOOOOOOOOOOOOOOOOOOOOOOOOOOOOOOOOOOOOOOO",
"OOOOOOOOOOOOOOOOOOOOOOOOOOOOOOOOOOOOOOOOOOOOOOOOOO",
"OOOOOOOOOOOOOOOOOOOOOOOOOOOOOOOOOOOOOOOOOOOOOOOOOO",
"OOOOOOOOOOOOOOOOOOOOOOOOOOOOOOOOOOOOOOOOOOOOOOOOOO",
"OOOOOOOOOOOOOOOOOOOOOOOOOOOOOOOOOOOOOOOOOOOOOOOOOO",
"OOOOOOOOOOOOOOOOOOOOOOOOOOOOOOOOOOOOOOOOOOOOOOOOOO",
"OOOOOOOOOOOOOOOOOOOOOOOOOOOOOOOOOOOOOOOOOOOOOOOOOO",
"OOOOOOOOOOOOOOOOOOOOOOOOOOOOOOOOOOOOOOOOOOOOOOOOOO"
};
