/* XPM */
static char *xpm_[] = {
/* columns rows colors chars-per-pixel */
"50 50 5 1 ",
"  c black",
". c #F2741B",
"X c #FFF21B",
"o c #F1C549",
"O c #DAF4E8",
/* pixels */
"OOOOOOOOOOOOOOOOOOOOOOOOOOOOOOOOOOOOOOOOOOOOOOOOOO",
"OOOOOOOOOOOOOOOOOOOOOOOOOOOOOOOOOOOOOOOOOOOOOOOOOO",
"OOOOOOOOOOOOOOOOOOOOOOOOOOOOOOOOOOOOOOOOOOOOOOOOOO",
"OOOOOOOOOOOOOOOOOOOOOOOOOOOOOOOOOOOOOOOOOOOOOOOOOO",
"OOOOOOOOOOOOOOOOOOOOOOOOOOOOOOOOOOOOOOOOOOOOOOOOOO",
"OOOOOOOOOOOOOOOOOOOOOOOOOOOOOOOOOOOOOOOOOOOOOOOOOO",
"OOOOOOOOOOOOOOOOOOOOOOOOOOOOOOOOOOOOOOOOOOOOOOOOOO",
"OOOOOOOOOOOOOOOOOOOOOOOOOOOOOOOOOOOOOOOOOOOOOOOOOO",
"OOOOOOOOOOOOOOOOOOOOOOOOOOOOOOOOOOOOOOOOOOOOOOOOOO",
"OOOOOOOOOOOOOOOOOOOOOOOOOOOOOOOOOOOOOOOOOOOOOOOOOO",
"OOOOOOOOOOOOOOOOOOOOOOOOOOOOOOOOOOOOOOOOOOOOOOOOOO",
"OOOOOOOOOOOOOOOO                 OOOOOOOOOOOOOOOOO",
"OOOOOOOOOOOOOOOO                 OOOOOOOOOOOOOOOOO",
"OOOOOOOOOOOOOOOO                 OOOOOOOOOOOOOOOOO",
"OOOOOOOOOOOOO   XXXXXXXXXXXXXXXXX   OOOOOOOOOOOOOO",
"OOOOOOOOOOOOO   XXXXXXXXXXXXXXXXX   OOOOOOOOOOOOOO",
"OOOOOOOOOOOOO   XXXXXXXXXXXXXXXXX   OOOOOOOOOOOOOO",
"OOOOOOOOOO   ...ooooooooooooooXXXXXX   OOOOOOOOOOO",
"OOOOOOOOOO   ...ooooooooooooooXXXXXX   OOOOOOOOOOO",
"OOOOOOOOOO   ...ooooooooooooooXXXXXX   OOOOOOOOOOO",
"OOOOOOOOOO   ...oooooooooooooooooXXX   OOOOOOOOOOO",
"OOOOOOOOOO   ...oooooooooooooooooXXX   OOOOOOOOOOO",
"OOOOOOOOOO   ...ooooo...oXXXoooooXXX   OOOOOOOOOOO",
"OOOOOOOOOO   ...ooooo...oXXXoooooXXX   OOOOOOOOOOO",
"OOOOOOOOOO   ...ooooo...oXXXoooooXXX   OOOOOOOOOOO",
"OOOOOOOOOO   ...oooooooooooooooooXXX   OOOOOOOOOOO",
"OOOOOOOOOO   ...oooooXXXo...oooooXXX   OOOOOOOOOOO",
"OOOOOOOOOO   ...oooooXXXo...oooooXXX   OOOOOOOOOOO",
"OOOOOOOOOO   ...oooooXXXo...oooooXXX   OOOOOOOOOOO",
"OOOOOOOOOO   ...oooooooooooooooooXXX   OOOOOOOOOOO",
"OOOOOOOOOO   ...oooooooooooooooooXXX   OOOOOOOOOOO",
"OOOOOOOOOO   ......ooooooooooooooXXX   OOOOOOOOOOO",
"OOOOOOOOOO   ......ooooooooooooooXXX   OOOOOOOOOOO",
"OOOOOOOOOO   ......ooooooooooooooXXX   OOOOOOOOOOO",
"OOOOOOOOOOOOO   .................   OOOOOOOOOOOOOO",
"OOOOOOOOOOOOO   .................   OOOOOOOOOOOOOO",
"OOOOOOOOOOOOO   .................   OOOOOOOOOOOOOO",
"OOOOOOOOOOOOOOOO                 OOOOOOOOOOOOOOOOO",
"OOOOOOOOOOOOOOOO                 OOOOOOOOOOOOOOOOO",
"OOOOOOOOOOOOOOOO                 OOOOOOOOOOOOOOOOO",
"OOOOOOOOOOOOOOOOOOOOOOOOOOOOOOOOOOOOOOOOOOOOOOOOOO",
"OOOOOOOOOOOOOOOOOOOOOOOOOOOOOOOOOOOOOOOOOOOOOOOOOO",
"OOOOOOOOOOOOOOOOOOOOOOOOOOOOOOOOOOOOOOOOOOOOOOOOOO",
"OOOOOOOOOOOOOOOOOOOOOOOOOOOOOOOOOOOOOOOOOOOOOOOOOO",
"OOOOOOOOOOOOOOOOOOOOOOOOOOOOOOOOOOOOOOOOOOOOOOOOOO",
"OOOOOOOOOOOOOOOOOOOOOOOOOOOOOOOOOOOOOOOOOOOOOOOOOO",
"OOOOOOOOOOOOOOOOOOOOOOOOOOOOOOOOOOOOOOOOOOOOOOOOOO",
"OOOOOOOOOOOOOOOOOOOOOOOOOOOOOOOOOOOOOOOOOOOOOOOOOO",
"OOOOOOOOOOOOOOOOOOOOOOOOOOOOOOOOOOOOOOOOOOOOOOOOOO",
"OOOOOOOOOOOOOOOOOOOOOOOOOOOOOOOOOOOOOOOOOOOOOOOOOO"
};
