/* XPM */
static char *_6af95e7d4cb47e682f18c14fec04bf6VuiphwWa6nQgh7SX[] = {
/* columns rows colors chars-per-pixel */
"50 50 6 1 ",
"  c #DAF4E8",
". c black",
"X c None",
"o c #FDF156",
"O c #E07A37",
"+ c #F1C549",
/* pixels */
"                                                  ",
"                                                  ",
"                                                  ",
"                                                  ",
"                                                  ",
"                                                  ",
"                                                  ",
"                                                  ",
"                                                  ",
"                                                  ",
"                                                  ",
"                .................                 ",
"                .................                 ",
"                .................                 ",
"             ...XXXXXXXXXXXXXXXXX...              ",
"             ...ooooooooooooooooo...              ",
"             ...ooooooooooooooooo...              ",
"          ...OOO++++++++++++++oooooo...           ",
"          ...OOO++++++++++++++oooooo...           ",
"          ...OOO++++++++++++++oooooo...           ",
"          ...OOO+++++++++++++++++ooo...           ",
"          ...OOO+++++++++++++++++ooo...           ",
"          ...OOO+++++OOO+ooo+++++ooo...           ",
"          ...OOO+++++OOO+ooo+++++ooo...           ",
"          ...OOO+++++OOO+ooo+++++ooo...           ",
"          ...OOO+++++++++++++++++ooo...           ",
"          ...OOO+++++ooo+OOO+++++ooo...           ",
"          ...OOO+++++ooo+OOO+++++ooo...           ",
"          ...OOO+++++ooo+OOO+++++ooo...           ",
"          ...OOO+++++++++++++++++ooo...           ",
"          ...OOO+++++++++++++++++ooo...           ",
"          ...OOOOOO++++++++++++++ooo...           ",
"          ...OOOOOO++++++++++++++ooo...           ",
"          ...OOOOOO++++++++++++++ooo...           ",
"             ...OOOOOOOOOOOOOOOOO...              ",
"             ...OOOOOOOOOOOOOOOOO...              ",
"             ...OOOOOOOOOOOOOOOOO...              ",
"                .................                 ",
"                .................                 ",
"                .................                 ",
"                                                  ",
"                                                  ",
"                                                  ",
"                                                  ",
"                                                  ",
"                                                  ",
"                                                  ",
"                                                  ",
"                                                  ",
"                                                  "
};
