/* XPM */
static char *xpm_[] = {
/* columns rows colors chars-per-pixel */
"50 50 5 1 ",
"  c black",
". c #F2741B",
"X c #FFF21B",
"o c #F1C549",
"O c #DAF4E8",
/* pixels */
"OOOOOOOOOOOOOOOOOOOOOOOOOOOOOOOOOOOOOOOOOOOOOOOOOO",
"OOOOOOOOOOOOOOOOOOOOOOOOOOOOOOOOOOOOOOOOOOOOOOOOOO",
"OOOOOOOOOOOOOOOOOOOOOOOOOOOOOOOOOOOOOOOOOOOOOOOOOO",
"OOOOOOOOOOOOOOOOOOOOOOOOOOOOOOOOOOOOOOOOOOOOOOOOOO",
"OOOOOOOOOOOOOOOOOOOOOOOOOOOOOOOOOOOOOOOOOOOOOOOOOO",
"OOOOOOOOOOOOOOOOOOOOOOOOOOOOOOOOOOOOOOOOOOOOOOOOOO",
"OOOOOOOOOOOOOOOOOOOOOOOOOOOOOOOOOOOOOOOOOOOOOOOOOO",
"OOOOOOOOOOOOOOOOOOOOOOOOOOOOOOOOOOOOOOOOOOOOOOOOOO",
"OOOOOOOOOOOOOOOOOOOOOOOOOOOOOOOOOOOOOOOOOOOOOOOOOO",
"OOOOOOOOOOOOOOOOOOOOOOOOOOOOOOOOOOOOOOOOOOOOOOOOOO",
"OOOOOOOOOOOOOOOOOOOOOOOOOOOOOOOOOOOOOOOOOOOOOOOOOO",
"OOOOOOOOOOOOOOOOOOO           OOOOOOOOOOOOOOOOOOOO",
"OOOOOOOOOOOOOOOOOOO           OOOOOOOOOOOOOOOOOOOO",
"OOOOOOOOOOOOOOOOOOO           OOOOOOOOOOOOOOOOOOOO",
"OOOOOOOOOOOOOOOO   XXXXXXXXXXX   OOOOOOOOOOOOOOOOO",
"OOOOOOOOOOOOOOOO   XXXXXXXXXXX   OOOOOOOOOOOOOOOOO",
"OOOOOOOOOOOOOOOO   XXXXXXXXXXX   OOOOOOOOOOOOOOOOO",
"OOOOOOOOOOOOO   XXXXXXoooooooo...   OOOOOOOOOOOOOO",
"OOOOOOOOOOOOO   XXXXXXoooooooo...   OOOOOOOOOOOOOO",
"OOOOOOOOOOOOO   XXXXXXoooooooo...   OOOOOOOOOOOOOO",
"OOOOOOOOOOOOO   XXXooooooooooo...   OOOOOOOOOOOOOO",
"OOOOOOOOOOOOO   XXXooooooooooo...   OOOOOOOOOOOOOO",
"OOOOOOOOOOOOO   XXXooo..oXXooo...   OOOOOOOOOOOOOO",
"OOOOOOOOOOOOO   XXXooo..oXXooo...   OOOOOOOOOOOOOO",
"OOOOOOOOOOOOO   XXXooo..oXXooo...   OOOOOOOOOOOOOO",
"OOOOOOOOOOOOO   XXXooooooooooo...   OOOOOOOOOOOOOO",
"OOOOOOOOOOOOO   XXXoooXXo..ooo...   OOOOOOOOOOOOOO",
"OOOOOOOOOOOOO   XXXoooXXo..ooo...   OOOOOOOOOOOOOO",
"OOOOOOOOOOOOO   XXXoooXXo..ooo...   OOOOOOOOOOOOOO",
"OOOOOOOOOOOOO   XXXooooooooooo...   OOOOOOOOOOOOOO",
"OOOOOOOOOOOOO   XXXooooooooooo...   OOOOOOOOOOOOOO",
"OOOOOOOOOOOOO   XXXoooooooo......   OOOOOOOOOOOOOO",
"OOOOOOOOOOOOO   XXXoooooooo......   OOOOOOOOOOOOOO",
"OOOOOOOOOOOOO   XXXoooooooo......   OOOOOOOOOOOOOO",
"OOOOOOOOOOOOOOOO   ...........   OOOOOOOOOOOOOOOOO",
"OOOOOOOOOOOOOOOO   ...........   OOOOOOOOOOOOOOOOO",
"OOOOOOOOOOOOOOOO   ...........   OOOOOOOOOOOOOOOOO",
"OOOOOOOOOOOOOOOOOOO           OOOOOOOOOOOOOOOOOOOO",
"OOOOOOOOOOOOOOOOOOO           OOOOOOOOOOOOOOOOOOOO",
"OOOOOOOOOOOOOOOOOOO           OOOOOOOOOOOOOOOOOOOO",
"OOOOOOOOOOOOOOOOOOOOOOOOOOOOOOOOOOOOOOOOOOOOOOOOOO",
"OOOOOOOOOOOOOOOOOOOOOOOOOOOOOOOOOOOOOOOOOOOOOOOOOO",
"OOOOOOOOOOOOOOOOOOOOOOOOOOOOOOOOOOOOOOOOOOOOOOOOOO",
"OOOOOOOOOOOOOOOOOOOOOOOOOOOOOOOOOOOOOOOOOOOOOOOOOO",
"OOOOOOOOOOOOOOOOOOOOOOOOOOOOOOOOOOOOOOOOOOOOOOOOOO",
"OOOOOOOOOOOOOOOOOOOOOOOOOOOOOOOOOOOOOOOOOOOOOOOOOO",
"OOOOOOOOOOOOOOOOOOOOOOOOOOOOOOOOOOOOOOOOOOOOOOOOOO",
"OOOOOOOOOOOOOOOOOOOOOOOOOOOOOOOOOOOOOOOOOOOOOOOOOO",
"OOOOOOOOOOOOOOOOOOOOOOOOOOOOOOOOOOOOOOOOOOOOOOOOOO",
"OOOOOOOOOOOOOOOOOOOOOOOOOOOOOOOOOOOOOOOOOOOOOOOOOO"
};
