/* XPM */
static char *xpm_[] = {
/* columns rows colors chars-per-pixel */
"50 50 4 1 ",
"  c black",
". c #F2741B",
"X c #FFF21B",
"o c #DAF4E8",
/* pixels */
"oooooooooooooooooooooooooooooooooooooooooooooooooo",
"oooooooooooooooooooooooooooooooooooooooooooooooooo",
"oooooooooooooooooooooooooooooooooooooooooooooooooo",
"oooooooooooooooooooooooooooooooooooooooooooooooooo",
"oooooooooooooooooooooooooooooooooooooooooooooooooo",
"oooooooooooooooooooooooooooooooooooooooooooooooooo",
"oooooooooooooooooooooooooooooooooooooooooooooooooo",
"oooooooooooooooooooooooooooooooooooooooooooooooooo",
"oooooooooooooooooooooooooooooooooooooooooooooooooo",
"oooooooooooooooooooooooooooooooooooooooooooooooooo",
"oooooooooooooooooooooooooooooooooooooooooooooooooo",
"oooooooooooooooooooooo     ooooooooooooooooooooooo",
"oooooooooooooooooooooo     ooooooooooooooooooooooo",
"oooooooooooooooooooooo     ooooooooooooooooooooooo",
"ooooooooooooooooooo   XXXXX   oooooooooooooooooooo",
"ooooooooooooooooooo   XXXXX   oooooooooooooooooooo",
"ooooooooooooooooooo   XXXXX   oooooooooooooooooooo",
"ooooooooooooooooooo   XXX..   oooooooooooooooooooo",
"ooooooooooooooooooo   XXX..   oooooooooooooooooooo",
"ooooooooooooooooooo   XXX..   oooooooooooooooooooo",
"ooooooooooooooooooo   XXX..   oooooooooooooooooooo",
"ooooooooooooooooooo   XXX..   oooooooooooooooooooo",
"ooooooooooooooooooo   XXX..   oooooooooooooooooooo",
"ooooooooooooooooooo   XXX..   oooooooooooooooooooo",
"ooooooooooooooooooo   XXX..   oooooooooooooooooooo",
"ooooooooooooooooooo   XXX..   oooooooooooooooooooo",
"ooooooooooooooooooo   XX...   oooooooooooooooooooo",
"ooooooooooooooooooo   XX...   oooooooooooooooooooo",
"ooooooooooooooooooo   XX...   oooooooooooooooooooo",
"ooooooooooooooooooo   XX...   oooooooooooooooooooo",
"ooooooooooooooooooo   XX...   oooooooooooooooooooo",
"ooooooooooooooooooo   XX...   oooooooooooooooooooo",
"ooooooooooooooooooo   XX...   oooooooooooooooooooo",
"ooooooooooooooooooo   XX...   oooooooooooooooooooo",
"ooooooooooooooooooo   .....   oooooooooooooooooooo",
"ooooooooooooooooooo   .....   oooooooooooooooooooo",
"ooooooooooooooooooo   .....   oooooooooooooooooooo",
"oooooooooooooooooooooo     ooooooooooooooooooooooo",
"oooooooooooooooooooooo     ooooooooooooooooooooooo",
"oooooooooooooooooooooo     ooooooooooooooooooooooo",
"oooooooooooooooooooooooooooooooooooooooooooooooooo",
"oooooooooooooooooooooooooooooooooooooooooooooooooo",
"oooooooooooooooooooooooooooooooooooooooooooooooooo",
"oooooooooooooooooooooooooooooooooooooooooooooooooo",
"oooooooooooooooooooooooooooooooooooooooooooooooooo",
"oooooooooooooooooooooooooooooooooooooooooooooooooo",
"oooooooooooooooooooooooooooooooooooooooooooooooooo",
"oooooooooooooooooooooooooooooooooooooooooooooooooo",
"oooooooooooooooooooooooooooooooooooooooooooooooooo",
"oooooooooooooooooooooooooooooooooooooooooooooooooo"
};
