/* XPM */
static char *xpm_[] = {
/* columns rows colors chars-per-pixel */
"50 50 5 1 ",
"  c black",
". c #F2741B",
"X c #FFF21B",
"o c #F1C549",
"O c #DAF4E8",
/* pixels */
"OOOOOOOOOOOOOOOOOOOOOOOOOOOOOOOOOOOOOOOOOOOOOOOOOO",
"OOOOOOOOOOOOOOOOOOOOOOOOOOOOOOOOOOOOOOOOOOOOOOOOOO",
"OOOOOOOOOOOOOOOOOOOOOOOOOOOOOOOOOOOOOOOOOOOOOOOOOO",
"OOOOOOOOOOOOOOOOOOOOOOOOOOOOOOOOOOOOOOOOOOOOOOOOOO",
"OOOOOOOOOOOOOOOOOOOOOOOOOOOOOOOOOOOOOOOOOOOOOOOOOO",
"OOOOOOOOOOOOOOOOOOOOOOOOOOOOOOOOOOOOOOOOOOOOOOOOOO",
"OOOOOOOOOOOOOOOOOOOOOOOOOOOOOOOOOOOOOOOOOOOOOOOOOO",
"OOOOOOOOOOOOOOOOOOOOOOOOOOOOOOOOOOOOOOOOOOOOOOOOOO",
"OOOOOOOOOOOOOOOOOOOOOOOOOOOOOOOOOOOOOOOOOOOOOOOOOO",
"OOOOOOOOOOOOOOOOOOOOOOOOOOOOOOOOOOOOOOOOOOOOOOOOOO",
"OOOOOOOOOOOOOOOOOOOOOOOOOOOOOOOOOOOOOOOOOOOOOOOOOO",
"OOOOOOOOOOOOOOOOOOO           OOOOOOOOOOOOOOOOOOOO",
"OOOOOOOOOOOOOOOOOOO           OOOOOOOOOOOOOOOOOOOO",
"OOOOOOOOOOOOOOOOOOO           OOOOOOOOOOOOOOOOOOOO",
"OOOOOOOOOOOOOOOO   XXXXXXXXXXX   OOOOOOOOOOOOOOOOO",
"OOOOOOOOOOOOOOOO   XXXXXXXXXXX   OOOOOOOOOOOOOOOOO",
"OOOOOOOOOOOOOOOO   XXXXXXXXXXX   OOOOOOOOOOOOOOOOO",
"OOOOOOOOOOOOOOOO   XXXXXXoo...   OOOOOOOOOOOOOOOOO",
"OOOOOOOOOOOOOOOO   XXXXXXoo...   OOOOOOOOOOOOOOOOO",
"OOOOOOOOOOOOOOOO   XXXXXXoo...   OOOOOOOOOOOOOOOOO",
"OOOOOOOOOOOOOOOO   XXXooooo...   OOOOOOOOOOOOOOOOO",
"OOOOOOOOOOOOOOOO   XXXooooo...   OOOOOOOOOOOOOOOOO",
"OOOOOOOOOOOOOOOO   XXX..oXX...   OOOOOOOOOOOOOOOOO",
"OOOOOOOOOOOOOOOO   XXX..oXX...   OOOOOOOOOOOOOOOOO",
"OOOOOOOOOOOOOOOO   XXX..oXX...   OOOOOOOOOOOOOOOOO",
"OOOOOOOOOOOOOOOO   XXXooooo...   OOOOOOOOOOOOOOOOO",
"OOOOOOOOOOOOOOOO   XXXXXo.....   OOOOOOOOOOOOOOOOO",
"OOOOOOOOOOOOOOOO   XXXXXo.....   OOOOOOOOOOOOOOOOO",
"OOOOOOOOOOOOOOOO   XXXXXo.....   OOOOOOOOOOOOOOOOO",
"OOOOOOOOOOOOOOOO   XXXooooo...   OOOOOOOOOOOOOOOOO",
"OOOOOOOOOOOOOOOO   XXXooooo...   OOOOOOOOOOOOOOOOO",
"OOOOOOOOOOOOOOOO   XXXoo......   OOOOOOOOOOOOOOOOO",
"OOOOOOOOOOOOOOOO   XXXoo......   OOOOOOOOOOOOOOOOO",
"OOOOOOOOOOOOOOOO   XXXoo......   OOOOOOOOOOOOOOOOO",
"OOOOOOOOOOOOOOOO   ...........   OOOOOOOOOOOOOOOOO",
"OOOOOOOOOOOOOOOO   ...........   OOOOOOOOOOOOOOOOO",
"OOOOOOOOOOOOOOOO   ...........   OOOOOOOOOOOOOOOOO",
"OOOOOOOOOOOOOOOOOOO           OOOOOOOOOOOOOOOOOOOO",
"OOOOOOOOOOOOOOOOOOO           OOOOOOOOOOOOOOOOOOOO",
"OOOOOOOOOOOOOOOOOOO           OOOOOOOOOOOOOOOOOOOO",
"OOOOOOOOOOOOOOOOOOOOOOOOOOOOOOOOOOOOOOOOOOOOOOOOOO",
"OOOOOOOOOOOOOOOOOOOOOOOOOOOOOOOOOOOOOOOOOOOOOOOOOO",
"OOOOOOOOOOOOOOOOOOOOOOOOOOOOOOOOOOOOOOOOOOOOOOOOOO",
"OOOOOOOOOOOOOOOOOOOOOOOOOOOOOOOOOOOOOOOOOOOOOOOOOO",
"OOOOOOOOOOOOOOOOOOOOOOOOOOOOOOOOOOOOOOOOOOOOOOOOOO",
"OOOOOOOOOOOOOOOOOOOOOOOOOOOOOOOOOOOOOOOOOOOOOOOOOO",
"OOOOOOOOOOOOOOOOOOOOOOOOOOOOOOOOOOOOOOOOOOOOOOOOOO",
"OOOOOOOOOOOOOOOOOOOOOOOOOOOOOOOOOOOOOOOOOOOOOOOOOO",
"OOOOOOOOOOOOOOOOOOOOOOOOOOOOOOOOOOOOOOOOOOOOOOOOOO",
"OOOOOOOOOOOOOOOOOOOOOOOOOOOOOOOOOOOOOOOOOOOOOOOOOO"
};
