/* XPM */
static char *e0d1356edf864ee9a4858c390e66aa6fcgNMqyL3dyQtc2HB[] = {
/* columns rows colors chars-per-pixel */
"50 50 14 1 ",
"  c black",
". c gray8",
"X c #422012",
"o c #5E2B16",
"O c #70341A",
"+ c #824F2E",
"@ c #A16740",
"# c #998951",
"$ c #E6955C",
"% c #C7B779",
"& c #B4B4B4",
"* c #F5E49C",
"= c gray89",
"- c white",
/* pixels */
"OOOOOOOOOOOOOOOOOOOOOOOOOOOOOOOOOOOOOOOOOOOOOOOOOO",
"OOOOOOOOOOOOOOOOOOOOOOOOOOOOOOOOOOOOOOOOOOOOOOOOOO",
"OO****OOOO$$$$$$$$$$$$$$*$$$$$$$$$$$$$$*OOOO****OO",
"OO$$**OOOO$$$*$$$****$$$*$$**$$$$*$$$$$*OOOO$$**OO",
"OO$$**OOOO$$**$$*****$$$*$***$$$$**$$$$*OOOO$$**OO",
"OO$$$*OOOO******************************OOOO$$**OO",
"OO$***OOOOOOOOOOOOOOOOOOOOOOOOOOOOOOOOOOOOOO$$$*OO",
"OO$***OOOOOOOOOOOOOOOOOOOOOOOOOOOOOOOOOOOOOO$***OO",
"OO$$**OOOOOOOOOOOOOOOOOOOOOOOOOOOOOOOOOOOOOO$$**OO",
"OO$$$*OOOOOOOOOOOOOOOOOOOOOOOOOOOOOOOOOOOOOO$$$*OO",
"OO$$$*OOOO****OO***ooo%%%XX###          OOOO$$$*OO",
"OO$***OOOO$***OO$**ooo%%%XX+##          OOOO$$$*OO",
"OO$$**OOOO$*$*OO$**ooo@%%XX++#          OOOO$$**OO",
"OO$$$*OOO ..$*OO$**ooo@%%XX++#          OOOO$$**OO",
"OO$$$*OO &&& *OO$**ooo@%%XX++#          OOOO$$**OO",
"OO$$**OO &-&.                           OOOO$$**OO",
"OO$$**OO ---.----------=======          OOOO$***OO",
"OO$$**OO &-&.&&&&&&&&&&&&&&&&&          OOOO$***OO",
"OO$***OO &&&.                           OOOO$***OO",
"OO$***OO &&& *OO$**ooo@%%XX++#          OOOO$***OO",
"OO$***OOO ..**OO$$*ooo@%%XX++#          OOOO$$**OO",
"OO$***OOOO$$**OO$$*ooo@@%XX++#          OOOO$$$*OO",
"OO$$$*OOOO$$$*OO$$*ooo@@%XX++#          OOOO$$$*OO",
"OO$$$*OOOO$$$*OO$$*ooo@@%XX++#          OOOO$$$*OO",
"OO$***OOOO$$$*OO$$*ooo@@%XX++#          OOOO$$$*OO",
"OO$***OOOO$$$*OO$$*ooo@@%XX++#          OOOO$$$*OO",
"OO$***OOOO$$$*OO$$*ooo@     +#          OOOO$$**OO",
"OO$$**OOOO$$$*OO$$*ooo  &&&  #          OOOO$$**OO",
"OO$$**OOOO$$$*OO$$*ooo &---&            OOOO$$$*OO",
"OO$$$*OOOO$$$*OO$$*oo &--&--&           OOOO$$$*OO",
"OO$$$*OOOO$$$$OO$$*oo &&&&&&&           OOOO$$$*OO",
"OO$$$*OOOO$$$$OO$$*oo &&---&&           OOOO$$$*OO",
"OO$$$*OOOO$$$$OO$$$ooo &&-&& #          OOOO$$$*OO",
"OO$$$*OOOO$$$$OO$$$ooo  &&& +#          OOOO$$$*OO",
"OO$$$*OOOO$$$$OO$$$ooo@@   ++#          OOOO$$$*OO",
"OO$$$*OOOO$$$$OO$$$ooo@@@XX+++          OOOO$$$*OO",
"OO$$$*OOOO$$$$OO$$$ooo@@@XX+++          OOOO$$$*OO",
"OO$$$*OOOO$$$$OO$$$ooo@@@XX+++          OOOO$$$*OO",
"OO$$$*OOO ..$$OO$$$ooo@@@XX+++          OOOO$$$*OO",
"OO$$$*OO &&& $OO$$$ooo@@@XX+++          OOOO$$$*OO",
"OO$$$*OO &-&.                           OOOO$$$*OO",
"OO$$$*OO ---.----------=======          OOOO$$$*OO",
"OO$$$*OO &-&.&&&&&&&&&&&&&&&&&          OOOO$$$*OO",
"OO$$$*OO &&&.                           OOOO$$$*OO",
"OO$$$*OO &&& $OO$$$ooo@@@XX+++          OOOO$$$*OO",
"OO$$$*OOO ..$$OO$$$ooo@@@XX+++          OOOO$$$*OO",
"OO$$$*OOOO$$$$OO$$$ooo@@@XX+++          OOOO$$$*OO",
"OO$$$*OOOO$$$$OO$$$ooo@@@XX+++          OOOO$$$*OO",
"OOOOOOOOOOOOOOOOOOOOOOOOOOOOOOOOOOOOOOOOOOOOOOOOOO",
"OOOOOOOOOOOOOOOOOOOOOOOOOOOOOOOOOOOOOOOOOOOOOOOOOO"
};
