/* XPM */
static char *_60a2b7fc26b423af18dd2abea4c4ddbKAHxWgsjIRUEtLsT[] = {
/* columns rows colors chars-per-pixel */
"50 50 7 1 ",
"  c black",
". c gray8",
"X c #70341A",
"o c #E6955C",
"O c #B4B4B4",
"+ c #F5E49C",
"@ c white",
/* pixels */
"XXXXXXXXXXXXXXXXXXXXXXXXXXXXXXXXXXXXXXXXXXXXXXXXXX",
"XXXXXXXXXXXXXXXXXXXXXXXXXXXXXXXXXXXXXXXXXXXXXXXXXX",
"XX++++XXXXoooooooooooooo+oooooooooooooo+XXXX++++XX",
"XXoo++XXXXooo+ooo++++ooo+oo++oooo+ooooo+XXXXoo++XX",
"XXoo++XXXXoo++oo+++++ooo+o+++oooo++oooo+XXXXoo++XX",
"XXooo+XXXX++++++++++++++++++++++++++++++XXXXoo++XX",
"XXo+++XXXXXXXXXXXXXXXXXXXXXXXXXXXXXXXXXXXXXXooo+XX",
"XXo+++XXXXXXXXXXXXXXXXXXXXXXXXXXXXXXXXXXXXXXo+++XX",
"XXoo++XXXXXXXXXXXXXXXXXXXXXXXXXXXXXXXXXXXXXXoo++XX",
"XXooo+XXXXXXXXXXXXXXXXXXXXXXXXXXXXXXXXXXXXXXooo+XX",
"XXooo+XXXX++++++XX+++++XXXX++++++XX+++++XXXXooo+XX",
"XXo+++XXXXoo++++XXoo+++XXXXoo++++XXoo+++XXXXooo+XX",
"XXoo++XXXXoo++o+XXoo+++XXXXooo+++XXooo++XXXXoo++XX",
"XXooo+XXX ..++o+XXoo+++XXXXooo+++XXooo++XXXXoo++XX",
"XXooo+XX OOO.+o+XXoo+++XXXXooo+++XXooo++XXXXoo++XX",
"XXoo++XX O@O..........................++XXXXoo++XX",
"XXoo++XX @@@.@@@@@@@@@@@@@@@@@@@@@@OO ++XXXXo+++XX",
"XXoo++XX O@O.OOOOOOOOOOOOOOOOOOOOOOOO ++XXXXo+++XX",
"XXo+++XX OOO..........................++XXXXo+++XX",
"XXo+++XX OOO.o++XXooo++XXXXoooo++XXooo++XXXXo+++XX",
"XXo+++XXX ..oo++XXooo++XXXXoooo++XXoooo+XXXXoo++XX",
"XXo+++XXXXooooo+XXoooo+XXXXoooo++XXoooo+XXXXooo+XX",
"XXooo+XXXXooooo+XXoooo+XXXXoooo++XXoooo+XXXXooo+XX",
"XXooo+XXXXooooo+XXoooo+XXXXooooo+XXoooo+XXXXooo+XX",
"XXo+++XXXXooooo+XXoooo+XXXXooooo+XXoooo+XXXXooo+XX",
"XXo+++XXXXooooo+XXoooo+XXXXooooo+XXoooo+XXXXooo+XX",
"XXo+++XXXXooooo+XXoooo+XXXXooooo+   ooo+XXXXoo++XX",
"XXoo++XXXXooooo+XXoooo+XXXXoooo  OOO  o+XXXXoo++XX",
"XXoo++XXXXooooo+XXoooo+XXXXoooo O@@@O o+XXXXooo+XX",
"XXooo+XXXXooooo+XXoooo+XXXXooo O@@O@@O +XXXXooo+XX",
"XXooo+XXXXooooo+XXoooo+XXXXooo OOOOOOO +XXXXooo+XX",
"XXooo+XXXXooooo+XXoooo+XXXXooo OO@@@OO +XXXXooo+XX",
"XXooo+XXXXooooooXXoooo+XXXXoooo OO@OO o+XXXXooo+XX",
"XXooo+XXXXooooooXXoooo+XXXXoooo  OOO  o+XXXXooo+XX",
"XXooo+XXXXooooooXXoooo+XXXXoooooo   ooo+XXXXooo+XX",
"XXooo+XXXXooooooXXoooo+XXXXooooooXXoooo+XXXXooo+XX",
"XXooo+XXXXooooooXXoooooXXXXooooooXXoooo+XXXXooo+XX",
"XXooo+XXXXooooooXXoooooXXXXooooooXXoooo+XXXXooo+XX",
"XXooo+XXX ..ooooXXoooooXXXXooooooXXoooooXXXXooo+XX",
"XXooo+XX OOO.oooXXoooooXXXXooooooXXoooooXXXXooo+XX",
"XXooo+XX O@O..........................ooXXXXooo+XX",
"XXooo+XX @@@.@@@@@@@@@@@@@@@@@@@@@@OO ooXXXXooo+XX",
"XXooo+XX O@O.OOOOOOOOOOOOOOOOOOOOOOOO ooXXXXooo+XX",
"XXooo+XX OOO..........................ooXXXXooo+XX",
"XXooo+XX OOO.oooXXoooooXXXXooooooXXoooooXXXXooo+XX",
"XXooo+XXX ..ooooXXoooooXXXXooooooXXoooooXXXXooo+XX",
"XXooo+XXXXooooooXXoooooXXXXooooooXXoooooXXXXooo+XX",
"XXooo+XXXXooooooXXoooooXXXXooooooXXoooooXXXXooo+XX",
"XXXXXXXXXXXXXXXXXXXXXXXXXXXXXXXXXXXXXXXXXXXXXXXXXX",
"XXXXXXXXXXXXXXXXXXXXXXXXXXXXXXXXXXXXXXXXXXXXXXXXXX"
};
