/* XPM */
static char *_c9702c7a32c4950d647b708ab3c2459tbILvCWD13LgH4DS[] = {
/* columns rows colors chars-per-pixel */
"50 50 9 1 ",
"  c #DAF4E8",
". c black",
"X c gray45",
"o c #FF7E00",
"O c #F5A458",
"+ c #6F3198",
"@ c #B4B4B4",
"# c #FFFBED",
"$ c white",
/* pixels */
"                                                  ",
"                                                  ",
"                                                  ",
"                                                  ",
"                                                  ",
"                                                  ",
"                                                  ",
"                                                  ",
"                                 ......           ",
"                                 ......           ",
"                       ............$$..           ",
"                       ............$$..           ",
"                     ....++++++++++....           ",
"                     ....++++++++++....           ",
"                     ..++++++++......             ",
"                     ..++++++++......             ",
"               ..........++++......               ",
"               ..........++++......               ",
"               ..XXXXXXXXXX######..               ",
"               ..XXXXXXXXXX######..               ",
"             ..................##..               ",
"             ..................##..               ",
"             ..@@@@@@@@######..XX..               ",
"             ..@@@@@@@@######..XX..               ",
"             ..@@..@@..@@..##..XX..               ",
"             ..@@..@@..@@..##..XX..               ",
"             ..@@..@@..@@..@@..XX..               ",
"             ..@@..@@..@@..@@..XX..               ",
"             ..@@..@@..@@..@@..XX..               ",
"             ..@@..@@..@@..@@..XX..               ",
"             ..@@@@@@@@@@@@@@..XX..               ",
"             ..@@@@@@@@@@@@@@..XX..               ",
"             ........................             ",
"             ........................             ",
"               ..OOOOOOOOOOOOoooooo..             ",
"               ..OOOOOOOOOOOOoooooo..             ",
"               ............OOoooooo....           ",
"               ............OOoooooo....           ",
"               ..XXXXXXXX..OOoooooooo..           ",
"               ..XXXXXXXX..OOoooooooo..           ",
"               ..XXXXXXXX..OOOOOOOOOO..           ",
"               ..XXXXXXXX..OOOOOOOOOO..           ",
"               ........................           ",
"               ........................           ",
"                                                  ",
"                                                  ",
"                                                  ",
"                                                  ",
"                                                  ",
"                                                  "
};
