/* XPM */
static char *db4a3d26f2ee415e9f1fb229b4e7a67eV6oM7wKTduhRMwBa[] = {
/* columns rows colors chars-per-pixel */
"50 50 8 1 ",
"  c #DAF4E8",
". c black",
"X c gray45",
"o c #FF7E00",
"O c #F5A458",
"+ c #6F3198",
"@ c #B4B4B4",
"# c #FFFBED",
/* pixels */
"                                                  ",
"                                                  ",
"                                                  ",
"                                                  ",
"                                                  ",
"                                                  ",
"                       ..............             ",
"                       ..............             ",
"                     ....++++++++++....           ",
"                     ....++++++++++....           ",
"                     ..++++++++....++..           ",
"                     ..++++++++....++..           ",
"               ..........++++..........           ",
"               ..........++++..........           ",
"               ..XXXXXXXXXX######..               ",
"               ..XXXXXXXXXX######..               ",
"             ..................##..               ",
"             ..................##..               ",
"             ..@@@@@@@@######..XX..               ",
"             ..@@@@@@@@######..XX..               ",
"             ..@@..@@..@@..##..XX..               ",
"             ..@@..@@..@@..##..XX..               ",
"             ..@@..@@..@@..@@..XX..               ",
"             ..@@..@@..@@..@@..XX..               ",
"             ..@@..@@..@@..@@..XX..               ",
"             ..@@..@@..@@..@@..XX..               ",
"             ..@@@@@@@@@@@@@@..XX..               ",
"             ..@@@@@@@@@@@@@@..XX..               ",
"             ........................             ",
"             ........................             ",
"               ..OOOOOOOOOOOOoooooo..             ",
"               ..OOOOOOOOOOOOoooooo..             ",
"               ............OOoooooo..             ",
"               ............OOoooooo..             ",
"               ..XXXXXXXX..OOoooooo..             ",
"               ..XXXXXXXX..OOoooooo..             ",
"               ..XXXXXXXX..OOoooooo..             ",
"               ..XXXXXXXX..OOoooooo..             ",
"               ..@@@@......OOoooooo..             ",
"               ..@@@@......OOoooooo..             ",
"               ....@@......OOOOOOOO..             ",
"               ....@@......OOOOOOOO..             ",
"                 ......  ............             ",
"                 ......  ............             ",
"                                                  ",
"                                                  ",
"                                                  ",
"                                                  ",
"                                                  ",
"                                                  "
};
