/* XPM */
static char *_bebad38ef6f4f1ae3c84c1725fd2b414nJMPSk3GPVzVJP3[] = {
/* columns rows colors chars-per-pixel */
"50 50 9 1 ",
"  c #DAF4E8",
". c black",
"X c gray45",
"o c #FF7E00",
"O c #F5A458",
"+ c #6F3198",
"@ c #B4B4B4",
"# c #FFFBED",
"$ c white",
/* pixels */
"                                                  ",
"                                                  ",
"                                                  ",
"                                                  ",
"                                                  ",
"                                                  ",
"                                                  ",
"                                                  ",
"           ......                                 ",
"           ......                                 ",
"           ..$$............                       ",
"           ..$$............                       ",
"           ....++++++++++....                     ",
"           ....++++++++++....                     ",
"             ......++++++++..                     ",
"             ......++++++++..                     ",
"               ......++++..........               ",
"               ......++++..........               ",
"               ..######XXXXXXXXXX..               ",
"               ..######XXXXXXXXXX..               ",
"               ..##..................             ",
"               ..##..................             ",
"               ..XX..######@@@@@@@@..             ",
"               ..XX..######@@@@@@@@..             ",
"               ..XX..##..@@..@@..@@..             ",
"               ..XX..##..@@..@@..@@..             ",
"               ..XX..@@..@@..@@..@@..             ",
"               ..XX..@@..@@..@@..@@..             ",
"               ..XX..@@..@@..@@..@@..             ",
"               ..XX..@@..@@..@@..@@..             ",
"               ..XX..@@@@@@@@@@@@@@..             ",
"               ..XX..@@@@@@@@@@@@@@..             ",
"             ........................             ",
"             ........................             ",
"             ..ooooooOOOOOOOOOOOO..               ",
"             ..ooooooOOOOOOOOOOOO..               ",
"           ....ooooooOO............               ",
"           ....ooooooOO............               ",
"           ..ooooooooOO..XXXXXXXX..               ",
"           ..ooooooooOO..XXXXXXXX..               ",
"           ..OOOOOOOOOO..XXXXXXXX..               ",
"           ..OOOOOOOOOO..XXXXXXXX..               ",
"           ........................               ",
"           ........................               ",
"                                                  ",
"                                                  ",
"                                                  ",
"                                                  ",
"                                                  ",
"                                                  "
};
