/* XPM */
static char *_20e6901df604411ab1eceb5861ba0b8JTeicz88LYORMjMV[] = {
/* columns rows colors chars-per-pixel */
"50 50 8 1 ",
"  c #DAF4E8",
". c black",
"X c gray45",
"o c #FF7E00",
"O c #F5A458",
"+ c #6F3198",
"@ c #B4B4B4",
"# c #FFFBED",
/* pixels */
"                                                  ",
"                                                  ",
"                                                  ",
"                                                  ",
"                                                  ",
"                                                  ",
"             ..............                       ",
"             ..............                       ",
"           ....++++++++++....                     ",
"           ....++++++++++....                     ",
"           ..++....++++++++..                     ",
"           ..++....++++++++..                     ",
"           ..........++++..........               ",
"           ..........++++..........               ",
"               ..######XXXXXXXXXX..               ",
"               ..######XXXXXXXXXX..               ",
"               ..##..................             ",
"               ..##..................             ",
"               ..XX..######@@@@@@@@..             ",
"               ..XX..######@@@@@@@@..             ",
"               ..XX..##..@@..@@..@@..             ",
"               ..XX..##..@@..@@..@@..             ",
"               ..XX..@@..@@..@@..@@..             ",
"               ..XX..@@..@@..@@..@@..             ",
"               ..XX..@@..@@..@@..@@..             ",
"               ..XX..@@..@@..@@..@@..             ",
"               ..XX..@@@@@@@@@@@@@@..             ",
"               ..XX..@@@@@@@@@@@@@@..             ",
"             ........................             ",
"             ........................             ",
"             ..ooooooOOOOOOOOOOOO..               ",
"             ..ooooooOOOOOOOOOOOO..               ",
"             ..ooooooOO............               ",
"             ..ooooooOO............               ",
"             ..ooooooOO..XXXXXXXX..               ",
"             ..ooooooOO..XXXXXXXX..               ",
"             ..ooooooOO..XXXXXXXX..               ",
"             ..ooooooOO..XXXXXXXX..               ",
"             ..ooooooOO......@@@@..               ",
"             ..ooooooOO......@@@@..               ",
"             ..OOOOOOOO......@@....               ",
"             ..OOOOOOOO......@@....               ",
"             ............  ......                 ",
"             ............  ......                 ",
"                                                  ",
"                                                  ",
"                                                  ",
"                                                  ",
"                                                  ",
"                                                  "
};
