/* XPM */
static char *fd5041ed359f44bec0a5a27052ed2f38VyOG1URjkVy8ZSDl[] = {
/* columns rows colors chars-per-pixel */
"50 50 5 1 ",
"  c #DAF4E8",
". c black",
"X c #4DBA22",
"o c #BFFF00",
"O c white",
/* pixels */
"                                                  ",
"                                                  ",
"                                                  ",
"                                                  ",
"                                                  ",
"                                                  ",
"                                                  ",
"                                                  ",
"                                                  ",
"                                                  ",
"                                                  ",
"                                                  ",
"                                                  ",
"                                                  ",
"              ....................                ",
"              ....................                ",
"              ..OOOOOOXXXXXXXXXX..                ",
"              ..OOOOOOXXXXXXXXXX..                ",
"              ..OOooooooooooooXX..                ",
"              ..OOooooooooooooXX..                ",
"              ..XXoo....oooooo....                ",
"              ..XXoo....oooooo....                ",
"              ..XXoo....oooooo....                ",
"              ..XXoo....oooooo....                ",
"              ..XXooooooooooooXX..                ",
"              ..XX..oo..oo..ooXX..                ",
"              ..XX..oo..oo..oo....                ",
"              ......oo......oo....                ",
"              ......oo......oo....                ",
"            ........................              ",
"            ........................              ",
"          ....XX........oo......XX....            ",
"          ....XX........oo......XX....            ",
"          ..XXXXoo..oo..oo..oo..XXXX..            ",
"          ..XXXXoo..oo..oo..oo..XXXX..            ",
"          ..XXXXXXXXXXXXXXXXXXXXXXXX..            ",
"          ..XXXXXXXXXXXXXXXXXXXXXXXX..            ",
"          ............................            ",
"          ............................            ",
"                                                  ",
"                                                  ",
"                                                  ",
"                                                  ",
"                                                  ",
"                                                  ",
"                                                  ",
"                                                  ",
"                                                  ",
"                                                  ",
"                                                  "
};
