/* XPM */
static char *c46c2290cc6543f095c1cd144f9112c9BXsWaCE597WFEsBT[] = {
/* columns rows colors chars-per-pixel */
"50 50 7 1 ",
"  c #405C4F",
". c #506E60",
"X c #80AB98",
"o c #A1CCB9",
"O c #B3E3CE",
"+ c #C1EED9",
"@ c #DBF4E9",
/* pixels */
"++++++++++++++++++++++++++++++++++++++++++++++++++",
"++++++++++++++++++++++++++++++++++++++++++++++++++",
"++....................................@@@@@@@@@@++",
"++....................................@@@@@@@@@@++",
"++....................................@@@@@@@@@@++",
"++....................................@@@@@@@@@@++",
"++..........................OOOOOOOOOO@@@@@@@@@@++",
"++..........................OOOOOOOOOO@@@@@@@@@@++",
"++..........................OOOOOOOOOO@@@@@@@@@@++",
"++..........................OOOOOOOOOO@@@@@@@@@@++",
"++................ooooooooooOOOOOOOOOO@@@@@@@@@@++",
"++................ooooooooooOOOOOOOOOO@@@@@@@@@@++",
"++................ooooooooooOOOOOOOOOO@@@@@@@@@@++",
"++................ooooooooooOOOOOOOOOO@@@@@@@@@@++",
"++......XXXXXXXXXXooooooooooOOOOOOOOOO@@@@@@@@@@++",
"++......XXXXXXXXXXooooooooooOOOOOOOOOO@@@@@@@@@@++",
"++......XXXXXXXXXXooooooooooOOOOOOOOOO@@@@@@@@@@++",
"++......XXXXXXXXXXooooooooooOOOOOOOOOO@@@@@@@@@@++",
"++      XXXXXXXXXXooooooooooOOOOOOOOOO@@@@@@@@@@++",
"++      XXXXXXXXXXooooooooooOOOOOOOOOO@@@@@@@@@@++",
"++      XXXXXXXXXXooooooooooOOOOOOOOOO@@@@@@@@@@++",
"++      XXXXXXXXXXooooooooooOOOOOOOOOO@@@@@@@@@@++",
"++      XXXXXXXXXXooooooooooOOOOOOOOOO@@@@@@@@@@++",
"++      XXXXXXXXXXooooooooooOOOOOOOOOO@@@@@@@@@@++",
"++      XXXXXXXXXXooooooooooOOOOOOOOOO@@@@@@@@@@++",
"++      XXXXXXXXXXooooooooooOOOOOOOOOO@@@@@@@@@@++",
"++      XXXXXXXXXXooooooooooOOOOOOOOOO@@@@@@@@@@++",
"++      XXXXXXXXXXooooooooooOOOOOOOOOO@@@@@@@@@@++",
"++      XXXXXXXXXXooooooooooOOOOOOOOOO@@@@@@@@@@++",
"++      XXXXXXXXXXooooooooooOOOOOOOOOO@@@@@@@@@@++",
"++      XXXXXXXXXXooooooooooOOOOOOOOOO@@@@@@@@@@++",
"++      XXXXXXXXXXooooooooooOOOOOOOOOO@@@@@@@@@@++",
"++      XXXXXXXXXXooooooooooOOOOOOOOOO@@@@@@@@@@++",
"++      XXXXXXXXXXooooooooooOOOOOOOOOO@@@@@@@@@@++",
"++      XXXXXXXXXXooooooooooOOOOOOOOOO@@@@@@@@@@++",
"++      XXXXXXXXXXooooooooooOOOOOOOOOO@@@@@@@@@@++",
"++      XXXXXXXXXXooooooooooOOOOOOOOOO@@@@@@@@@@++",
"++      XXXXXXXXXXooooooooooOOOOOOOOOO@@@@@@@@@@++",
"++      XXXXXXXXXXooooooooooOOOOOOOOOO@@@@@@@@@@++",
"++      XXXXXXXXXXooooooooooOOOOOOOOOO@@@@@@@@@@++",
"++      XXXXXXXXXXooooooooooOOOOOOOOOO@@@@@@@@@@++",
"++      XXXXXXXXXXooooooooooOOOOOOOOOO@@@@@@@@@@++",
"++      XXXXXXXXXXooooooooooOOOOOOOOOO@@@@@@@@@@++",
"++      XXXXXXXXXXooooooooooOOOOOOOOOO@@@@@@@@@@++",
"++      XXXXXXXXXXooooooooooOOOOOOOOOO@@@@@@@@@@++",
"++      XXXXXXXXXXooooooooooOOOOOOOOOO@@@@@@@@@@++",
"++      XXXXXXXXXXooooooooooOOOOOOOOOO@@@@@@@@@@++",
"++      XXXXXXXXXXooooooooooOOOOOOOOOO@@@@@@@@@@++",
"++++++++++++++++++++++++++++++++++++++++++++++++++",
"++++++++++++++++++++++++++++++++++++++++++++++++++"
};
