/* XPM */
static char *xpm_[] = {
/* columns rows colors chars-per-pixel */
"50 50 5 1 ",
"  c #242B33",
". c #1498DC",
"X c #10D3C3",
"o c #A0FCD8",
"O c #DAF4E8",
/* pixels */
"OOOOOO                                      OOOOOO",
"OOOOOO                                      OOOOOO",
"OOOOOO                                      OOOOOO",
"OOO   oooooooooooooooooooooooooooooooooooooo   OOO",
"OOO   oooooooooooooooooooooooooooooooooooooo   OOO",
"OOO   oooooooooooooooooooooooooooooooooooooo   OOO",
"   oooooooooXXXooooooooooXXXXXXXXXXXXXooooooooo   ",
"   oooooooooXXXooooooooooXXXXXXXXXXXXXooooooooo   ",
"   oooooooooXXXooooooooooXXXXXXXXXXXXXooooooooo   ",
"   ooooooXXXXXXooooooooooXXXXXXXXXXXXXXXXoooooo   ",
"   ooooooXXXXXXooooooooooXXXXXXXXXXXXXXXXoooooo   ",
"   ooooooXXXXXXooooooooooXXXXXXXXXXXXXXXXoooooo   ",
"   oooXXXXXXXXXooooooooooXXXooooooXXXXXXXXXXooo   ",
"   oooXXXXXXXXXooooooooooXXXooooooXXXXXXXXXXooo   ",
"   oooXXXXXXXXXooooooooooXXXooooooXXXXXXXXXXooo   ",
"   oooXXXXXXXXXooooooooooXXXooooooXXXXXXXXXXooo   ",
"   oooXXXoooXXXXXXXXXXXXXXXXooooooXXXXXXXXXXooo   ",
"   oooXXXoooXXXXXXXXXXXXXXXXooooooXXXXXXXXXXooo   ",
"   oooXXXoooXXXXXXXXXXXXXXXXXXXXXXXXXXXXXXXXooo   ",
"   oooXXXXXXXXXXXXXXXXXXXXXXXXXXXXXXXXXXXXXXooo   ",
"   oooXXXXXXXXXXXXXXXXXXXXXXXXXXXXXXXXXXXXXXooo   ",
"   oooXXXXXXXXXXXXXXXXXXXXXXXXXXXXXXXXoooXXXooo   ",
"   oooXXXXXX......XXXXXXXXXXXXXXXXXXXXoooXXXooo   ",
"   oooXXXXXX......XXXXXXXXXXXXXXXXXXXXoooXXXooo   ",
"   oooXXXXXX......XXXXXXXXXXXXXXXXXXXXXXXXXXooo   ",
"   ...XXXXXX......XXXXooooooXXXXXXXXXXXXXXXX...   ",
"   ...XXXXXX......XXXXooooooXXXXXXXXXXXXXXXX...   ",
"   ...XXXXXX......XXXXooooooXXXXXXXXXXXXXXXX...   ",
"   ...XXXXXXXXXXXXXXXXooooooXXXXXXXXXXXXXXXX...   ",
"   ...XXXXXXXXXXXXXXXXooooooXXXXXXXXXXXXXXXX...   ",
"   ...XXXXXXXXXXXXXXXXooooooXXXXXXXXXXXXXXXX...   ",
"   ...XXX...XXXXXXXXXXXXXXXXXXXXXXXXXXXXX......   ",
"   ...XXX...XXXXXXXXXXXXXXXXXXXXXXXXXXXXX......   ",
"   ...XXX...XXXXXXXXXXXXXXXXXXXXXXXXXXXXX......   ",
"   ...XXXXXXXXXXXXXXXXXXXXXXXXXXXXXXXXXXXXXX...   ",
"   ...XXXXXXXXXXXXXXXXXXXXXX......XXXXXXXXXX...   ",
"   ...XXXXXXXXXXXXXXXXXXXXXX......XXXXXXXXXX...   ",
"   ...XXXXXXXXXXXXXXXXXXXXXX......XXX....XXX...   ",
"   ...XXXXXX......XXXXXXXXXX......XXX....XXX...   ",
"   ...XXXXXX......XXXXXXXXXX......XXX....XXX...   ",
"   ...XXXXXX......XXXXXXXXXX......XXX....XXX...   ",
"   ...XXXXXX......XXXXXXXXXXXXXXXXXXXXXXXXXX...   ",
"   ...XXXXXX......XXXXXXXXXXXXXXXXXXXXXXXXXX...   ",
"   ...XXXXXX......XXXXXXXXXXXXXXXXXXXXXXXXXX...   ",
"OOO   ......................................   OOO",
"OOO   ......................................   OOO",
"OOO   ......................................   OOO",
"OOOOOO                                      OOOOOO",
"OOOOOO                                      OOOOOO",
"OOOOOO                                      OOOOOO"
};
