/* XPM */
static char *_64142b504cf4c3981ddd3c69621c1078RrSIPhWhng2GIcK[] = {
/* columns rows colors chars-per-pixel */
"50 50 2 1 ",
"  c black",
". c #000090",
/* pixels */
".........................                         ",
".........................                         ",
".........................                         ",
".........................                         ",
".........................                         ",
".........................                         ",
".........................                         ",
".........................                         ",
".........................                         ",
".........................                         ",
".........................                         ",
".........................                         ",
".........................                         ",
".........................                         ",
".........................                         ",
".........................                         ",
".........................                         ",
".........................                         ",
".........................                         ",
".........................                         ",
".........................                         ",
".........................                         ",
".........................                         ",
".........................                         ",
".........................                         ",
"                         .........................",
"                         .........................",
"                         .........................",
"                         .........................",
"                         .........................",
"                         .........................",
"                         .........................",
"                         .........................",
"                         .........................",
"                         .........................",
"                         .........................",
"                         .........................",
"                         .........................",
"                         .........................",
"                         .........................",
"                         .........................",
"                         .........................",
"                         .........................",
"                         .........................",
"                         .........................",
"                         .........................",
"                         .........................",
"                         .........................",
"                         .........................",
"                         ........................."
};
