/* XPM */
static char *_4d815caefb24ee0c3add79c2fbf9ee6utO0U37P34kkSJaT[] = {
/* columns rows colors chars-per-pixel */
"50 50 8 1 ",
"  c #DAF4E8",
". c black",
"X c gray45",
"o c #ED1C24",
"O c #468F58",
"+ c #F0D800",
"@ c #B4B4B4",
"# c #FFFBED",
/* pixels */
"                                                  ",
"                                                  ",
"                                                  ",
"                                                  ",
"                                                  ",
"                                                  ",
"                       ..............             ",
"                       ..............             ",
"                     ....oooooooooo....           ",
"                     ....oooooooooo....           ",
"                     ..oooooooo....  ..           ",
"                     ..oooooooo....  ..           ",
"               ..........oooo..........           ",
"               ..........oooo..........           ",
"               ..XXXXXXXXXX######..               ",
"               ..XXXXXXXXXX######..               ",
"             ..................##..               ",
"             ..................##..               ",
"             ..@@@@@@@@######..XX..               ",
"             ..@@@@@@@@######..XX..               ",
"             ..@@..@@..@@..##..XX..               ",
"             ..@@..@@..@@..##..XX..               ",
"             ..@@..@@..@@..@@..XX..               ",
"             ..@@..@@..@@..@@..XX..               ",
"             ..@@..@@..@@..@@..XX..               ",
"             ..@@..@@..@@..@@..XX..               ",
"             ..@@@@@@@@@@@@@@..XX..               ",
"             ..@@@@@@@@@@@@@@..XX..               ",
"             ........................             ",
"             ........................             ",
"               ..++++++++++++OOOOOO..             ",
"               ..++++++++++++OOOOOO..             ",
"               ............++OOOOOO..             ",
"               ............++OOOOOO..             ",
"               ..XXXXXXXX..++OOOOOO..             ",
"               ..XXXXXXXX..++OOOOOO..             ",
"               ..XXXXXXXX..++OOOOOO..             ",
"               ..XXXXXXXX..++OOOOOO..             ",
"               ..@@@@......++OOOOOO..             ",
"               ..@@@@......++OOOOOO..             ",
"               ....@@......++++++++..             ",
"               ....@@......++++++++..             ",
"                 ......  ............             ",
"                 ......  ............             ",
"                                                  ",
"                                                  ",
"                                                  ",
"                                                  ",
"                                                  ",
"                                                  "
};
