/* XPM */
static char *e16b6f669cd54487b2f824b841a6411dTXq8xuWqunBGJiUD[] = {
/* columns rows colors chars-per-pixel */
"50 50 8 1 ",
"  c #DAF4E8",
". c black",
"X c gray45",
"o c #ED1C24",
"O c #468F58",
"+ c #F0D800",
"@ c #B4B4B4",
"# c #FFFBED",
/* pixels */
"                                                  ",
"                                                  ",
"                                                  ",
"                                                  ",
"                                                  ",
"                                                  ",
"             ..............                       ",
"             ..............                       ",
"           ....oooooooooo....                     ",
"           ....oooooooooo....                     ",
"           ..  ....oooooooo..                     ",
"           ..  ....oooooooo..                     ",
"           ..........oooo..........               ",
"           ..........oooo..........               ",
"               ..######XXXXXXXXXX..               ",
"               ..######XXXXXXXXXX..               ",
"               ..##..................             ",
"               ..##..................             ",
"               ..XX..######@@@@@@@@..             ",
"               ..XX..######@@@@@@@@..             ",
"               ..XX..##..@@..@@..@@..             ",
"               ..XX..##..@@..@@..@@..             ",
"               ..XX..@@..@@..@@..@@..             ",
"               ..XX..@@..@@..@@..@@..             ",
"               ..XX..@@..@@..@@..@@..             ",
"               ..XX..@@..@@..@@..@@..             ",
"               ..XX..@@@@@@@@@@@@@@..             ",
"               ..XX..@@@@@@@@@@@@@@..             ",
"             ........................             ",
"             ........................             ",
"             ..OOOOOO++++++++++++..               ",
"             ..OOOOOO++++++++++++..               ",
"             ..OOOOOO++............               ",
"             ..OOOOOO++............               ",
"             ..OOOOOO++..XXXXXXXX..               ",
"             ..OOOOOO++..XXXXXXXX..               ",
"             ..OOOOOO++..XXXXXXXX..               ",
"             ..OOOOOO++..XXXXXXXX..               ",
"             ..OOOOOO++......@@@@..               ",
"             ..OOOOOO++......@@@@..               ",
"             ..++++++++......@@....               ",
"             ..++++++++......@@....               ",
"             ............  ......                 ",
"             ............  ......                 ",
"                                                  ",
"                                                  ",
"                                                  ",
"                                                  ",
"                                                  ",
"                                                  "
};
