/* XPM */
static char *_7f6f3ae7d6c4d70cb045e938d2f9739Z2Wd1VFOToJQqFqK[] = {
/* columns rows colors chars-per-pixel */
"50 50 136 2 ",
"   c None",
".  c #53575B",
"X  c #2A2F35",
"o  c #3F4348",
"O  c #494D52",
"+  c #3A3E43",
"@  c #4A5455",
"#  c #3C494A",
"$  c #434E4F",
"%  c #373C41",
"&  c #93C7B0",
"*  c #B6F9D9",
"=  c #A5E0C5",
"-  c #31353B",
";  c #3E4348",
":  c #34393F",
">  c #434B4E",
",  c #333C3F",
"<  c #95CAB3",
"1  c #B4F8D8",
"2  c #B1F7D8",
"3  c #B2F7D8",
"4  c #B3F8D8",
"5  c #A6E2C6",
"6  c #3B4347",
"7  c #465152",
"8  c #90C1AB",
"9  c #9CD3BA",
"0  c #B0F0D1",
"q  c #9EECD2",
"w  c #76D7C6",
"e  c #86E0CA",
"r  c #96E8CF",
"t  c #92E6CE",
"y  c #B3F4D5",
"u  c #96CAB3",
"i  c #4D5A5A",
"p  c #45494E",
"a  c #3C484A",
"s  c #99E9D0",
"d  c #67CFC1",
"f  c #7BDAC7",
"g  c #8FE4CD",
"h  c #8AE2CC",
"j  c #ADEDCF",
"k  c #445554",
"l  c #88E1CB",
"z  c #B3F7D8",
"x  c #70D4C4",
"c  c #6ED3C3",
"v  c #8EE4CD",
"b  c #85DFCA",
"n  c #91E6CE",
"m  c #6DD3C3",
"M  c #99EAD0",
"N  c #7AD9C7",
"B  c #72D5C5",
"V  c #8BE2CC",
"C  c #71D5C4",
"Z  c #80DCC9",
"A  c #86DFCA",
"S  c #6FD3C3",
"D  c #6DD2C3",
"F  c #63C7C4",
"G  c #5DBAC9",
"H  c #5EBCC8",
"J  c #66CCC2",
"K  c #74D6C5",
"L  c #4B96D5",
"P  c #4F9DD3",
"I  c #64C8C4",
"U  c #3A474A",
"Y  c #99D5C4",
"T  c #A9EDD9",
"R  c #78D7C7",
"E  c #ADF4D6",
"W  c #93E6CE",
"Q  c #6FD3C4",
"!  c #A1E1CE",
"~  c #425354",
"^  c #2E3C49",
"/  c #4789C1",
"(  c #60C1C6",
")  c #A3EFD3",
"_  c #4990CB",
"`  c #304353",
"'  c #5EBDC8",
"]  c #4F9ED3",
"[  c #52A4D0",
"{  c #64C9C3",
"}  c #66CDC2",
"|  c #65CCC2",
" . c #9FEDD2",
".. c #A8F2D5",
"X. c #66CEC1",
"o. c #62C5C5",
"O. c #5CB8C9",
"+. c #50A1D1",
"@. c #59B2CB",
"#. c #72D5C4",
"$. c #5EBEC7",
"%. c #509FD2",
"&. c #59B3CB",
"*. c #56ACCE",
"=. c #63C6C4",
"-. c #64CAC3",
";. c #5FBFC7",
":. c #5DBCC8",
">. c #5BB6CA",
",. c #61C3C5",
"<. c #5EBDC7",
"1. c #404348",
"2. c #404B54",
"3. c #4275A0",
"4. c #437CAD",
"5. c #59B0C0",
"6. c #58B1CC",
"7. c #4E9BD3",
"8. c #5CB8C3",
"9. c #4379A7",
"0. c #404E5B",
"q. c #4E5256",
"w. c #35393F",
"e. c #437DAD",
"r. c #478AC1",
"t. c #30343A",
"y. c #3C4046",
"u. c #33383D",
"i. c #515458",
"p. c #42464A",
"a. c #505458",
"s. c #477399",
"d. c #4578A3",
"f. c #4A4D51",
"g. c #404448",
"h. c #353A3F",
/* pixels */
"          . X X X X X X X X X X X X X X X X X X X X X X X X X X X X X X X X X X X X X o             ",
"          O X X X X X X X X X X X X X X X X X X X X X X X X X X X X X X X X X X X X X +             ",
"          @ # # # # # # # # # # # # # # # # # # # # # # # # # # # # # # # # # # # # # $             ",
"    % X X & * * * * * * * * * * * * * * * * * * * * * * * * * * * * * * * * * * * * * = X X -       ",
"    ; X X & * * * * * * * * * * * * * * * * * * * * * * * * * * * * * * * * * * * * * = X X :       ",
"    > , , < * * * * * 1 2 2 3 * * * * * * * * * 1 2 2 2 2 2 2 2 2 2 2 2 2 4 * * * * * 5 , , 6       ",
"+ 7 8 9 9 0 * * * * * q w w e * * * * * * * * * r w w w w w w w w w w w w t * * * * * y 9 9 u i + p ",
"X a = * * * * * * * * s d d f * * * * * * * * * g d d d d d d d d d d d d h * * * * * * * * j k X X ",
"X a = * * * * * 1 2 2 r d d f * * * * * * * * * g d d d d d d d d d d d d l 2 2 z * * * * * j k X X ",
"X a = * * * * * r w w x d d f * * * * * * * * * g d d d d d d d d d d d d c w w v * * * * * j k X X ",
"X a = * * * * * g d d d d d f * * * * * * * * * g d d d d d d d d d d d d d d d b * * * * * j k X X ",
"X a = * * * * * g d d d d d f * * * * * * * * * g d d d d d d d d d d d d d d d b * * * * * j k X X ",
"X a = * * n b b w d d d d d f * * * * * * * * * g d d m M M M M M M N d d d d d B b b V * * j k X X ",
"X a = * * f d d d d d d d d f * * * * * * * * * g d d C * * * * * * b d d d d d d d d C * * j k X X ",
"X a = * * f d d d d d d d d f * * * * * * * * * g d d C * * * * * * b d d d d d d d d C * * j k X X ",
"X a = * * f d d Z M M A d d S b b b b b b b b b w d d C * * * * * * b d d d d d d d d C * * j k X X ",
"X a = * * f d d g * * s d d d d d d d d d d d d d d d C * * * * * * b d d d d d d d d C * * j k X X ",
"X a = * * f d d g * * s d d d d d d d d d d d d d d d C * * * * * * b d d d d d d d d C * * j k X X ",
"X a = * * f d d Z M M e d d d d d d d d d d d d d d d D M M M M M M N d d d d d d d d C * * j k X X ",
"X a = * * f d d d d d d d d d d d d d d d d d d d d d d d d d d d d d d d d d d d d d C * * j k X X ",
"X a = * * f d d d d d d d d d d d d d d d d d d d d d d d d d d d d d d d d d d d d d C * * j k X X ",
"X a = * * f d d d d d F G G G G G H J d d d d d d d d d d d d d d d d d d K b b N d d C * * j k X X ",
"X a = * * f d d d d d G L L L L L P I d d d d d d d d d d d d d d d d d d h * * M d d C * * j k X X ",
"X a = * * f d d d d d G L L L L L P I d d d d d d d d d d d d d d d d d d h * * M d d C * * j k X X ",
"X U Y T T R d d d d d G L L L L L P I d d S C C C C C x d d d d d d d d d A E E W d d Q T T ! ~ X X ",
"X ^ / L L ( d d d d d G L L L L L P I d d ) * * * * * E d d d d d d d d d d d d d d d I L L _ ` X X ",
"X ^ / L L ( d d d d d G L L L L L P I d d ) * * * * * E d d d d d d d d d d d d d d d I L L _ ` X X ",
"X ^ / L L ( d d d d d ' ] ] ] ] ] [ { d d ) * * * * * E d d d d d d d d d d d d d d d I L L _ ` X X ",
"X ^ / L L ( d d d d d d d d d d d d d d d ) * * * * * E d d d d d d d d d d d d d d d I L L _ ` X X ",
"X ^ / L L ( d d d d d d d d d d d d d d d ) * * * * * E d d d d d d d d d d d d d d d I L L _ ` X X ",
"X ^ / L L ( d d } | | } d d d d d d d d d  .2 2 2 2 2 ..d d d d d d d d d d d d X.| | o.L L _ ` X X ",
"X ^ / L L ( d d O.+.+.@.d d d d d d d d d #.w w w w w K d d d d d d d d d d d d $.+.+.%.L L _ ` X X ",
"X ^ / L L ( d d &.L L *.d d d d d d d d d d d d d d d d d d d d d d d d d d d d G L L L L L _ ` X X ",
"X ^ / L L ( d d &.L L *.d d d d d d d d d d d d d d d d d d d d d d d d d d d d G L L L L L _ ` X X ",
"X ^ / L L ( d d I ( ( =.d d d d d d d d d d d d d d d -.[ [ [ [ [ [ ;.d d d d d -.( ( :.L L _ ` X X ",
"X ^ / L L ( d d d d d d d d d d d d d d d d d d d d d I L L L L L L G d d d d d d d d I L L _ ` X X ",
"X ^ / L L ( d d d d d d d d d d d d d d d d d d d d d I L L L L L L G d d d d d d d d I L L _ ` X X ",
"X ^ / L L ( d d d d d o.&.&.&.&.&.>.| d d d d d d d d I L L L L L L G d d ,.&.&.<.d d I L L _ ` X X ",
"X ^ / L L ( d d d d d G L L L L L P I d d d d d d d d I L L L L L L G d d >.L L *.d d I L L _ ` X X ",
"X ^ / L L ( d d d d d G L L L L L P I d d d d d d d d I L L L L L L G d d >.L L *.d d I L L _ ` X X ",
"X ^ / L L ( d d d d d G L L L L L P I d d d d d d d d | &.&.&.&.&.&.o.d d ,.&.&.<.d d I L L _ ` X X ",
"X ^ / L L ( d d d d d G L L L L L P I d d d d d d d d d d d d d d d d d d d d d d d d I L L _ ` X X ",
"X ^ / L L ( d d d d d G L L L L L P I d d d d d d d d d d d d d d d d d d d d d d d d I L L _ ` X X ",
"1.2.3.4.4.5.( ( ( ( ( 6.L L L L L 7.:.( ( ( ( ( ( ( ( ( ( ( ( ( ( ( ( ( ( ( ( ( ( ( ( 8.4.4.9.0.1.q.",
"    w.X X e.L L L L L L L L L L L L L L L L L L L L L L L L L L L L L L L L L L L L L r.X X t.      ",
"    y.X X e.L L L L L L L L L L L L L L L L L L L L L L L L L L L L L L L L L L L L L r.X X u.      ",
"    i.p.a.s.4.4.4.4.4.4.4.4.4.4.4.4.4.4.4.4.4.4.4.4.4.4.4.4.4.4.4.4.4.4.4.4.4.4.4.4.4.d.a.p.f.      ",
"          O X X X X X X X X X X X X X X X X X X X X X X X X X X X X X X X X X X X X X +             ",
"          g.X X X X X X X X X X X X X X X X X X X X X X X X X X X X X X X X X X X X X h.            ",
"          O X X X X X X X X X X X X X X X X X X X X X X X X X X X X X X X X X X X X X +             "
};
