/* XPM */
static char *_72b1ef4b1354aefad981a83179f7d65RRLS7j5gqoFAfM3n[] = {
/* columns rows colors chars-per-pixel */
"50 50 2 1 ",
"  c #82D3E1",
". c #B3E4EE",
/* pixels */
"                                                  ",
"                                                  ",
"  ..............................................  ",
"  ..............................................  ",
"  ..............................................  ",
"  ..............................................  ",
"  ..............................................  ",
"  ..............................................  ",
"  ..............................................  ",
"  ..............................................  ",
"  ..............................................  ",
"  ..............................................  ",
"  ..............................................  ",
"  ..............................................  ",
"  ..............................................  ",
"  ..............................................  ",
"  ..............................................  ",
"  ..............................................  ",
"  ..............................................  ",
"  ..............................................  ",
"  ..............................................  ",
"  ..............................................  ",
"  ..............................................  ",
"  ..............................................  ",
"  ..............................................  ",
"  ..............................................  ",
"  ..............................................  ",
"  ..............................................  ",
"  ..............................................  ",
"  ..............................................  ",
"  ..............................................  ",
"  ..............................................  ",
"  ..............................................  ",
"  ..............................................  ",
"  ..............................................  ",
"  ..............................................  ",
"  ..............................................  ",
"  ..............................................  ",
"  ..............................................  ",
"  ..............................................  ",
"  ..............................................  ",
"  ..............................................  ",
"  ..............................................  ",
"  ..............................................  ",
"  ..............................................  ",
"  ..............................................  ",
"  ..............................................  ",
"  ..............................................  ",
"                                                  ",
"                                                  "
};
