/* XPM */
static char *xpm_[] = {
/* columns rows colors chars-per-pixel */
"80 80 252 2 ",
"   c black",
".  c #010000",
"X  c #020200",
"o  c #030200",
"O  c #020202",
"+  c #070602",
"@  c #070702",
"#  c #010205",
"$  c #000305",
"%  c #060606",
"&  c #060706",
"*  c #0F0500",
"=  c #0D0D08",
"-  c #0C0D0D",
";  c #0E0F0F",
":  c #120904",
">  c #100F05",
",  c #111005",
"<  c #111006",
"1  c #151406",
"2  c #1D1C08",
"3  c #0E1314",
"4  c #121413",
"5  c #121515",
"6  c #251E18",
"7  c #2C2A0F",
"8  c #232725",
"9  c #252927",
"0  c #262A28",
"q  c #282D2B",
"w  c #262D31",
"e  c #2D3330",
"r  c #41210C",
"t  c #42220E",
"y  c #442510",
"u  c #442511",
"i  c #462915",
"p  c #5F3417",
"a  c #603214",
"s  c #603418",
"d  c #633D22",
"f  c #5D4D3C",
"g  c #605B20",
"h  c #6A6724",
"j  c #6D6824",
"k  c #6C6925",
"l  c #796D28",
"z  c #3C4440",
"x  c #3F4643",
"c  c #3F4947",
"v  c #414945",
"b  c #404846",
"n  c #424A46",
"m  c #454C46",
"M  c #434C4B",
"N  c #464E4B",
"B  c #74774E",
"V  c #5A6560",
"C  c #5D6863",
"Z  c #5E6964",
"A  c #5E6965",
"S  c #5F6A65",
"D  c #5D6966",
"F  c #636C60",
"G  c #606B66",
"H  c #747163",
"J  c #6A7670",
"K  c #985325",
"L  c #9B5426",
"P  c #9F5625",
"I  c #9C5426",
"U  c #945429",
"Y  c #C76C31",
"T  c #CC6F32",
"R  c #CF7133",
"E  c #D17233",
"W  c #DA7735",
"Q  c #DF7636",
"!  c #DF7736",
"~  c #DD7836",
"^  c #E07837",
"/  c #E07937",
"(  c #E07A37",
")  c #E07B37",
"_  c #E07C37",
"`  c #E37B38",
"'  c #E07C38",
"]  c #E17E38",
"[  c #E57D38",
"{  c #E77D39",
"}  c #E77E39",
"|  c #817F40",
" . c #918A2F",
".. c #8E8832",
"X. c #918930",
"o. c #908931",
"O. c #A69E38",
"+. c #AEA63B",
"@. c #B0A83C",
"#. c #B2A93C",
"$. c #B8AF3E",
"%. c #C38B37",
"&. c #E3863A",
"*. c #EC813A",
"=. c #EE823B",
"-. c #E3893B",
";. c #E48C3B",
":. c #E5903C",
">. c #E5923D",
",. c #E79A3F",
"<. c #E79B3F",
"1. c #EB9C40",
"2. c #E9A240",
"3. c #E9A341",
"4. c #E9A441",
"5. c #EAA541",
"6. c #EBA942",
"7. c #EBAA43",
"8. c #ECAD43",
"9. c #ECAE44",
"0. c #EEB645",
"q. c #EEB746",
"w. c #EFBE47",
"e. c #F0BF47",
"r. c #F0C248",
"t. c #F1C348",
"y. c #F1C349",
"u. c #F1C449",
"i. c #F1C549",
"p. c #F1C649",
"a. c #F1C749",
"s. c #F1C74A",
"d. c #F2C74A",
"f. c #F2C84A",
"g. c #F2C94A",
"h. c #F3CB4B",
"j. c #F3CC4B",
"k. c #F3CD4B",
"l. c #F3CE4C",
"z. c #F2CF4C",
"x. c #F4CE4C",
"c. c #E6DB4E",
"v. c #F4D04C",
"b. c #F4D14D",
"n. c #F5D24D",
"m. c #F6D54E",
"M. c #F6D84E",
"N. c #F6D84F",
"B. c #F7DA4F",
"V. c #F7DB4F",
"C. c #F8DF51",
"Z. c #F6E753",
"A. c #F9E252",
"S. c #F9E352",
"D. c #F9E452",
"F. c #FAE552",
"G. c #F7EB54",
"H. c #F6EC54",
"J. c #FBE954",
"K. c #FBEA54",
"L. c #FBEB54",
"P. c #F8EC54",
"I. c #F9ED55",
"U. c #FCED55",
"Y. c #FCEE55",
"T. c #FCEF55",
"R. c #FDF056",
"E. c #FDF156",
"W. c #FDF256",
"Q. c #FDF356",
"!. c #FFF256",
"~. c #FEF357",
"^. c #FFF357",
"/. c #FEF457",
"(. c #FFF457",
"). c #FFF758",
"_. c #FFF858",
"`. c #FFF859",
"'. c #FFF959",
"]. c #FFFA59",
"[. c #FFFB5A",
"{. c #FFFD5A",
"}. c #788780",
"|. c #798781",
" X c #7B8A81",
".X c #7A8882",
"XX c #7C8A84",
"oX c #7C8B84",
"OX c #7C8B86",
"+X c #7D8C85",
"@X c #7D8D87",
"#X c #7E8D86",
"$X c #8D9E96",
"%X c #909E95",
"&X c #94A59D",
"*X c #96A8A0",
"=X c #97A9A1",
"-X c #98AAA1",
";X c #98AAA2",
":X c #99ACA3",
">X c #99ACA4",
",X c #9BAEA6",
"<X c #9EB1A8",
"1X c #B0C5BC",
"2X c #B1C6BC",
"3X c #B1C6BD",
"4X c #B2C7BD",
"5X c #B3C8BE",
"6X c #B5CAC0",
"7X c #BED4CA",
"8X c #C1D8CD",
"9X c #C1D8CE",
"0X c #C5DDD2",
"qX c #C6DDD2",
"wX c #C6DED3",
"eX c #C7DED3",
"rX c #C9E0D5",
"tX c #CAE2D7",
"yX c #CCE4D9",
"uX c #D1EADF",
"iX c #D4EDE1",
"pX c #D4EDE2",
"aX c #D5EEE2",
"sX c #D6EFE4",
"dX c #D6F0E4",
"fX c #D7F0E4",
"gX c #D8F2E6",
"hX c #DAF4E8",
"jX c #DAF5E8",
"kX c #DAF5E9",
"lX c #DBF5E9",
"zX c #DBF6E9",
"xX c #DCF6EA",
"cX c #DCF7EA",
"vX c #DCF7EB",
"bX c #DDF7EB",
"nX c #DDF8EC",
"mX c #DEF8EC",
"MX c #DEF9EC",
"NX c #DFF9ED",
"BX c #E0FAEE",
"VX c #E0FBEF",
"CX c #E1FBEF",
"ZX c #E1FCEF",
"AX c #E1FCF0",
"SX c #E2FDF0",
"DX c #E2FDF1",
"FX c #E3FEF1",
"GX c #E3FFF2",
"HX c #E6FFF4",
"JX c #E8FFF7",
"KX c None",
/* pixels */
"hXhXhXhXhXhXhXhXhXhXhXhXhXhXhXhXhXhXhXhXhXhXhXhXhXhXhXhXhXhXhXhXhXhXhXhXhXhXhXhXhXhXhXhXhXhXhXhXhXhXhXhXhXhXhXhXhXhXhXhXhXhXhXhXhXhXhXhXhXhXhXhXhXhXhXhXhXhXhXhX",
"hXhXhXhXhXhXhXhXhXhXhXhXhXhXhXhXhXhXhXhXhXhXhXhXhXhXhXhXhXhXhXhXhXhXhXhXhXhXhXhXhXhXhXhXhXhXhXhXhXhXhXhXhXhXhXhXhXhXhXhXhXhXhXhXhXhXhXhXhXhXhXhXhXhXhXhXhXhXhXhX",
"hXhXhXhXhXhXhXhXhXhXhXhXhXhXhXhXhXhXhXhXhXhXhXhXhXhXhXhXhXhXhXhXhXhXhXhXhXhXhXhXhXhXhXhXhXhXhXhXhXhXhXhXhXhXhXhXhXhXhXhXhXhXhXhXhXhXhXhXhXhXhXhXhXhXhXhXhXhXhXhX",
"hXhXhXhXhXhXhXhXhXhXhXhXhXhXhXhXhXhXhXhXhXhXhXhXhXhXhXhXhXhXhXhXhXhXhXhXhXhXhXhXhXhXhXhXhXhXhXhXhXhXhXhXhXhXhXhXhXhXhXhXhXhXhXhXhXhXhXhXhXhXhXhXhXhXhXhXhXhXhXhX",
"hXhXhXhXhXhXhXhXhXhXhXhXhXhXhXhXhXhXhXhXhXhXhXhXhXhXhXhXhXhXhXhXhXhXhXhXhXhXhXhXhXhXhXhXhXhXhXhXhXhXhXhXhXhXhXhXhXhXhXhXhXhXhXhXhXhXhXhXhXhXhXhXhXhXhXhXhXhXhXhX",
"hXhXhXhXhXhXhXhXhXhXhXhXhXhXhXhXhXhXhXhXhXhXhXhXhXhXhXhXhXhXhXhXhXhXhXhXhXhXhXhXhXhXhXhXhXhXhXhXhXhXhXhXhXhXhXhXhXhXhXhXhXhXhXhXhXhXhXhXhXhXhXhXhXhXhXhXhXhXhXhX",
"hXhXhXhXhXhXhXhXhXhXhXhXhXhXhXhXhXhXhXhXhXhXhXhXhXhXhXhXhXhXhXhXhXhXhXhXhXhXhXhXhXhXhXhXhXhXhXhXhXhXhXhXhXhXhXhXhXhXhXhXhXhXhXhXhXhXhXhXhXhXhXhXhXhXhXhXhXhXhXhX",
"hXhXhXhXhXhXhXhXhXhXhXhXhXhXhXhXhXhXhXhXhXhXhXhXhXhXhXhXhXhXhXhXhXhXhXhXhXhXhXhXhXhXhXhXhXhXhXhXhXhXhXhXhXhXhXhXhXhXhXhXhXhXhXhXhXhXhXhXhXhXhXhXhXhXhXhXhXhXhXhX",
"hXhXhXhXhXhXhXhXhXhXhXhXhXhXhXhXhXhXhXhXhXhXhXhXhXhXhXhXhXhXhXhXhXhXhXhXhXhXhXhXhXhXhXhXhXhXhXhXhXhXhXhXhXhXhXhXhXhXhXhXhXhXhXhXhXhXhXhXhXhXhXhXhXhXhXhXhXhXhXhX",
"hXhXhXhXhXhXhXhXhXhXhXhXhXhXhXhXhXhXhXhXhXhXhXhXhXhXhXhXhXhXhXhXhXhXhXhXhXhXhXhXhXhXhXhXhXhXhXhXhXhXhXhXhXhXhXhXhXhXhXhXhXhXhXhXhXhXhXhXhXhXhXhXhXhXhXhXhXhXhXhX",
"hXhXhXhXhXhXhXhXhXhXhXhXhXhXhXhXhXhXhXhXhXhXhXhXhXhXhXhXhXhXhXhXhXhXhXhXhXhXhXhXhXhXhXhXhXhXhXhXhXhXhXhXhXhXhXhXhXhXhXhXhXhXhXhXhXhXhXhXhXhXhXhXhXhXhXhXhXhXhXhX",
"hXhXhXhXhXhXhXhXhXhXhXhXhXhXhXhXhXhXhXhXhXhXhXhXhXhXhXhXhXhXhXhXhXhXhXhXhXhXhXhXhXhXhXhXhXhXhXhXhXhXhXhXhXhXhXhXhXhXhXhXhXhXhXhXhXhXhXhXhXhXhXhXhXhXhXhXhXhXhXhX",
"hXhXhXhXhXhXhXhXhXhXhXhXhXhXhXhXhXhXhXhXhXhXhXhXhXhXhXhXhXhXhXhXhXhXhXhXhXhXhXhXhXhXhXhXhXhXhXhXhXhXhXhXhXhXhXhXhXhXhXhXhXhXhXhXhXhXhXhXhXhXhXhXhXhXhXhXhXhXhXhX",
"hXhXhXhXhXhXhXhXhXhXhXhXhXhXhXhXhXhXhXhXhXhXhXhXhXhXhXhXhXhXhXhXhXhXhXhXhXhXhXhXhXhXhXhXhXhXhXhXhXhXhXhXhXhXhXhXhXhXhXhXhXhXhXhXhXhXhXhXhXhXhXhXhXhXhXhXhXhXhXhX",
"hXhXhXhXhXhXhXhXhXhXhXhXhXhXhXhXhXhXhXhXhXhXhXhXhXhXhXhXhXhXhXhXhXhXhXhXhXhXhXhXhXhXhXhXhXhXhXhXhXhXhXhXhXhXhXhXhXhXhXhXhXhXhXhXhXhXhXhXhXhXhXhXhXhXhXhXhXhXhXhX",
"hXhXhXhXhXhXhXhXhXhXhXhXhXhXhXhXhXhXhXhXhXhXhXhXhXhXxXxXxXxXbXhXbXxXxXxXxXxXxXxXxXxXxXxXxXxXxXxXxXxXhXNXhXhXhXhXhXhXhXhXhXhXhXhXhXhXhXhXhXhXhXhXhXhXhXhXhXhXhXhX",
"hXhXhXhXhXhXhXhXhXhXhXhXhXhXhXhXhXhXhXhXhXhXhXhXhXhXNXvXvXvXbXvXvXcXhXNXvXvXhXNXvXvXhXNXvXcXcXmXNXhXNXvXxXhXhXhXhXhXhXhXhXhXhXhXhXhXhXhXhXhXhXhXhXhXhXhXhXhXhXhX",
"hXhXhXhXhXhXhXhXhXhXhXhXhXhXhXhXhXhXhXhXhXhXhXxXhX4X+XXXXXXXXXXXXXXXOXXXXXXXOXXXXXXXXXXXXXXXXXXXXXXXXX|.-XuXmXhXhXhXhXhXhXhXhXhXhXhXhXhXhXhXhXhXhXhXhXhXhXhXhXhX",
"hXhXhXhXhXhXhXhXhXhXhXhXhXhXhXhXhXhXhXhXhXhXhXxXbX+X;   & & & & & & & & & & & & & & & & & & & & & & &   M eXCXhXhXhXhXhXhXhXhXhXhXhXhXhXhXhXhXhXhXhXhXhXhXhXhXhX",
"hXhXhXhXhXhXhXhXhXhXhXhXhXhXhXhXhXhXhXhXhXhXhXxXbXXX                                                    x qXZXhXhXhXhXhXhXhXhXhXhXhXhXhXhXhXhXhXhXhXhXhXhXhXhXhX",
"hXhXhXhXhXhXhXhXhXhXhXhXhXhXhXhXhXhXhXhXhXNXNXZXSX+X&                                                   n tXHXNXCXxXhXhXhXhXhXhXhXhXhXhXhXhXhXhXhXhXhXhXhXhXhXhX",
"hXhXhXhXhXhXhXhXhXhXhXhXhXhXhXhXhXhXhXhXhXaXiXsXdX X&                                                   n 9XhXaXaXgXhXhXhXhXhXhXhXhXhXhXhXhXhXhXhXhXhXhXhXhXhXhX",
"hXhXhXhXhXhXhXhXhXhXhXhXhXhXhXhXhXhXhXNX6XJ V A A M KXKXKXKXKXKXKXKXKXKXKXKXKXKXKXKXKXKXKXKXKXKXKXKXKXKXw V G Z C &XaXxXhXhXhXhXhXhXhXhXhXhXhXhXhXhXhXhXhXhXhXhX",
"hXhXhXhXhXhXhXhXhXhXhXhXhXhXhXhXhXhXhXZX=X4       2 KXKXKXKXKXKXKXKXKXKXKXKXKXKXKXKXKXKXKXKXKXKXKXKXKXKXKX        C aXCXhXhXhXhXhXhXhXhXhXhXhXhXhXhXhXhXhXhXhXhX",
"hXhXhXhXhXhXhXhXhXhXhXhXhXhXhXhXhXhXhXZX-X4       g G.].(.(.(.(.).(.(.(.(.(.(.(.(.(.(.(.(.(.(.(.(.(.(.[.O.<       Z aXNXgXhXhXhXhXhXhXhXhXhXhXhXhXhXhXhXhXhXhXhX",
"hXhXhXhXhXhXhXhXhXhXhXhXhXhXhXhXNXSXSXHX,X3       k H.).!.!.!.!.!.!.!.!.!.R.Q.R.!.!.!.!.Q.R.!.!.R.R.R.].#.<       A hXHXZXCXxXhXhXhXhXhXhXhXhXhXhXhXhXhXhXhXhXhX",
"hXhXhXhXhXhXhXhXhXhXhXhXhXhXhXsXtXwXwXyX%X6 * : : l Z.!.U.U.U.U.P.U.U.U.U.U.P.U.U.U.U.U.P.U.U.U.R.R.R.].$.7 > 1 1 F 9XtXqXwXiXhXhXhXhXhXhXhXhXhXhXhXhXhXhXhXhXhX",
"hXhXhXhXhXhXhXhXhXhXhXhXhXhXNX7XA z n c f U P I L %.z.m.b.b.b.b.b.b.b.m.m.b.b.m.n.b.b.b.m.b.b.M.P.Q.!.!.c.$.+.#.#.| m c b N -XhXhXhXhXhXhXhXhXhXhXhXhXhXhXhXhXhX",
"hXhXhXhXhXhXhXhXhXhXhXhXhXhXSX4X8       r E =.} } 1.r.p.y.y.y.p.y.y.y.y.p.y.y.y.y.y.y.y.y.y.r.h.P.!.!.R.(.].].].[.o.        |.xXbXhXhXhXhXhXhXhXhXhXhXhXhXhXhXhX",
"hXhXhXhXhXhXhXhXhXhXhXhXhXhXSX4Xq       u T } / / ,.p.p.p.p.y.p.p.p.p.p.p.p.p.p.p.p.p.p.p.p.y.x.J.!.R.R.R.R.R.!.(.o.+     & XXbXhXhXhXhXhXhXhXhXhXhXhXhXhXhXhXhX",
"hXhXhXhXhXhXhXhXhXhXhXhXhXhXSX4Xq       u T } / / ,.y.p.y.y.p.p.p.y.y.p.p.p.p.y.p.y.p.y.p.p.y.x.P.!.Q.Q.!.R.!.!.(.o.@     & XXbXbXhXhXhXhXhXhXhXhXhXhXhXhXhXhXhX",
"hXhXhXhXhXhXhXhXhXhXhXhXhXhXSX4Xq       u T } / / ,.y.p.p.p.p.y.p.p.p.p.y.y.p.p.p.y.p.p.p.y.y.h.A.J.P.P.P.R.!.(.(.o.@     & XXbXbXhXhXhXhXhXhXhXhXhXhXhXhXhXhXhX",
"hXhXhXhXhXhXhXhXhXhXhXhXhXhXSX4Xq       i T { ` W 1.p.p.y.p.p.p.y.p.p.p.p.p.p.p.p.p.p.p.p.y.p.p.h.z.x.f.N.U.!.!.)...@     & XXxXhXhXhXhXhXhXhXhXhXhXhXhXhXhXhXhX",
"hXhXhXhXhXhXhXhXhXhXhXhXhXhXSX4Xq       y T { ~ ~ 1.y.p.p.p.y.y.p.p.f.f.p.p.p.y.y.p.y.y.y.p.p.y.y.y.y.y.b.U.!.).!...@     &  XNXbXhXhXhXhXhXhXhXhXhXhXhXhXhXhXhX",
"hXhXhXhXhXhXhXhXhXhXhXhXhXhXSX4Xq       y T { ` ~ 1.y.p.p.y.p.p.y.y.w.w.w.w.y.p.f.f.f.p.p.p.p.p.p.p.p.y.b.U.R.!.(.o.@     & XXvXbXhXhXhXhXhXhXhXhXhXhXhXhXhXhXhX",
"hXhXhXhXhXhXhXhXhXhXhXhXhXhXSX4Xq       y T { ~ ~ 1.y.p.p.p.y.p.p.8.>.;.;.>.8.h.C.F.F.Z.N.f.p.p.y.y.p.p.m.P.R.).(.o.@     & XXvXhXhXhXhXhXhXhXhXhXhXhXhXhXhXhXhX",
"hXhXhXhXhXhXhXhXhXhXhXhXhXhXSX4Xq       y T ` ` ~ 1.w.s.p.p.y.p.p.5.` Q ^ ` 2.z.J.).!.!.F.f.y.p.p.p.y.y.b.U.!.!.).o.@     & XXbXbXhXhXhXhXhXhXhXhXhXhXhXhXhXhXhX",
"hXhXhXhXhXhXhXhXhXhXhXhXhXhXSX4Xq       y T { ~ ^ 1.r.s.y.p.p.p.p.5.~ ^ ` ~ 2.z.P.!.!.!.F.f.y.p.p.y.p.p.b.U.!.(.~.o.@     & XXvXbXhXhXhXhXhXhXhXhXhXhXhXhXhXhXhX",
"hXhXhXhXhXhXhXhXhXhXhXhXhXhXSX4Xq       y T { ` W 1.r.s.y.p.p.p.p.2.~ Q Q ` 2.x.J.!.!.).F.f.y.p.p.p.y.y.b.U.(.!.~.o.@     & XXvXhXhXhXhXhXhXhXhXhXhXhXhXhXhXhXhX",
"hXhXhXhXhXhXhXhXhXhXhXhXhXhXSX4Xq       i R { ~ ~ 1.r.s.p.p.y.p.p.7.-.&.&.-.6.h.A.P.P.P.C.f.y.p.y.p.p.y.b.U.!.(.~.o.@     & XXvXbXhXhXhXhXhXhXhXhXhXhXhXhXhXhXhX",
"hXhXhXhXhXhXhXhXhXhXhXhXhXhXSX4Xq       u T } ` ~ 1.r.s.r.s.y.p.p.w.q.q.0.0.e.p.f.x.x.z.f.p.p.p.p.p.p.y.b.U.!.~.).o.@     & XXxXbXhXhXhXhXhXhXhXhXhXhXhXhXhXhXhX",
"hXhXhXhXhXhXhXhXhXhXhXhXhXhXSX4Xq       u T } ~ ~ 1.r.s.s.r.p.p.p.z.M.C.N.C.b.e.7.2.2.2.9.r.p.p.y.y.p.p.b.P.!.~.!.o.@     &  XNXhXhXhXhXhXhXhXhXhXhXhXhXhXhXhXhX",
"hXhXhXhXhXhXhXhXhXhXhXhXhXhXSX4Xq       u T } ` ~ 1.p.p.p.p.y.y.i.m.U.!.!.P.M.q.-./ ' / >.w.f.i.p.p.p.y.b.U.!.~.~.o.@     & XXvXbXhXhXhXhXhXhXhXhXhXhXhXhXhXhXhX",
"hXhXhXhXhXhXhXhXhXhXhXhXhXhXSX4Xq       u T } ~ ~ 1.y.p.y.p.p.p.i.N.!.!.!.!.N.q.&.Q / ^ >.w.p.i.p.y.p.p.b.U.!.~.).o.@     & XXvXbXhXhXhXhXhXhXhXhXhXhXhXhXhXhXhX",
"hXhXhXhXhXhXhXhXhXhXhXhXhXhXSX4Xq       u T } ` ~ 1.r.p.y.p.p.p.i.N.!.~.~.!.N.q.&.Q ` Q :.w.p.i.p.p.y.y.b.U.!.!.).o.@     & XXbXhXhXhXhXhXhXhXhXhXhXhXhXhXhXhXhX",
"hXhXhXhXhXhXhXhXhXhXhXhXhXhXSX4Xq       u T } ~ ~ 1.r.s.p.p.y.y.i.m.P.!.~.P.C.q.-./ ~ ` :.w.f.i.y.p.p.p.m.U.!.).~.o.@     & XXvXbXhXhXhXhXhXhXhXhXhXhXhXhXhXhXhX",
"hXhXhXhXhXhXhXhXhXhXhXhXhXhXSX4Xq       y T } ^ ~ 1.p.p.p.y.p.p.i.z.M.M.N.m.z.w.6.2.5.5.9.i.i.i.p.p.y.y.b.U.!.~.~.o.@     & XXvXbXhXhXhXhXhXhXhXhXhXhXhXhXhXhXhX",
"hXhXhXhXhXhXhXhXhXhXhXhXhXhXAX6Xq       y T } ` ~ 1.y.p.p.p.y.p.i.i.p.y.p.p.p.p.p.p.p.p.i.i.i.i.y.y.p.p.b.P.!.~.~.o.@     & XXvXhXhXhXhXhXhXhXhXhXhXhXhXhXhXhXhX",
"hXhXhXhXhXhXhXhXhXhXhXhXhXhXSX4Xq       u R } ~ ~ 1.i.s.p.p.p.p.p.p.p.y.p.y.y.p.p.p.p.p.p.p.p.y.p.p.p.y.b.U.!.!.).o.@     & XXxXbXhXhXhXhXhXhXhXhXhXhXhXhXhXhXhX",
"hXhXhXhXhXhXhXhXhXhXhXhXhXhXSX4Xq       y T *.~ ` ;.3.4.2.2.q.p.y.y.p.p.p.p.p.p.y.p.p.y.y.y.p.p.p.y.p.y.b.U.!.).!.o.@     & XXbXbXhXhXhXhXhXhXhXhXhXhXhXhXhXhXhX",
"hXhXhXhXhXhXhXhXhXhXhXhXhXhXSX4Xq       y T } ` ` ' ~ ~ ~ &.5.p.p.p.y.p.y.p.p.y.p.p.p.p.p.p.y.p.p.y.p.y.b.U.!.).~.o.@     & XXbXhXhXhXhXhXhXhXhXhXhXhXhXhXhXhXhX",
"hXhXhXhXhXhXhXhXhXhXhXhXhXhXSX4Xq       y T } ~ ~ ~ ` ' Q ` 5.p.p.p.p.p.y.p.p.p.p.y.y.p.p.y.p.p.p.p.p.y.b.P.!.!.).o.@     & XXvXvXhXhXhXhXhXhXhXhXhXhXhXhXhXhXhX",
"hXhXhXhXhXhXhXhXhXhXhXhXhXhXSX4X0       r R *.} } ' ~ ' ` ~ 5.p.p.p.p.f.p.p.p.p.p.p.p.f.p.f.p.p.p.p.p.p.b.!.(.].].o.        XXbXvXhXhXhXhXhXhXhXhXhXhXhXhXhXhXhX",
"hXhXhXhXhXhXhXhXhXhXhXhXhXhXSX4Xe   & $ i T ~ W Q ~ ` ~ ` ' 2.p.y.y.y.y.y.y.y.y.y.y.y.y.y.y.p.y.y.y.y.r.z.G.G.P.P...= $   ; +XbXvXhXhXhXhXhXhXhXhXhXhXhXhXhXhXhX",
"hXhXhXhXhXhXhXhXhXhXhXhXhXhXbXeX$X}.OX@XH d a s p K ~ ` ~ ' ;.<.<.<.<.<.<.<.<.<.<.<.,.,.,.,.,.,.1.,.,.1.%.l h k k B  XXXXX+X4XhXhXhXhXhXhXhXhXhXhXhXhXhXhXhXhXhX",
"hXhXhXhXhXhXhXhXhXhXhXhXhXhXhXhXhXcXNXSX>X5       p W } ` ~ / / ^ / / / / / ^ / / / / ~ / / / / ^ ` Q } L :       G sXSXvXNXhXhXhXhXhXhXhXhXhXhXhXhXhXhXhXhXhXhX",
"hXhXhXhXhXhXhXhXhXhXhXhXhXhXhXhXhXNXhXSX,X5       s W } ~ ` ~ ` / / / / / ~ ~ / / / / / / / / / / / ^ } P :       A aXCXxXxXhXhXhXhXhXhXhXhXhXhXhXhXhXhXhXhXhXhX",
"hXhXhXhXhXhXhXhXhXhXhXhXhXhXhXhXhXhXhXSX&X;       p ~ *.} } } } { { { { { *.*.{ } } } } } } } } } } } =.P *       V aXNXhXhXhXhXhXhXhXhXhXhXhXhXhXhXhXhXhXhXhXhX",
"hXhXhXhXhXhXhXhXhXhXhXhXhXhXhXhXhXhXhXSX<X0 ; 3 5 d Y T R T T T T T T T T T T T T T T T T T T T T T T E U 6 3 5 5 J aXNXhXhXhXhXhXhXhXhXhXhXhXhXhXhXhXhXhXhXhXhX",
"hXhXhXhXhXhXhXhXhXhXhXhXhXhXhXhXhXhXhXhXrX<X=X:X,XH i y y y u u u u u u y y y y u u u u u u u u u u u r f $X,X=X-X5XgXxXhXhXhXhXhXhXhXhXhXhXhXhXhXhXhXhXhXhXhXhX",
"hXhXhXhXhXhXhXhXhXhXhXhXhXhXhXhXhXhXhXhXmXNXZXSXSX@X$                                                   c tXJXSXZXNXhXhXhXhXhXhXhXhXhXhXhXhXhXhXhXhXhXhXhXhXhXhX",
"hXhXhXhXhXhXhXhXhXhXhXhXhXhXhXhXhXhXhXhXhXhXhXmXxXXX&                                                   n qXSXhXhXhXhXhXhXhXhXhXhXhXhXhXhXhXhXhXhXhXhXhXhXhXhXhX",
"hXhXhXhXhXhXhXhXhXhXhXhXhXhXhXhXhXhXhXhXhXhXhXxXxX}.                                                    z qXSXhXhXhXhXhXhXhXhXhXhXhXhXhXhXhXhXhXhXhXhXhXhXhXhXhX",
"hXhXhXhXhXhXhXhXhXhXhXhXhXhXhXhXhXhXhXhXhXhXhXxXxX$Xe 0 q q q q q q q q q q q q q q q q q q q q q q q 8 Z tXCXhXhXhXhXhXhXhXhXhXhXhXhXhXhXhXhXhXhXhXhXhXhXhXhXhX",
"hXhXhXhXhXhXhXhXhXhXhXhXhXhXhXhXhXhXhXhXhXhXhXhXhXtX6X1X4X4X4X4X4X4X4X4X4X4X4X4X4X4X4X4X4X4X4X4X4X4X4X1X7XsXhXhXhXhXhXhXhXhXhXhXhXhXhXhXhXhXhXhXhXhXhXhXhXhXhXhX",
"hXhXhXhXhXhXhXhXhXhXhXhXhXhXhXhXhXhXhXhXhXhXhXhXhXNXSXSXSXSXSXSXSXSXSXSXSXSXSXSXSXSXSXSXSXSXSXSXSXSXSXSXVXhXhXhXhXhXhXhXhXhXhXhXhXhXhXhXhXhXhXhXhXhXhXhXhXhXhXhX",
"hXhXhXhXhXhXhXhXhXhXhXhXhXhXhXhXhXhXhXhXhXhXhXhXhXhXhXhXhXhXhXhXhXhXhXhXhXhXhXhXhXhXhXhXhXhXhXhXhXhXhXhXhXhXhXhXhXhXhXhXhXhXhXhXhXhXhXhXhXhXhXhXhXhXhXhXhXhXhXhX",
"hXhXhXhXhXhXhXhXhXhXhXhXhXhXhXhXhXhXhXhXhXhXhXhXhXhXhXhXhXhXhXhXhXhXhXhXhXhXhXhXhXhXhXhXhXhXhXhXhXhXhXhXhXhXhXhXhXhXhXhXhXhXhXhXhXhXhXhXhXhXhXhXhXhXhXhXhXhXhXhX",
"hXhXhXhXhXhXhXhXhXhXhXhXhXhXhXhXhXhXhXhXhXhXhXhXhXhXhXhXhXhXhXhXhXhXhXhXhXhXhXhXhXhXhXhXhXhXhXhXhXhXhXhXhXhXhXhXhXhXhXhXhXhXhXhXhXhXhXhXhXhXhXhXhXhXhXhXhXhXhXhX",
"hXhXhXhXhXhXhXhXhXhXhXhXhXhXhXhXhXhXhXhXhXhXhXhXhXhXhXhXhXhXhXhXhXhXhXhXhXhXhXhXhXhXhXhXhXhXhXhXhXhXhXhXhXhXhXhXhXhXhXhXhXhXhXhXhXhXhXhXhXhXhXhXhXhXhXhXhXhXhXhX",
"hXhXhXhXhXhXhXhXhXhXhXhXhXhXhXhXhXhXhXhXhXhXhXhXhXhXhXhXhXhXhXhXhXhXhXhXhXhXhXhXhXhXhXhXhXhXhXhXhXhXhXhXhXhXhXhXhXhXhXhXhXhXhXhXhXhXhXhXhXhXhXhXhXhXhXhXhXhXhXhX",
"hXhXhXhXhXhXhXhXhXhXhXhXhXhXhXhXhXhXhXhXhXhXhXhXhXhXhXhXhXhXhXhXhXhXhXhXhXhXhXhXhXhXhXhXhXhXhXhXhXhXhXhXhXhXhXhXhXhXhXhXhXhXhXhXhXhXhXhXhXhXhXhXhXhXhXhXhXhXhXhX",
"hXhXhXhXhXhXhXhXhXhXhXhXhXhXhXhXhXhXhXhXhXhXhXhXhXhXhXhXhXhXhXhXhXhXhXhXhXhXhXhXhXhXhXhXhXhXhXhXhXhXhXhXhXhXhXhXhXhXhXhXhXhXhXhXhXhXhXhXhXhXhXhXhXhXhXhXhXhXhXhX",
"hXhXhXhXhXhXhXhXhXhXhXhXhXhXhXhXhXhXhXhXhXhXhXhXhXhXhXhXhXhXhXhXhXhXhXhXhXhXhXhXhXhXhXhXhXhXhXhXhXhXhXhXhXhXhXhXhXhXhXhXhXhXhXhXhXhXhXhXhXhXhXhXhXhXhXhXhXhXhXhX",
"hXhXhXhXhXhXhXhXhXhXhXhXhXhXhXhXhXhXhXhXhXhXhXhXhXhXhXhXhXhXhXhXhXhXhXhXhXhXhXhXhXhXhXhXhXhXhXhXhXhXhXhXhXhXhXhXhXhXhXhXhXhXhXhXhXhXhXhXhXhXhXhXhXhXhXhXhXhXhXhX",
"hXhXhXhXhXhXhXhXhXhXhXhXhXhXhXhXhXhXhXhXhXhXhXhXhXhXhXhXhXhXhXhXhXhXhXhXhXhXhXhXhXhXhXhXhXhXhXhXhXhXhXhXhXhXhXhXhXhXhXhXhXhXhXhXhXhXhXhXhXhXhXhXhXhXhXhXhXhXhXhX",
"hXhXhXhXhXhXhXhXhXhXhXhXhXhXhXhXhXhXhXhXhXhXhXhXhXhXhXhXhXhXhXhXhXhXhXhXhXhXhXhXhXhXhXhXhXhXhXhXhXhXhXhXhXhXhXhXhXhXhXhXhXhXhXhXhXhXhXhXhXhXhXhXhXhXhXhXhXhXhXhX",
"hXhXhXhXhXhXhXhXhXhXhXhXhXhXhXhXhXhXhXhXhXhXhXhXhXhXhXhXhXhXhXhXhXhXhXhXhXhXhXhXhXhXhXhXhXhXhXhXhXhXhXhXhXhXhXhXhXhXhXhXhXhXhXhXhXhXhXhXhXhXhXhXhXhXhXhXhXhXhXhX",
"hXhXhXhXhXhXhXhXhXhXhXhXhXhXhXhXhXhXhXhXhXhXhXhXhXhXhXhXhXhXhXhXhXhXhXhXhXhXhXhXhXhXhXhXhXhXhXhXhXhXhXhXhXhXhXhXhXhXhXhXhXhXhXhXhXhXhXhXhXhXhXhXhXhXhXhXhXhXhXhX",
"hXhXhXhXhXhXhXhXhXhXhXhXhXhXhXhXhXhXhXhXhXhXhXhXhXhXhXhXhXhXhXhXhXhXhXhXhXhXhXhXhXhXhXhXhXhXhXhXhXhXhXhXhXhXhXhXhXhXhXhXhXhXhXhXhXhXhXhXhXhXhXhXhXhXhXhXhXhXhXhX"
};
