/* XPM */
static char *xpm_[] = {
/* columns rows colors chars-per-pixel */
"80 80 206 2 ",
"   c #0D0907",
".  c #050304",
"X  c #110C09",
"o  c #150A04",
"O  c #141414",
"+  c #161718",
"@  c #23150C",
"#  c #381B0E",
"$  c #221712",
"%  c #251914",
"&  c #281E18",
"*  c #38160A",
"=  c #2A211B",
"-  c #34251C",
";  c #38291F",
":  c #3A2619",
">  c #252423",
",  c #282624",
"<  c #292826",
"1  c #292B2C",
"2  c #3A2C21",
"3  c #332D22",
"4  c #3B382B",
"5  c #3A3428",
"6  c #2D2F30",
"7  c #393838",
"8  c #2E3133",
"9  c #491E0D",
"0  c #411E10",
"q  c #4A200E",
"w  c #442212",
"e  c #422B1C",
"r  c #492918",
"t  c #5C2A16",
"y  c #572914",
"u  c #532E1A",
"i  c #6B2E16",
"p  c #672912",
"a  c #6D3017",
"s  c #65331B",
"d  c #6D3118",
"f  c #70341A",
"g  c #74391E",
"h  c #783A1E",
"j  c #5B3C27",
"k  c #473C29",
"l  c #6B3A21",
"z  c #773D21",
"x  c #7B3D20",
"c  c #494338",
"v  c #534936",
"b  c #6A452C",
"n  c #7C4426",
"m  c #73492D",
"M  c #7E492A",
"N  c #6C4B34",
"B  c #794E31",
"V  c #7D5132",
"C  c #765536",
"Z  c #3D3D40",
"A  c #3D4143",
"S  c #46494B",
"D  c #4A4B4B",
"F  c #444444",
"G  c #5B534A",
"H  c #515151",
"J  c #575959",
"K  c #4F4A47",
"L  c #74674A",
"P  c #5F6162",
"I  c #626465",
"U  c #68696B",
"Y  c #6D6F71",
"T  c #6E7071",
"R  c #737476",
"E  c #747779",
"W  c #76797B",
"Q  c #7A7C7D",
"!  c #695343",
"~  c #864626",
"^  c #8A4827",
"/  c #834D2C",
"(  c #894C2B",
")  c #894727",
"_  c #94512E",
"`  c #98542F",
"'  c #895533",
"]  c #865838",
"[  c #885A39",
"{  c #845535",
"}  c #975B36",
"|  c #88512F",
" . c #95613B",
".. c #A0643D",
"X. c #A9643B",
"o. c #B36B3F",
"O. c #946644",
"+. c #8C6F4A",
"@. c #A76C43",
"#. c #B46C40",
"$. c #B96E41",
"%. c #A9764B",
"&. c #BD7B4D",
"*. c #B77548",
"=. c #C27647",
"-. c #C27949",
";. c #C67949",
":. c #8C8359",
">. c #93875C",
",. c #AD8658",
"<. c #B78A59",
"1. c #A69364",
"2. c #BC9A65",
"3. c #BD9C67",
"4. c #B8A672",
"5. c #9F9668",
"6. c #CB804E",
"7. c #D0814E",
"8. c #C48352",
"9. c #CC8553",
"0. c #D18450",
"q. c #D48A55",
"w. c #DB8C56",
"e. c #DB8F58",
"r. c #D38F59",
"t. c #DA905A",
"y. c #E6955C",
"u. c #E9965D",
"i. c #EB995E",
"p. c #E7995F",
"a. c #EB945A",
"s. c #CA9A64",
"d. c #D09C66",
"f. c #E79B61",
"g. c #E99C62",
"h. c #F19D61",
"j. c #CAA36B",
"k. c #CDAF75",
"l. c #C5AF76",
"z. c #DBAD71",
"x. c #CDB177",
"c. c #CCB278",
"v. c #D1B479",
"b. c #DAB578",
"n. c #EAA266",
"m. c #EAA569",
"M. c #ECAB6E",
"N. c #F1A96B",
"B. c #EDAE70",
"V. c #EDB274",
"C. c #ECB778",
"Z. c #EEBA7A",
"A. c #E7BB7B",
"S. c #F2B878",
"D. c #EEC07F",
"F. c #7D7F80",
"G. c #7F8181",
"H. c #818282",
"J. c #8B8C8C",
"K. c #979898",
"L. c #8F9091",
"P. c #A3A4A4",
"I. c #AAAAAB",
"U. c #B4B4B4",
"Y. c #BCBCBC",
"T. c #CABD82",
"R. c #E0BF80",
"E. c #CDC084",
"W. c #DDC485",
"Q. c #DECF8E",
"!. c #DFD08E",
"~. c #EFC381",
"^. c #E0C988",
"/. c #E0C686",
"(. c #F3C986",
"). c #F3CD89",
"_. c #FBCE88",
"`. c #F3C784",
"'. c #F5D28D",
"]. c #E6D592",
"[. c #F4D791",
"{. c #F4D791",
"}. c #F5DD96",
"|. c #F4DB95",
" X c #FADC95",
".X c #F4DF98",
"XX c #F9D790",
"oX c #F5E29A",
"OX c #F7E79E",
"+X c #F6E59D",
"@X c #F6E59C",
"#X c #F8E39B",
"$X c #F6E89F",
"%X c #F9E99F",
"&X c #F7E9A0",
"*X c #FAEBA1",
"=X c #FFF1A5",
"-X c #BFC0C0",
";X c #C3C3C3",
":X c #CBCBCB",
">X c #D5D5D5",
",X c #DBDBDB",
"<X c #E3E3E3",
"1X c #ECECEC",
"2X c #F2F2F2",
"3X c #FCFCFC",
/* pixels */
"f d f f f f f f f f f f f f d f f f f f f f f f f f f f f f f f f f f f d f f f f f f f d g f f f d g d f f f f f f d f f f f f f f f d f f d g d f d f f f d f ",
"f f f a a a i i a a f f f f f f d d d d d d a a a d d a a a d d d a d d d d a a d d a d a a a d d a d d d d d d d a a d d d a a a f f f f f a d a a a a a f f f ",
"f f f n n n n n n z d d f f f g h x h x x h h x x x x x h x h x x x x x x h n n h x h h h h h x x h x x h x x h x h x x x h n n f f f f f f z n n n n n n a f f ",
"f i n ,.v.x.k.v.k.%.z a f f a n o.;.-.-.&.=.=.;.=.=.=.&.=.=.=.=.=.=.=.-.=.&.s.j.8.-.-.=.-.=.-.-.-.-.-.-.=.=.-.-.-.-.-.-.=.-.s.2./ a f f a g %.c.x.x.x.v.,.n a f ",
"f i n j.XX'.}.&X&X3.z a a f a ) q.i.i.i.n.M.n.i.i.i.i.m.V.V.B.V.B.m.i.i.a.i.(.oXm.u.i.M.B.B.n.i.i.i.u.a.g.M.n.i.i.i.y.a.i.i.).^.' i f f a g <.'.'.}.&X*Xv.~ a d ",
"d a n -.g.g.`.OX&X2.f i f f d ~ 7.i.y.y.B.[.V.y.y.y.n.D.oXoX|.oXoXD.y.y.y.y.D.[.n.y.f.`.oX}.B.y.y.y.y.y.M.'.C.y.y.y.y.y.y.y.(.W.' i a f f g $.f.g.Z.@X*Xk.n a f ",
"f a x -.u.y.~.&X&X2.z i f d d ~ 7.y.p.V.).oXC.y.y.m.D.oX+X+X+X$X+XD.y.y.y.y.D.[.n.m.~.|.$X+XC.y.y.y.y.y.B.}.{.A.p.y.y.y.y.y.(.W.' i f f a g o.y.y.C.oX*Xx.n i f ",
"f a x -.u.y.C.|.#X2.z a f d d ) r.m.M.'.$X+XD.n.n.D.+X$XoX+X+X$X+X).m.n.n.m.).}.V.D.+X%X+X+XD.m.m.m.n.n.Z.oX$X|.V.n.m.m.n.N.)./.' i f f a g o.y.u.Z.oX&Xk.n a d ",
"d a x -.f.y.h.B.[.2.g a f f i | b.}.[.oX+X+XoX[.[.}.+X+X+X#X+X+X+XoX[.'.[.[.oX#X}.}.+X+X+X+X}.[.[.[.[.[.}.+X+X+X[.[.[.[.[.|.%XW.' i f f a g o.y.i.C.oX*Xk.n i f ",
"f i x -.h.V.V.R.|.3.g a f f a n ,.j.2.2.2.2.2.2.2.2.2.2.2.2.2.2.2.2.2.2.2.2.2.2.2.2.2.2.2.2.2.2.3.2.2.2.2.2.2.2.2.2.2.2.2.2.3.,.M a f f f f #.y.y.m.D.oXx.n a f ",
"f d x =.B.|.@X@X+X2.g a f f f f g g g g g g g g g g g g g g g g g g g g g g g g g g g g g g g g g g g g g g g g g g g g g g g g f f f f a g o.u.i.f.m.'.x.n i f ",
"f d x -.B.@X&X@XOX2.g i f f f f a a a a a a a a a a a a a a a a a a d d a a d d a a a a a a a a a a a a a i a a a a a a a a a a d f f f a g o.n.~.'.).oXx.n i f ",
"f d x -.m.(.|.&X.X2.z a f f f f f f d f f f f f f f f f f f f f d g f f f f f d f f f f f f f f f f f f d f f f f f f f f f f f f f f f a g o.n.~.}.%X&Xk.n i f ",
"d d x -.f.g.~.&X&X2.z a f d f f f f f f f d f f f f d f f f f d f d d d f f f f f f f d f f a f f f f f f f f f d f f d f d f f f f d f d f o.y.f.Z.oX&Xx.n a f ",
"f i x -.u.y.m.~.|.2.f a f f f d a i i i i i i i a a f f d a i a a a i a a f d f f f f i i i i i i i i i a f g d a i i i i a i a f f f f f g o.y.y.n.Z.}.x.n i f ",
"f a x -.u.y.y.n.{.2.z a f f a z / ' ' ' ' ' ' ' ' n f f z | ' ' ' ' | ' / f f f f a g / ' ' ' ' ' ' ' ' M g a h / ' ' ' ' ' ' / g a f f f f o.y.y.y.f.'.x.n i f ",
"d d x -.u.y.y.g.{.2.z a f f i / k.W.W.W.W.R.W.W.W.,.g i [ v.^.W.W.W.W.W.s.x a f l d z 2.^./.W.R.A.W.W.Q.2.n p / l.^.W.W.W.W.W.k./ a f f a g o.i.y.y.p.'.x.n a f ",
"f d x -.n.C.C.~.|.2.f a f f i | z._._..X*X*X*X*X*X2.g i  .D.).).#X*X*X=Xc.n i f d d x d._.(..X=X&X&X%X=Xx.n p ( z._.).+X*X%X=XW.' i f f a f o.y.p.y.f.).x.n i f ",
"f d x =.B.{.oX@X@X2.z a f d a ) 0.u.g.).&X&XoX.X+X2.g p _ w.i.m.{.&X@X&Xk.n i f f d x =.f.f.R. X@X@X@X%Xk.n p ~ 7.i.f.`.oX+X*XW.' i f f d f o.y.p.y.n.'.x.n i f ",
"f d x -.g.B.).&X&X2.f a f f d ) q.h.g.).&XoX~.Z.|.2.g i _ w.a.n.'.&X@X*Xk.n i f f d x =.a.y.h.R.{.+X@X%Xk.n i ~ 7.i.y.m.Z.oX*XW.' i f f f g o.i.y.M.).+Xx.n i f ",
"d a x -.u.y.V.'..X2.z i f f t t  .O.%.D.&X.XV.m.{.2.g i _ w.u.m.{.&XoX&Xk.n a f f d x =.f.a.a.g.{.$X@X%Xx.n i ~ 7.i.y.y.M.}.&XW.' i f f a g o.u.y.Z.+X*Xx.n a f ",
"f i x -.f.y.y.B.[.2.z i f d # X = = 4 4.&X.XV.n.{.2.g i _ w.u.m.{.oXoX&Xk.n i f f d x ;.f.f.w.h.].$X$X*Xx.n p ~ 7.i.y.u.B.}.*XW.' i f d a f o.y.y.C.oX*Xk.n i f ",
"f a x -.f.y.y.g.{.2.z a t # c I I U U I 5..XR.N. Xs.g i ` y.h.N. X=X*X=Xv.n a f g d x ;.h.g.a.N. X=X%X=Xv./ p ) q.h.i.i.V..X*XW.' i f f f g o.y.y.C.oX*Xk.n i f ",
"f a x -.u.y.f.B.{.2.z f 9 X I Y.;X;XP.Z c 4.d.9.k.>.s y n #.&.8.l.T.T.T.1.l t t p t s ..-.&.=.<.l.T.v.E.1.s y g @.-.&.&.s..X*XW.' a f f a f #.y.y.C.oX&Xx.n i f ",
"d d n -.i.y.Z.|.+X2.f f 9 X I ;X1X<XI.A O 5 2 2 5 3 $ $ & ; ; ; 4 4 4 4 3 % $ $ $ $ $ - : 2 2 2 5 4 4 4 3 % + + ; ; 2 - L ].=XW.' i a f a g o.y.y.C.#X*Xk.n a f ",
"f d x -.u.p.~.&X&X2.g f 9 X R <X3X2X;XD 1 Y Q E E E Q Q E Q E E R R E R E Q Q Q Q Q Q W E R E E R R R R R Q Q F.J J D + c Q.=XW.' i f f f f o.g.B.).@X&Xk.n a a ",
"a d x -.u.y.~.+X#X2.g a 9 o J.3X3X3X<XH H ,X3X2X2X2X2X2X2X2X2X2X2X2X2X2X2X2X2X2X2X2X2X2X2X2X2X2X2X2X2X2X2X2X2X<XY.U.P.6 c Q.=XW.' i f f a g o.n.'.+X@X&Xk.n a f ",
"f i x -.y.y.~.&X@X2.h f 9   Y ,X3X2X-XF S ;X,X>X>X>X>X>X>X>X>X>X>X>X>X>X>X>X>X>X>X>X>X>X>X>X>X>X>X>X>X>X>X>X>X>X;X;XI.6 5 Q.=XW.' i f f a g o.n.{.&X+X&Xx.n a f ",
"f a x =.g.M.).+XOX2.g a 9 o I -X<X>XP.c 6 R G.Q Q Q G.H.G.G.G.Q F.F.F.F.F.G.G.G.H.G.G.G.G.G.F.F.G.F.F.F.G.G.:.F.G.G.E > c !.=XA.' i f f a f #.m.{.&XoX&Xk.n a f ",
"d a x =.B.{.+X+X@X2.h f 9 X I U.Y.Y.P.F O > < 1 < < > > > > > > , , , < > > > > > > > > > > > > , , , , < = 1 > < < = O v !.=XA.' i a f d f o.n.{.+X+X&Xk.n a d ",
"f d n =.V.}.&X+X#X2.g a 9 . U Y.Y.Y.I.F & V +.>.>.C w # j { ] ] ] +.>.>.L r 0 0 0 0 r m [ ] ] ] ] +.>.>.L r # y C [ [ { 1.].=XQ.' i f f d z o.n.|.&X@X&Xk.n a f ",
"f d x =.B.}.+X+X+X2.g a y @ J L.K.K.J.K b t._.&X&X3.z i _ w.i.u.u.C.#X*Xx.~ a f f a x =.f.h.u.y.u.C.&X*Xx.n i ~ q.g.u.a.M.[.&Xv.' a f f a f o.n.(.}.@X&Xk.n a f ",
"d a x =.V.|.&X+X@X2.g a a t - > 1 6 4 O.0.y.`.%X%X2.g i _ e.i.y.u.C.OX*Xx.n i f g a x -.g.u.u.u.y.Z.oX*Xx.n i ~ 0.g.u.u.f.n.).W.' i f f a g #.u.g.~.@X&Xk.n a f ",
"f a x =.B.|.&X&X#X2.g a f f 0 # j b N 8.g.y.M.(.}.2.g i _ w.i.y.y.m.~..Xx.~ i f d a x -.u.u.y.y.y.C.#X&Xk.n p ~ 0.i.y.y.y.y.(.W.' i d f a g #.y.y.m.`.}.x.n a d ",
"f a x =.B.[.}.oX@X2.g a f f d ~ 7.y.y.y.y.y.y.m.[.3.g p _ e.i.y.y.y.g.{.x.n i f f a h -.i.y.y.y.y.C.oX*Xx.n i ~ 0.i.y.y.y.f.(.W.' i f f a f #.y.y.y.g.{.x.n a a ",
"f a x -.g.B.B.S.|.2.g a f f d ) q.g.u.p.y.y.y.m.'.3.g i _ w.i.y.y.y.f.).k.n i f f a x -.i.y.y.y.y.Z.+X*Xk.n p ~ 7.u.y.y.y.u.(.W.' a d f d z #.u.u.y.f.).k.n a f ",
"f d x -.u.a.w.g.{.2.z a f f d ~ ;.i.y.u.y.y.y.m.[.2.g a _ w.p.y.y.y.g.'.v.n a f d d n =.f.y.y.y.y.M.).oXx.n p ~ 0.u.y.y.y.y.`.W.' i a f a g #.y.y.y.f.'.v.n a f ",
"d d x -.h.i.a.m.{.2.g a f f i ~ q.i.y.y.y.y.e.m.[.2.g i _ w.i.y.y.y.g.'.k.n a f f a x -.i.y.y.y.y.y.n.'.x.n p ~ ;.u.y.y.y.y.(.W.' i f f a f #.y.y.y.f.'.k.n i f ",
"f i x -.m.R.R.(.}.2.g a f f a ~ 7.i.y.u.y.y.y.m.[.2.g i _ w.i.y.y.y.g.'.x.n i f f a x -.i.y.y.y.y.y.p.'.x.n i ~ q.h.y.y.y.f.`.W.' i f f f g o.u.u.y.f.{.x.n a f ",
"d a x -.B. X*X&X+X2.g a f d d ~ 0.u.y.y.y.y.y.m.[.2.g i _ w.i.y.y.y.g.'.x.n i f a d x -.i.y.y.y.y.y.f.'.x.n i ~ ;.h.y.y.y.f.(.W.' i f f f f #.y.y.y.f.).x.n a f ",
"f a x =.B..X&X&X@X2.g i f f i ~ 0.i.y.y.y.y.y.m.[.2.g i _ q.i.y.y.y.y.'.x.n a a f a x -.i.y.y.y.y.y.f.'.x.n p ~ q.h.y.u.y.y.`.W.' i a f a g #.y.f.y.f.{.k.n a f ",
"f d x =.B.}.&X@X@X2.g i f f a ~ 0.i.y.y.y.y.y.m.[.2.g i _ w.p.y.y.y.f.'.x.n a f f a x -.i.y.y.y.y.a.n. X4.r * w b #.i.h.u.u.`.W.' i f f a g o.y.y.g.Z.}.k.n i f ",
"f d x -.B.{..X&X+X3.g a f f a ~ 7.i.y.y.y.y.y.m.[.2.g i _ w.i.y.y.y.f.'.x.n i f d d x -.i.u.y.y.y.w.r.D.1.= X O O b 9.q.q.y.(.W.' i f f a g #.u.u.V..X*Xk.n i d ",
"f a x -.g.B.).@X+X3.g a f f a ~ 0.i.y.y.y.y.y.m.[.2.g i _ w.i.y.y.y.g.'.x.n i f f d x -.f.y.y.y.i...e 5 G E Q E Q G e : m e._.W.' i f f d g #.y.f.C.&X*Xk.n i z ",
"f a x -.y.y.R.*X+X2.g a f d d ~ 0.i.y.y.y.y.y.n.[.2.g i _ w.p.y.y.y.f.'.x.n i f f a x -.u.y.y.u.g.V . O P ;X>X>X>XJ.6 . : q._.W.' i f f a g #.y.y.B.)..Xk.n a d ",
"f a x -.u.f.Z.#X+X2.g i f d a ~ 7.i.y.y.y.y.t.m.[.2.g a _ w.i.y.y.y.f.'.x.n i f d d h -.i.y.y.u.y.V + Y ;X2X3X3X3X,XK.6 r 9._.W.' i f f a f #.y.y.y.n.{.k.M i f ",
"f a x -.u.u.m.~.oX2.z a f f d ~ 0.p.y.y.y.y.y.m.[.2.f i _ w.i.y.y.y.p.'.x.n a f f d n -.i.y.i.0.{ v T -X2X3X1X<X3X3X,XL.G N 4.W.' a f f f g o.y.y.y.f.).k.n a f ",
"a d x -.u.u.y.m.[.2.g a f d a ~ 0.i.y.y.y.y.y.m.[.2.g i _ w.i.y.y.y.f.'.x.n a f f d x -.i.y.g.*.% F U.<X2X1X:XY.<X2X2X:XQ + +./.' i f f a f #.u.y.u.g.{.k.n i f ",
"f a x -.f.u.y.n.[.2.z i a f a ~ 7.i.y.y.y.y.y.m.[.2.g i _ w.i.y.y.y.p.'.x.n a f f d h -.i.y.i.*.@ S U.;X;X-XU.U.-X;X;X-XQ O :.W.' a f f d h #.y.y.y.f.).c.n a f ",
"f a x -.u.y.y.g.[.3.z i d f i ~ 0.i.y.y.y.y.y.m.[.2.g i _ w.u.y.y.y.f.'.x.n a f f d x -.i.y.h.&.@ D U.U.Y.>X>X>X>X;XU.Y.Q O :.W.' i f f d f #.y.u.y.f.{.c.n a f ",
"d d x -.f.y.y.m.[.3.z i f f d ~ 0.i.y.y.y.y.y.m.].2.g i _ w.p.y.y.y.n.'.x.n a d f d h -.u.y.i.&.: S P.U.;X2X3X3X3X>XU.I.R = >.W.' a f f d f #.u.u.y.g.).k.n i f ",
"f d x -.y.y.y.n.[.2.z i f d d ~ 7.p.y.y.y.y.y.f.M.*.f i _ w.i.y.y.y.p.'.x.n a f f a h -.i.y.p.w.%.N c L.;X:X2X3X>X:XU.J v  .b.W.' a d f d x #.u.u.u.g.'.k.n a f ",
"d a x -.f.y.y.n.{.2.z i f f d ~ 0.i.y.y.y.y.y.y.u.o.g a _ w.i.y.y.y.p.'.x.n a f f a x -.i.y.y.u.h.M   S L.U.>X<X-XP.Y + # r._.W.' i d f d f #.u.y.y.g.{.k.n i f ",
"f d x -.i.y.y.m.XX2.l i f f d ~ 7.p.p.y.y.y.y.y.y.o.d a _ w.i.y.y.y.i.'.x.n a d f d h -.i.y.y.p.i.{     A P.Y.U.U.U + . u r._.W.' i f f d f #.y.y.y.g.'.x.n a f ",
"f d x -.u.y.y.m.XX2.z i f f d ~ 0.i.y.y.y.p.y.i.y.o.g i _ w.p.y.y.y.f.'.x.n a f d d x -.i.y.y.p.i.&.{ / N H S F F v B V ..t.(.W.' i f f f f #.y.u.y.f.'.x.n a f ",
"f d x -.i.y.y.n.{.2.z a f d d ~ 0.i.y.y.y.y.y.y.i.o.f a _ w.i.y.y.y.f.'.x.n a d g d x -.i.y.y.y.y.y.y.i.@.@   o @ { y.i.i.i.(.W.' i f d a x #.a.y.y.f.).k.n a f ",
"l d x =.f.y.y.m.{.2.z i d f i ) 7.i.u.y.y.y.y.p.y.o.g i _ w.i.y.y.y.i.'.c.n a d d d n -.i.y.y.y.y.u.u.i.*.d y s @.0.i.i.y.y.(.W.' i f d d x #.y.f.y.g.'.x.n i f ",
"d d x =.f.y.y.m.{.3.z a d f i ) 7.i.y.y.y.y.y.y.y.o.g i _ w.i.y.y.y.p.Z.s.n a f f a x -.i.y.y.y.y.y.y.i.-.x i ^ w.g.y.y.y.y.(.W.| i f f d f #.y.y.y.g.'.x.n a f ",
"f a x =.a.a.y.g.{.3.z i f f d ~ 7.i.y.u.y.y.y.p.y.@.g i _ w.y.y.y.y.y.i.-.x a d f a x =.i.y.y.y.y.y.y.i.-.x i ~ 7.i.y.y.y.p.(.W.' a f f d f #.f.y.y.g.'.x.n i f ",
"d a x =.f.y.f.m.{.3.l i f f d ) q.h.i.u.p.y.y.y.i.o.f a _ w.i.y.y.y.y.i.-.h a g d a x -.u.y.y.y.y.y.u.u.-.x i ~ 7.i.y.y.y.p.(.W.| i f f d z #.y.y.y.g.'.x.n i f ",
"z a x =.f.y.a.m.XX2.f a f f y t [ @.@.q.i.y.y.p.y.o.g a _ w.i.y.y.y.y.i.-.x d f f a x -.u.y.y.y.y.y.y.f.-.h i ~ 0.i.y.y.y.y.Z.z.| i d f d f #.f.y.y.f._.x.x d f ",
"a a x ;.u.y.w.h.{.2.x a f d # X = = 5 %.i.y.y.i.i.o.f i _ w.i.y.y.y.y.i.-.h d d f i x -.i.y.y.u.y.y.y.i.=.h i ~ 0.i.y.u.y.y.g.q.~ i l f d d #.y.y.y.f.'.x.n d f ",
"d d x =.f.y.y.m.{.2.x a t # K I U U U !  .y.h.i.i.$.g a ` y.n.i.i.h.i.h.-.~ f f g f ~ ;.h.i.g.h.h.g.i.h.;.~ a ^ q.h.g.i.i.y.i.7.) i f f f z #.y.f.y.g.'.x.n a f ",
"l d x -.f.y.y.m.{.3.f f 9   I Y.;X;XP.F 2 @.-.&.8.} t y n *.;.&.&.&.&.-...s t t t y d O.-.-.&.&.&.&.&.-. .s y z @.-.&.&.9.y.i.0.) a f f a f #.y.y.a.f.'.k.n i f ",
"d a x =.f.y.y.h.{.3.z a 9   I ;X1X<XP.F + : 2 2 2 & $ $ & 2 2 - 2 2 2 2 - $ $ $ $ $ $ - 2 2 2 2 2 2 2 2 & % $ % 2 2 2 3 N q.h.q.) d f f d f $.y.y.y.f.'.k.x a f ",
"f d x -.f.y.y.m.{.3.l a 9 X R <X3X2X;XD 1 U Q R R W Q Q Q R E R W R R R W W W F.Q Q W W W R R R R R E E W Q F.R J J S + e q.h.;.~ d f f d z #.y.y.a.f.'.c.~ a d ",
"f d x ;.f.y.y.g.XX2.h f 9 X J.3X3X3X<XH H <X3X2X2X2X2X2X2X2X2X2X2X2X2X2X2X2X2X2X2X2X2X2X2X2X2X2X2X2X2X2X2X2X2X<XY.U.P.8 e 9.h.0.) a d f f f #.y.y.y.g.'.c.n a l ",
"f a x =.f.y.f.m.XX2.g a q X T ,X3X2X-XF F ;X,X>X>X>X>X>X>X>X>X>X>X>X>X>X>X>X>X>X>X>X>X>X>X>X>X>X>X>X>X>X>X>X>X>X-X;XI.8 0 q.h.0.~ a l d d f #.y.f.y.g.'.c.n a d ",
"f d x -.y.y.a.g.{.3.l a 9   I -X<X>XP.k 8 F.H.G.F.G.G.G.G.G.F.F.F.F.F.F.G.G.G.G.F.G.G.G.F.F.G.F.F.G.F.F.F.F.G.G.G.H.W > r q.h.0.) i f f d f #.y.y.y.f.).c.~ i f ",
"d d x =.f.y.y.m.{.3.z a 9   I U.Y.-XP.F O > > > > > > > > > , > > > > < > > > , > > > > < > > > , > > > > > > > , < > + j q.h.q.) a f f f z #.y.y.y.f.'.c.x a f ",
"l a x =.f.y.y.g.{.3.z a 9   U Y.Y.Y.I.Z & V [ ] ] l 0 0 u / [ ] ] ] ] ] m r 0 0 0 0 r m [ ] ] ] ] ] ] ] m r 0 u V [ ] ] @.e.h.;.~ i f f f f #.y.y.y.g.'.c.n a f ",
"d a x =.a.f.y.m.{.s.f a y @ J L.K.K.J.K N q.h.f.g.$.z d ` w.h.f.u.u.u.h.;.x a f f a x ;.h.u.u.y.u.u.y.h.=.x i ~ ;.h.f.y.f.f.i.0.~ a f f d f #.u.f.y.g.'.c.n a f ",
"f d x =.u.y.a.m.XX2.z d a t : > 6 1 7 O.0.y.u.u.f.#.f i _ w.h.u.y.u.y.f.;.x d f f a x -.h.u.u.u.u.u.f.h.-.x i ~ 9.g.f.f.u.y.u.q.~ a f f a z #.y.y.y.f.'.x.n a d ",
"f d x ;.f.y.y.g.{.2.z i f f 9 # j b B ;.g.y.u.y.u.#.z i _ w.f.y.y.y.y.f.=.x a f f a x -.y.y.y.y.y.y.y.u.-.x i ~ ;.h.y.y.y.y.f.;.~ a d f a f #.y.a.y.f.'.x.n i f ",
"d d x ;.y.y.f.m.XX2.l a f f i ) ;.f.y.y.u.y.y.y.u.#.f a _ w.u.y.y.y.u.f.=.x a f d d x =.f.y.u.y.y.y.y.u.-.x i ~ ;.u.y.y.y.y.f.0.) a l f d z #.a.a.y.f.'.k.n a f ",
"f d x ;.h.f.y.B. X2.z a f f a ) q.h.u.h.u.f.f.h.f.#.f a _ w.h.f.h.u.u.g.;.x a f f d x ;.h.u.f.f.u.f.y.h.-.x i ) w.h.f.u.u.h.g.0.) a d f a l #.h.f.f.h.XXv.n a f ",
"f d x X.;.=.=.;.j.%.z i d f d n #.;.-.-.-.-.=.-.=.} f a ) $.;.;.-.-.-.;.X.x d d f d x X.;.-.-.-.-.-.-.;.X.x i x $.;.-.-.-.-.;.#.x d f f d z ` ;.=.=.;.j.<.z a d ",
"f f f z x x x x n z d f f f f f x x x x x x x x x z f f f x x x x x x x x f f f f f d z x x x x x x x x x d d z x x x x x x x x d z f f f a x x x x x x x l f f ",
"f f d d d d d d d a f f f f d f d d i d d d a a a d f f d d d a d d a a a d f f f f f a d d i d a a a a a f f d a a a d a a a d d f d f d f d d a d d i d l f f ",
"f f f f d f f f l d f f f f f f f f f d f f f f f f f f f f f f f f d f f f f f f f f f d f f f f f d f d f f f d f f f f f d f f f f f f f f f d f d z f d f f "
};
