/* XPM */
static char *xpm_[] = {
/* columns rows colors chars-per-pixel */
"80 80 218 2 ",
"   c #000000",
".  c #0C0501",
"X  c #0D0906",
"o  c #0B0C0A",
"O  c #110602",
"+  c #150A05",
"@  c #1C0C06",
"#  c #120D0A",
"$  c #180F09",
"%  c #1B120A",
"&  c #1D1A0F",
"*  c #14120D",
"=  c #141312",
"-  c #1C1A14",
";  c #230F06",
":  c #2F1206",
">  c #221109",
",  c #2A170D",
"<  c #391709",
"1  c #3B1A0E",
"2  c #34180B",
"3  c #291E15",
"4  c #3C1D10",
"5  c #301B12",
"6  c #272419",
"7  c #382216",
"8  c #3B351E",
"9  c #1E1F20",
"0  c #2A2B2C",
"q  c #252525",
"w  c #353636",
"e  c #373028",
"r  c #491F0E",
"t  c #451E0F",
"y  c #4A200E",
"u  c #492515",
"i  c #462716",
"p  c #552612",
"a  c #5C2A15",
"s  c #542D1A",
"d  c #592A15",
"f  c #57331C",
"g  c #622C16",
"h  c #6C2F16",
"j  c #662F18",
"k  c #6D3017",
"l  c #64311A",
"z  c #6D3118",
"x  c #67381F",
"c  c #71341A",
"v  c #74391E",
"b  c #793B1E",
"n  c #473822",
"m  c #5C3C25",
"M  c #583621",
"N  c #443C37",
"B  c #6B3E23",
"V  c #633F25",
"C  c #7B3D20",
"Z  c #753E21",
"A  c #5A482C",
"S  c #4B423C",
"D  c #5B4E36",
"F  c #6D4126",
"G  c #6A442A",
"H  c #714226",
"J  c #7C4426",
"K  c #7D4728",
"L  c #784A2C",
"P  c #7F502F",
"I  c #675936",
"U  c #745435",
"Y  c #7A633B",
"T  c #3E3F40",
"R  c #424242",
"E  c #4B4C4C",
"W  c #4E4846",
"Q  c #565555",
"!  c #4D4F50",
"~  c #7D7042",
"^  c #706845",
"/  c #5D5E61",
"(  c #5F6162",
")  c #626364",
"_  c #66696B",
"`  c #6A6C6E",
"'  c #656769",
"]  c #6D6F70",
"[  c #6E7071",
"{  c #767778",
"}  c #777879",
"|  c #797A7B",
" . c #717272",
".. c #864626",
"X. c #834E2D",
"o. c #894A29",
"O. c #84502F",
"+. c #865231",
"@. c #8B5532",
"#. c #8E5A37",
"$. c #8F5A38",
"%. c #9A5934",
"&. c #925C39",
"*. c #935835",
"=. c #94512E",
"-. c #A35E37",
";. c #A85F36",
":. c #9A653E",
">. c #8A6139",
",. c #A9633A",
"<. c #B36B3F",
"1. c #936A43",
"2. c #837446",
"3. c #957545",
"4. c #997A4A",
"5. c #9F7B50",
"6. c #8A724A",
"7. c #A26740",
"8. c #A46A42",
"9. c #A96D44",
"0. c #B36C41",
"q. c #A8774B",
"w. c #A07D52",
"e. c #AE7F51",
"r. c #B87849",
"t. c #C27647",
"y. c #C27848",
"u. c #C27748",
"i. c #9C8C56",
"p. c #888157",
"a. c #AB8354",
"s. c #A88758",
"d. c #B38858",
"f. c #AE925D",
"g. c #AF9C67",
"h. c #A59A65",
"j. c #BC9A65",
"k. c #B29E69",
"l. c #B79E68",
"z. c #B6A26B",
"x. c #988F66",
"c. c #C58251",
"v. c #D18350",
"b. c #D88B55",
"n. c #CE8451",
"m. c #E6945B",
"M. c #E9965C",
"N. c #EA995E",
"B. c #E3985F",
"V. c #E58F57",
"C. c #CF9963",
"Z. c #E69B61",
"A. c #E99C62",
"S. c #F29D61",
"D. c #CBA46C",
"F. c #CDAF75",
"G. c #C5AF73",
"H. c #CDB177",
"J. c #C9B679",
"K. c #D2B579",
"L. c #DBAC71",
"P. c #EAA266",
"I. c #EAA569",
"U. c #ECAB6E",
"Y. c #E6A76B",
"T. c #EDAE70",
"R. c #EDB273",
"E. c #EDBA7A",
"W. c #ECB778",
"Q. c #F1BB7A",
"!. c #EEC07F",
"~. c #F8C17E",
"^. c #7E7F80",
"/. c #7F8181",
"(. c #8B8C8C",
"). c #979898",
"_. c #8F9091",
"`. c #A5A5A5",
"'. c gray67",
"]. c #B4B4B4",
"[. c #BCBCBC",
"{. c #D7BE81",
"}. c #C8BD81",
"|. c #CFC180",
" X c #DDC485",
".X c #D6C885",
"XX c #EFC381",
"oX c #E5CA88",
"OX c #F1C986",
"+X c #F2CD89",
"@X c #F1C583",
"#X c #F5D28D",
"$X c #FCD68F",
"%X c #EFD892",
"&X c #EED793",
"*X c #F4D791",
"=X c #F4D792",
"-X c #F5DD96",
";X c #F3DA94",
":X c #F3DF98",
">X c #F9DA93",
",X c #E8D18E",
"<X c #F7E79E",
"1X c #F6E59D",
"2X c #F6E49C",
"3X c #F6E89F",
"4X c #F9E49B",
"5X c #F7E9A0",
"6X c #F9EBA1",
"7X c #FEF2A6",
"8X c #C3C3C3",
"9X c #CDCDCD",
"0X c #D5D5D5",
"qX c #DADADA",
"wX c #E2E2E2",
"eX c #ECECEC",
"rX c #F2F2F2",
"tX c #FCFCFC",
/* pixels */
"c c c c c c c c c c c c c c c c c z c c c c c c c z c c c c c k c c k z c z c c Z z z c c z c c c c c c c c c c c c c c c z c c c c c c c c c c c z c c c z v c ",
"c z c k h k h h h k c z c z c z z k z z z k k z z z z j k k z z z z z z k k k k z z z k z z z k k j k z k k k k z k k k k z k k z c z c c z z k k k k k k z z c ",
"c z c Z J J J J J Z c c c c c v C C C C C C C C C C C C C C C C C C C C Z Z J J J C C C C C C C C C C C C C C C C Z C C Z Z J J c c c z c c b J J J J J Z v c k ",
"c k J d.K.H.H.H.F.q.v k c c k J 0.u.t.t.t.t.t.u.u.u.u.u.t.t.t.u.t.t.u.u.u.y.C.D.y.u.u.u.t.t.t.u.u.u.u.u.u.t.u.u.u.u.u.y.u.y.C.j.X.k c c k v q.J.H.H.H.H.d.C k c ",
"z k J D.$X#X-X6X6Xj.c k k c k ..b.S.S.M.A.T.A.Z.A.M.A.I.R.T.T.R.R.I.M.Z.M.A.OX>XU.m.A.I.R.T.A.Z.Z.A.A.M.S.T.A.Z.N.M.A.M.M.A.+XoX@.k c c k b d.#X#X>X3X7XK.J h c ",
"c k C y.A.A.@X<X<Xj.Z k c c k ..y.A.Z.m.T.=XR.Z.m.m.A.@X-X-X;X-X-XE.M.m.m.M.@X*XA.Z.A.@X:X-XR.Z.m.m.m.m.T.#XW.Z.m.m.m.m.m.M.XXoX+.k c c c c r.B.P.E.3X3XH.J h c ",
"c z J u.M.M.XX6X5Xj.Z h c z z ..y.S.Z.R.#X-XW.m.V.I.@X;X6X1X1X5X5XXXZ.V.m.m.@X=XA.A.XX>X5X5XR.V.V.m.m.m.U.:X=XW.A.V.m.m.V.m.@XoX+.k c c z v <.m.V.W.4X3XH.J k c ",
"z z Z u.M.M.W.;X:Xj.Z k c z z o.b.I.Y.#X5X5X@XA.P.XX<X5X<X<X1X5X5XOXI.P.P.I.+X=XT.XX5X5X5X:XXXI.P.I.P.P.W.-X5X;XR.P.I.I.P.I.#X{.+.k z c c c <.M.M.W.2X3XF.J h c ",
"c z C t.Z.Z.A.T.>Xj.v k c c h @.{.-X=X-X5X5X-X#X=X-X4X:X5X:X5X:X5X-X=X=X=X=X:X:X>X:X5X5X5X:X>X-X*X>X*X*X;X2X<X4X>X=X=X=X=X=X6XoX@.k z c z v <.M.M.W.4X3XF.J k c ",
"c z C t.A.R.R.XX-Xj.v k k c k J e.D.j.j.j.j.j.j.j.j.j.j.j.j.j.j.j.j.j.j.j.j.j.j.j.j.j.j.j.j.j.j.j.j.j.j.j.j.j.j.j.j.j.j.j.j.j.e.K z c c z c <.M.m.I.!.4XH.J k c ",
"z z C t.T.-X:X:X<Xj.c k c c c c Z c Z Z c Z c C Z Z Z Z c C Z Z c Z Z c Z c Z Z Z C Z c Z c Z Z Z v v v v v v v Z Z v v Z Z Z c v z c c z v <.N.Z.B.I.#XH.J k k ",
"c z C t.R.:X5X5X5Xj.v k z c c c h h h z k k k k h h k h h h k z k k k k h h h z h k k k h h h z k h k k k h h h k k h k h k k k z c z c z v <.A.OX+XOX4XF.J k c ",
"c z C t.I.@X>X5X:Xj.Z k c c c c c c c z c z Z z k c c c z c c z c c z c c c c c k k Z z z c c c c c c k c c c c c k c c k c c c c c z c z v <.P.!.;X3X3XF.J k z ",
"c k C u.A.A.@X5X4Xj.Z k c c c z c z c c c z k z c z c c c c c c c c c c z c c z c c z c c z z c c c c c c c c c c c c c c c c c c c c c z c <.M.A.!.4X3XH.J h c ",
"c z C u.M.V.I.XX-Xj.c k c c c z h h h h h h Z z c z h h j k z c c c c z k h h k c c c z z c z z c c v c v c c c c v c v v c c c c c c c z v <.m.m.P.E.4XH.J k z ",
"c k C u.Z.Z.V.I.=Xj.Z k c c k Z X.+.@.@.@.@.C z z C @.@.@.@.C z k z c J X.X.X.J z j z Z J C J Z j a a a a a a a a a a a a a a g z c z c z c <.M.M.m.N.+XH.J k c ",
"c z C u.Z.m.m.P.*Xj.v k c c h X.F.oX X XoX{.q.z z 5.{.oXoX{.1.g g a x 4.z.z.z.s.m y p Y 3.3.i.Y 5 . + + + + + + + + + + + + + > g v c z k v <.M.M.m.B.#XH.J k c ",
"z z C u.A.W.W.XX;Xj.v k c c h +.L.>X6X6X6X1Xa.h z 9.@X-X6X2Xw.a a p x f.|.|.J.k.m < i Y i.i.i.2.&                             O a c c c c c <.M.M.V.B.#XH.J k z ",
"c z C t.T.=X-X<X2Xj.v c c k k ..v.Q.4X2X2X:Xe.z k -.Z.+X5X:X5.a a a x s.J.J.J.z.m < i F >.3.i.Y &                             + a v z c k v <.M.M.M.I.#XH.J k c ",
"c z C t.A.T.+X6X<Xj.v h c c k o.v.Q.4XQ.E.&Xa.z k -.Z.+X6X:X5.a a a x :.f.J.J.g.m < y F O.Y i.Y &                             + a c c c z v <.M.M.U.+X2XH.J k z ",
"c k C u.M.m.R.=X4Xj.v h c c a s &.d.l.C.R.=Xa.z k -.Z.+X5X:X5.a a a j o.a.G.J.g.m 4 i H O.O.:.~ &                             + a c c c z v <.M.m.W.2X6XH.J k c ",
"c k C u.M.M.m.U.;Xj.v h c k 2 # 3 q e q.R.;Xa.z z -.Z.OX6X:X5.a a a l @.a.G.|.k.m < i H O.O.3.~ &                             + a v c c z z <.m.M.W.2X6XH.J k c ",
"k k C u.M.B.V.P.*Xj.v k a 1 S ' _ _ ( D 4.&Xd.c z ;.A.=X7X5Xw.a g a z *.d.J.|.z.A 1 u H O.+.4.~ &                             + a c c z z v <.M.M.W.2X3XH.J k z ",
"c k C u.Z.M.Z.T.;Xj.v c y X ) [.8X8X`.w e k.1.p p X.r.D.}.J.>.r y t p B 1.i.h.4.i : 4 f B V Y I %                             + a v c c k v <.M.m.W.2X<XF.J h z ",
"z z Z y.M.M.E.-X1Xj.c c y X ) 8XeXqX`.T # 6 & O O @ , 6 6 6 & . X . O + > 3 6 & X . . O + + % *                               + a v c c k v <.M.m.W.2X6XF.J k c ",
"v z C y.M.M.XX5X5Xj.v c r X { wXtXtX8X! 0 ) ] ] ] ] _ _ _ _ ] ] ] ] ] ` _ / Q / ( ( ( ( ( ( ) E =                             + a c c c c c <.N.R.+X2X6XH.J h z ",
"c k C y.M.M.!.<X4Xj.v k r + (.tXtXtXwXQ ! qXtXrXrXrXrXrXrXrXrXrXrXrXrXrXeXqXqXqXqXqXqXqXqXqXwX].0                             + a c c c k v <.P.#X2X2X3XF.J h c ",
"c k Z y.M.M.!.1X1Xj.v c r # ] qXtXrX[.R W 8XqX0X0X0X0X0X0X0X0X0X0X0X0X0X0X9X9X9X9X9X9X9X9X9X0X`.q                             + a c c c k v <.P.;X<X2X3XF.J h c ",
"c k C u.A.U.+X2X1Xj.c c r + ( [.wXqX`.T 0 ] | | | | | { { { } | | } | } } | | | | | | | | | ^.) =                             + a v c c k c <.I.#X<X2X<XF.J h c ",
"c k b t.T.*X2X<X2Xj.b c r + ) ].[.[.`.R = = = = = = = = - = = = = = = = = = = = * # = = = = = * .                             + a c c c k c <.I.;X1X2X6XH.J h c ",
"c z Z u.R.-X3X<X<Xj.c k r X ' [.[.[.'.w 6 ^ D < < s P 6.p.6.A : : : 2 u A I ^ D 2 @ > 4 i i n n #                             + a v c c z v <.P.;X<X2X<XF.J k z ",
"c z C t.T.-X<X<X<Xj.v c p % Q ).).).(.S ^ .Xd.c k -.Z.@X<X-X5.d a a j @.d.J.|.g.A 1 i F O.O.4.~ -                             + a c z c k v <.P.OX2X2X6XH.J k c ",
"c k C t.T.;X5X1X2Xj.v k z a 7 q w 0 w x.,X&Xa.z k -.M.A.XX;Xw.a a a z @.a.G.}.g.m 1 i H X.O.3.~ &                             + a v c c k v <.M.P.E.1X6XH.J k c ",
"k k C t.R.-X5X5X<Xj.v k v c t 2 m G U {.7X2Xw.z k -.m.m.T.&Xw.a a a j @.q.j.F.g.m 1 u F O.O.3.~ &                             + a c c c k c 0.M.M.Y.XX2XH.J h z ",
"c k C t.T.*X-X-X2Xj.v k c c z J c.m.B.XX3X:Xe.z k -.V.M.T.=Xw.a a a j @.1.8.j.g.m 1 u H X.O.3.~ &                             + a v c c z c <.M.M.m.A.#XH.J k c ",
"z k C u.A.T.T.Q.=Xj.Z k c z k o.v.N.Z.Y.XX&Xa.z z -.m.M.T.&X5.a a a j @.8.,.j.g.m < u H O.O.3.~ &                             + a c c z c v <.M.M.m.Z.#XH.J k c ",
"c z C y.M.V.V.P.*Xj.Z k c c z ..v.N.M.m.T.;Xa.z z -.m.M.R.&Xw.a a a l @.8.7.j.g.m 1 u F O.O.3.~ &                             + a c c c k v 0.M.M.m.Z.#XH.J k z ",
"c z Z y.A.m.m.I.*Xj.v k c c z ..v.N.m.m.R.&Xa.z z -.m.m.T.=Xw.a g a l @.8.8.j.g.m 1 u F O.O.3.~ &                             + a v c c k z 0.M.M.V.A.#XH.J k c ",
"c k C u.P.XXXXOX-Xj.v k c z k ..v.N.m.m.R.&Xs.k k -.V.M.T.&Xw.a a a j @.7.8.j.g.m 1 u F O.O.3.~ &                             + a c c c z v <.M.M.m.M.#XH.J k z ",
"c k C u.R.;X5X<X<Xj.v k c z z ..v.M.m.m.T.=Xa.z k %.m.M.T.=Xw.a a a j @.8.8.j.g.m 1 i F O.O.3.2.3                             + a v c z k v <.M.B.m.A.#XH.J h z ",
"c k C t.T.-X5X5X<Xj.v h c c k ..v.N.M.m.T.&Xa.k z -.V.m.R.&Xw.a a a j @.8.8.j.k.m 1 u Z +.O.3.Y &                             + a c c c c v <.M.M.m.Z.#XH.J k c ",
"z k C u.R.-X5X2X1Xj.v h c c k ..v.N.M.V.T.&Xa.k k -.m.m.R.&Xw.a a a j *.&.V I D 5 @ ; 7 M O.3.2.&                             + a c c c c c <.M.m.P.E.-XH.J h c ",
"c z C u.T.=X2X2X1Xj.v k c k k ..v.N.M.m.R.;Xa.z k -.m.M.T.&Xw.a a a j @.G # o = = = =   > G 3.~ &                             + a c c c k v <.m.M.W.:X6XF.J h k ",
"c k C u.Z.T.+X2X1Xj.v k c c k ..v.M.M.m.R.&Xa.z j -.m.M.R.;Xw.a a g d 4 $   T } | ^.] 9   & Y ~ &                             + a v k c k v <.M.M.W.5X6XF.J z c ",
"c k C y.M.m.XX<X1Xj.v k z v z ..n.M.M.m.R.=Xa.z z -.m.m.R.&Xw.a a g p +   w (.0X0X0X8X' -   8 D *                             + a c c c k c 0.M.m.U.,X4XF.J z c ",
"c k C y.M.Z.E.2X1Xj.v k c z k ..n.M.m.V.R.&Xa.z z -.m.m.T.&Xw.a a g p + w ).qXtXrXtXrX8X{ = . o .                             + a c c c c c <.M.M.M.P.#XH.J h k ",
"c k C u.M.M.I.XX-Xj.v k c c k ..v.M.M.m.R.;Xa.z z -.V.M.R.;Xw.a a t 5 W _.qXtXtXwXeXtXrX8X .q                                 + a v z c z v 0.m.m.m.Z.+XH.J k c ",
"z k Z u.M.M.m.I.;Xj.v k v z k ..v.M.M.m.U.,Xq.z z -.V.M.T.&Xw.a g : = ^.9XeXtXwX[.9XrXrXwX].!                                 + a v c c c c 0.M.M.m.A.#XH.J z c ",
"c z C y.M.M.m.P.=Xj.Z h k c k ..b.S.A.M.A.A.,.z z -.m.M.R.&Xw.a a , o ^.[.8X8X[.].[.8X8X8X].!                                 + a c c c k v <.M.M.m.Z.#XH.J z c ",
"c k Z y.M.m.m.P.;Xj.c z c c k ..y.S.N.m.m.m.-.z z -.m.m.R.;Xw.a a > = x.[.].8X0X0X0X9X[.].].!                                 + a c c c c c 0.M.M.m.Z.#XH.J h k ",
"c k C y.A.m.m.I.=XD.c h z c j ..y.S.N.m.B.m.%.z c -.V.m.T.+Xq.a a 2 =  .'.].qXtXtXtXrX8X].`.E o                               + a v c c k v <.M.M.m.Z.#XH.J k c ",
"c k C y.M.m.m.I.=Xj.Z z c c h o.y.N.m.m.M.m.-.c z %.m.N.A.Y.:.a a p i e ( '.8XqXtXeX9X8X(.T D D %                             + a c c c c c <.M.M.m.A.#XH.J k c ",
"c k C y.Z.M.m.P.=Xj.Z h c c k ..y.S.A.m.B.m.-.z z -.m.B.m.V.%.a a g p + 9  .`.[.wX0X]._.Q 6 I 2.&                             + a v c k c c <.m.M.m.Z.#XH.J h k ",
"z z C y.M.M.m.I.=Xj.z h c c z ..b.S.N.B.N.V.-.z z -.V.N.N.m.*.a a g p ;   = _ ].].[.`.T 5 F 3.>.&                             + a c c c k c <.B.m.m.Z.#XH.J h c ",
"c z Z y.M.m.m.P.=XD.Z h c c h ..y.S.m.m.N.m.-.c c -.m.B.B.m.*.a a g a M m f S E E ! W n f P 4.~ &                             + a v c c z v <.M.M.m.Z.#XH.J k c ",
"c z C y.A.m.m.P.&Xj.Z z c z z ..y.N.m.m.m.m.-.z z -.m.m.m.m.%.a a p l *.9.:.f $ .   + f O.O.1.~ &                             + a c c c k v 0.M.M.m.Z.#XH.J k c ",
"c k C u.Z.m.V.I.#Xj.c k z z k ..y.S.S.m.N.V.-.z z -.V.Z.M.m.%.a a a l @.9.7.&.Z i , 4 B @.X.@.G %                             + a c c c k v <.M.M.m.A.#XH.J k c ",
"c z C u.A.m.m.I.=Xj.Z k c c k ..y.A.A.N.N.m.-.z z -.m.m.M.V.%.a g a l @.7.7.9.:.d 4 u B X.X.@.V $                             + a c c c k v 0.M.M.m.A.#XH.J h c ",
"c z C u.M.M.m.I.=Xj.Z k c c k ..b.S.m.m.N.m.%.z z -.m.m.M.m.%.a a a l @.7.7.8.$.s 4 u H X.X.+.B $                             + a v c c k c <.M.M.m.A.#XH.J z k ",
"c k C u.M.M.m.I.=Xj.Z k c c k o.y.S.N.B.m.m.-.c z -.m.m.m.m.*.g a a l @.7.7.8.$.s 4 u H +.X.+.B $                             + a c c k c v <.M.m.m.A.#XH.J k c ",
"c z C u.M.M.V.I.=Xj.C h c c d d &.7.9.b.A.V.-.z z -.m.Z.N.m.*.a a a l @.8.7.8.$.s 1 i H O.O.O.F $                             + a c c c k c 0.M.M.m.Z.+XH.J z c ",
"z z C u.M.M.V.I.=Xj.c h c k 1 # 3 q n 9.A.m.-.z z -.m.M.N.m.*.a a a l *.8.7.8.$.s 1 u B O.O.O.F $                             + a v c c z c 0.M.B.m.Z.#XH.J h k ",
"z z C u.M.m.M.I.=Xj.Z h d 1 S ' _ ` _ D $.V.,.v c ,.M.S.S.A.%.g g a x &.9.9.9.&.s t u H O.+.@.F $                             + a c c c c c <.m.M.m.A.#XH.J k c ",
"Z z C u.A.Z.V.I.=Xj.Z z r o ) [.8X8X`.w 5 7.o.p p ..r.r.r.r.C r r r u B +.P +.L i , 1 f F B F f #                             + a v c c k Z 0.M.M.m.A.#XH.J h c ",
"k k C u.A.m.V.I.=Xj.Z k r # / 8XeXqX`.T # , $ O O $ , , , , * X . . O @ $ $ $ $ O . . X + + + #                               + a c c c k v <.M.M.m.Z.#XH...z k ",
"c j C u.Z.m.m.I.=Xj.Z k r # { wXtXtX8XE 0 ' ] ] ] ` _ ` _ _ ` ] ] ] ] ] _ ( / / ) ) ( ( ( ( ' ! =                             + a c c c k v <.M.m.m.Z.#XF.J k c ",
"c z C u.A.V.m.A.#Xj.C k r # (.tXtXtXwXQ ! qXtXrXrXrXrXrXrXrXrXrXrXrXrXrXeXqX0XqXqXqXqXqXqX0XwX].q                             + a c c c k v <.M.M.m.Z.#XH.J z c ",
"c k C u.Z.Z.M.I.#Xj.Z c r + ] qXtXrX[.R W 8XqX0X0X0X0X0X0X0X0X0X0X0X0X0X0X9X9X9X9X9X9X9X9X9X0X`.q                             + a v c c k c <.M.M.m.Z.#XH.J h k ",
"c k C u.M.V.V.I.=Xj.Z k r X ( [.wXqX`.R 0 ] | | | | } } { | | | } ^.{ { { ^.{ ^.} | } | | | ^.) -                             + a v c c z v 0.M.M.m.Z.#XH.J k c ",
"c k C u.Z.M.M.I.=Xj.Z k y o ' ].[.[.`.R = = = = = = = = = = = = = = = = = = = = = = = = = = = #                               + a c c c z v 0.M.m.m.Z.#XH.J k c ",
"c k C u.A.m.V.I.=Xj.C z r X ' [.[.[.`.w > G M < < f P P X.L s : : : 2 u s M M s : @ ; 4 i i i 7 X                             + a c c z k v <.M.B.m.A.#XH.J h z ",
"c k C t.M.M.M.I.#Xj.Z z p > Q ).).).(.N G v.,.c k -.M.M.M.m.%.a g a j *.8.1.9.&.s 4 u B +.O.@.B %                             + a v c c k c <.B.M.M.A.#XH.J k c ",
"c z C u.S.V.V.I.-Xj.Z k k g 7 q 0 0 w 1.v.b.,.c c -.m.M.M.m.%.d a a l *.7.7.8.$.s 4 u F X.X.+.G $                             + a v c c c v <.M.M.m.Z.#XH.J h c ",
"z z C u.Z.M.m.A.=Xj.Z k c c t 1 A G L y.S.m.-.k k -.m.M.M.m.%.d g a l @.7.7.8.$.s 4 u F +.X.@.B $                             + a c c c k c <.M.M.m.Z.#XH.J k z ",
"Z z C u.M.V.Z.I.&Xj.Z h c c h ..y.A.m.m.N.M.-.c k -.m.M.M.m.%.a a a l @.8.7.8.$.s 4 u B X.X.+.B $                             + a v c k c v 0.M.M.m.A.#XH.J h c ",
"z z C y.S.Z.M.T.=XD.c h z z k o.b.S.S.Z.M.M.-.k z ,.M.M.Z.M.%.a a a l @.9.7.9.$.s 4 u F +.+.@.B $                             O a c c c z v 0.N.M.M.P.$XK.J h c ",
"z z C ;.u.u.u.y.D.q.Z h k c z J 0.u.u.u.y.y.=.c c =.t.y.y.u.o.j g g l ..*.=.*.o.d u p Z J J X.B 5 @ > ; > ; ; ; > ; > ; > ; @ 2 g c c z z v %.y.u.t.y.D.d.J h c ",
"Z z c C C C C C K C z c c c c c C C C C C Z v c c v C Z C Z v c z c c Z Z Z Z C B h B z Z c c z z j j z l g j z j j j j j j j z c c c c c c b b b Z Z J J c c c ",
"k z c z z k k z k z Z c c z c z z z z z k k z z c k k z k k c c c c c z k k k z c c k z z c z c c v c c v c c c c c v c c v c c c c c c z c k k c k k k h c c c ",
"z c c c Z k z c c z k c c c c c c c c c c c c c c c c c c k c c z c c c c c c c c c c c c c c c c k c c c c c c c c c c c c c c c c k c c c c c c c c z c c c k "
};
