/* XPM */
static char *xpm_[] = {
/* columns rows colors chars-per-pixel */
"80 80 13 1 ",
"  c #C0EDD8",
". c #BFEDD8",
"X c #C2EDD9",
"o c #C2EEDA",
"O c #C2EED9",
"+ c #CDF0E0",
"@ c #D3F2E4",
"# c #D2F2E3",
"$ c #DCF4E9",
"% c #DBF4E9",
"& c #DBF4E8",
"* c #DAF4E8",
"= c white",
/* pixels */
"                                                                                ",
"   ..........................................................................   ",
"   XoOOOOOOOOOOOOOOOOOOOOOOOOOOOOOOOOOOOOOOOOOOOOOOOOOOOOOOOOOOOOOOOOOOOOOOoX   ",
" .X+@######################################################################@+X. ",
" .o@$%&&&&&&&&&&&&&&&&&&&&&&&&&&&&&&&&&&&&&&&&&&&&&&&&&&&&&&&&&&&&&&&&&&&&%$@o. ",
" .O#%**********************************************************************%#O. ",
" .O#&**********************************************************************&#O. ",
" .O#&**********************************************************************&#O. ",
" .O#&**********************************************************************&#O. ",
" .O#&**********************************************************************&#O. ",
" .O#&**********************************************************************&#O. ",
" .O#&**********************************************************************&#O. ",
" .O#&**********************************************************************&#O. ",
" .O#&**********************************************************************&#O. ",
" .O#&**********************************************************************&#O. ",
" .O#&**********************************************************************&#O. ",
" .O#&**********************************************************************&#O. ",
" .O#&**********************************************************************&#O. ",
" .O#&**********************************************************************&#O. ",
" .O#&**********************************************************************&#O. ",
" .O#&**********************************************************************&#O. ",
" .O#&**********************************************************************&#O. ",
" .O#&**********************************************************************&#O. ",
" .O#&**********************************************************************&#O. ",
" .O#&**********************************************************************&#O. ",
" .O#&**********************************************************************&#O. ",
" .O#&**********************************************************************&#O. ",
" .O#&**********************************************************************&#O. ",
" .O#&**********************************************************************&#O. ",
" .O#&**********************************************************************&#O. ",
" .O#&**********************************************************************&#O. ",
" .O#&**********************************************************************&#O. ",
" .O#&**********************************************************************&#O. ",
" .O#&**********************************************************************&#O. ",
" .O#&**********************************************************************&#O. ",
" .O#&**********************************************************************&#O. ",
" .O#&**********************************************************************&#O. ",
" .O#&**********************************************************************&#O. ",
" .O#&**********************************************************************&#O. ",
" .O#&**********************************************************************&#O. ",
" .O#&**********************************************************************&#O. ",
" .O#&**********************************************************************&#O. ",
" .O#&**********************************************************************&#O. ",
" .O#&**********************************************************************&#O. ",
" .O#&**********************************************************************&#O. ",
" .O#&**********************************************************************&#O. ",
" .O#&**********************************************************************&#O. ",
" .O#&**********************************************************************&#O. ",
" .O#&**********************************************************************&#O. ",
" .O#&**********************************************************************&#O. ",
" .O#&**********************************************************************&#O. ",
" .O#&**********************************************************************&#O. ",
" .O#&**********************************************************************&#O. ",
" .O#&**********************************************************************&#O. ",
" .O#&**********************************************************************&#O. ",
" .O#&**********************************************************************&#O. ",
" .O#&**********************************************************************&#O. ",
" .O#&**********************************************************************&#O. ",
" .O#&**********************************************************************&#O. ",
" .O#&**********************************************************************&#O. ",
" .O#&**********************************************************************&#O. ",
" .O#&**********************************************************************&#O. ",
" .O#&**********************************************************************&#O. ",
" .O#&**********************************************************************&#O. ",
" .O#&**********************************************************************&#O. ",
" .O#&**********************************************************************&#O. ",
" .O#&**********************************************************************&#O. ",
" .O#&**********************************************************************&#O. ",
" .O#&**********************************************************************&#O. ",
" .O#&**********************************************************************&#O. ",
" .O#&**********************************************************************&#O. ",
" .O#&**********************************************************************&#O. ",
" .O#&**********************************************************************&#O. ",
" .O#&**********************************************************************&#O. ",
" .O#%**********************************************************************%#O. ",
" .o@$%&&&&&&&&&&&&&&&&&&&&&&&&&&&&&&&&&&&&&&&&&&&&&&&&&&&&&&&&&&&&&&&&&&&&%$@o. ",
" .X+@######################################################################@+X. ",
"   XoOOOOOOOOOOOOOOOOOOOOOOOOOOOOOOOOOOOOOOOOOOOOOOOOOOOOOOOOOOOOOOOOOOOOOOoX   ",
"   ..........................................................................   ",
"                                                                                "
};
