/* XPM */
static char *xpm_[] = {
/* columns rows colors chars-per-pixel */
"80 80 158 2 ",
"   c #010100",
".  c #0F0A06",
"X  c #060309",
"o  c #0A040E",
"O  c #0B0B0B",
"+  c #090400",
"@  c #130D07",
"#  c #160F08",
"$  c #181009",
"%  c #13081A",
"&  c #100616",
"*  c #121212",
"=  c #181716",
"-  c #1C1C1D",
";  c #261300",
":  c #2F1700",
">  c #2F1A05",
",  c #2C1C0E",
"<  c #20150B",
"1  c #311800",
"2  c #2D1E10",
"3  c #2F2011",
"4  c #21211F",
"5  c #342313",
"6  c #3C2816",
"7  c #170A20",
"8  c #1B0C25",
"9  c #1E0D2A",
"0  c #220F2E",
"q  c #230F30",
"w  c #241032",
"e  c #2A103C",
"r  c #222222",
"t  c #2E2E2E",
"y  c #343434",
"u  c #3B3B3B",
"i  c #452E19",
"p  c #4A321B",
"a  c #5A3C20",
"s  c #41413E",
"d  c #351847",
"f  c #3F1C57",
"g  c #431E5C",
"h  c #482062",
"j  c #4E226A",
"k  c #522471",
"l  c #5B297D",
"z  c #59267B",
"x  c #414141",
"c  c #4B4A46",
"v  c #4D4D4B",
"b  c #4A454D",
"n  c #515151",
"m  c #585755",
"M  c #5D5D5D",
"N  c #5C5B57",
"B  c #65635E",
"V  c #685377",
"C  c #656565",
"Z  c #6D6C66",
"A  c #6C6C6C",
"S  c #72716A",
"D  c #747474",
"F  c #7C7C7C",
"G  c #797772",
"H  c #A95400",
"J  c #8B5D32",
"K  c #9B6838",
"L  c #AB723D",
"P  c #B0763F",
"I  c #CE6C0D",
"U  c #D06700",
"Y  c #D76A00",
"T  c #CC741F",
"R  c #FF7E00",
"E  c #B67A42",
"W  c #FF8300",
"Q  c #FD850F",
"!  c #FD8510",
"~  c #FF8A11",
"^  c #C9803A",
"/  c #FB8E26",
"(  c #FF9427",
")  c #FA922F",
"_  c #81827F",
"`  c #C78649",
"'  c #C88648",
"]  c #CE8B4C",
"[  c #C48346",
"{  c #DF9550",
"}  c #F79D48",
"|  c #E69A52",
" . c #EE9F56",
".. c #E19651",
"X. c #F6A04F",
"o. c #FFA34A",
"O. c #F6A356",
"+. c #F5A559",
"@. c #FDAC5D",
"#. c #FFB361",
"$. c #5E2A81",
"%. c #602A83",
"&. c #652D8B",
"*. c #692E8F",
"=. c #6B2E93",
"-. c #6F2F99",
";. c #6D3194",
":. c #6F3198",
">. c #72339C",
",. c #72379A",
"<. c #7634A2",
"1. c #7B36A8",
"2. c #7F38AD",
"3. c #755986",
"4. c #858585",
"5. c #8C8C8B",
"6. c #8F8D85",
"7. c #918E87",
"8. c #94928B",
"9. c #939393",
"0. c #9D9D9D",
"q. c #A598A3",
"w. c #A98CB3",
"e. c #A4A4A4",
"r. c #AEAEAE",
"t. c #ADABA2",
"y. c #B2AFA5",
"u. c #B4B1A7",
"i. c #B5B2A8",
"p. c #B4B4B4",
"a. c #BBBBBB",
"s. c #B8B7B3",
"d. c #C0BDB3",
"f. c #CDCABF",
"g. c #C2A4CA",
"h. c #C0C0C0",
"j. c #CECCC6",
"k. c #D5D2C6",
"l. c #D8D6CB",
"z. c #D5D4CF",
"x. c #D6D5D1",
"c. c #E1DED2",
"v. c #E8E4D7",
"b. c #E9E6DA",
"n. c #ECE9DC",
"m. c #F2EEE1",
"M. c #F8F4E7",
"N. c #FDF9EB",
"B. c #F8F4E8",
"V. c #FFFFF1",
"C. c #FFFFF2",
"Z. c #FFFFF7",
"A. c #FFFFF4",
"S. c #FFFFF8",
"D. c #FFFFFB",
"F. c #FFFFFD",
"G. c #DAF4E8",
"H. c black",
/* pixels */
"G.G.G.G.G.G.G.G.G.G.G.G.G.G.G.G.G.G.G.G.G.G.G.G.G.G.G.G.G.G.G.G.G.G.G.G.G.G.G.G.G.G.G.G.G.G.G.G.G.G.G.G.G.G.G.G.G.G.G.G.G.G.G.G.G.G.G.G.G.G.G.G.G.G.G.G.G.G.G.G.",
"G.G.G.G.G.G.G.G.G.G.G.G.G.G.G.G.G.G.G.G.G.G.G.G.G.G.G.G.G.G.G.G.G.G.G.G.G.G.G.G.G.G.G.G.G.G.G.G.G.G.G.G.G.G.G.G.G.G.G.G.G.G.G.G.G.G.G.G.G.G.G.G.G.G.G.G.G.G.G.G.",
"G.G.G.G.G.G.G.G.G.G.G.G.G.G.G.G.G.G.G.G.G.G.G.G.G.G.G.G.G.G.G.G.G.G.G.G.G.G.G.G.G.G.G.G.G.G.G.G.G.G.G.G.G.G.G.G.G.G.G.G.G.G.G.G.G.G.G.G.G.G.G.G.G.G.G.G.G.G.G.G.",
"G.G.G.G.G.G.G.G.G.G.G.G.G.G.G.G.G.G.G.G.G.G.G.G.G.G.G.G.G.G.G.G.G.G.G.G.G.G.G.G.G.G.G.G.G.G.G.G.G.G.G.G.G.G.G.G.G.G.G.G.G.G.G.G.G.G.G.G.G.G.G.G.G.G.G.G.G.G.G.G.",
"G.G.G.G.G.G.G.G.G.G.G.G.G.G.G.G.G.G.G.G.G.G.G.G.G.G.G.G.G.G.G.G.G.G.G.G.G.G.G.G.G.G.G.G.G.G.G.G.G.G.G.G.G.G.G.G.G.G.G.G.G.G.G.G.G.G.G.G.G.G.G.G.G.G.G.G.G.G.G.G.",
"G.G.G.G.G.G.G.G.G.G.G.G.G.G.G.G.G.G.G.G.G.G.G.G.G.G.G.G.G.G.G.G.G.G.G.G.G.G.G.G.G.G.G.G.G.G.G.G.G.G.G.G.G.G.G.G.G.G.G.G.G.G.G.G.G.G.G.G.G.G.G.G.G.G.G.G.G.G.G.G.",
"G.G.G.G.G.G.G.G.G.G.G.G.G.G.G.G.G.G.G.G.G.G.G.G.G.G.G.G.G.G.G.G.G.G.G.G.G.G.G.G.G.G.G.G.G.G.G.G.G.G.G.G.G.G.G.G.G.G.G.G.G.G.G.G.G.G.G.G.G.G.G.G.G.G.G.G.G.G.G.G.",
"G.G.G.G.G.G.G.G.G.G.G.G.G.G.G.G.G.G.G.G.G.G.G.G.G.G.G.G.G.G.G.G.G.G.G.G.G.G.G.G.G.G.G.G.G.G.G.G.G.G.G.G.G.G.G.G.G.G.G.G.G.G.G.G.G.G.G.G.G.G.G.G.G.G.G.G.G.G.G.G.",
"G.G.G.G.G.G.G.G.G.G.G.G.G.G.G.G.G.G.G.G.G.G.G.G.G.G.G.G.G.G.G.G.G.G.G.G.G.G.G.G.G.G.G.G.G.G.G.G.G.G.G.G.G.G.G.G.G.G.G.G.G.G.G.G.G.G.G.G.G.G.G.G.G.G.G.G.G.G.G.G.",
"G.G.G.G.G.G.G.G.G.G.G.G.G.G.G.G.G.G.G.G.G.G.G.G.G.G.G.G.G.G.G.G.G.G.G.G.G.G.G.G.G.G.G.G.G.G.G.G.G.G.G.G.G.G.G.G.G.G.G.G.G.G.G.G.G.G.G.G.G.G.G.G.G.G.G.G.G.G.G.G.",
"G.G.G.G.G.G.G.G.G.G.G.G.G.G.G.G.G.G.G.G.G.G.G.G.G.G.G.G.G.G.G.G.G.G.G.G.G.                                            G.G.G.G.G.G.G.G.G.G.G.G.G.G.G.G.G.G.G.G.G.",
"G.G.G.G.G.G.G.G.G.G.G.G.G.G.G.G.G.G.G.G.G.G.G.G.G.G.G.G.G.G.G.G.G.G.G.G.G.                                            G.G.G.G.G.G.G.G.G.G.G.G.G.G.G.G.G.G.G.G.G.",
"G.G.G.G.G.G.G.G.G.G.G.G.G.G.G.G.G.G.G.G.G.G.G.G.G.G.G.G.G.G.G.G.G.G.G.G.      X 8 q 0 0 0 0 0 0 0 0 0 0 0 0 q 8 X       G.G.G.G.G.G.G.G.G.G.G.G.G.G.G.G.G.G.G.G.",
"G.G.G.G.G.G.G.G.G.G.G.G.G.G.G.G.G.G.G.G.G.G.G.G.G.G.G.G.G.G.G.G.G.G.          % k *.&.&.&.&.&.&.&.&.&.&.&.&.*.k %           G.G.G.G.G.G.G.G.G.G.G.G.G.G.G.G.G.G.",
"G.G.G.G.G.G.G.G.G.G.G.G.G.G.G.G.G.G.G.G.G.G.G.G.G.G.G.G.G.G.G.G.G.G.          % l <.>.>.>.>.>.>.>.>.<.<.<.<.1.$.%           G.G.G.G.G.G.G.G.G.G.G.G.G.G.G.G.G.G.",
"G.G.G.G.G.G.G.G.G.G.G.G.G.G.G.G.G.G.G.G.G.G.G.G.G.G.G.G.G.G.G.G.G.G.    X % % q $.>.>.:.:.:.:.:.>.&.l z l l l j 0 % % X     G.G.G.G.G.G.G.G.G.G.G.G.G.G.G.G.G.G.",
"G.G.G.G.G.G.G.G.G.G.G.G.G.G.G.G.G.G.G.G.G.G.G.G.G.G.G.G.G.G.G.G.G.G.    8 k l $.;.:.:.:.:.:.:.:.>.h 7 % % % % 0 j %.k 8     G.G.G.G.G.G.G.G.G.G.G.G.G.G.G.G.G.G.",
"G.G.G.G.G.G.G.G.G.G.G.G.G.G.G.G.G.G.G.G.G.G.G.G.G.G.G.G.G.G.G.G.G.G.    w ;.1.<.:.:.:.:.:.:.:.<.>.f           % %.2.;.q     G.G.G.G.G.G.G.G.G.G.G.G.G.G.G.G.G.G.",
"G.G.G.G.G.G.G.G.G.G.G.G.G.G.G.G.G.G.G.G.G.G.G.G.G.G.G.G.G.G.G.G.G.G.    9 l &.&.;.:.:.:.:.:.*.&.=.d           % k ;.l 9     G.G.G.G.G.G.G.G.G.G.G.G.G.G.G.G.G.G.",
"G.G.G.G.G.G.G.G.G.G.G.G.G.G.G.G.G.G.G.G.G.G.G.G.                        o 9 9 d $.>.:.:.>.;.g 9 0 %           X 8 q 9 o     G.G.G.G.G.G.G.G.G.G.G.G.G.G.G.G.G.G.",
"G.G.G.G.G.G.G.G.G.G.G.G.G.G.G.G.G.G.G.G.G.G.G.G.                              % l <.:.-.:.=.e X                             G.G.G.G.G.G.G.G.G.G.G.G.G.G.G.G.G.G.",
"G.G.G.G.G.G.G.G.G.G.G.G.G.G.G.G.G.G.G.G.G.G.G.G.          X   X   X X   X     % l >.;.:.,.;.d + + X X + +                   G.G.G.G.G.G.G.G.G.G.G.G.G.G.G.G.G.G.",
"G.G.G.G.G.G.G.G.G.G.G.G.G.G.G.G.G.G.G.G.G.G.G.G.    + t x x x x x x s x x x s b V 3.3.w.g.g.q.7.7.7.7.8.C O       G.G.G.G.G.G.G.G.G.G.G.G.G.G.G.G.G.G.G.G.G.G.G.",
"G.G.G.G.G.G.G.G.G.G.G.G.G.G.G.G.G.G.G.G.G.G.G.G.    O n F F D G D D G D D D D D D D 4.l.Z.N.C.C.C.C.C.Z.u.=     G.G.G.G.G.G.G.G.G.G.G.G.G.G.G.G.G.G.G.G.G.G.G.G.",
"G.G.G.G.G.G.G.G.G.G.G.G.G.G.G.G.G.G.G.G.G.G.G.G.    O n F G D D G D G D G D D D D D _ l.C.C.C.Z.C.C.C.Z.u.=     G.G.G.G.G.G.G.G.G.G.G.G.G.G.G.G.G.G.G.G.G.G.G.G.",
"G.G.G.G.G.G.G.G.G.G.G.G.G.G.G.G.G.G.G.G.G.G.G.      X t x s x x x x x x x x x x s s c G 7.7.7.7.7.d.B.Z.y.=     G.G.G.G.G.G.G.G.G.G.G.G.G.G.G.G.G.G.G.G.G.G.G.G.",
"G.G.G.G.G.G.G.G.G.G.G.G.G.G.G.G.G.G.G.G.G.                X   X X   X   X   X X   X X + + + X +   S B.S.y.=     G.G.G.G.G.G.G.G.G.G.G.G.G.G.G.G.G.G.G.G.G.G.G.G.",
"G.G.G.G.G.G.G.G.G.G.G.G.G.G.G.G.G.G.G.G.G.                                              X         Z N.F.i.=     G.G.G.G.G.G.G.G.G.G.G.G.G.G.G.G.G.G.G.G.G.G.G.G.",
"G.G.G.G.G.G.G.G.G.G.G.G.G.G.G.G.G.G.G.G.G.    O t y y y u y y y y y y y u c c c v c v c c c r     N j.c.8.*     G.G.G.G.G.G.G.G.G.G.G.G.G.G.G.G.G.G.G.G.G.G.G.G.",
"G.G.G.G.G.G.G.G.G.G.G.G.G.G.G.G.G.G.G.G.G.    - 4.r.e.e.e.e.e.e.e.e.e.e.s.v.b.v.v.v.v.v.n.c.B     y F 4.N O     G.G.G.G.G.G.G.G.G.G.G.G.G.G.G.G.G.G.G.G.G.G.G.G.",
"G.G.G.G.G.G.G.G.G.G.G.G.G.G.G.G.G.G.G.G.G.    r 9.h.a.a.h.h.a.a.a.a.h.h.x.C.Z.Z.F.F.S.Z.S.N.S     t A D v O     G.G.G.G.G.G.G.G.G.G.G.G.G.G.G.G.G.G.G.G.G.G.G.G.",
"G.G.G.G.G.G.G.G.G.G.G.G.G.G.G.G.G.G.G.G.G.    r 9.a.p.0.9.9.e.p.s.e.9.5.r.b.B.b.k.f.k.m.Z.B.Z     y S F v O     G.G.G.G.G.G.G.G.G.G.G.G.G.G.G.G.G.G.G.G.G.G.G.G.",
"G.G.G.G.G.G.G.G.G.G.G.G.G.G.G.G.G.G.G.G.G.    r 9.h.e.v - r D p.a.D r - n p.j.e.c 4 s d.A.B.Z     y A F v O     G.G.G.G.G.G.G.G.G.G.G.G.G.G.G.G.G.G.G.G.G.G.G.G.",
"G.G.G.G.G.G.G.G.G.G.G.G.G.G.G.G.G.G.G.G.G.    r 9.h.e.y     C a.a.C     y 0.a.8.-   * y.S.B.S     y D D n O     G.G.G.G.G.G.G.G.G.G.G.G.G.G.G.G.G.G.G.G.G.G.G.G.",
"G.G.G.G.G.G.G.G.G.G.G.G.G.G.G.G.G.G.G.G.G.    r 9.h.e.y   X C a.a.C X   y e.h.9.r   = t.Z.n.C     y A F n O     G.G.G.G.G.G.G.G.G.G.G.G.G.G.G.G.G.G.G.G.G.G.G.G.",
"G.G.G.G.G.G.G.G.G.G.G.G.G.G.G.G.G.G.G.G.G.    r 9.h.e.y   + C s.p.C X   y e.h.9.r   * 6.z.f.m     y A F v O     G.G.G.G.G.G.G.G.G.G.G.G.G.G.G.G.G.G.G.G.G.G.G.G.",
"G.G.G.G.G.G.G.G.G.G.G.G.G.G.G.G.G.G.G.G.G.    r 9.h.e.y   X C a.a.C X   y e.h.9.r   * F a.r.v     y A F v O     G.G.G.G.G.G.G.G.G.G.G.G.G.G.G.G.G.G.G.G.G.G.G.G.",
"G.G.G.G.G.G.G.G.G.G.G.G.G.G.G.G.G.G.G.G.G.    r 9.h.e.y   X C s.s.C +   y e.h.9.r   * _ a.r.v     y D D n O     G.G.G.G.G.G.G.G.G.G.G.G.G.G.G.G.G.G.G.G.G.G.G.G.",
"G.G.G.G.G.G.G.G.G.G.G.G.G.G.G.G.G.G.G.G.G.    r 9.h.e.y   X C p.a.C X   y e.h.9.4   = 3.h.r.n     y A F n O     G.G.G.G.G.G.G.G.G.G.G.G.G.G.G.G.G.G.G.G.G.G.G.G.",
"G.G.G.G.G.G.G.G.G.G.G.G.G.G.G.G.G.G.G.G.G.    r 9.h.e.y     C a.p.C X   y e.h.9.4   * F h.r.v     y A F v O     G.G.G.G.G.G.G.G.G.G.G.G.G.G.G.G.G.G.G.G.G.G.G.G.",
"G.G.G.G.G.G.G.G.G.G.G.G.G.G.G.G.G.G.G.G.G.    r 9.h.e.y     C a.a.C X   y e.h.9.4   O _ h.r.v     t A F v O     G.G.G.G.G.G.G.G.G.G.G.G.G.G.G.G.G.G.G.G.G.G.G.G.",
"G.G.G.G.G.G.G.G.G.G.G.G.G.G.G.G.G.G.G.G.G.    r 9.h.r.A c n 4.a.p.5.n c A r.a.0.B c m 9.a.r.n     y D F n O     G.G.G.G.G.G.G.G.G.G.G.G.G.G.G.G.G.G.G.G.G.G.G.G.",
"G.G.G.G.G.G.G.G.G.G.G.G.G.G.G.G.G.G.G.G.G.    r 9.a.p.p.r.r.p.p.p.p.r.r.r.p.p.p.r.r.p.p.a.r.v     y D D n O     G.G.G.G.G.G.G.G.G.G.G.G.G.G.G.G.G.G.G.G.G.G.G.G.",
"G.G.G.G.G.G.G.G.G.G.G.G.G.G.G.G.G.G.G.G.G.    r 9.h.a.a.h.a.a.a.a.a.a.h.a.a.a.a.h.h.a.a.a.s.n     y D F n O     G.G.G.G.G.G.G.G.G.G.G.G.G.G.G.G.G.G.G.G.G.G.G.G.",
"G.G.G.G.G.G.G.G.G.G.G.G.G.G.G.G.G.G.G.G.G.    = C 4.F _ F F F _ F _ F F 3._ _ F 3._ _ F _ F y X   r v m u X     G.G.G.G.G.G.G.G.G.G.G.G.G.G.G.G.G.G.G.G.G.G.G.G.",
"G.G.G.G.G.G.G.G.G.G.G.G.G.G.G.G.G.G.G.G.G.      O * * O * * * * O * * * * = * * * * * * * * +     X O O X             G.G.G.G.G.G.G.G.G.G.G.G.G.G.G.G.G.G.G.G.G.",
"G.G.G.G.G.G.G.G.G.G.G.G.G.G.G.G.G.G.G.G.G.                                      +                                     G.G.G.G.G.G.G.G.G.G.G.G.G.G.G.G.G.G.G.G.G.",
"G.G.G.G.G.G.G.G.G.G.G.G.G.G.G.G.G.G.G.G.G.          + < 3 , , , 3 2 2 2 3 3 3 3 3 3 3 3 2 2 > : : : : : : : 1 ; +     G.G.G.G.G.G.G.G.G.G.G.G.G.G.G.G.G.G.G.G.G.",
"G.G.G.G.G.G.G.G.G.G.G.G.G.G.G.G.G.G.G.G.G.G.G.G.    @ J ] ' ' ' ' ' ' ' ' ' ' ' ' ' ` ` ' [ T U U U U U U U Y H ;     G.G.G.G.G.G.G.G.G.G.G.G.G.G.G.G.G.G.G.G.G.",
"G.G.G.G.G.G.G.G.G.G.G.G.G.G.G.G.G.G.G.G.G.G.G.G.    @ E #.#.@.#.@.@.@.#.@.@.#.#.@.@.@.@.@.@.( R W W W W W W W Y 1     G.G.G.G.G.G.G.G.G.G.G.G.G.G.G.G.G.G.G.G.G.",
"G.G.G.G.G.G.G.G.G.G.G.G.G.G.G.G.G.G.G.G.G.G.G.G.    @ K | { { { ..{ { { ..{ ..{ ..{ {  .O.O./ R R R R R R R W U :     G.G.G.G.G.G.G.G.G.G.G.G.G.G.G.G.G.G.G.G.G.",
"G.G.G.G.G.G.G.G.G.G.G.G.G.G.G.G.G.G.G.G.G.G.G.G.    + 5 p p p p p p p p p p p p p i a [ @.O./ R R R R R R R W U :     G.G.G.G.G.G.G.G.G.G.G.G.G.G.G.G.G.G.G.G.G.",
"G.G.G.G.G.G.G.G.G.G.G.G.G.G.G.G.G.G.G.G.G.G.G.G.                                    . L @. ./ R R R R R R R W U :     G.G.G.G.G.G.G.G.G.G.G.G.G.G.G.G.G.G.G.G.G.",
"G.G.G.G.G.G.G.G.G.G.G.G.G.G.G.G.G.G.G.G.G.G.G.G.        X     X   + X     X         @ L @.O./ R R R R R R R W U :     G.G.G.G.G.G.G.G.G.G.G.G.G.G.G.G.G.G.G.G.G.",
"G.G.G.G.G.G.G.G.G.G.G.G.G.G.G.G.G.G.G.G.G.G.G.G.    X t x x x x x x x s x x x y O   @ L @. ./ R R R R R R R W U :     G.G.G.G.G.G.G.G.G.G.G.G.G.G.G.G.G.G.G.G.G.",
"G.G.G.G.G.G.G.G.G.G.G.G.G.G.G.G.G.G.G.G.G.G.G.G.    O n G D D D D D D D D D F M =   $ L @.O./ R R R R R R R W U :     G.G.G.G.G.G.G.G.G.G.G.G.G.G.G.G.G.G.G.G.G.",
"G.G.G.G.G.G.G.G.G.G.G.G.G.G.G.G.G.G.G.G.G.G.G.G.    O n D D D D D D D D D D D M *   @ L @.O./ R R R R R R R W U :     G.G.G.G.G.G.G.G.G.G.G.G.G.G.G.G.G.G.G.G.G.",
"G.G.G.G.G.G.G.G.G.G.G.G.G.G.G.G.G.G.G.G.G.G.G.G.    O n D A D D D D D D D D F M =   $ L @.O./ R R R R R R R W U :     G.G.G.G.G.G.G.G.G.G.G.G.G.G.G.G.G.G.G.G.G.",
"G.G.G.G.G.G.G.G.G.G.G.G.G.G.G.G.G.G.G.G.G.G.G.G.    O n F D D D D D D D D D D M *   O L @.O./ R R R R R R R W U :     G.G.G.G.G.G.G.G.G.G.G.G.G.G.G.G.G.G.G.G.G.",
"G.G.G.G.G.G.G.G.G.G.G.G.G.G.G.G.G.G.G.G.G.G.G.G.    X n D D D D D D D G D D F C =   @ L @.O./ R R R R R R R W U :     G.G.G.G.G.G.G.G.G.G.G.G.G.G.G.G.G.G.G.G.G.",
"G.G.G.G.G.G.G.G.G.G.G.G.G.G.G.G.G.G.G.G.G.G.G.G.    O M 5.5.4.5.4.D n n n n n x @   $ L @.O./ R R R R R R R W U :     G.G.G.G.G.G.G.G.G.G.G.G.G.G.G.G.G.G.G.G.G.",
"G.G.G.G.G.G.G.G.G.G.G.G.G.G.G.G.G.G.G.G.G.G.G.G.    * F p.r.r.r.r.C * + O O O O     # E @.O./ R R R R R R R W U :     G.G.G.G.G.G.G.G.G.G.G.G.G.G.G.G.G.G.G.G.G.",
"G.G.G.G.G.G.G.G.G.G.G.G.G.G.G.G.G.G.G.G.G.G.G.G.    * 4.h.h.a.p.a.C                 # L @. ./ R R R R R R R W U :     G.G.G.G.G.G.G.G.G.G.G.G.G.G.G.G.G.G.G.G.G.",
"G.G.G.G.G.G.G.G.G.G.G.G.G.G.G.G.G.G.G.G.G.G.G.G.    O C 9.9.e.a.p.C X               # L @.O.) ! ! ! ! ! ! ! ~ I :     G.G.G.G.G.G.G.G.G.G.G.G.G.G.G.G.G.G.G.G.G.",
"G.G.G.G.G.G.G.G.G.G.G.G.G.G.G.G.G.G.G.G.G.G.G.G.      - - r D a.a.C                 @ L @.O.} } } } } } } } } E ,     G.G.G.G.G.G.G.G.G.G.G.G.G.G.G.G.G.G.G.G.G.",
"G.G.G.G.G.G.G.G.G.G.G.G.G.G.G.G.G.G.G.G.G.G.G.G.            A a.h.C X               $ P @.@.@.@.@.@.@.@.@.@.#.] 2     G.G.G.G.G.G.G.G.G.G.G.G.G.G.G.G.G.G.G.G.G.",
"G.G.G.G.G.G.G.G.G.G.G.G.G.G.G.G.G.G.G.G.G.G.G.G.          X M e.r.N                 @ K | { { { { { { { { .. .E ,     G.G.G.G.G.G.G.G.G.G.G.G.G.G.G.G.G.G.G.G.G.",
"G.G.G.G.G.G.G.G.G.G.G.G.G.G.G.G.G.G.G.G.G.G.G.G.G.G.G.      r y y r       G.G.G.    + 5 p p p p p p p p p p p 6 .     G.G.G.G.G.G.G.G.G.G.G.G.G.G.G.G.G.G.G.G.G.",
"G.G.G.G.G.G.G.G.G.G.G.G.G.G.G.G.G.G.G.G.G.G.G.G.G.G.G.                    G.G.G.                                      G.G.G.G.G.G.G.G.G.G.G.G.G.G.G.G.G.G.G.G.G.",
"G.G.G.G.G.G.G.G.G.G.G.G.G.G.G.G.G.G.G.G.G.G.G.G.G.G.G.                    G.G.G.                                      G.G.G.G.G.G.G.G.G.G.G.G.G.G.G.G.G.G.G.G.G.",
"G.G.G.G.G.G.G.G.G.G.G.G.G.G.G.G.G.G.G.G.G.G.G.G.G.G.G.G.G.G.G.G.G.G.G.G.G.G.G.G.G.G.G.G.G.G.G.G.G.G.G.G.G.G.G.G.G.G.G.G.G.G.G.G.G.G.G.G.G.G.G.G.G.G.G.G.G.G.G.G.",
"G.G.G.G.G.G.G.G.G.G.G.G.G.G.G.G.G.G.G.G.G.G.G.G.G.G.G.G.G.G.G.G.G.G.G.G.G.G.G.G.G.G.G.G.G.G.G.G.G.G.G.G.G.G.G.G.G.G.G.G.G.G.G.G.G.G.G.G.G.G.G.G.G.G.G.G.G.G.G.G.",
"G.G.G.G.G.G.G.G.G.G.G.G.G.G.G.G.G.G.G.G.G.G.G.G.G.G.G.G.G.G.G.G.G.G.G.G.G.G.G.G.G.G.G.G.G.G.G.G.G.G.G.G.G.G.G.G.G.G.G.G.G.G.G.G.G.G.G.G.G.G.G.G.G.G.G.G.G.G.G.G.",
"G.G.G.G.G.G.G.G.G.G.G.G.G.G.G.G.G.G.G.G.G.G.G.G.G.G.G.G.G.G.G.G.G.G.G.G.G.G.G.G.G.G.G.G.G.G.G.G.G.G.G.G.G.G.G.G.G.G.G.G.G.G.G.G.G.G.G.G.G.G.G.G.G.G.G.G.G.G.G.G.",
"G.G.G.G.G.G.G.G.G.G.G.G.G.G.G.G.G.G.G.G.G.G.G.G.G.G.G.G.G.G.G.G.G.G.G.G.G.G.G.G.G.G.G.G.G.G.G.G.G.G.G.G.G.G.G.G.G.G.G.G.G.G.G.G.G.G.G.G.G.G.G.G.G.G.G.G.G.G.G.G.",
"G.G.G.G.G.G.G.G.G.G.G.G.G.G.G.G.G.G.G.G.G.G.G.G.G.G.G.G.G.G.G.G.G.G.G.G.G.G.G.G.G.G.G.G.G.G.G.G.G.G.G.G.G.G.G.G.G.G.G.G.G.G.G.G.G.G.G.G.G.G.G.G.G.G.G.G.G.G.G.G.",
"G.G.G.G.G.G.G.G.G.G.G.G.G.G.G.G.G.G.G.G.G.G.G.G.G.G.G.G.G.G.G.G.G.G.G.G.G.G.G.G.G.G.G.G.G.G.G.G.G.G.G.G.G.G.G.G.G.G.G.G.G.G.G.G.G.G.G.G.G.G.G.G.G.G.G.G.G.G.G.G.",
"G.G.G.G.G.G.G.G.G.G.G.G.G.G.G.G.G.G.G.G.G.G.G.G.G.G.G.G.G.G.G.G.G.G.G.G.G.G.G.G.G.G.G.G.G.G.G.G.G.G.G.G.G.G.G.G.G.G.G.G.G.G.G.G.G.G.G.G.G.G.G.G.G.G.G.G.G.G.G.G.",
"G.G.G.G.G.G.G.G.G.G.G.G.G.G.G.G.G.G.G.G.G.G.G.G.G.G.G.G.G.G.G.G.G.G.G.G.G.G.G.G.G.G.G.G.G.G.G.G.G.G.G.G.G.G.G.G.G.G.G.G.G.G.G.G.G.G.G.G.G.G.G.G.G.G.G.G.G.G.G.G.",
"G.G.G.G.G.G.G.G.G.G.G.G.G.G.G.G.G.G.G.G.G.G.G.G.G.G.G.G.G.G.G.G.G.G.G.G.G.G.G.G.G.G.G.G.G.G.G.G.G.G.G.G.G.G.G.G.G.G.G.G.G.G.G.G.G.G.G.G.G.G.G.G.G.G.G.G.G.G.G.G."
};
