/* XPM */
static char *xpm_[] = {
/* columns rows colors chars-per-pixel */
"80 80 165 2 ",
"   c #010000",
".  c #0D0805",
"X  c #0A040E",
"o  c #0B0B0B",
"O  c #140C04",
"+  c #160F08",
"@  c #1B0D00",
"#  c #1C130A",
"$  c #0F0516",
"%  c #14091B",
"&  c #100517",
"*  c #141414",
"=  c #181716",
"-  c #181816",
";  c #1B1B1B",
":  c #2D1600",
">  c #301800",
",  c #20211F",
"<  c #342313",
"1  c #170A20",
"2  c #220F2F",
"3  c #261034",
"4  c #280D3B",
"5  c #232323",
"6  c #2D2D2C",
"7  c #302F2D",
"8  c #30312F",
"9  c #322C36",
"0  c #353535",
"q  c #3C3C3C",
"w  c #462300",
"e  c #4A2603",
"r  c #502700",
"t  c #432D18",
"y  c #4B2F16",
"u  c #4A321B",
"i  c #6E3600",
"p  c #763A00",
"a  c #614123",
"s  c #2F1540",
"d  c #311643",
"f  c #39194E",
"g  c #3F1C57",
"h  c #482062",
"j  c #4D226A",
"k  c #4D2A65",
"l  c #50236E",
"z  c #59267A",
"x  c #5C287E",
"c  c #542573",
"v  c #623F79",
"b  c #454544",
"n  c #4C4C4B",
"m  c #4C4B47",
"M  c #4F514E",
"N  c #4D4552",
"B  c #515151",
"V  c #5E5E5E",
"C  c #605F5C",
"Z  c #66645F",
"A  c #6F5B75",
"S  c #656565",
"D  c #6D6C66",
"F  c #6A6A6A",
"G  c #696762",
"H  c #72706A",
"J  c #6F6973",
"K  c #716C74",
"L  c #747474",
"P  c #7A7A75",
"I  c #7B7B7B",
"U  c #914700",
"Y  c #924800",
"T  c #8E5116",
"R  c #8B5D32",
"E  c #8F6033",
"W  c #986637",
"Q  c #AC733E",
"!  c #B0763F",
"~  c #CE6600",
"^  c #D06700",
"/  c #D26800",
"(  c #DE6E00",
")  c #EE7500",
"_  c #E6790F",
"`  c #FF7E00",
"'  c #817F79",
"]  c #FF8300",
"[  c #FD850F",
"{  c #FD8510",
"}  c #FF8911",
"|  c #FB8E26",
" . c #FE9026",
".. c #FA922F",
"X. c #89877F",
"o. c #D58F4D",
"O. c #DF9550",
"+. c #CA8749",
"@. c #E08F41",
"#. c #F79D48",
"$. c #E69A53",
"%. c #FBA14D",
"&. c #F6A356",
"*. c #F8A557",
"=. c #F6A55A",
"-. c #FAA75A",
";. c #FCAB5D",
":. c #FFB061",
">. c #5E2981",
",. c #672D8D",
"<. c #6E2E99",
"1. c #6A2C94",
"2. c #6D3095",
"3. c #6F3198",
"4. c #71329C",
"5. c #7534A0",
"6. c #7936A6",
"7. c #734790",
"8. c #7E7880",
"9. c #8E62A7",
"0. c #986DAF",
"q. c #9D70B5",
"w. c #848483",
"e. c #898989",
"r. c #939393",
"t. c #9C9C9C",
"y. c #9A9994",
"u. c #A29F96",
"i. c #A9A79E",
"p. c #A4A4A4",
"a. c #ADABA2",
"s. c #ADADAD",
"d. c #B2AFA5",
"f. c #B6B3A9",
"g. c #B6B3A9",
"h. c #B4B4B4",
"j. c #BBBBBB",
"k. c #C0BFBF",
"l. c #C2C0BA",
"z. c #BFBFC0",
"x. c #C0C0C0",
"c. c #CAC5C3",
"v. c #CFCCC1",
"b. c #D0CDC1",
"n. c #D5D3C9",
"m. c #DEDEDE",
"M. c #D8D7D3",
"N. c #E0DFD1",
"B. c #E8E4D7",
"V. c #EAE5DB",
"C. c #ECE9DE",
"Z. c #E4E1D4",
"A. c #F4EBE7",
"S. c #F8F5E7",
"D. c #FAF6E8",
"F. c #FEFAEC",
"G. c #F6F3E6",
"H. c gray97",
"J. c #FFFFF6",
"K. c #FFFFF1",
"L. c #FFFFF9",
"P. c #FFFFFA",
"I. c #FFFFFD",
"U. c #DAF4E8",
"Y. c black",
/* pixels */
"U.U.U.U.U.U.U.U.U.U.U.U.U.U.U.U.U.U.U.U.U.U.U.U.U.U.U.U.U.U.U.U.U.U.U.U.U.U.U.U.U.U.U.U.U.U.U.U.U.U.U.U.U.U.U.U.U.U.U.U.U.U.U.U.U.U.U.U.U.U.U.U.U.U.U.U.U.U.U.U.",
"U.U.U.U.U.U.U.U.U.U.U.U.U.U.U.U.U.U.U.U.U.U.U.U.U.U.U.U.U.U.U.U.U.U.U.U.U.U.U.U.U.U.U.U.U.U.U.U.U.U.U.U.U.U.U.U.U.U.U.U.U.U.U.U.U.U.U.U.U.U.U.U.U.U.U.U.U.U.U.U.",
"U.U.U.U.U.U.U.U.U.U.U.U.U.U.U.U.U.U.U.U.U.U.U.U.U.U.U.U.U.U.U.U.U.U.U.U.U.U.U.U.U.U.U.U.U.U.U.U.U.U.U.U.U.U.U.U.U.U.U.U.U.U.U.U.U.U.U.U.U.U.U.U.U.U.U.U.U.U.U.U.",
"U.U.U.U.U.U.U.U.U.U.U.U.U.U.U.U.U.U.U.U.U.U.U.U.U.U.U.U.U.U.U.U.U.U.U.U.U.U.U.U.U.U.U.U.U.U.U.U.U.U.U.U.U.U.U.U.U.U.U.U.U.U.U.U.U.U.U.U.U.U.U.U.U.U.U.U.U.U.U.U.",
"U.U.U.U.U.U.U.U.U.U.U.U.U.U.U.U.U.U.U.U.U.U.U.U.U.U.U.U.U.U.U.U.U.U.U.U.U.U.U.U.U.U.U.U.U.U.U.U.U.U.U.U.U.U.U.U.U.U.U.U.U.U.U.U.U.U.U.U.U.U.U.U.U.U.U.U.U.U.U.U.",
"U.U.U.U.U.U.U.U.U.U.U.U.U.U.U.U.U.U.U.U.U.U.U.U.U.U.U.U.U.U.U.U.U.U.U.U.U.U.U.U.U.U.U.U.U.U.U.U.U.U.U.U.U.U.U.U.U.U.U.U.U.U.U.U.U.U.U.U.U.U.U.U.U.U.U.U.U.U.U.U.",
"U.U.U.U.U.U.U.U.U.U.U.U.U.U.U.U.U.U.U.U.U.U.U.U.U.U.U.U.U.U.U.U.U.U.U.U.U.U.U.U.U.U.U.U.U.U.U.U.U.U.U.U.U.U.U.U.U.U.U.U.U.U.U.U.U.U.U.U.U.U.U.U.U.U.U.U.U.U.U.U.",
"U.U.U.U.U.U.U.U.U.U.U.U.U.U.U.U.U.U.U.U.U.U.U.U.U.U.U.U.U.U.U.U.U.U.U.U.U.U.U.U.U.U.U.U.U.U.U.U.U.U.U.U.U.U.U.U.U.U.U.U.U.U.U.U.U.U.U.U.U.U.U.U.U.U.U.U.U.U.U.U.",
"U.U.U.U.U.U.U.U.U.U.U.U.U.U.U.U.U.U.U.U.U.U.U.U.U.U.U.U.U.U.U.U.U.U.U.U.U.U.U.U.U.U.U.U.U.U.U.U.U.U.U.U.U.U.U.U.U.U.U.U.U.U.U.U.U.U.U.U.U.U.U.U.U.U.U.U.U.U.U.U.",
"U.U.U.U.U.U.U.U.U.U.U.U.U.U.U.U.U.U.U.U.U.U.U.U.U.U.U.U.U.U.U.U.U.U.U.U.U.U.U.U.U.U.U.U.U.U.U.U.U.U.U.U.U.U.U.U.U.U.U.U.U.U.U.U.U.U.U.U.U.U.U.U.U.U.U.U.U.U.U.U.",
"U.U.U.U.U.U.U.U.U.U.U.U.U.U.U.U.U.U.U.U.U.U.U.U.U.U.U.U.U.U.U.U.U.U.U.U.U.U.U.U.U.U.U.U.U.U.U.U.U.U.U.U.U.U.U.U.U.U.U.U.U.U.U.U.U.U.U.U.U.U.U.U.U.U.U.U.U.U.U.U.",
"U.U.U.U.U.U.U.U.U.U.U.U.U.U.U.U.U.U.U.U.U.U.U.U.U.U.U.U.U.U.U.U.U.U.U.U.U.U.U.U.U.U.U.U.U.U.U.U.U.U.U.U.U.U.U.U.U.U.U.U.U.U.U.U.U.U.U.U.U.U.U.U.U.U.U.U.U.U.U.U.",
"U.U.U.U.U.U.U.U.U.U.U.U.U.U.U.U.U.U.U.U.U.U.U.U.U.U.U.U.U.U.U.U.U.U.U.U.U.U.U.U.U.U.U.U.U.U.U.U.U.U.U.U.U.U.U.U.U.U.U.U.U.U.U.U.U.U.U.U.U.U.U.U.U.U.U.U.U.U.U.U.",
"U.U.U.U.U.U.U.U.U.U.U.U.U.U.U.U.U.U.U.U.U.U.U.U.U.U.U.U.U.U.U.U.U.U.U.U.U.U.U.U.U.U.U.U.U.U.U.U.U.U.U.U.U.                  U.U.U.U.U.U.U.U.U.U.U.U.U.U.U.U.U.U.",
"U.U.U.U.U.U.U.U.U.U.U.U.U.U.U.U.U.U.U.U.U.U.U.U.U.U.U.U.U.U.U.U.U.U.U.U.U.U.U.U.U.U.U.U.U.U.U.U.U.U.U.U.U.                  U.U.U.U.U.U.U.U.U.U.U.U.U.U.U.U.U.U.",
"U.U.U.U.U.U.U.U.U.U.U.U.U.U.U.U.U.U.U.U.U.U.U.U.U.U.U.U.U.U.U.U.U.U.U.U.U.U.U.U.U.U.U.U.U.U.U.U.U.U.U.U.U.    o 5 0 6 o     U.U.U.U.U.U.U.U.U.U.U.U.U.U.U.U.U.U.",
"U.U.U.U.U.U.U.U.U.U.U.U.U.U.U.U.U.U.U.U.U.U.U.U.U.U.U.U.U.U.U.U.U.U.U.U.U.                                    5 s.m.z.q     U.U.U.U.U.U.U.U.U.U.U.U.U.U.U.U.U.U.",
"U.U.U.U.U.U.U.U.U.U.U.U.U.U.U.U.U.U.U.U.U.U.U.U.U.U.U.U.U.U.U.U.U.U.U.U.U.                                    8 m.I.H.B     U.U.U.U.U.U.U.U.U.U.U.U.U.U.U.U.U.U.",
"U.U.U.U.U.U.U.U.U.U.U.U.U.U.U.U.U.U.U.U.U.U.U.U.U.U.U.U.U.U.U.U.U.U.U.U.U.      X X X X X X X X X X X X $ X   9 j.H.M.b     U.U.U.U.U.U.U.U.U.U.U.U.U.U.U.U.U.U.",
"U.U.U.U.U.U.U.U.U.U.U.U.U.U.U.U.U.U.U.U.U.U.U.U.U.U.U.U.U.U.U.U.U.U.          $ g j j j j j j j j j j j j j j k N B b -     U.U.U.U.U.U.U.U.U.U.U.U.U.U.U.U.U.U.",
"U.U.U.U.U.U.U.U.U.U.U.U.U.U.U.U.U.U.U.U.U.U.U.U.U.U.U.U.U.U.U.U.U.U.          % x 6.4.4.4.4.4.4.4.4.5.5.5.5.6.>.$           U.U.U.U.U.U.U.U.U.U.U.U.U.U.U.U.U.U.",
"U.U.U.U.U.U.U.U.U.U.U.U.U.U.U.U.U.U.U.U.U.U.U.U.U.U.U.U.U.U.U.U.U.U.          1 x 4.3.4.3.3.4.4.3.3.2.2.2.2.4.z %           U.U.U.U.U.U.U.U.U.U.U.U.U.U.U.U.U.U.",
"U.U.U.U.U.U.U.U.U.U.U.U.U.U.U.U.U.U.U.U.U.U.U.U.U.U.U.U.U.U.U.U.U.U.    % f g h ,.4.3.3.3.3.3.3.4.c d s s s d 3 X       U.U.U.U.U.U.U.U.U.U.U.U.U.U.U.U.U.U.U.U.",
"U.U.U.U.U.U.U.U.U.U.U.U.U.U.U.U.U.U.U.U.U.U.U.U.U.U.U.U.U.U.U.U.U.U.    3 ,.4.4.3.3.3.3.3.3.3.4.4.g                   U.U.U.U.U.U.U.U.U.U.U.U.U.U.U.U.U.U.U.U.U.",
"U.U.U.U.U.U.U.U.U.U.U.U.U.U.U.U.U.U.U.U.U.U.U.U.U.U.U.U.U.U.U.U.U.U.    2 ,.4.4.3.3.3.3.3.3.4.4.4.g                   U.U.U.U.U.U.U.U.U.U.U.U.U.U.U.U.U.U.U.U.U.",
"U.U.U.U.U.U.U.U.U.U.U.U.U.U.U.U.U.U.U.U.U.U.U.U.U.U.U.U.U.U.U.U.U.      % f g h ,.4.3.3.4.<.c g g 3                   U.U.U.U.U.U.U.U.U.U.U.U.U.U.U.U.U.U.U.U.U.",
"U.U.U.U.U.U.U.U.U.U.U.U.U.U.U.U.U.U.U.U.U.U.U.U.                              1 x 4.4.<.4.1.d                   U.U.U.U.U.U.U.U.U.U.U.U.U.U.U.U.U.U.U.U.U.U.U.U.",
"U.U.U.U.U.U.U.U.U.U.U.U.U.U.U.U.U.U.U.U.U.U.U.U.                              & z 4.<.<.<.,.4                   U.U.U.U.U.U.U.U.U.U.U.U.U.U.U.U.U.U.U.U.U.U.U.U.",
"U.U.U.U.U.U.U.U.U.U.U.U.U.U.U.U.U.U.U.U.U.U.U.U.      - 5 5 5 5 5 5 5 5 5 5 5 9 v 7.7.9.q.0.A m n n m n 0 .     U.U.U.U.U.U.U.U.U.U.U.U.U.U.U.U.U.U.U.U.U.U.U.U.",
"U.U.U.U.U.U.U.U.U.U.U.U.U.U.U.U.U.U.U.U.U.U.U.U.    o m F F F F F S F F F F S F J J I c.A.A.C.B.B.B.V.C.u.=     U.U.U.U.U.U.U.U.U.U.U.U.U.U.U.U.U.U.U.U.U.U.U.U.",
"U.U.U.U.U.U.U.U.U.U.U.U.U.U.U.U.U.U.U.U.U.U.U.U.    o B w.I I I I I I I I I I I P L w.N.I.L.L.I.I.L.K.I.g.-     U.U.U.U.U.U.U.U.U.U.U.U.U.U.U.U.U.U.U.U.U.U.U.U.",
"U.U.U.U.U.U.U.U.U.U.U.U.U.U.U.U.U.U.U.U.U.U.U.U.    o b V V V V V V V V V V V V V V F a.b.b.b.v.v.Z.F.J.d.=     U.U.U.U.U.U.U.U.U.U.U.U.U.U.U.U.U.U.U.U.U.U.U.U.",
"U.U.U.U.U.U.U.U.U.U.U.U.U.U.U.U.U.U.U.U.U.            * * = = * * - = * * = * * = * = 5 8 8 6 6 6 X.S.L.d.=     U.U.U.U.U.U.U.U.U.U.U.U.U.U.U.U.U.U.U.U.U.U.U.U.",
"U.U.U.U.U.U.U.U.U.U.U.U.U.U.U.U.U.U.U.U.U.                                                        G F.I.f.-     U.U.U.U.U.U.U.U.U.U.U.U.U.U.U.U.U.U.U.U.U.U.U.U.",
"U.U.U.U.U.U.U.U.U.U.U.U.U.U.U.U.U.U.U.U.U.      o * * o * * * o * * o * * = - - = = = = = = o     Z V.F.a.=     U.U.U.U.U.U.U.U.U.U.U.U.U.U.U.U.U.U.U.U.U.U.U.U.",
"U.U.U.U.U.U.U.U.U.U.U.U.U.U.U.U.U.U.U.U.U.    = S w.8.I I I w.8.I 8.I I e.a.f.d.d.d.d.d.f.a.m     b y.p.F o     U.U.U.U.U.U.U.U.U.U.U.U.U.U.U.U.U.U.U.U.U.U.U.U.",
"U.U.U.U.U.U.U.U.U.U.U.U.U.U.U.U.U.U.U.U.U.    5 r.x.j.j.z.z.j.h.j.j.j.j.n.K.L.J.L.L.L.J.L.F.H     0 F L n o     U.U.U.U.U.U.U.U.U.U.U.U.U.U.U.U.U.U.U.U.U.U.U.U.",
"U.U.U.U.U.U.U.U.U.U.U.U.U.U.U.U.U.U.U.U.U.    5 r.j.h.h.s.s.h.h.h.h.s.s.c.G.K.D.G.G.S.F.J.D.D     8 K I M o     U.U.U.U.U.U.U.U.U.U.U.U.U.U.U.U.U.U.U.U.U.U.U.U.",
"U.U.U.U.U.U.U.U.U.U.U.U.U.U.U.U.U.U.U.U.U.    5 r.j.s.F n B e.j.h.e.B m L c.M.l.X.Z P n.J.S.D     0 F L B o     U.U.U.U.U.U.U.U.U.U.U.U.U.U.U.U.U.U.U.U.U.U.U.U.",
"U.U.U.U.U.U.U.U.U.U.U.U.U.U.U.U.U.U.U.U.U.    5 r.z.p.0     S h.h.S     0 p.z.r.;   * d.L.S.D     0 L P M o     U.U.U.U.U.U.U.U.U.U.U.U.U.U.U.U.U.U.U.U.U.U.U.U.",
"U.U.U.U.U.U.U.U.U.U.U.U.U.U.U.U.U.U.U.U.U.    5 r.z.p.0     S h.j.S     0 p.x.r.,   = a.L.D.D     8 F I n o     U.U.U.U.U.U.U.U.U.U.U.U.U.U.U.U.U.U.U.U.U.U.U.U.",
"U.U.U.U.U.U.U.U.U.U.U.U.U.U.U.U.U.U.U.U.U.    5 r.x.p.0   . S j.j.S o   0 p.z.r.5   * y.C.M.C     0 K I B o     U.U.U.U.U.U.U.U.U.U.U.U.U.U.U.U.U.U.U.U.U.U.U.U.",
"U.U.U.U.U.U.U.U.U.U.U.U.U.U.U.U.U.U.U.U.U.    5 r.z.p.q     S j.j.S     0 p.z.r.5   * I z.s.M     0 K P B o     U.U.U.U.U.U.U.U.U.U.U.U.U.U.U.U.U.U.U.U.U.U.U.U.",
"U.U.U.U.U.U.U.U.U.U.U.U.U.U.U.U.U.U.U.U.U.    ; r.z.p.0   . S j.h.S X   0 p.z.r.,   * I z.s.n     0 K P M o     U.U.U.U.U.U.U.U.U.U.U.U.U.U.U.U.U.U.U.U.U.U.U.U.",
"U.U.U.U.U.U.U.U.U.U.U.U.U.U.U.U.U.U.U.U.U.    5 r.z.p.0   . S j.j.S     0 p.z.r.5   * I j.s.M     0 F P M o     U.U.U.U.U.U.U.U.U.U.U.U.U.U.U.U.U.U.U.U.U.U.U.U.",
"U.U.U.U.U.U.U.U.U.U.U.U.U.U.U.U.U.U.U.U.U.    5 r.z.p.0     S j.j.S .   0 p.z.r.5   * I z.s.n     0 K P B o     U.U.U.U.U.U.U.U.U.U.U.U.U.U.U.U.U.U.U.U.U.U.U.U.",
"U.U.U.U.U.U.U.U.U.U.U.U.U.U.U.U.U.U.U.U.U.    5 r.z.p.0     S h.h.S     0 p.x.r.;   o I j.s.M     8 K I B o     U.U.U.U.U.U.U.U.U.U.U.U.U.U.U.U.U.U.U.U.U.U.U.U.",
"U.U.U.U.U.U.U.U.U.U.U.U.U.U.U.U.U.U.U.U.U.    , r.z.p.M ; 5 P j.j.L 5 ; M p.z.t.q = 6 e.j.h.M     8 H I n o     U.U.U.U.U.U.U.U.U.U.U.U.U.U.U.U.U.U.U.U.U.U.U.U.",
"U.U.U.U.U.U.U.U.U.U.U.U.U.U.U.U.U.U.U.U.U.    5 r.j.h.t.r.r.p.h.h.p.r.r.t.h.h.s.t.r.r.s.j.s.n     0 K I M o     U.U.U.U.U.U.U.U.U.U.U.U.U.U.U.U.U.U.U.U.U.U.U.U.",
"U.U.U.U.U.U.U.U.U.U.U.U.U.U.U.U.U.U.U.U.U.    5 r.x.j.j.x.j.j.j.j.j.x.x.j.j.j.j.j.x.z.j.j.h.B     0 K I B o     U.U.U.U.U.U.U.U.U.U.U.U.U.U.U.U.U.U.U.U.U.U.U.U.",
"U.U.U.U.U.U.U.U.U.U.U.U.U.U.U.U.U.U.U.U.U.    ; w.s.p.p.p.p.p.p.p.p.p.p.p.p.p.p.p.p.p.p.s.t.b     6 S H m o     U.U.U.U.U.U.U.U.U.U.U.U.U.U.U.U.U.U.U.U.U.U.U.U.",
"U.U.U.U.U.U.U.U.U.U.U.U.U.U.U.U.U.U.U.U.U.    o 6 0 q 0 q 0 0 0 0 0 0 0 0 q 0 0 0 0 q 0 0 0 =     * 5 5 ;             U.U.U.U.U.U.U.U.U.U.U.U.U.U.U.U.U.U.U.U.U.",
"U.U.U.U.U.U.U.U.U.U.U.U.U.U.U.U.U.U.U.U.U.                                                                            U.U.U.U.U.U.U.U.U.U.U.U.U.U.U.U.U.U.U.U.U.",
"U.U.U.U.U.U.U.U.U.U.U.U.U.U.U.U.U.U.U.U.U.                .   . .     . .     . .   .   .     . .   .   .   .         U.U.U.U.U.U.U.U.U.U.U.U.U.U.U.U.U.U.U.U.U.",
"U.U.U.U.U.U.U.U.U.U.U.U.U.U.U.U.U.U.U.U.U.U.U.      . a E E R R R R R R R R R R R R R R R R T U U Y Y U U Y Y p @     U.U.U.U.U.U.U.U.U.U.U.U.U.U.U.U.U.U.U.U.U.",
"U.U.U.U.U.U.U.U.U.U.U.U.U.U.U.U.U.U.U.U.U.U.U.U.    + Q ;.-.-.-.-.-.-.-.-.-.-.-.-.-.-.-.-.-.| ] ` ` ` ] ` ` ] / >     U.U.U.U.U.U.U.U.U.U.U.U.U.U.U.U.U.U.U.U.U.",
"U.U.U.U.U.U.U.U.U.U.U.U.U.U.U.U.U.U.U.U.U.U.U.U.    + ! :.-.-.-.-.-.-.-.-.-.-.-.-.-.-.=.=.*.| ` ` ` ` ] ` ` ] / >     U.U.U.U.U.U.U.U.U.U.U.U.U.U.U.U.U.U.U.U.U.",
"U.U.U.U.U.U.U.U.U.U.U.U.U.U.U.U.U.U.U.U.U.U.U.U.    O a R R R R R R R R R R R R R R W o.-.&.| ` ` ` ` ` ` ` ] ~ :       U.U.U.U.U.U.U.U.U.U.U.U.U.U.U.U.U.U.U.U.",
"U.U.U.U.U.U.U.U.U.U.U.U.U.U.U.U.U.U.U.U.U.U.U.U.        .   .   .   .   .   . .     + Q ;.&.| ` ` ` ` ` ` ` ] ~ :           U.U.U.U.U.U.U.U.U.U.U.U.U.U.U.U.U.U.",
"U.U.U.U.U.U.U.U.U.U.U.U.U.U.U.U.U.U.U.U.U.U.U.U.                                    + Q ;.&.| ` ` ` ` ` ` ` ] ~ :           U.U.U.U.U.U.U.U.U.U.U.U.U.U.U.U.U.U.",
"U.U.U.U.U.U.U.U.U.U.U.U.U.U.U.U.U.U.U.U.U.U.U.U.      ; 5 5 5 5 5 5 5 5 5 5 5 ; .   + Q -.&.| ` ` ` ` ` ` ` ` ( i w w @     U.U.U.U.U.U.U.U.U.U.U.U.U.U.U.U.U.U.",
"U.U.U.U.U.U.U.U.U.U.U.U.U.U.U.U.U.U.U.U.U.U.U.U.    o m F F F F F F F F F F F B *   + Q ;.&.| ` ` ` ` ` ` ` ` ` ) ) / w     U.U.U.U.U.U.U.U.U.U.U.U.U.U.U.U.U.U.",
"U.U.U.U.U.U.U.U.U.U.U.U.U.U.U.U.U.U.U.U.U.U.U.U.    o B I L L L I L L L P L I S -   + Q ;.&.| ` ` ` ` ` ` ` ` ` ] ] ) r     U.U.U.U.U.U.U.U.U.U.U.U.U.U.U.U.U.U.",
"U.U.U.U.U.U.U.U.U.U.U.U.U.U.U.U.U.U.U.U.U.U.U.U.    o M I L L L L L L L L L P V =   + Q -.&...{ { { { { { { { { { } _ e     U.U.U.U.U.U.U.U.U.U.U.U.U.U.U.U.U.U.",
"U.U.U.U.U.U.U.U.U.U.U.U.U.U.U.U.U.U.U.U.U.U.U.U.    o M L L L L K L K L L L I V *   + Q -.-.%.#.#.#.#.#.#.#.#.#.#.%.@.y     U.U.U.U.U.U.U.U.U.U.U.U.U.U.U.U.U.U.",
"U.U.U.U.U.U.U.U.U.U.U.U.U.U.U.U.U.U.U.U.U.U.U.U.    o B I L I L P P P L I L I S *   + ! ;.-.;.;.;.;.;.;.;.;.;.;.;.:.$.u     U.U.U.U.U.U.U.U.U.U.U.U.U.U.U.U.U.U.",
"U.U.U.U.U.U.U.U.U.U.U.U.U.U.U.U.U.U.U.U.U.U.U.U.    o m K F S F F F F F S S K B *   + W $.O.O.O.O.O.O.O.O.O.O.O.O.$.+.t     U.U.U.U.U.U.U.U.U.U.U.U.U.U.U.U.U.U.",
"U.U.U.U.U.U.U.U.U.U.U.U.U.U.U.U.U.U.U.U.U.U.U.U.      ; 5 5 5 5 5 5 5 5 5 5 5 ; .   . < u u u u u u u u u u u u u u t +     U.U.U.U.U.U.U.U.U.U.U.U.U.U.U.U.U.U.",
"U.U.U.U.U.U.U.U.U.U.U.U.U.U.U.U.U.U.U.U.U.U.U.U.                                                                            U.U.U.U.U.U.U.U.U.U.U.U.U.U.U.U.U.U.",
"U.U.U.U.U.U.U.U.U.U.U.U.U.U.U.U.U.U.U.U.U.U.U.U.                                                                            U.U.U.U.U.U.U.U.U.U.U.U.U.U.U.U.U.U.",
"U.U.U.U.U.U.U.U.U.U.U.U.U.U.U.U.U.U.U.U.U.U.U.U.U.U.U.U.U.U.U.U.U.U.U.U.U.U.U.U.U.U.U.U.U.U.U.U.U.U.Y.Y.Y.Y.Y.Y.U.U.U.U.U.U.U.U.U.U.U.U.U.U.U.U.U.U.U.U.U.U.U.U.",
"U.U.U.U.U.U.U.U.U.U.U.U.U.U.U.U.U.U.U.U.U.U.U.U.U.U.U.U.U.U.U.U.U.U.U.U.U.U.U.U.U.U.U.U.U.U.U.U.U.U.Y.Y.Y.Y.Y.Y.U.U.U.U.U.U.U.U.U.U.U.U.U.U.U.U.U.U.U.U.U.U.U.U.",
"U.U.U.U.U.U.U.U.U.U.U.U.U.U.U.U.U.U.U.U.U.U.U.U.U.U.U.U.U.U.U.U.U.U.U.U.U.U.U.U.U.U.U.U.U.U.U.U.U.U.U.U.U.U.U.U.U.U.U.U.U.U.U.U.U.U.U.U.U.U.U.U.U.U.U.U.U.U.U.U.",
"U.U.U.U.U.U.U.U.U.U.U.U.U.U.U.U.U.U.U.U.U.U.U.U.U.U.U.U.U.U.U.U.U.U.U.U.U.U.U.U.U.U.U.U.U.U.U.U.U.U.U.U.U.U.U.U.U.U.U.U.U.U.U.U.U.U.U.U.U.U.U.U.U.U.U.U.U.U.U.U.",
"U.U.U.U.U.U.U.U.U.U.U.U.U.U.U.U.U.U.U.U.U.U.U.U.U.U.U.U.U.U.U.U.U.U.U.U.U.U.U.U.U.U.U.U.U.U.U.U.U.U.U.U.U.U.U.U.U.U.U.U.U.U.U.U.U.U.U.U.U.U.U.U.U.U.U.U.U.U.U.U.",
"U.U.U.U.U.U.U.U.U.U.U.U.U.U.U.U.U.U.U.U.U.U.U.U.U.U.U.U.U.U.U.U.U.U.U.U.U.U.U.U.U.U.U.U.U.U.U.U.U.U.U.U.U.U.U.U.U.U.U.U.U.U.U.U.U.U.U.U.U.U.U.U.U.U.U.U.U.U.U.U.",
"U.U.U.U.U.U.U.U.U.U.U.U.U.U.U.U.U.U.U.U.U.U.U.U.U.U.U.U.U.U.U.U.U.U.U.U.U.U.U.U.U.U.U.U.U.U.U.U.U.U.U.U.U.U.U.U.U.U.U.U.U.U.U.U.U.U.U.U.U.U.U.U.U.U.U.U.U.U.U.U.",
"U.U.U.U.U.U.U.U.U.U.U.U.U.U.U.U.U.U.U.U.U.U.U.U.U.U.U.U.U.U.U.U.U.U.U.U.U.U.U.U.U.U.U.U.U.U.U.U.U.U.U.U.U.U.U.U.U.U.U.U.U.U.U.U.U.U.U.U.U.U.U.U.U.U.U.U.U.U.U.U.",
"U.U.U.U.U.U.U.U.U.U.U.U.U.U.U.U.U.U.U.U.U.U.U.U.U.U.U.U.U.U.U.U.U.U.U.U.U.U.U.U.U.U.U.U.U.U.U.U.U.U.U.U.U.U.U.U.U.U.U.U.U.U.U.U.U.U.U.U.U.U.U.U.U.U.U.U.U.U.U.U.",
"U.U.U.U.U.U.U.U.U.U.U.U.U.U.U.U.U.U.U.U.U.U.U.U.U.U.U.U.U.U.U.U.U.U.U.U.U.U.U.U.U.U.U.U.U.U.U.U.U.U.U.U.U.U.U.U.U.U.U.U.U.U.U.U.U.U.U.U.U.U.U.U.U.U.U.U.U.U.U.U."
};
