/* XPM */
static char *xpm_[] = {
/* columns rows colors chars-per-pixel */
"80 80 158 2 ",
"   c #010100",
".  c #0F0A06",
"X  c #060309",
"o  c #0A040E",
"O  c #0B0B0B",
"+  c #090400",
"@  c #130D07",
"#  c #160F08",
"$  c #181009",
"%  c #13081A",
"&  c #100616",
"*  c #121212",
"=  c #181716",
"-  c #1C1C1D",
";  c #261300",
":  c #2F1700",
">  c #2F1A05",
",  c #2C1C0E",
"<  c #20150B",
"1  c #311800",
"2  c #2D1E10",
"3  c #2F2011",
"4  c #21211F",
"5  c #342313",
"6  c #3C2816",
"7  c #170A20",
"8  c #1B0C25",
"9  c #1E0D2A",
"0  c #220F2E",
"q  c #230F30",
"w  c #241032",
"e  c #2A103C",
"r  c #222222",
"t  c #2E2E2E",
"y  c #343434",
"u  c #3B3B3B",
"i  c #452E19",
"p  c #4A321B",
"a  c #5A3C20",
"s  c #41413E",
"d  c #351847",
"f  c #3F1C57",
"g  c #431E5C",
"h  c #482062",
"j  c #4E226A",
"k  c #522471",
"l  c #5B297D",
"z  c #59267B",
"x  c #414141",
"c  c #4B4A46",
"v  c #4D4D4B",
"b  c #4A454D",
"n  c #515151",
"m  c #585755",
"M  c #5D5D5D",
"N  c #5C5B57",
"B  c #65635E",
"V  c #685377",
"C  c #656565",
"Z  c #6D6C66",
"A  c #6C6C6C",
"S  c #72716A",
"D  c #747474",
"F  c #7C7C7C",
"G  c #797772",
"H  c #A95400",
"J  c #8B5D32",
"K  c #9B6838",
"L  c #AB723D",
"P  c #B0763F",
"I  c #CE6C0D",
"U  c #D06700",
"Y  c #D76A00",
"T  c #CC741F",
"R  c #FF7E00",
"E  c #B67A42",
"W  c #FF8300",
"Q  c #FD850F",
"!  c #FD8510",
"~  c #FF8A11",
"^  c #C9803A",
"/  c #FB8E26",
"(  c #FF9427",
")  c #FA922F",
"_  c #81827F",
"`  c #C78649",
"'  c #C88648",
"]  c #CE8B4C",
"[  c #C48346",
"{  c #DF9550",
"}  c #F79D48",
"|  c #E69A52",
" . c #EE9F56",
".. c #E19651",
"X. c #F6A04F",
"o. c #FFA34A",
"O. c #F6A356",
"+. c #F5A559",
"@. c #FDAC5D",
"#. c #FFB361",
"$. c #5E2A81",
"%. c #602A83",
"&. c #652D8B",
"*. c #692E8F",
"=. c #6B2E93",
"-. c #6F2F99",
";. c #6D3194",
":. c #6F3198",
">. c #72339C",
",. c #72379A",
"<. c #7634A2",
"1. c #7B36A8",
"2. c #7F38AD",
"3. c #755986",
"4. c #858585",
"5. c #8C8C8B",
"6. c #8F8D85",
"7. c #918E87",
"8. c #94928B",
"9. c #939393",
"0. c #9D9D9D",
"q. c #A598A3",
"w. c #A98CB3",
"e. c #A4A4A4",
"r. c #AEAEAE",
"t. c #ADABA2",
"y. c #B2AFA5",
"u. c #B4B1A7",
"i. c #B5B2A8",
"p. c #B4B4B4",
"a. c #BBBBBB",
"s. c #B8B7B3",
"d. c #C0BDB3",
"f. c #CDCABF",
"g. c #C2A4CA",
"h. c #C0C0C0",
"j. c #CECCC6",
"k. c #D5D2C6",
"l. c #D8D6CB",
"z. c #D5D4CF",
"x. c #D6D5D1",
"c. c #E1DED2",
"v. c #E8E4D7",
"b. c #E9E6DA",
"n. c #ECE9DC",
"m. c #F2EEE1",
"M. c #F8F4E7",
"N. c #FDF9EB",
"B. c #F8F4E8",
"V. c #FFFFF1",
"C. c #FFFFF2",
"Z. c #FFFFF7",
"A. c #FFFFF4",
"S. c #FFFFF8",
"D. c #FFFFFB",
"F. c #FFFFFD",
"G. c #DAF4E8",
"H. c black",
/* pixels */
"G.G.G.G.G.G.G.G.G.G.G.G.G.G.G.G.G.G.G.G.G.G.G.G.G.G.G.G.G.G.G.G.G.G.G.G.G.G.G.G.G.G.G.G.G.G.G.G.G.G.G.G.G.G.G.G.G.G.G.G.G.G.G.G.G.G.G.G.G.G.G.G.G.G.G.G.G.G.G.G.",
"G.G.G.G.G.G.G.G.G.G.G.G.G.G.G.G.G.G.G.G.G.G.G.G.G.G.G.G.G.G.G.G.G.G.G.G.G.G.G.G.G.G.G.G.G.G.G.G.G.G.G.G.G.G.G.G.G.G.G.G.G.G.G.G.G.G.G.G.G.G.G.G.G.G.G.G.G.G.G.G.",
"G.G.G.G.G.G.G.G.G.G.G.G.G.G.G.G.G.G.G.G.G.G.G.G.G.G.G.G.G.G.G.G.G.G.G.G.G.G.G.G.G.G.G.G.G.G.G.G.G.G.G.G.G.G.G.G.G.G.G.G.G.G.G.G.G.G.G.G.G.G.G.G.G.G.G.G.G.G.G.G.",
"G.G.G.G.G.G.G.G.G.G.G.G.G.G.G.G.G.G.G.G.G.G.G.G.G.G.G.G.G.G.G.G.G.G.G.G.G.G.G.G.G.G.G.G.G.G.G.G.G.G.G.G.G.G.G.G.G.G.G.G.G.G.G.G.G.G.G.G.G.G.G.G.G.G.G.G.G.G.G.G.",
"G.G.G.G.G.G.G.G.G.G.G.G.G.G.G.G.G.G.G.G.G.G.G.G.G.G.G.G.G.G.G.G.G.G.G.G.G.G.G.G.G.G.G.G.G.G.G.G.G.G.G.G.G.G.G.G.G.G.G.G.G.G.G.G.G.G.G.G.G.G.G.G.G.G.G.G.G.G.G.G.",
"G.G.G.G.G.G.G.G.G.G.G.G.G.G.G.G.G.G.G.G.G.G.G.G.G.G.G.G.G.G.G.G.G.G.G.G.G.G.G.G.G.G.G.G.G.G.G.G.G.G.G.G.G.G.G.G.G.G.G.G.G.G.G.G.G.G.G.G.G.G.G.G.G.G.G.G.G.G.G.G.",
"G.G.G.G.G.G.G.G.G.G.G.G.G.G.G.G.G.G.G.G.G.G.G.G.G.G.G.G.G.G.G.G.G.G.G.G.G.G.G.G.G.G.G.G.G.G.G.G.G.G.G.G.G.G.G.G.G.G.G.G.G.G.G.G.G.G.G.G.G.G.G.G.G.G.G.G.G.G.G.G.",
"G.G.G.G.G.G.G.G.G.G.G.G.G.G.G.G.G.G.G.G.G.G.G.G.G.G.G.G.G.G.G.G.G.G.G.G.G.G.G.G.G.G.G.G.G.G.G.G.G.G.G.G.G.G.G.G.G.G.G.G.G.G.G.G.G.G.G.G.G.G.G.G.G.G.G.G.G.G.G.G.",
"G.G.G.G.G.G.G.G.G.G.G.G.G.G.G.G.G.G.G.G.G.G.G.G.G.G.G.G.G.G.G.G.G.G.G.G.G.G.G.G.G.G.G.G.G.G.G.G.G.G.G.G.G.G.G.G.G.G.G.G.G.G.G.G.G.G.G.G.G.G.G.G.G.G.G.G.G.G.G.G.",
"G.G.G.G.G.G.G.G.G.G.G.G.G.G.G.G.G.G.G.G.G.G.G.G.G.G.G.G.G.G.G.G.G.G.G.G.G.G.G.G.G.G.G.G.G.G.G.G.G.G.G.G.G.G.G.G.G.G.G.G.G.G.G.G.G.G.G.G.G.G.G.G.G.G.G.G.G.G.G.G.",
"G.G.G.G.G.G.G.G.G.G.G.G.G.G.G.G.G.G.G.G.G.                                            G.G.G.G.G.G.G.G.G.G.G.G.G.G.G.G.G.G.G.G.G.G.G.G.G.G.G.G.G.G.G.G.G.G.G.G.G.",
"G.G.G.G.G.G.G.G.G.G.G.G.G.G.G.G.G.G.G.G.G.                                            G.G.G.G.G.G.G.G.G.G.G.G.G.G.G.G.G.G.G.G.G.G.G.G.G.G.G.G.G.G.G.G.G.G.G.G.G.",
"G.G.G.G.G.G.G.G.G.G.G.G.G.G.G.G.G.G.G.G.      X 8 q 0 0 0 0 0 0 0 0 0 0 0 0 0 8 X       G.G.G.G.G.G.G.G.G.G.G.G.G.G.G.G.G.G.G.G.G.G.G.G.G.G.G.G.G.G.G.G.G.G.G.G.",
"G.G.G.G.G.G.G.G.G.G.G.G.G.G.G.G.G.G.          % k *.&.&.&.&.&.&.&.&.&.&.&.&.=.k %           G.G.G.G.G.G.G.G.G.G.G.G.G.G.G.G.G.G.G.G.G.G.G.G.G.G.G.G.G.G.G.G.G.G.",
"G.G.G.G.G.G.G.G.G.G.G.G.G.G.G.G.G.G.          % %.1.<.<.<.<.>.>.>.>.>.>.>.>.<.$.%           G.G.G.G.G.G.G.G.G.G.G.G.G.G.G.G.G.G.G.G.G.G.G.G.G.G.G.G.G.G.G.G.G.G.",
"G.G.G.G.G.G.G.G.G.G.G.G.G.G.G.G.G.G.    X % % 0 j l z l l l &.:.:.:.:.:.:.:.>.$.q % % X     G.G.G.G.G.G.G.G.G.G.G.G.G.G.G.G.G.G.G.G.G.G.G.G.G.G.G.G.G.G.G.G.G.G.",
"G.G.G.G.G.G.G.G.G.G.G.G.G.G.G.G.G.G.    8 k %.j 0 % % % % 7 h -.:.:.:.:.:.:.:.;.$.l k 8     H.H.G.G.G.G.G.G.G.G.G.G.G.G.G.G.G.G.G.G.G.G.G.G.G.G.G.G.G.G.G.G.G.G.",
"G.G.G.G.G.G.G.G.G.G.G.G.G.G.G.G.G.G.    q ;.2.$.%           g >.>.:.:.:.:.:.:.:.<.1.;.w     H.H.G.G.G.G.G.G.G.G.G.G.G.G.G.G.G.G.G.G.G.G.G.G.G.G.G.G.G.G.G.G.G.G.",
"G.G.G.G.G.G.G.G.G.G.G.G.G.G.G.G.G.G.    9 l ;.k %           f &.&.=.:.:.:.:.:.:.&.*.l 9     H.H.G.G.G.G.G.G.G.G.G.G.G.G.G.G.G.G.G.G.G.G.G.G.G.G.G.G.G.G.G.G.G.G.",
"G.G.G.G.G.G.G.G.G.G.G.G.G.G.G.G.G.G.    o 9 q 8 X           & 0 0 g :.>.:.:.>.$.d 0 9 o                         G.G.G.G.G.G.G.G.G.G.G.G.G.G.G.G.G.G.G.G.G.G.G.G.",
"G.G.G.G.G.G.G.G.G.G.G.G.G.G.G.G.G.G.                              e *.:.:.:.>.z o                               G.G.G.G.G.G.G.G.G.G.G.G.G.G.G.G.G.G.G.G.G.G.G.G.",
"G.G.G.G.G.G.G.G.G.G.G.G.G.G.G.G.G.G.                  X X . X X X d ,.,.,.:.>.l %   X   X     X X               G.G.G.G.G.G.G.G.G.G.G.G.G.G.G.G.G.G.G.G.G.G.G.G.",
"G.G.G.G.G.G.G.G.G.G.G.G.G.G.G.G.G.G.G.G.G.G.G.      O B 8.7.8.7.7.q.g.g.w.3.3.V b x x x x x x x s x x x t X     G.G.G.G.G.G.G.G.G.G.G.G.G.G.G.G.G.G.G.G.G.G.G.G.",
"G.G.G.G.G.G.G.G.G.G.G.G.G.G.G.G.G.G.G.G.G.G.G.G.    = i.D.N.N.C.C.C.C.C.l.4.A D D D G D D G D D D D G F m O     G.G.G.G.G.G.G.G.G.G.G.G.G.G.G.G.G.G.G.G.G.G.G.G.",
"G.G.G.G.G.G.G.G.G.G.G.G.G.G.G.G.G.G.G.G.G.G.G.G.    = u.Z.N.C.N.C.N.C.C.l._ A G G D D D G D F D D D G F n O     G.G.G.G.G.G.G.G.G.G.G.G.G.G.G.G.G.G.G.G.G.G.G.G.",
"G.G.G.G.G.G.G.G.G.G.G.G.G.G.G.G.G.G.G.G.G.G.G.G.    = y.Z.N.a.7.6.8.7.7.G c x x x x x x x x x x x x x x t X       G.G.G.G.G.G.G.G.G.G.G.G.G.G.G.G.G.G.G.G.G.G.G.",
"G.G.G.G.G.G.G.G.G.G.G.G.G.G.G.G.G.G.G.G.G.G.G.G.    = y.Z.M.S X + X X X O         X   +   X           X               G.G.G.G.G.G.G.G.G.G.G.G.G.G.G.G.G.G.G.G.G.",
"G.G.G.G.G.G.G.G.G.G.G.G.G.G.G.G.G.G.G.G.G.G.G.G.    = u.D.N.Z                                                         G.G.G.G.G.G.G.G.G.G.G.G.G.G.G.G.G.G.G.G.G.",
"G.G.G.G.G.G.G.G.G.G.G.G.G.G.G.G.G.G.G.G.G.G.G.G.    * 8.x.k.N     4 c v v v c c c v c u y y u y u y y y y u y t O     G.G.G.G.G.G.G.G.G.G.G.G.G.G.G.G.G.G.G.G.G.",
"G.G.G.G.G.G.G.G.G.G.G.G.G.G.G.G.G.G.G.G.G.G.G.G.    O N 4.F y     B c.n.v.v.v.v.v.b.c.s.e.e.e.e.e.e.e.e.e.e.r.4.-     G.G.G.G.G.G.G.G.G.G.G.G.G.G.G.G.G.G.G.G.G.",
"G.G.G.G.G.G.G.G.G.G.G.G.G.G.G.G.G.G.G.G.G.G.G.G.    O v D A t     S N.D.Z.F.F.F.D.Z.Z.x.a.h.h.a.a.a.h.h.a.a.h.9.r     G.G.G.G.G.G.G.G.G.G.G.G.G.G.G.G.G.G.G.G.G.",
"G.G.G.G.G.G.G.G.G.G.G.G.G.G.G.G.G.G.G.G.G.G.G.G.    O v F D y     Z M.C.m.k.f.k.b.M.b.r.5.9.e.p.p.e.9.9.0.p.a.9.r     G.G.G.G.G.G.G.G.G.G.G.G.G.G.G.G.G.G.G.G.G.",
"G.G.G.G.G.G.G.G.G.G.G.G.G.G.G.G.G.G.G.G.G.G.G.G.    O n F A y     Z B.D.s.s r c e.j.p.n - r D a.p.D r - v e.h.9.r     G.G.G.G.G.G.G.G.G.G.G.G.G.G.G.G.G.G.G.G.G.",
"G.G.G.G.G.G.G.G.G.G.G.G.G.G.G.G.G.G.G.G.G.G.G.G.    O v F A y     Z B.D.y.@   - 5.h.e.t     C s.a.C     y e.h.9.r     G.G.G.G.G.G.G.G.G.G.G.G.G.G.G.G.G.G.G.G.G.",
"G.G.G.G.G.G.G.G.G.G.G.G.G.G.G.G.G.G.G.G.G.G.G.G.    O n D D y     Z m.A.t.=   r 9.h.e.y   + C a.s.C X   y e.h.9.r     G.G.G.G.G.G.G.G.G.G.G.G.G.G.G.G.G.G.G.G.G.",
"G.G.G.G.G.G.G.G.G.G.G.G.G.G.G.G.G.G.G.G.G.G.G.G.    O v F A y     m f.z.5.*   r 9.h.e.y   X C a.a.C X   y e.h.9.r     G.G.G.G.G.G.G.G.G.G.G.G.G.G.G.G.G.G.G.G.G.",
"G.G.G.G.G.G.G.G.G.G.G.G.G.G.G.G.G.G.G.G.G.G.G.G.    O v F A y     v p.a.F *   r 9.h.e.y   X C a.s.C X   y e.h.9.r     G.G.G.G.G.G.G.G.G.G.G.G.G.G.G.G.G.G.G.G.G.",
"G.G.G.G.G.G.G.G.G.G.G.G.G.G.G.G.G.G.G.G.G.G.G.G.    O n F A y     v r.a.F *   4 9.h.e.y   X C p.a.C .   y e.h.9.r     G.G.G.G.G.G.G.G.G.G.G.G.G.G.G.G.G.G.G.G.G.",
"G.G.G.G.G.G.G.G.G.G.G.G.G.G.G.G.G.G.G.G.G.G.G.G.    O v F D y     v r.a.4.O   r 9.h.t.y   X C a.a.C X   y e.h.9.r     G.G.G.G.G.G.G.G.G.G.G.G.G.G.G.G.G.G.G.G.G.",
"G.G.G.G.G.G.G.G.G.G.G.G.G.G.G.G.G.G.G.G.G.G.G.G.    O n D A y     v r.a.F *   - 9.h.e.y     C s.p.C     y e.h.9.r     G.G.G.G.G.G.G.G.G.G.G.G.G.G.G.G.G.G.G.G.G.",
"G.G.G.G.G.G.G.G.G.G.G.G.G.G.G.G.G.G.G.G.G.G.G.G.    O v F A y     n r.h._ O   - 9.h.e.y     C a.a.C     y e.h.9.r     G.G.G.G.G.G.G.G.G.G.G.G.G.G.G.G.G.G.G.G.G.",
"G.G.G.G.G.G.G.G.G.G.G.G.G.G.G.G.G.G.G.G.G.G.G.G.    O n F D y     v r.a.9.m c C e.a.e.A c n 5.p.s.5.n c Z r.a.9.r     G.G.G.G.G.G.G.G.G.G.G.G.G.G.G.G.G.G.G.G.G.",
"G.G.G.G.G.G.G.G.G.G.G.G.G.G.G.G.G.G.G.G.G.G.G.G.    . n D D y     v r.a.p.r.r.r.p.p.p.p.r.r.p.p.p.p.r.p.r.p.a.9.r     G.G.G.G.G.G.G.G.G.G.G.G.G.G.G.G.G.G.G.G.G.",
"G.G.G.G.G.G.G.G.G.G.G.G.G.G.G.G.G.G.G.G.G.G.G.G.    O n F D y     n p.a.a.h.h.a.a.p.a.h.h.a.a.a.a.a.a.h.a.a.h.0.r     G.G.G.G.G.G.G.G.G.G.G.G.G.G.G.G.G.G.G.G.G.",
"G.G.G.G.G.G.G.G.G.G.G.G.G.G.G.G.G.G.G.G.G.G.G.G.    X u m v r     y F 3._ _ F _ _ _ F 3._ _ F _ F _ F _ 3._ 6.C =     G.G.G.G.G.G.G.G.G.G.G.G.G.G.G.G.G.G.G.G.G.",
"G.G.G.G.G.G.G.G.G.G.G.G.G.G.G.G.G.G.G.G.G.            X O O X     o * * * * * * O O * * * * * * * O * * @ * * O       G.G.G.G.G.G.G.G.G.G.G.G.G.G.G.G.G.G.G.G.G.",
"G.G.G.G.G.G.G.G.G.G.G.G.G.G.G.G.G.G.G.G.G.                                                                            G.G.G.G.G.G.G.G.G.G.G.G.G.G.G.G.G.G.G.G.G.",
"G.G.G.G.G.G.G.G.G.G.G.G.G.G.G.G.G.G.G.G.G.    + ; 1 : : : : : : : > 2 3 3 3 3 3 3 3 3 2 3 3 3 3 2 , 3 3 <             G.G.G.G.G.G.G.G.G.G.G.G.G.G.G.G.G.G.G.G.G.",
"G.G.G.G.G.G.G.G.G.G.G.G.G.G.G.G.G.G.G.G.G.    ; H Y U U U U U U U T ` ` ' ' ' ' ' ] ' ' ' ' ' ' ' ' ' ] J @     G.G.G.G.G.G.G.G.G.G.G.G.G.G.G.G.G.G.G.G.G.G.G.G.",
"G.G.G.G.G.G.G.G.G.G.G.G.G.G.G.G.G.G.G.G.G.    1 Y W W W W W W W W ( @.@.@.@.#.@.@.@.@.#.@.@.@.#.@.@.#.#.E $     G.G.G.G.G.G.G.G.G.G.G.G.G.G.G.G.G.G.G.G.G.G.G.G.",
"G.G.G.G.G.G.G.G.G.G.G.G.G.G.G.G.G.G.G.G.G.    : U W W R R R R R R / O.+. .{ { { { { { { ..{ { { { { { | K @     G.G.G.G.G.G.G.G.G.G.G.G.G.G.G.G.G.G.G.G.G.G.G.G.",
"G.G.G.G.G.G.G.G.G.G.G.G.G.G.G.G.G.G.G.G.G.    : U W R R R R R R R / O.@.[ a i p p p p p p p p p p p p p 5 +     G.G.G.G.G.G.G.G.G.G.G.G.G.G.G.G.G.G.G.G.G.G.G.G.",
"G.G.G.G.G.G.G.G.G.G.G.G.G.G.G.G.G.G.G.G.G.    : U W R R R R R R R / O.@.L .                                     G.G.G.G.G.G.G.G.G.G.G.G.G.G.G.G.G.G.G.G.G.G.G.G.",
"G.G.G.G.G.G.G.G.G.G.G.G.G.G.G.G.G.G.G.G.G.    : U W R R R R R R R / O.@.L #           X       X +               G.G.G.G.G.G.G.G.G.G.G.G.G.G.G.G.G.G.G.G.G.G.G.G.",
"G.G.G.G.G.G.G.G.G.G.G.G.G.G.G.G.G.G.G.G.G.    : U W R R R R R R R / O.@.L $   O y x x s x x x x x x x x t X     G.G.G.G.G.G.G.G.G.G.G.G.G.G.G.G.G.G.G.G.G.G.G.G.",
"G.G.G.G.G.G.G.G.G.G.G.G.G.G.G.G.G.G.G.G.G.    : U W R R R R R R R /  .@.L $   * C F D G D D D D D D D F m O     G.G.G.G.G.G.G.G.G.G.G.G.G.G.G.G.G.G.G.G.G.G.G.G.",
"G.G.G.G.G.G.G.G.G.G.G.G.G.G.G.G.G.G.G.G.G.    : U W R R R R R R R / O.+.L #   = M F D D D D D D D D D F n O     G.G.G.G.G.G.G.G.G.G.G.G.G.G.G.G.G.G.G.G.G.G.G.G.",
"G.G.G.G.G.G.G.G.G.G.G.G.G.G.G.G.G.G.G.G.G.    : U R R R R R R R R / O.@.L #   = M D D D D D D D D D D D v O     G.G.G.G.G.G.G.G.G.G.G.G.G.G.G.G.G.G.G.G.G.G.G.G.",
"G.G.G.G.G.G.G.G.G.G.G.G.G.G.G.G.G.G.G.G.G.    : U W R R R R R R R / O.@.L @   = M F D D D D D D D D D D n O     G.G.G.G.G.G.G.G.G.G.G.G.G.G.G.G.G.G.G.G.G.G.G.G.",
"G.G.G.G.G.G.G.G.G.G.G.G.G.G.G.G.G.G.G.G.G.    : U W R R R R R R R / O.@.L @   = M F G D F D D A A D D D v O     G.G.G.G.G.G.G.G.G.G.G.G.G.G.G.G.G.G.G.G.G.G.G.G.",
"G.G.G.G.G.G.G.G.G.G.G.G.G.G.G.G.G.G.G.G.G.    : U W R R R R R R R /  .@.L $   @ s n n n v v A 4.4.4.4.5.M O     G.G.G.G.G.G.G.G.G.G.G.G.G.G.G.G.G.G.G.G.G.G.G.G.",
"G.G.G.G.G.G.G.G.G.G.G.G.G.G.G.G.G.G.G.G.G.    : U W R R R R R R R / O.@.L @     O O O O o * A r.p.r.r.p.F *     G.G.G.G.G.G.G.G.G.G.G.G.G.G.G.G.G.G.G.G.G.G.G.G.",
"G.G.G.G.G.G.G.G.G.G.G.G.G.G.G.G.G.G.G.G.G.    : U R R R R R R R R / O.@.E #                 C a.p.a.h.h.4.*     G.G.G.G.G.G.G.G.G.G.G.G.G.G.G.G.G.G.G.G.G.G.G.G.",
"G.G.G.G.G.G.G.G.G.G.G.G.G.G.G.G.G.G.G.G.G.    : I ~ ! ! ! ! ! ! Q ) +.+.L $               X A p.p.e.9.0.C O     G.G.G.G.G.G.G.G.G.G.G.G.G.G.G.G.G.G.G.G.G.G.G.G.",
"G.G.G.G.G.G.G.G.G.G.G.G.G.G.G.G.G.G.G.G.G.    , ^ o.} } } } } } } } +.@.L @               X C a.p.D r r =       G.G.G.G.G.G.G.G.G.G.G.G.G.G.G.G.G.G.G.G.G.G.G.G.",
"G.G.G.G.G.G.G.G.G.G.G.G.G.G.G.G.G.G.G.G.G.    3 ] #.@.@.@.@.@.@.@.@.@.@.E @               + Z a.h.C             G.G.G.G.G.G.G.G.G.G.G.G.G.G.G.G.G.G.G.G.G.G.G.G.",
"G.G.G.G.G.G.G.G.G.G.G.G.G.G.G.G.G.G.G.G.G.    , E | ..{ { { { { { { { | K @               X M e.e.M             G.G.G.G.G.G.G.G.G.G.G.G.G.G.G.G.G.G.G.G.G.G.G.G.",
"G.G.G.G.G.G.G.G.G.G.G.G.G.G.G.G.G.G.G.G.G.    . 6 p p p p p p i p p p p 5 +     G.G.G.      r y u 4       G.G.G.G.G.G.G.G.G.G.G.G.G.G.G.G.G.G.G.G.G.G.G.G.G.G.G.",
"G.G.G.G.G.G.G.G.G.G.G.G.G.G.G.G.G.G.G.G.G.                                      G.G.G.                    G.G.G.G.G.G.G.G.G.G.G.G.G.G.G.G.G.G.G.G.G.G.G.G.G.G.G.",
"G.G.G.G.G.G.G.G.G.G.G.G.G.G.G.G.G.G.G.G.G.                                      G.G.G.                    G.G.G.G.G.G.G.G.G.G.G.G.G.G.G.G.G.G.G.G.G.G.G.G.G.G.G.",
"G.G.G.G.G.G.G.G.G.G.G.G.G.G.G.G.G.G.G.G.G.G.G.G.G.G.G.G.G.G.G.G.G.G.G.G.G.G.G.G.G.G.G.G.G.G.G.G.G.G.G.G.G.G.G.G.G.G.G.G.G.G.G.G.G.G.G.G.G.G.G.G.G.G.G.G.G.G.G.G.",
"G.G.G.G.G.G.G.G.G.G.G.G.G.G.G.G.G.G.G.G.G.G.G.G.G.G.G.G.G.G.G.G.G.G.G.G.G.G.G.G.G.G.G.G.G.G.G.G.G.G.G.G.G.G.G.G.G.G.G.G.G.G.G.G.G.G.G.G.G.G.G.G.G.G.G.G.G.G.G.G.",
"G.G.G.G.G.G.G.G.G.G.G.G.G.G.G.G.G.G.G.G.G.G.G.G.G.G.G.G.G.G.G.G.G.G.G.G.G.G.G.G.G.G.G.G.G.G.G.G.G.G.G.G.G.G.G.G.G.G.G.G.G.G.G.G.G.G.G.G.G.G.G.G.G.G.G.G.G.G.G.G.",
"G.G.G.G.G.G.G.G.G.G.G.G.G.G.G.G.G.G.G.G.G.G.G.G.G.G.G.G.G.G.G.G.G.G.G.G.G.G.G.G.G.G.G.G.G.G.G.G.G.G.G.G.G.G.G.G.G.G.G.G.G.G.G.G.G.G.G.G.G.G.G.G.G.G.G.G.G.G.G.G.",
"G.G.G.G.G.G.G.G.G.G.G.G.G.G.G.G.G.G.G.G.G.G.G.G.G.G.G.G.G.G.G.G.G.G.G.G.G.G.G.G.G.G.G.G.G.G.G.G.G.G.G.G.G.G.G.G.G.G.G.G.G.G.G.G.G.G.G.G.G.G.G.G.G.G.G.G.G.G.G.G.",
"G.G.G.G.G.G.G.G.G.G.G.G.G.G.G.G.G.G.G.G.G.G.G.G.G.G.G.G.G.G.G.G.G.G.G.G.G.G.G.G.G.G.G.G.G.G.G.G.G.G.G.G.G.G.G.G.G.G.G.G.G.G.G.G.G.G.G.G.G.G.G.G.G.G.G.G.G.G.G.G.",
"G.G.G.G.G.G.G.G.G.G.G.G.G.G.G.G.G.G.G.G.G.G.G.G.G.G.G.G.G.G.G.G.G.G.G.G.G.G.G.G.G.G.G.G.G.G.G.G.G.G.G.G.G.G.G.G.G.G.G.G.G.G.G.G.G.G.G.G.G.G.G.G.G.G.G.G.G.G.G.G.",
"G.G.G.G.G.G.G.G.G.G.G.G.G.G.G.G.G.G.G.G.G.G.G.G.G.G.G.G.G.G.G.G.G.G.G.G.G.G.G.G.G.G.G.G.G.G.G.G.G.G.G.G.G.G.G.G.G.G.G.G.G.G.G.G.G.G.G.G.G.G.G.G.G.G.G.G.G.G.G.G.",
"G.G.G.G.G.G.G.G.G.G.G.G.G.G.G.G.G.G.G.G.G.G.G.G.G.G.G.G.G.G.G.G.G.G.G.G.G.G.G.G.G.G.G.G.G.G.G.G.G.G.G.G.G.G.G.G.G.G.G.G.G.G.G.G.G.G.G.G.G.G.G.G.G.G.G.G.G.G.G.G.",
"G.G.G.G.G.G.G.G.G.G.G.G.G.G.G.G.G.G.G.G.G.G.G.G.G.G.G.G.G.G.G.G.G.G.G.G.G.G.G.G.G.G.G.G.G.G.G.G.G.G.G.G.G.G.G.G.G.G.G.G.G.G.G.G.G.G.G.G.G.G.G.G.G.G.G.G.G.G.G.G."
};
