/* XPM */
static char *xpm_[] = {
/* columns rows colors chars-per-pixel */
"80 80 178 2 ",
"   c #010101",
".  c #0B0B0B",
"X  c #04080B",
"o  c #060C10",
"O  c #09131C",
"+  c #141313",
"@  c #1C1C1C",
"#  c #0D1B26",
"$  c #0C1721",
"%  c #152B3D",
"&  c #232323",
"*  c #2B2B2A",
"=  c #353535",
"-  c #3C3C3C",
";  c #262D34",
":  c #46413E",
">  c #172E41",
",  c #1B354C",
"<  c #1E3D55",
"1  c #20415C",
"2  c #314250",
"3  c #224461",
"4  c #284F70",
"5  c #295375",
"6  c #2B5579",
"7  c #464646",
"8  c #474748",
"9  c #46494B",
"0  c #4B4A4B",
"q  c #494845",
"w  c #464D53",
"e  c #504F50",
"r  c #545354",
"t  c #5C5B5C",
"y  c #46525B",
"u  c #615E5D",
"i  c #475561",
"p  c #475A6B",
"a  c #4A5763",
"s  c #485E72",
"d  c #605F60",
"f  c #5F6163",
"g  c #486278",
"h  c #5C6976",
"j  c #656465",
"k  c #6C6867",
"l  c #686768",
"z  c #6B6A6B",
"x  c #6B6766",
"c  c #696C70",
"v  c #716F71",
"b  c #65727E",
"n  c #747274",
"m  c #797579",
"M  c #7D797D",
"N  c #2E5D84",
"B  c #31638D",
"V  c #356A97",
"C  c #3D7AAE",
"Z  c #3A74A5",
"A  c #3E7DB1",
"S  c #486A86",
"D  c #456580",
"F  c #497296",
"G  c #49759A",
"H  c #61778B",
"J  c #657381",
"K  c #7C7A80",
"L  c #497AA3",
"P  c #497EA9",
"I  c #547EA2",
"U  c #837D83",
"Y  c #6E8298",
"T  c #4A80AE",
"R  c #5983A6",
"E  c #5883A8",
"W  c #4081B6",
"Q  c #4A86B8",
"!  c #4D8ABD",
"~  c #4883B5",
"^  c #5687B0",
"/  c #618AAF",
"(  c #7E8EA8",
")  c #7F90A9",
"_  c #6B92BA",
"`  c #678FB8",
"'  c #458AC3",
"]  c #4A8CC4",
"[  c #478EC9",
"{  c #4B8FC8",
"}  c #518EC1",
"|  c #4B92CE",
" . c #5295CF",
".. c #408FD4",
"X. c #4693D4",
"o. c #4B96D5",
"O. c #4E99D6",
"+. c #4C99DA",
"@. c #4997D8",
"#. c #549CD6",
"$. c #589FD7",
"%. c #5BA1D7",
"&. c #5FA3D8",
"*. c #64A6D9",
"=. c #65A8D9",
"-. c #6BABD9",
";. c #6BA7D4",
":. c #70AEDA",
">. c #76B2DB",
",. c #7AB5DB",
"<. c #878187",
"1. c #8C858C",
"2. c #8F888F",
"3. c #968D96",
"4. c #988D95",
"5. c #958E98",
"6. c #988E98",
"7. c #928791",
"8. c #999199",
"9. c #9D989F",
"0. c #8090AA",
"q. c #A29EA4",
"w. c #90A2B5",
"e. c #A3A0A5",
"r. c #AAABAE",
"t. c #A6A5A9",
"y. c #ABADB0",
"u. c #B0B5B6",
"i. c #80A4C2",
"p. c #84BBDD",
"a. c #89BFDD",
"s. c #8DC2DE",
"d. c #92C5DE",
"f. c #96C8DF",
"g. c #9ACADF",
"h. c #BCC6C3",
"j. c #BDC9C6",
"k. c #BFCCC8",
"l. c #9CCBE0",
"z. c #A2CFE1",
"x. c #A6D1E1",
"c. c #ACD5E2",
"v. c #AFD8E2",
"b. c #B1D9E3",
"n. c #B5DCE3",
"m. c #B9DEE3",
"M. c #BFE2E4",
"N. c #C2CFCB",
"B. c #C2D0CC",
"V. c #C8D9D2",
"C. c #CDE1D9",
"Z. c #C6E2DF",
"A. c #D3E9DF",
"S. c #C2E4E5",
"D. c #C1E4E4",
"F. c #CDEBE6",
"G. c #CEECE6",
"H. c #CDEBE6",
"J. c #D2EEE7",
"K. c #D4EDE3",
"L. c #D5F1E7",
"P. c #D5F1E7",
"I. c #D9F3E7",
"U. c #D7F2E8",
"Y. c #D9F3E8",
"T. c #DAF4E8",
"R. c #DBF5E8",
"E. c #DBF4E8",
"W. c #D9F4E8",
"Q. c #DCF5E8",
"!. c #DEF7E9",
"~. c #DFF7E9",
"^. c #DEF6E8",
"/. c #DDF6E8",
"(. c #DAF4E8",
"). c #DDF8EB",
"_. c #E1F9E9",
"`. c #E1F8E9",
/* pixels */
"T.T.T.T.T.T.T.T.T.T.T.T.T.T.T.T.T.T.T.T.T.T.T.T.T.T.T.T.T.T.T.T.T.T.T.T.T.T.T.T.T.T.T.T.T.T.T.T.T.T.T.T.T.T.T.T.T.T.T.T.T.T.T.T.T.T.T.T.T.T.T.T.T.T.T.T.T.T.T.T.",
"T.T.T.T.T.T.T.T.T.T.T.T.T.T.T.T.T.T.T.T.T.T.T.T.T.T.T.T.T.T.T.T.T.T.T.T.T.T.T.T.T.T.T.T.T.T.T.T.T.T.T.T.T.T.T.T.T.T.T.T.T.T.T.T.T.T.T.T.T.T.T.T.T.T.T.T.T.T.T.T.",
"T.T.T.T.T.T.T.T.T.T.T.T.T.T.T.T.T.T.T.T.T.T.T.T.T.T.T.T.T.T.T.T.T.T.T.T.T.T.T.T.T.T.T.T.T.T.T.T.T.T.T.T.T.T.T.T.T.T.T.T.T.T.T.T.T.T.T.T.T.T.T.T.T.T.T.T.T.T.T.T.",
"T.T.T.T.T.T.T.T.T.T.T.T.T.T.T.T.T.T.T.T.T.T.T.T.T.T.T.T.T.T.T.T.T.T.T.T.T.T.T.T.T.T.T.T.T.T.T.T.T.T.T.T.T.T.T.T.T.T.T.T.T.T.T.T.T.T.T.T.T.T.T.T.T.T.T.T.T.T.T.T.",
"T.T.T.T.T.T.T.T.T.T.T.T.T.T.T.T.T.T.T.T.T.T.T.T.T.T.T.T.T.T.T.T.T.T.T.T.T.T.T.T.T.T.T.T.T.T.Q.Y.T.T.T.T.T.T.T.T.T.T.T.T.T.T.T.T.T.T.T.T.T.T.T.T.T.T.T.T.T.T.T.T.",
"T.T.T.T.T.T.T.T.T.T.T.T.T.T.T.T.T.T.T.T.T.T.T.T.T.T.T.T.T.T.T.T.T.T.T.T.T.T.T.T.T.T.T.T.T.T.Y.E.T.T.T.T.T.T.T.T.T.T.T.T.T.T.T.T.T.T.T.T.T.T.T.T.T.T.T.T.T.T.T.T.",
"T.T.T.T.T.T.T.T.T.T.T.T.T.T.T.T.T.T.T.T.T.T.T.T.T.T.T.T.T.T.T.T.T.T.T.T.T.T.T.T.T.T.T.T.T.T.E.Y.T.T.T.T.T.T.T.T.T.T.T.T.T.T.T.T.T.T.T.T.T.T.T.T.T.T.T.T.T.T.T.T.",
"T.T.T.T.T.T.T.T.T.T.T.T.T.T.T.T.T.T.T.T.T.T.T.T.T.T.T.T.T.T.T.T.T.T.T.Q.T.Q.T.T.T.Q.Q.T.T.T.Y.E.T.T.T.T.T.T.T.T.T.T.T.T.T.T.T.T.T.T.T.T.T.T.T.T.T.T.T.T.T.T.T.T.",
"T.T.T.T.T.T.T.T.T.T.T.T.T.T.T.T.T.T.T.T.T.T.T.T.T.T.T.I.W.W.W.W.T.T.T.T.Q.Q.Q.Q.Q.T.T.T.E.E.E.Y.T.T.T.T.T.T.T.T.T.T.T.T.T.T.T.T.T.T.T.T.T.T.T.T.T.T.T.T.T.T.T.T.",
"T.T.T.T.T.T.T.T.T.T.T.T.T.T.T.T.T.T.T.T.T.T.T.T.T.T.T./._.!.!.!.!._.T.b.l.l.l.l.l.l.z.H.`.`.Q.`.Q._.Q.Q.T.T.T.T.T.T.T.T.T.T.T.T.T.T.T.T.T.T.T.T.T.T.T.T.T.T.T.T.",
"T.T.T.T.T.T.T.T.T.T.T.T.T.T.T.T.T.T.T.T.T.T.T.T.T.Q.I.J.F.F.G.G.G.J.S.>.o.o.O.O.#.o.$.x.J.G.G.G.G.G.F.P.T.T.T.T.T.T.T.T.T.T.T.T.T.T.T.T.T.T.T.T.T.T.T.T.T.T.T.T.",
"T.T.T.T.T.T.T.T.T.T.T.T.T.T.T.T.T.T.T.T.T.T.Q._.Q._.J.f.>.>.>.>.>.>.:.$.X.o.X.o.X.X.o.-.>.>.>.>.>.>.p.D._.Q._.Q.Q.T.T.T.T.T.T.T.T.T.T.T.T.T.T.T.T.T.T.T.T.T.T.T.",
"T.T.T.T.T.T.T.T.T.T.T.T.T.T.T.T.T.T.T.Q.Q.Q.S.v.b.b.x.*.X.X.X.X.X.X.X.o.o.o.o.o.o.o.O.X.X.X.X.X.X.X.O.s.b.b.v.m.P.).Q.T.T.T.T.T.T.T.T.T.T.T.T.T.T.T.T.T.T.T.T.T.",
"T.T.T.T.T.T.T.T.T.T.T.T.T.T.T.T.T.T.T.Y.T.J.s.$.$.$.$.#.o.o.o.o.o.o.o.o.o.o.o.o.o.o.X.O.X.O.o.o.o.o.O.O.$.$.#.-.D.Q.P.Y.T.T.T.T.T.T.T.T.T.T.T.T.T.T.T.T.T.T.T.T.",
"T.T.T.T.T.T.T.T.T.T.T.T.T.T.T.T.T.Q.P.l.a.a.*.X.X.X.X.X.o.o.o.o.o.o.o.o.o.o.o.o.o.o.o.X.o.o.o.o.o.o.o.o.X.X.X.O.,.s.d.M.Q.T.T.T.T.T.T.T.T.T.T.T.T.T.T.T.T.T.T.T.",
"T.T.T.T.T.T.T.T.T.T.T.T.T.T.T.T.Q.Q.G.>.X.o.o.o.o.o.o.o.o.o.o.o.o.o.O.+.o.o.O.O.O.@.O.O.O.o.o.o.o.o.o.o.o.o.o.o.o.X.$.v._.T.T.T.T.T.T.T.T.T.T.T.T.T.T.T.T.T.T.T.",
"T.T.T.T.T.T.T.T.T.T.T.T.T.T.T.T.T._.G.>.X.o.o.o.o.o.o.o.o.O.O.o.o.O.o.+.+.o.O.o.+.O.o.+.o.o.o.o.o.o.o.o.o.o.o.o.o.X.#.v.`./.I.Y.T.T.T.T.T.T.T.T.T.T.T.T.T.T.T.T.",
"T.T.T.T.T.T.T.T.T.T.T.T.T.T.T.T.T.S.f.*.X.o.o.o.o.o.o.o.o.+.+.+.+.A 6 5 6 6 6 6 6 6 6 6 V o.+.+.+.+.o.o.o.o.o.o.o.o.#.p.v.J.Q.Q.T.T.T.T.T.T.T.T.T.T.T.T.T.T.T.T.",
"T.T.T.T.T.T.T.T.T.T.T.T.T.T.T.Q.Q.l.$.o.o.o.o.o.o.o.o.+.| [ ' ' [ 4 X     X   X         > A [ ' ' [ o.o.o.o.o.o.o.o.o.o.,.F.Q.Q.T.T.T.T.T.T.T.T.T.T.T.T.T.T.T.T.",
"T.T.T.T.T.T.T.T.T.T.T.T.T.T.T.Q.!.l.o.X.o.o.o.o.o.X.+.+.C , % % > $                     X % > % % N O.+.o.o.o.o.o.o.o.X.>.J._.T.T.T.T.T.T.T.T.T.T.T.T.T.T.T.T.T.",
"T.T.T.T.T.T.T.T.T.T.T.T.T.T.T.P.n.p.O.o.o.o.o.o.+.+.o.C 3                                         % V [ +.+.o.o.o.o.o.o.=.x.H.T.T.T.T.T.T.T.T.T.T.T.T.T.T.T.T.T.",
"T.T.T.T.T.T.T.T.T.T.T.T.T.T.!.S.:.O.o.o.o.o.o.o.o.o.Q , X                                           # V o.| o.o.o.o.o.o.o.%.z.T.Q.T.T.T.T.T.T.T.T.T.T.T.T.T.T.T.",
"T.T.T.T.T.T.T.T.T.T.T.T.T.T._.S.*.X.o.o.o.o.+.[ 5 < < O                                               % 1 3 Z +.+.o.o.o.X.o.l._.Q.Q.T.T.T.T.T.T.T.T.T.T.T.T.T.T.",
"T.T.T.T.T.T.T.T.T.T.T.T.T.T.G.c.&.X.o.o.O.o.' B O                           X + . X                         3 W | o.o.o.X.#.s.S.P.T.T.T.T.T.T.T.T.T.T.T.T.T.T.T.",
"T.T.T.T.T.T.T.T.T.T.T.T.Q.Y.g.&.O.o.o.o.+.| 5 O                             @ - - @                         X , W +.o.o.o.O.$.,.S.`.T.T.T.T.T.T.T.T.T.T.T.T.T.T.",
"T.T.T.T.T.T.T.T.T.T.T.T.!.L.p.X.o.o.o.o.+.| <                     . @ . . @ & * * & @ . . @ +                 $ C +.o.o.o.o...*.M.`.T.T.T.T.T.T.T.T.T.T.T.T.T.T.",
"T.T.T.T.T.T.T.T.T.T.T.T.Q.L.a.o.o.o.o.o.+.| 1             X     X & = + + - & . . & - + + = &       .         # C +.+.o.o.o.X.=.D.`.T.T.T.T.T.T.T.T.T.T.T.T.T.T.",
"T.T.T.T.T.T.T.T.T.T.T.T.Q.Y.s.X.X.o.o.o.+.| 1           + * + . * & +   + 7 - * * - : +   + * * . + * .       # C +.o.o.o.o.X.=.S._.T.Y.T.T.T.T.T.T.T.T.T.T.T.T.",
"T.T.T.T.T.T.T.T.T.T.T.T.J.v.>.o.o.o.o.o.#.| 1           + 7 & X * & + + & - 0 8 0 0 7 & .   @ * . @ 7 +       # P +.o.o.o.o.X.*.l.S.Y.Q.T.T.T.T.T.T.T.T.T.T.T.T.",
"T.T.T.T.T.T.T.T.T.T.T.Q.b.*.o.o.o.o.o.o.o.| 1           + - &   X @ - 7 7 7 7 7 7 7 7 2 * .   .   & - +       # A O.o.o.o.o.o.o.#.d.Y.Q.T.T.T.T.T.T.T.T.T.T.T.T.",
"T.T.T.T.T.T.T.T.T.T.Q._.b.$.X.o.o.o.o.o.+.| 1         @ = 7 = & & = 7 0 0 7 7 7 7 7 7 0 - * & & & & @ * @     # A +.o.o.o.o.o.X.X.a.Q.Q.T.T.T.T.T.T.T.T.T.T.T.T.",
"T.T.T.T.T.T.T.T.T.T.Y.H.l.$.X.o.o.o.o.o.+.| 1       + = 8 7 7 7 8 8 7 7 7 7 7 7 7 7 7 7 7 0 0 7 0 * + = = +   # A +.o.o.o.o.o.o.o.,.D.L.Q.T.T.T.T.T.T.T.T.T.T.T.",
"T.T.T.T.T.T.T.T.W./.G.p.%.O.o.o.o.o.o.o.o.X.1     + - 7 q 7 7 9 8 q 7 8 7 7 8 7 7 7 7 7 7 8 8 q 8 2 - : 7 = + # A +.o.o.o.o.o.o.o.#.:.n./.E.T.T.T.T.T.T.T.T.T.T.",
"T.T.T.T.T.T.T.T.W.!.G.>.X.o.o.o.o.o.o.+.| G 2 @ @ = 7 9 7 7 7 7 7 7 7 7 7 7 7 7 8 7 q 7 7 7 7 8 7 8 q q 8 8 * ; D ! o.o.o.o.o.o.o...#.v.`.I.T.T.T.T.T.T.T.T.T.T.",
"T.T.T.T.T.T.T.T.W._.F.>.X.o.o.o.o.o.o.| G w 7 7 7 7 7 7 7 7 7 7 7 7 7 7 7 8 8 7 7 7 7 7 8 7 8 7 7 7 7 7 7 7 7 7 q D { o.o.o.o.o.o.X.$.v.Q.T.T.T.T.T.T.T.T.T.T.T.",
"T.T.T.T.T.T.T.T.T.Q.H.>.X.o.o.o.o.O.| F i 8 q 8 8 q 7 7 8 7 q 7 7 7 7 7 7 7 7 7 7 7 7 7 7 7 7 7 7 7 7 7 7 7 7 q 7 w g Q +.o.o.o.o.X.$.v.`.Y.T.T.T.T.T.T.T.T.T.T.",
"T.T.T.T.T.T.T.T.T._.J.>.X.o.o.o.o.+.{ p : 7 7 7 7 7 7 7 7 7 7 7 7 7 7 7 7 7 7 7 q 7 7 7 7 7 7 7 7 7 7 7 7 7 7 7 q : 9 L +.o.o.o.o.X.$.v._.Y.E.Y.T.T.T.T.T.T.T.T.",
"T.T.T.T.T.T.T.T.T.Q.H.>.X.o.o.o.o.+.{ g : 7 7 7 7 7 7 7 7 7 7 7 7 7 7 q 8 8 7 7 8 q 8 8 0 7 7 7 7 7 8 7 7 8 8 7 7 7 w T +.o.o.o.o.X.$.v.Q.Q.Y.E.T.T.T.T.T.T.T.T.",
"T.T.T.T.T.T.T.Q.T.m.p.&.o.o.o.o.o.+.| p 7 q 7 7 7 7 7 8 7 7 q q 7 7 q r t t 0 7 7 0 t t r 7 7 7 7 7 q 7 7 7 8 7 7 7 w T +.o.o.o.o.o.#.:.z.J.Q.Y.T.T.T.T.T.T.T.T.",
"T.T.T.T.T.T.T.T.Q.g.O.X.o.O.o.o.o.| T p 7 7 7 7 8 7 7 7 7 7 7 9 0 0 e j z z t 0 0 t l z d r 0 0 q 7 7 7 7 q 7 7 q : w F { o.o.o.o.o.o.X.>.J.`.Y.T.T.T.T.T.T.T.T.",
"T.T.T.T.T.T.T.T.Q.l.O.X.o.o.o.o.o.L i 9 7 q 7 8 7 7 7 7 7 7 q 0 f j j l z z l j j l z z z j j t 0 q 7 8 7 7 q 7 7 7 7 w D | o.o.o.o.o.X.>.J.`.Y.T.T.T.T.T.T.T.T.",
"T.T.T.T.T.T.T.Q.Q.l.#.X.o.o.o.o.+.F q : 7 7 7 7 7 7 7 7 0 r 0 9 r j z z z z z z z z z z z z j t 9 0 r 9 7 7 7 7 7 7 7 : s { +.o.o.o.o.X.>.F.`.Y.T.T.T.T.T.T.T.T.",
"T.T.T.T.T.T.T.T.Q.l.O.X.o.o.o.o.o.F 8 7 7 7 7 7 7 7 7 7 r j t 9 0 t z z z z z z z z z z z l t 0 0 t j r 7 7 8 7 7 7 7 7 g { o.o.o.o.o.X.>.F.E.Y.T.T.T.T.T.T.T.T.",
"T.T.T.T.T.T.T.Q.Q.l.O.o.O.o.o.o.o.G 9 7 7 7 7 8 7 7 7 7 e l j d t j z z z z z z z z z z l l j j d j l e 7 7 7 7 7 7 8 7 p { +.o.o.o.O.X.>.J.`.I.T.T.T.T.T.T.T.T.",
"T.T.T.T.T.T.T.T.Q.l.#.X.o.o.o.o.@.G 8 7 8 7 7 8 e e e e t x v z z z z z z z z z z z z z z z z z z z l t r e 0 q 7 7 q : g { o.o.o.o.o.X.>.G.!.T.T.T.T.T.T.T.T.T.",
"T.T.T.T.T.T.T.!.Q.l.O.X.o.o.o.o.@.F 8 7 7 7 7 0 j z j z x z z z z z z z z z z z z z z z z z z z l z z l l l r 8 7 7 q 7 p { +.o.o.o.o.X.>.G.!.T.T.T.T.T.T.T.T.T.",
"T.T.T.T.T.T.T.T./.g.O.o.O.o.o.+.+.G 8 7 7 7 7 e j z z z k z z z z z z z z z z l z z z z l z z z z z z z c z r 7 7 q 7 : g | +.o.o.o.o.X.>.G._.T.T.T.T.T.T.T.T.T.",
"T.T.T.T.T.T.T.T.!.g.O.X.o.o.o.| ' S 8 7 7 7 7 0 j z z z z z z z z z z z z z z z z z z z z z z z z z z z z z r 7 7 7 7 7 a ~ | o.o.o.o.X.>.G.Q.T.T.T.T.T.T.T.T.T.",
"T.T.T.T./.I.T.T.Q.l.O.X.o.o.+.] g 9 q 7 7 7 7 0 j z z z z z z z z z z z z z z z z z z z z z z z z z z z z z r q 7 q 7 7 8 y L o.@.o.o.X.>.F.Q.T.T.T.T.T.T.T.T.T.",
"T.T.T.T.W.W.T.Q.Q.l.O.o.o.o.+.~ y : q 7 8 r r t j z z z z z z z z z z z z z z z z z z z z z z z z z z z z z d r r e 7 7 7 7 F o.O.o.o.X.>.F.`.Y.T.T.T.T.T.T.T.T.",
"T.T.T.T./.W.W.W.Q.l.#.X.o.o.+.Q a q 0 0 r j z z z z z z z z k v z z z z z z z z z z z z z z z z z z z z z z l z z t 8 0 q 9 G o.O.o.o.X.>.F.Q.E.T.T.T.T.T.T.T.T.",
"T.T.T.T.W.W././.Q.l.o.o.o.o.O.] h u u d j z z z z z z z z z z k z l z z z l z z z l z z z l z l z z z z z z z z z l f f t f R o.o.o.o.X.>.J.Q.E.T.T.T.T.T.T.T.T.",
"T.T.T.T.T.T./.W.Y.l.O.o.o.o.+.} b z z z z z z z z z z z z z k k n m n v n n n l z n n z v n m n z z z z z z z z z z z z z c E O.O.o.o.X.>.F.!.T.T.T.T.T.T.T.T.T.",
"T.T.T.T.T.T.W.W.Q.g.#.X.o.o.@.} b k z z z z z z z z z z z z k n 1.5.2.n n 1.M l z M 2.n n 1.4.1.n l z z z z z z z z z z z z E o.o.o.o.X.>.G.!.T.T.T.T.T.T.T.T.T.",
"T.T.T.T.T.T.T.W.Q.l.o.o.o.o.@.} b k z z z z z z z z l l l l m <.3.2.m z z m K U <.K M v z M 2.5.1.m l l l z l z z z z z z z E o.o.o.o.X.>.F.Q.T.T.T.T.T.T.T.T.T.",
"T.T.T.T.T.T.T.!.Q.l.#.X.o.o.+.} b l z z z z z z z v n n n n Y 2.3.<.n n n n 1.4.4.<.n n n n K 1.2.K n n n n v z z z z z z z E o.o.o.o.o.>.G._.T.T.T.T.T.T.T.T.T.",
"T.T.T.T.T.T.T.Q.Q.l.#.X.o.o.@.} b k z z z z z z z m 1.2.2.2.M m 2.3.1.1.1.2.7.6.5.7.2.2.2.1.M n n M 1.2.2.2.m z z z z z z z E o.o.o.o.X.>.G.Q.Q.T.T.T.T.T.T.T.T.",
"T.T.T.T.T.T.Q.G.x.,.o.o.o.o.+.} b k z z z z z z l n <.2.8.5.<.K 2.4.4.4.6.6.6.6.4.4.4.5.5.4.1.m m <.4.1.U <.n z z z z z z z E o.o.o.o.o.&.l.S.T.T.T.T.T.T.T.T.T.",
"T.T.T.T.T.T.`.D.-.X.o.o.o.o.@.} b k z z z z z z v z n 1.4.4.5.7.4.5.5.5.5.6.5.4.3.3.3.5.4.5.5.7.4.6.7.m z n v z z z z z z z E O.o.O.o.o.X.#.l.Q.Q.T.T.T.T.T.T.T.",
"T.T.T.T.T.T.Q.M.*.X.o.o.o.o.@.} b k z z z z l v U 1.1.2.5.4.4.4.5.4.3.3.5.4.7.5.3.5.3.4.5.4.4.5.4.6.5.1.<.<.n l l z z z z z E o.o.o.o.o.X.O.l.T.T.T.T.T.T.T.T.T.",
"T.T.T.T.T.T.`.D.*.o.o.o.o.o.+.! b k z z v n m K 7.5.5.4.5.3.3.5.3.5.3.5.5.4.5.3.3.3.3.3.4.3.3.3.5.5.3.4.4.5.<.n m n z z l z E O.o.o.o.o.o.O.l.Q.Q.T.T.T.T.T.T.T.",
"T.T.T.T.T.T.Q.S.*.X.o.o.o.o.+.} b z z l m 1.3.7.5.4.5.4.4.3.3.4.3.4.3.4.3.3.3.3.5.5.3.3.5.3.3.5.5.5.3.5.3.5.7.3.2.U z l z z E o.o.o.o.o.X.O.l.Q.T.T.T.T.T.T.T.T.",
"T.T.T.T.T.T.Q.D.*.X.o.o.o.o.O.| ^ H z l m 3.4.4.5.3.5.5.3.3.5.3.3.4.3.3.3.5.4.5.4.4.3.3.3.3.4.5.3.3.3.3.4.5.4.6.8.U z k b R } +.o.o.o.o.o.O.l.Q.Q.T.T.T.T.T.T.T.",
"T.T.T.T.T.T._.D.*.X.o.o.o.o.o.O.+.E c l n 2.4.3.3.3.5.4.3.3.3.3.3.5.3.3.3.3.3.3.3.3.3.3.5.3.4.3.3.3.3.5.5.5.4.4.4.U z x H | +.o.o.o.o.O.X.O.l.!.T.T.T.T.T.T.T.T.",
"T.T.T.T.T.T.`.D.=.X.o.o.o.o.o.o.O.E z l m 2.6.5.5.4.3.3.3.4.5.3.5.7.4.5.4.5.3.3.3.3.3.3.4.5.7.5.5.5.5.3.3.3.3.4.5.U l k H | o.o.o.o.o.o.o.O.l.Q.Q.T.T.T.T.T.T.T.",
"T.T.T.T.T.T.Q.M.*.X.o.o.o.o.o.o.o./ K M U 5.4.5.3.5.3.5.3.3.3.3.5.6.6.5.7.5.3.3.4.5.5.4.5.5.4.4.5.4.3.5.3.3.3.5.4.<.M M Y  .+.o.o.o.o.o.X.O.l.Q.T.T.T.T.T.T.T.T.",
"T.T.T.T.T.T._.D.=.X.o.o.o.o.o.o.X._ 5.3.7.4.3.5.5.4.5.5.3.5.4.5.4.4.4.4.4.5.4.3.5.5.3.3.6.5.4.4.3.4.5.4.5.3.3.3.4.5.4.7.0. .o.o.o.o.o.o.X.O.l.Q.Q.T.T.T.T.T.T.T.",
"T.T.T.T.T.T.Q.D.*.X.o.o.o.o.o.o.o._ 6.4.4.5.4.5.7.4.5.4.3.4.3.7.7.3.7.3.4.5.5.5.5.4.4.7.4.7.7.4.7.4.5.5.3.3.5.4.5.5.6.4.0. .o.o.o.o.o.o.X.#.l.Q.T.T.T.T.T.T.T.T.",
"T.T.T.T.T.T.`.D.*.X.o.o.o.o.o.@.o._ 4.4.4.4.6.5.3.3.3.3.7.4.q.r.r.r.r.9.3.7.3.3.3.2.4.t.r.r.y.t.5.7.4.4.3.3.3.3.4.4.6.4.)  .@.o.o.o.o.o.o.O.l.Q.Q.T.T.T.T.T.T.T.",
"T.T.T.T.T.T.Q.D.*.X.o.o.o.o.o.o.o._ 4.4.4.4.4.6.3.3.8.5.5.8.h.K.K.J.C.r.4.6.6.6.5.4.9.B.K.K.K.V.t.4.5.8.4.5.4.3.4.4.4.4.)  .X.o.o.o.o.o.X.O.l.Q.T.T.T.T.T.T.T.T.",
"T.T.T.T.T.T._.M.*...X.X.X.X.X.X.X._ 7.7.7.7.7.7.2.t.h.j.h.j.C.).!.).I.V.h.j.j.j.j.h.k.A.).).).L.B.h.j.j.u.5.2.7.4.7.7.7.( o.X.X.X.X.X.X.X.o.l.Q.Q.T.T.T.T.T.T.T.",
"T.T.T.T.T.T.!.S.,.*.=.*.=.=.*.=.=.;.e.e.e.e.t.q.e.h.L.).).W.W.W.T.Y.I.T.T.Y.Y.).W.Q.T.T.T.T.T.T.T.T.!.).V.t.q.e.e.e.e.q.w.;.=.*.=.=.*.*.*.=.c.T.Q.T.T.T.T.T.T.T.",
"T.T.T.T.T.T.T.P.S.M.S.M.S.S.M.M.D.S.C.C.C.C.C.C.C.A./.W.Q.Q.T.T.T.T.T.T.Q.T.).T.T.Q.Q.T.T.T.T.T.).T.T.).L.C.C.C.C.C.C.C.Z.D.M.D.M.D.D.D.D.D.F.T.T.T.T.T.T.T.T.T.",
"T.T.T.T.T.T.T.Q._.!.!.!.Q._.Q._.Q.!.).).).).).!.!./.W.W.W.W.T.T.T.T.T.T.T.T.T.T.T.T.T.T.T.T.T.T.T.T.T.T.T.).!.).).).).).!.Q.!._.!.!._./.Q.`.Q.T.T.T.T.T.T.T.T.T.",
"T.T.T.T.T.T.T.T.T.T.T.T.T.T.T.T./.I.T.T.Y.T.T.T.W.W.W.W.T.T.T.T.T.T.T.T.T.T.T.T.T.T.T.T.T.T.T.T.T.T.T.T.T.T.T.T.T.T.T.T.T.T.T.T.I./.W.W.T.T.T.T.T.T.T.T.T.T.T.T.",
"T.T.T.T.T.T.T.T.T.T.T.T.T.T.T.T.Q.Y.T.T.T.T.T.T.W.W.W./.T.T.T.T.T.T.T.T.T.T.T.T.T.T.T.T.T.T.T.T.T.T.T.T.T.T.T.T.T.T.T.T.T.T.T.T.I.W.W.W.T.T.T.T.T.T.T.T.T.T.T.T.",
"T.T.T.T.T.T.T.T.T.T.T.T.T.T.T.T.Y.T.T.T.T.T.T.T.T.T.T.T.T.T.T.T.T.T.T.T.T.T.T.T.T.T.T.T.T.T.T.T.T.T.T.T.T.T.T.T.T.T.T.T.T.T.T.T.Q.Y.T.T.T.T.T.T.T.T.T.T.T.T.T.T.",
"T.T.T.T.T.T.T.T.T.T.T.T.T.T.T.T.T.T.T.T.T.T.T.T.T.T.T.T.T.T.T.T.T.T.T.T.T.T.T.T.T.T.T.T.T.T.T.T.T.T.T.T.T.T.T.T.T.T.T.T.T.T.T.T.T.T.T.T.T.T.T.T.T.T.T.T.T.T.T.T.",
"T.T.T.T.T.T.T.T.T.T.T.T.T.T.T.T.T.T.T.T.T.T.T.T.T.T.T.T.T.T.T.T.T.T.T.T.T.T.T.T.T.T.T.T.T.T.T.T.T.T.T.T.T.T.T.T.T.T.T.T.T.T.T.T.T.T.T.T.T.T.T.T.T.T.T.T.T.T.T.T.",
"T.T.T.T.T.T.T.T.T.T.T.T.T.T.T.T.T.T.T.T.T.T.T.T.T.T.T.T.T.T.T.T.T.T.T.T.T.T.T.T.T.T.T.T.T.T.T.T.T.T.T.T.T.T.T.T.T.T.T.T.T.T.T.T.T.T.T.T.T.T.T.T.T.T.T.T.T.T.T.T."
};
