/* XPM */
static char *xpm_[] = {
/* columns rows colors chars-per-pixel */
"80 80 204 2 ",
"   c #20242E",
".  c #21252E",
"X  c #21262F",
"o  c #24272E",
"O  c #24282E",
"+  c #25282E",
"@  c #24282F",
"#  c #24292F",
"$  c #212730",
"%  c #222730",
"&  c #232931",
"*  c #242930",
"=  c #242A31",
"-  c #242B33",
";  c #214358",
":  c #3F5857",
">  c #1E4B66",
",  c #1F4C66",
"<  c #1D5879",
"1  c #1D597B",
"2  c #1D5B7D",
"3  c #275266",
"4  c #426565",
"5  c #496A64",
"6  c #496A65",
"7  c #4A6B65",
"8  c #4B6B65",
"9  c #578277",
"0  c #598479",
"q  c #59847A",
"w  c #5A877B",
"e  c #1880A1",
"r  c #78B9A3",
"t  c #168CC9",
"y  c #118BCD",
"u  c #158ECD",
"i  c #1590CF",
"p  c #0F94DC",
"a  c #1494D8",
"s  c #1495DD",
"d  c #1497DC",
"f  c #1496DD",
"g  c #1497DD",
"h  c #1494DE",
"j  c #149ADB",
"k  c #149BDB",
"l  c #149FD9",
"z  c #149CDA",
"x  c #149DDA",
"c  c #1498DC",
"v  c #1499DC",
"b  c #2D9FCC",
"n  c #13AFCF",
"m  c #12B6CF",
"M  c #12B9CE",
"N  c #12BACE",
"B  c #12BCCD",
"V  c #11BECC",
"C  c #0FAFD1",
"Z  c #13A3D7",
"A  c #13A4D7",
"S  c #13A6D6",
"D  c #13A7D6",
"F  c #12AFD2",
"G  c #13AED3",
"H  c #13A9D5",
"J  c #13AAD4",
"K  c #13A1D8",
"L  c #13A0D9",
"P  c #13A2D8",
"I  c #12B1D1",
"U  c #12B2D1",
"Y  c #12B0D2",
"T  c #12B3D3",
"R  c #12B5D0",
"E  c #2EAADB",
"W  c #2EAADC",
"Q  c #21BCD1",
"!  c #0E98E1",
"~  c #149AE0",
"^  c #149BE1",
"/  c #139EE5",
"(  c #2EAFE1",
")  c #11C9C7",
"_  c #11CBC6",
"`  c #10CDC5",
"'  c #10CEC5",
"]  c #10CFC5",
"[  c #10CCC6",
"{  c #11C0CB",
"}  c #11C1CB",
"|  c #11C2CA",
" . c #11C4C9",
".. c #11C5C9",
"X. c #11C7C8",
"o. c #11C8C8",
"O. c #08D1C2",
"+. c #0BD1C2",
"@. c #0BD2C2",
"#. c #0CD2C2",
"$. c #0DD2C3",
"%. c #0ED2C3",
"&. c #0ED3C3",
"*. c #0FD3C3",
"=. c #0FD4C2",
"-. c #10D2C3",
";. c #10D3C3",
":. c #11D3C3",
">. c #12D3C3",
",. c #10D4C2",
"<. c #10D5C2",
"1. c #10D4C3",
"2. c #12D4C3",
"3. c #13D4C3",
"4. c #10D6C2",
"5. c #10D0C4",
"6. c #10D1C4",
"7. c #10D2C4",
"8. c #11D2C4",
"9. c #13D4C4",
"0. c #14D4C4",
"q. c #16D5C4",
"w. c #17D5C4",
"e. c #1BD6C5",
"r. c #1CD6C5",
"t. c #1DD7C5",
"y. c #1ED7C5",
"u. c #1FD7C5",
"i. c #23D8C6",
"p. c #28DAC7",
"a. c #2BDBC7",
"s. c #2EDCC7",
"d. c #33DDC8",
"f. c #39DFC9",
"g. c #3ADFC9",
"h. c #3BDFC9",
"j. c #3CDFC9",
"k. c #3CE0C9",
"l. c #3DE0CA",
"z. c #3EE0CA",
"x. c #7DD8CA",
"c. c #49E3CB",
"v. c #4DE4CC",
"b. c #4EE5CC",
"n. c #4FE5CC",
"m. c #53E0CF",
"M. c #50E5CC",
"N. c #53E6CD",
"B. c #5FEACF",
"V. c #60EACF",
"C. c #62EACF",
"Z. c #63EBCF",
"A. c #64EBCF",
"S. c #65EBCF",
"D. c #65ECCF",
"F. c #6BEDD0",
"G. c #6DEED1",
"H. c #72EFD1",
"J. c #75F0D2",
"K. c #76F0D2",
"L. c #77F0D2",
"P. c #78F1D2",
"I. c #92E4C5",
"U. c #95E9C9",
"Y. c #97EDCC",
"T. c #99ECC9",
"R. c #87EAD9",
"E. c #89EFDE",
"W. c #85F4D4",
"Q. c #86F5D4",
"!. c #87F5D4",
"~. c #89F5D5",
"^. c #8FF7D6",
"/. c #9DF6D3",
"(. c #93F8D6",
"). c #94F9D6",
"_. c #96F9D6",
"`. c #97F9D7",
"'. c #9AFAD7",
"]. c #9EF9D5",
"[. c #9CFBD7",
"{. c #9DFBD8",
"}. c #9EFBD8",
"|. c #A0FCD8",
" X c #A1FCD8",
".X c #A2FCD8",
"XX c #A2FDD8",
"oX c #A3FDD8",
"OX c #A1FEDA",
"+X c #A3FFDB",
"@X c #A4FDD9",
"#X c #A5FDD9",
"$X c #A5FED9",
"%X c #A6FFD8",
"&X c #A7FFD8",
"*X c #A6FED9",
"=X c #A7FED9",
"-X c #A4FFDD",
";X c #A8FED9",
":X c #A9FFD9",
">X c #AAFFD9",
",X c #A9FFDD",
"<X c #A7FFE1",
"1X c #DAF4E8",
/* pixels */
"1X1X1X1X1X1X1X1X1X1X- - - - - - - - - - - - - - - - - - - - - - - - - - - - - - - - - - - - - - - - - - - - - - - - - - - - - - - - - - - - 1X1X1X1X1X1X1X1X1X1X",
"1X1X1X1X1X1X1X1X1X1X- - - - - - - - - - - - - - - - - - - - - - - - - - - - - - - - - - - - - - - - - - - - - - - - - - - - - - - - - - - - 1X1X1X1X1X1X1X1X1X1X",
"1X1X1X1X1X1X1X1X1X1X- - - - - - - - - - - - - - - - - - - - - - - - - - - - - - - - - - - - - - - - - - - - - - - - - - - - - - - - - - - - 1X1X1X1X1X1X1X1X1X1X",
"1X1X1X1X1X1X1X1X1X1X                                                                  %                                                     1X1X1X1X1X1X1X1X1X1X",
"1X1X1X1X1X1X1X1X1X: 6 6 6 6 6 6 6 6 6 6 6 6 6 6 6 6 6 6 6 6 6 6 6 6 6 6 6 6 6 6 6 6 6 6 6 6 6 6 6 6 6 6 6 6 6 6 6 6 6 6 6 6 6 6 6 6 6 6 6 5 : 1X1X1X1X1X1X1X1X1X",
"1X1X1X1X1X- - & - 9 I.Y.U.U.U.U.U.U.U.U.U.U.U.U.U.U.U.U.U.U.U.U.U.U.U.U.U.U.U.U.U.U.U.U.U.U.U.U.U.U.U.U.U.U.U.U.U.U.U.U.U.U.U.U.U.U.U.U.T.I.9 - & - - 1X1X1X1X1X",
"1X1X1X1X1X- - & - 0 |.<X-X-X-X-X-X-X-X-X-X-X+X-X-X-X-X-X-X-X-X-X-X-X-X-X-X-X-X-X-X-X+X+X-X-X-X-X+X+X<X+X+X<X+X+X-X-X-X-X-X-X<X+X-X-X-X-X<X|.0 - & - - 1X1X1X1X1X",
"1X1X1X1X1X& & %   0 ].|.|.|.|.|.|.|.|.|.|.|. X X|.|.|.|.|.|.|.|.|.|.|.|.|.|.|.|.}..X.X.X.X.X.X.X.X.X}..X.X.X}..X+X|.|.|.|.|.{.}.|.|.|.|.+X/.0 - % & & 1X1X1X1X1X",
"1X1X1X1X1X& & & & 0 /.+X|.|.|.|.}. X X X X X X X|.|.|.|.|.|.|.|.|.|.|.|.|.|.|.|.|.|.|..X.X.X.X.X.X.X.X#X.X|..X|.#X.X.X.X.X}..X}.|.|.|.|.+X/.0     - - 1X1X1X1X1X",
"1X1X1X1X: 9 w 0 0 r |.|.|.|.|.|. X X'.J.C.C.B.G._. X|.|.|.|.|.|.|.|.|.|.|.|..X_.G.C.C.A.C.A.C.C.C.C.C.V.A.C.A.A.C.C.V.B.H.}.|..X|.|.|.|.|.|.r 0 0 0 9 : 1X1X1X1X",
"- - -   6 I.|././.].|.|.|.|.|.|.|.#X(.k.%.1.>.d.!.#X|.|.|.|.|.|.|.|.|.|.|.|.#XW.s.%.0.0.1.3.3.3.0.0.>.>.0.0.1.3.0.>.0.>.j._.+X|.|.|.|.|.|.|./././.|.I.6   - - - ",
"- - -   6 Y.<X|.+X|.|.|.|.|.|.|.|.+X(.f.@.%.O.i.!.#X|.|.|.|.|.|.|.|.|.|.|.|.+XW.a.O.%.%.%.%.%.%.%.%.%.%.%.%.%.%.%.%.$.O.h._.+X|.|.|.|.|.|.|.|.+X+X<XY.8   - - - ",
"- - -   6 U.-X X X X X}.|.|.|.+X X>X_.k.+.1.+.a.W.#X].|.|.|.|.|.|.|.|.|.|.|.#XW.a.@.>.%.1.>.%.1.%.>.%.1.>.%.1.1.1.%.%.@.h._.+X.X|.+X|.|.|.|.|.|.|.-XU.6   - - - ",
"- - -   6 U.-X X}.}. X X|.|.].].]. X^.k.#.%.+.a.W.#X|.|.|.|.|.|.|.|.|.|.|.|.#XW.a.@.%.>.1.%.>.1.>.%.%.>.1.%.>.%.>.>.1.%.h.^.|.].'.}.|.|.|.|.|.|.|.-XU.6   - - - ",
"- - -   6 U.-X}. X X}. X|.{.J.v.b.b.c.i.%.1.+.a.W.+X|.|.|.|.|.|.|.|.|.|.|.|.+XW.a.@.%.%.>.>.%.%.1.%.1.>.1.>.%.>.%.1.1.%.i.c.M.b.v.H.|.|.|.|.|.|.|.-XU.6   - - - ",
"- - -   6 U.-X X X}. X X+X[.v.$.%.=.%.1.%.>.%.s.W.+X|.|.|.|.|.|.|.|.|.|.|.|.>XW.a.@.%.>.%.1.1.>.>.>.1.%.%.>.1.1.%.>.%.>.%.>.%.%.%.v.].+X|.|.|.|.|.-XU.6   - - - ",
"- - -   6 U.-X|.|.|.|.|..X].b.%.%.=.1.>.%.%.@.a.W.#X|.|.|.|.|.|.}. X X X X X XW.a.@.%.>.>.%.>.%.%.=.>.%.%.>.%.>.%.1.>.%.1.=.%.%.@.b.[. X X X X X}.-XU.6   - - - ",
"- - -   6 U.-X|.|.|.+X+X>X|.b.%.1.%.%.>.1.>.@.a.W.#X|.|.|.|.|.|. X X}.}.}. X+X!.a.%.1.1.%.@.@.%.%.@.@.%.@.@.%.1.%.>.1.%.>.%.>.=.%.b.}.>X+X|. X X X-XU.6   - - - ",
"- - -   6 U.-X|..X'.(.(._.^.c.%.%.%.1.1.%.>.@.a.W.#X|.|.|.|.|.|. X}. X X X X#X!.a.@.>.%.3.t.i.t.t.t.t.t.y.y.3.=.1.1.>.>.9.$.$.9.%.v.^._._._.'.}. X-XU.6   - - - ",
"- - -   6 U.-X|..XH.j.f.j.h.i.>.1.>.>.%.1.1.@.a.W.#X|.|.|.|.|.|. X X}. X X}. XW.a.@.%.%.s.F.P.H.J.J.J.J.P.H.k.%.>.%.%.1.%.>.=.%.>.i.h.k.h.k.J. X X-XU.6   - - - ",
"- - -   6 U.-X|.+XC.>.@.@.%.%.1.%.>.>.1.>.>.@.a.W.#X|.|.|.|.|.|.}.}. X X}. X#X!.a.@.%.@.j.'.>X+X|.+X+X#X;X Xb.=.%.>.>.1.1.1.>.%.1.%.%.@.@.>.C..X X+XU.6   - - - ",
"- - -   6 U.-X|.|.C.>.%.=.%.>.%.1.1.%.%.%.1.@.a.W.#X|.|.|.|.|.|. X X X}. X X#X!.a.@.=.%.h.(.|. X X X}. X X}.v.=.=.1.%.%.>.%.>.1.%.>.%.1.@.0.C..X|.-XU.6   - - - ",
"- - -   6 U.-X|.|.A.9.%.%.1.1.>.>.%.=.>.%.>.@.a.W.#X|.|.|.|.|.|. X X X}. X}. X!.a.+.%.%.h.(.#X|. X}. X X X[.b.=.$.9.1.>.%.>.%.1.%.1.%.>.%.>.C.|.|.-XU.6   - - - ",
"- - -   6 U.+X+X|.C.0.%.%.>.%.=.$.=.%.>.1.%.@.a.!.;X.X|..X|..X|. X X X X X X;X!.a.+.1.+.h._. X|. X X X}.#X}.b.=.=.%.%.>.1.1.%.>.>.%.>.%.%.0.A..X|.-XU.6   - - - ",
"- - -   6 U.-X.X.XC.0.%.>.%.>.%.*.*.*.*.%.1.@.a.!.>X.X.X|.|.+X|. X X|.|.+X|.;X!.s.@.%.@.h.(.#X|. X X X}. X}.v.*.$.9.1.>.%.%.1.>.1.>.%.%.%.9.C.|..X-XU.6   - - - ",
"- - -   6 U.-X|..XA.0.%.%.>.d.b.M.M.c.i.%.>.%.y.M.S.V.V.C.C.C.C.Z.Z.C.C.A.C.A.N.t.%.>.@.h.(.+X X}.}. X X#X{.v.$.1.%.%.>.1.>.1.%.%.>.1.>.%.0.C.+X.X-XU.6   - - - ",
"- - -   6 U.-X.X.XC.0.%.%.>.C.|.].|.^.k.@.=.$.>.0.0.0.0.9.9.0.0.1.3.3.0.0.0.0.0.1.>.>.@.j.(.#X X X X}. X X}.v.=.%.%.1.1.>.1.>.%.%.1.>.1.%.9.C.|..X-XU.6   - - - ",
"- - -   6 U.-X|..XC.>.%.%.0.C.+X+X+X_.k.%.%.9.=.>.$.$.$.%.%.%.%.=.%.%.%.%.%.%.%.%.1.%.@.k.'.;X X+X X#X#X;X}.M.=.1.>.>.%.%.%.>.1.>.1.%.%.%.9.C.|..X-XU.6   - - - ",
"- - -   6 U.-X.X.XC.>.$.$.0.D.+X+X>X_.k.@.>.>.%.%.>.1.>.%.1.>.%.>.1.1.%.%.>.%.>.%.1.>.%.s.F.J.J.J.J.J.J.J.J.h.%.>.1.1.%.1.1.>.%.%.1.>.>.` 0.V..X.X+XU.6   - - - ",
"- - -   6 U.-X|..XC.>.%.$.0.V.{.].|.^.k.%.$.1.%.>.%.%.>.%.>.1.%.%.%.>.>.>.%.1.%.>.1.%.1.1.t.u.t.u.u.t.u.t.t.3.1.%.%.>.>.>.%.>.1.9.$.%.1.@.0.S..X.X+XU.6   - - - ",
"- - -   6 U.-X.X.XC.0.%.>.>.d.v.M.M.c.i.%.$.9.>.%.%.1.1.1.1.>.>.1.>.%.1.>.1.>.%.>.%.1.%.>.%.@.%.@.@.@.@.@.%.%.%.1.>.%.1.>.1.%.1.=.>.>.$.$.9.V.#X.X+XU.6   - - - ",
"- - -   6 U.-X|..XC.0.%.$.>.$.*.$.$.>.$.=.>.%.1.1.>.>.%.>.%.%.1.1.%.>.1.%.%.>.1.1.%.>.>.1.%.1.%.>.>.1.=.%.>.1.>.1.%.>.1.%.%.1.%.%.9.$.>.$.0.V..X}.<XU.6   - - - ",
"- - -   6 U.+X+X|.C.9.%.>.1.1.%.=.%.%.1.1.1.9.$.1.1.%.>.1.%.%.>.>.%.1.>.%.%.1.>.1.>.%.%.1.>.%.1.>.>.%.1.%.1.>.>.%.1.1.>.%.%.=.%.%.%.>.>.%.1.C.|.|.-XU.8   - - - ",
"- - -   6 U.-X|.|.C.9.%.%.%.>.1.>.>.1.1.1.1.=.=.1.1.1.=.1.>.1.1.>.1.%.>.1.>.1.%.%.>.1.>.1.%.>.1.%.1.%.>.>.1.%.1.%.>.=.%.i.v.b.b.n.d.>.%.%.3.A.+X|.+XU.5   - - - ",
"- - -   6 U.-X|.+XC.0.%.1.>.>.%.%.1.1.' ' ' >.` ] ] ` ` ] >.>.%.%.%.1.1.>.1.>.%.%.1.>.1.>.>.%.%.1.%.1.>.>.%.1.%.1.1.>.+.k.(.}.}.|.C.1.%.%.0.C.|..X-XU.5   - - - ",
"- - -   6 U.-X|.|.C.9.%.1.%.1.%.>.1.' m H J J J J J J J m 5.1.1.1.>.>.%.%.%.>.1.>.1.%.%.%.1.1.>.>.>.1.%.1.%.>.>.>.%.%.%.k._.#X#X+XA.3.%.%.9.C.|..X-XU.5   - - - ",
"- - -   6 U.-X|..XC.0.%.%.1.>.>.%.1.] J s s s s d d d h H ' 1.%.%.>.>.%.1.1.>.%.%.1.>.>.%.>.>.1.%.1.>.%.1.>.%.1.>.1.=.@.k.(.#X#X+XA.3.%.%.0.A. X.X-XU.5   - - - ",
"- - -   6 U.-X|..XA.0.%.>.1.%.1.1.1.] J c c c c c c d s H ' 1.>.1.1.%.>.>.%.>.1.>.%.%.1.1.1.%.%.%.>.1.%.1.%.>.1.%.%.>.%.k.^.}.}.}.B.3.%.%.0.C.#X.X-XU.5   - - - ",
"- - -   8 T.>X#X;XA.0.%.>.%.1.%.%.=.] J s c c c c c c s F ' =.>.>.%.>.@.@.@.@.@.@.@.@.@.%.%.=.>.1.1.>.>.>.>.%.%.1.>.%.%.i.c.M.b.b.d.1.%.%.>.D.+X+X,XT.8   - - - ",
"- - -   4 x.E.R.R.m.>.%.1.%.>.>.>.>.] J s c c c c c c s H ' =.1.>.=.1.i.a.a.a.a.a.a.a.s.i.1.%.>.>.%.%.1.%.1.1.>.1.%.>.1.%.=.=.=.%.>.>.%.>.1.m.R.R.E.x.4   - - - ",
"- - - o 3 b ( E E Q >.=.%.>.%.1.%.1._ J d d d c g g g d H ` =.1.%.%.e.C.!.!.!.!.!.W.W.!.C.e.@.1.1.%.%.>.%.>.>.1.>.%.1.>.%.%.=.%.%.=.>.%.=.>.Q E W ( b 3 O - - - ",
"- - - + , y p h p F $.>.1.%.>.1.1.4.] J d d c c g d j d H ` =.>.1.@.u.J.;X#X#X#X#X#X+X>XJ.u.@.1.>.>.1.1.1.1.%.%.>.1.%.>.1.>.>.1.>.1.$.9.>.$.C p p ! y , + - - - ",
"- - - + , u ^ g s U >.1.>.>.%.%.>.4.] J s d c c d d d a J $.1.>.=.@.u.J.+X X}. X|.|.|.#XJ.t.%.%.%.1.>.%.>.%.1.>.%.%.1.1.%.>.%.1.>.%.1.%.1.$.U s d ^ u , O - - - ",
"- - - o , u ^ g s U $.=.%.1.1.>.%.4.] H s s d d d d d h H ` 1.1.%.@.u.J. X X X X|.|.|.#XJ.u.@.>.%.>.1.%.>.1.%.>.1.>.>.%.1.1.%.>.1.%.>.>.1.>.U s d ^ u , O - - - ",
"- - - O , u ^ g d U $.>.>.1.1.%.>.4.] m H J J J J J J J m ] 4.1.1.%.t.J. X X X}.|.|. X+XH.y.@.=.1.1.>.%.>.%.1.1.1.%.%.>.>.>.%.1.>.%.1.1.$.>.U d d ^ u , O - - - ",
"- - - O , u ^ j d U >.%.%.%.>.>.%.%.>.] ' ' ' ' ] ] ] _ ] %.>.%.>.@.t.J. X X X}.|.|.].#XJ.y.%.%.>.%.>.1.1.%.>.%.>.>.1.1.%.1.%.>.1.%.>.%.>.$.U d d ^ u , O - - - ",
"- - - O , u ^ d a U >.,.1.>.%.1.>.%.%.4.1.1.1.1.=.4.4.4.4.>.1.>.%.%.t.J.#X X X X|.|.|.#XJ.y.%.>.%.>.%.1.1.>.%.>.%.1.>.%.1.%.1.>.1.>.1.%.1.>.U d d ^ u , O - - - ",
"- - & O , u ^ d h m 5.4.1.%.>.1.1.1.>.1.1.1.%.>.>.%.>.%.>.%.%.>.1.@.t.J.#X X X X|.|.|.;XJ.y.@.%.1.1.%.>.%.>.1.1.%.>.1.%.>.>.1.%.%.>.1.>.1.$.U d d ^ u , O - - - ",
"- - - O , u ^ d d U ` =.=.%.>.=.1.1.1.1.>.%.>.%.1.1.>.%.>.%.1.1.>.%.y.P.+X X#X X X X#X+XJ.t.@.>.>.>.%.1.%.1.>.>.%.1.>.%.1.1.>.%.*.9.*.*.=.9.U a g ^ i , O - - - ",
"- - - O , u ^ d d U >.1.1.>.| M M M B ) 1.1.1.%.>.%.>.1.1.%.>.%.%.%.3.c.A.C.C.A.A.C.C.D.v.0.%.1.%.1.%.>.>.1.%.1.%.>.1.%.>.%.>.1.*.o.M M B M D g g ^ u , O - - - ",
"- - - O , u ^ d d U $.%.=.>.U g c c P { 1.1.>.>.%.>.%.1.1.>.%.>.>.%.%.1.3.3.1.3.0.0.1.0.1.>.>.%.1.%.1.>.>.%.1.%.1.1.>.>.1.%.%.1.*.M x c g z g j j ^ u , O - - - ",
"- - - O > u ^ d d U >.>.1.%.U g d d z { 1.1.%.1.1.1.%.>.%.>.1.1.>.1.>.%.%.>.%.%.%.%.%.%.%.%.1.%.>.>.1.%.1.%.>.>.>.%.%.1.>.>.1.1.9.M c s g g j g g ^ u , O - - - ",
"- - - O , u ^ j s U >.1.1.%.F s d d c { 4.1.1.%.>.%.1.>.%.1.>.%.%.%.1.>.1.>.%.%.%.>.%.1.%.1.>.>.%.1.>.%.1.>.%.1.%.>.>.1.%.%.1.1.*.M c s c c d c j ^ u , O & - - ",
"- - - O , u ^ g d U %.%.1.>.U c c d x  .4.%.>.>.>.1.%.>.%.>.1.%.1.>.1.%.%.>.1.>.>.%.%.>.>.>.%.1.%.>.1.1.1.%.>.1.1.1.%.%.1.>.>.1.=.M x c c c c c d ^ u , + - - - ",
"- - - O , u ^ g d U $.>.=.>.| M B M B _ >.%.%.1.%.%.1.1.1.1.>.>.>.1.>.%.%.1.>.1.1.%.1.>.$.1.1.1.1.1.1.1.1.1.1.%.>.%.1.>.%.>.%.1.>.o.M M B M S c g ^ u > O - - - ",
"- - - O , u ^ g d U >.1.=.1.1.1.1.1.1.1.%.>.>.1.1.>.>.%.>.%.%.1.%.%.>.1.>.1.%.%.>.>.1.%.>.) ) o.) o.) ) ) ) ' >.>.1.%.>.1.1.%.>.1.1.1.1.=.>.U d j ^ u > O - - - ",
"- - - O , u ^ c d U %.>.%.1.>.=.1.1.1.1.>.%.>.%.1.%.%.>.>.1.1.%.1.>.%.1.>.>.%.1.>.%.1.=...D Z Z Z A Z S P S { 1.%.1.$.>.$.1.1.1.>.%.1.=.=.>.U d g ^ u , O - - - ",
"- - - + , u ^ s d U >.1.>.%.1.%.%.>.>.%.>.1.1.1.>.>.1.1.%.%.>.>.1.%.>.1.%.1.%.>.1.%.>.=.{ c s s s s s s s c M 1.=.>.>.%.1.1.1.1.1.%.1.>.>.%.U c g ^ u , O - - - ",
"- - - + , u ^ c d U >.1.>.1.>.%.%.1.1.1.%.1.1.1.%.1.1.1.1.>.%.1.>.>.%.%.1.%.1.>.1.>.1.1.{ Z s c c c c c s c M 1.=.%.1.>.' ' ] ] ' >.>.1.=.$.U s g ^ u , O - - - ",
"- - - + , u ^ c d U ` =.%.%.>.1.>.1.1.=.1.1.1.1.4.4.1.1.1.%.>.1.%.1.1.>.>.>.1.%.1.1.1.1.| z s c c c c c c z M 1.9.=.' m H J J J H B %.1.=.>.U s j ^ u , O - - - ",
"- - - O , u ~ s d U >.1.1.1.>.%.1.1.>.| | | | { { { { { ..%.1.%.>.1.1.%.%.%.1.>.%.1.>.1.| z s c c c c c c c M 1.1.1.' H h s s s s F >.1.>.$.U c d ^ u > O - - - ",
"- - - O , u ^ c d U %.%.>.%.>.1.1.1.` F c Z z z x x x x F ` 1.>.%.%.>.>.1.>.1.%.9.$.%.1.| z s c c c c c c c M 1.1.1.' J s c c c d U ` =.%.>.U s d ^ u , O - - - ",
"- - - O , u ~ d d U %.>.%.>.%.1.=.1.' H s s s s s s d s H ` 1.%.1.>.%.1.>.1.>.%.9.=.9.=.| x c c c c c c d c B 1.1.1.' J s c c c d U >.1.1.>.U c c ^ u , O - - - ",
"- - - O > u ~ d d U >.1.1.1.%.>.9.1.' H s c c c c c d d J >.1.>.1.%.>.1.%.%.>.1.*.*.*.9.| x s s c c s c d c M 1.1.4.' H s d d d s U %.%.>.%.U c s ~ u , O - - - ",
"- - - O , u ^ g d U >.%.>.%.1.>.%.1.] J c c c c c c c s H ' 1.>.%.1.>.>.%.1.>.%.1.1.>.=.{ z d d d d s c s c M 1.1.1.' H d a s s c U $.>.>.>.U d d ^ u , + & - - ",
"- - - O , u ^ j c U $.>.>.1.%.>.1.1.] J s c c c c c c c F ' 1.%.>.1.%.1.%.>.1.%.>.%.1.1.) m F U U U U U U U | 1.1.1.>.M Y U U U U B >.1.=.%.U d j ^ u > + - - - ",
"- - - O > u ^ d c U >.1.%.%.1.1.>.1.] J s c c c c c c s J ] 1.1.>.%.%.>.1.1.>.>.>.1.>.%.1.>.>.%.$.$.>.$.%.>.1.1.>.%.%.>.$.>.$.>.$.%.1.1.1.$.U d g ^ i , O - - - ",
"- - - O > u ^ d s U %.1.1.>.>.%.%.1.] J s c c c c c c s J ] 1.1.1.%.>.%.>.%.%.1.%.%.>.1.%.>.%.=.>.>.%.>.>.1.1.>.1.%.>.%.9.=.>.$.1.9.>.%.1.` U d g ^ u , O - - - ",
"- - - O , i / ~ ~ U >.1.>.%.>.>.4.4.' J s c c c c c c c J >.=.%.>.%.1.>.>.>.1.%.1.1.=.=.1.1.%.>.>.%.=.>.%.>.%.1.>.%.1.>.>.%.>.>.>.>.1.1.1.>.U ^ v / i , + - - - ",
"- - - + , t d d a n ` *.%.>.%.$.%.>.' J s c c c c c c s J ) %.>.$.>.>.%.%.$.>.>.%.>.` >.%.>.>.] %.>.%.] >.%.%.>.$.>.>.%.%.>.%.$.%.$.>.>.1.>.n h a g t , O - - - ",
"1X1X1X1X; 1 1 1 1 e U T U U U U m F F x c c c c c c c s Z F U U U U U U U U U U U U U U U U U U U U U U U U U U U U U U U U U U U U Y U Y m e < 1 2 1 ; 1X1X1X1X",
"1X1X1X1X1X+ - + * 1 a c c s d d d d d d c c c c c c c c s d d d d d d d d s c c d d d d d d d d d d d d d d d d d d d d c s d d c s c s c a 1   O + - 1X1X1X1X1X",
"1X1X1X1X1X- - O & 1 a c g j d d d d j g d j g j c c c c c c c s g g j d d d c s c c s c j g g g d c s c j d d d d d d d g g g j d c s c ^ a 1 + O & - 1X1X1X1X1X",
"1X1X1X1X1X- - + - 1 c / ^ ^ ^ ^ ^ ^ ^ ^ ^ ^ ^ ^ ^ ^ ^ ^ ^ ^ ^ ^ ^ ^ ^ ^ ^ ^ ^ ~ ~ ^ ^ ~ ^ ^ ^ ^ ~ ~ ^ ^ ^ ^ ^ ^ ^ ^ ^ ^ ^ ^ ^ ^ ~ ^ ^ ^ ^ c 2 - - - - 1X1X1X1X1X",
"1X1X1X1X1X- - - - 1 t i u u u u u u u u u u u u u u u u u u u u u u u u u u u u u u u u u u u u u u u u u u u u u u u u u u u u u u u u i t 1 - - - - 1X1X1X1X1X",
"1X1X1X1X1X1X1X1X1X; , , , , , , , > , , , , , , , , , , , , , , , , , , > > , , , , , , , > , , , , , , , , , , , , > > , , , , , , , , , > ; 1X1X1X1X1X1X1X1X1X",
"1X1X1X1X1X1X1X1X1X1X+ O O O O O + + O O O O O O O O O O + + O O O O O O O O O O + O O O O O O O + + O O O O O O + + + O O O O O + O O O O O 1X1X1X1X1X1X1X1X1X1X",
"1X1X1X1X1X1X1X1X1X1X- - - - - - & - - - - - - - - - - - - - - - - - - - - - - - - - - - - - - - - - - - - - - - - & - - - - - - - - - - - - 1X1X1X1X1X1X1X1X1X1X",
"1X1X1X1X1X1X1X1X1X1X- - - - - - - - - - - - - - - - - - - - - - - - - - - - - - - - - - - - - - - - - - - - - - - - - - - - - - - - - - - - 1X1X1X1X1X1X1X1X1X1X",
"1X1X1X1X1X1X1X1X1X1X- - - - - - - - - - - - - - - - - - - - - - - - - - - - - - - - - - - - - - - - - - - - - - - - - - - - - - - - - - - - 1X1X1X1X1X1X1X1X1X1X"
};
