/* XPM */
static char *_2e210b52fd1468da8642cef1e337ce7tqmQBxvtW8qVGBSX[] = {
/* columns rows colors chars-per-pixel */
"50 50 15 1 ",
"  c None",
". c #F8F8F8",
"X c #B8F870",
"o c #80E8C0",
"O c gray80",
"+ c #98D048",
"@ c #66CC99",
"# c #70A830",
"$ c #F86860",
"% c #389078",
"& c #D84840",
"* c #506028",
"= c #B82820",
"- c #184848",
"; c #101010",
/* pixels */

"                                                  ",
"                                                  ",
"                                                  ",
"                                                  ",
"                                                  ",
"                                                  ",
"                                                  ",
"                  #* *#                           ",
"                 #X#;*;*                          ",
"                 #+#;**#;*                        ",
"                 #+#+*##;#;;;                     ",
"                 #+*X#+#*##++*;                   ",
"                #*+*+++++*##+++*                  ",
"               #X#+#XX+++++#*#++#                 ",
"               #X++#XXX+++++#*#++;                ",
"              #X++#XXX+X+++#+#*+#*                ",
"              #X++#XXXX+++++#+#*##;               ",
"             #X++#XXXX+X+++#+##*##;-              ",
"             #+++*XXX+++++######;#;%-             ",
"             *+++*++++++##%-;;##;#;%%-            ",
"            %%;++;%%---##--o@%;#*;%%--            ",
"           %@%%;--@@@@@--oo@@%;#*;%%---           ",
"           %o@%%%@o@--@@@@@@%%;#;%%%@--           ",
"           %o@@oooo---@@@@@%%%--%%%%@@@-          ",
"          %@ooooooo--@@@@@%%%%%-%%%--@@-          ",
"          %ooooooo@@@%oo%-%%%%%-%%%%-@@;          ",
"           %%@oooo@@-oo%OO-%%%%-%%%%%@@;          ",
"          %O;@ooo@@@%o%;..O;%%%%-%-%%@@;          ",
"          %.=%o@@@@@o%;=;..;%%%%-%;;%-%-          ",
"         %@%$;@@@@@@@%.$;..-%%%%-;  ;;-           ",
"         %oo-;@@@@@@@----%%%%-%%-;                ",
"         -ooo@@@@@@@@@@@@%%%--%%%;                ",
"          -%@@@%@@-@@@@@@%---%%-%%-               ",
"           --;%@@@@@%%----==-%%;%%%-              ",
"           -%.;;;--%&&&&O=--%%;%%@@@-             ",
"            -%%-=&$$$$$&==%%%-%%%%@@.%            ",
"             --%%=======%%%-;;-%%%%%;             ",
"              -;;%@@@@@@%-;    -;;;.%             ",
"              -%%-;;;;;;;                         ",
"               -%%%%%;                            ",
"               -@@@%%-                            ",
"              -.-.-.;                             ",
"               -;;;;                              ",
"                                                  ",
"                                                  ",
"                                                  ",
"                                                  ",
"                                                  ",
"                                                  ",
"                                                  ",
};
