/* XPM */
static char *_8c0ef8b98964385bf51f93756e23f14tZ2RiJfen0IHt3SZ[] = {
/* columns rows colors chars-per-pixel */
"50 50 190 2 ",
"   c None",
".  c #070809",
"X  c #0C0D0E",
"o  c #10110F",
"O  c #0E0F11",
"+  c #0D1015",
"@  c #131314",
"#  c #181716",
"$  c #1A1917",
"%  c #14161A",
"&  c #181718",
"*  c #17181A",
"=  c #1C1B1A",
"-  c #211F1B",
";  c #24221D",
":  c #29251D",
">  c #2B281D",
",  c #322C1D",
"<  c #3C361D",
"1  c #37311D",
"2  c #1F1F21",
"3  c #272624",
"4  c #292621",
"5  c #2C2923",
"6  c #332D22",
"7  c #312D29",
"8  c #363225",
"9  c #3B3523",
"0  c #3E3822",
"q  c #3E3929",
"w  c #423B1F",
"e  c #443B24",
"r  c #4A3E24",
"t  c #453E2C",
"y  c #493F2D",
"u  c #403623",
"i  c #4C431F",
"p  c #50461F",
"a  c #564B1F",
"s  c #4C4223",
"d  c #47402E",
"f  c #4D432C",
"g  c #534524",
"h  c #594624",
"j  c #554A24",
"k  c #5B4C24",
"l  c #54472E",
"z  c #54492B",
"x  c #594B2C",
"c  c #5E5124",
"v  c #5E532E",
"b  c #4D4432",
"n  c #534A30",
"m  c #5B4C32",
"M  c #504633",
"N  c #5B5032",
"B  c #624E24",
"V  c #604D2A",
"C  c #635424",
"Z  c #6B5423",
"A  c #665922",
"S  c #6C5B24",
"D  c #66592C",
"F  c #695B29",
"G  c #715723",
"H  c #765B22",
"J  c #725728",
"K  c #735A29",
"L  c #635334",
"P  c #6B5D36",
"I  c #61573D",
"U  c #675938",
"Y  c #695D36",
"T  c #715C36",
"R  c #725B38",
"E  c #785F39",
"W  c #6F612A",
"Q  c #736223",
"!  c #7C6424",
"~  c #7B6925",
"^  c #7B6728",
"/  c #786729",
"(  c #6F6239",
")  c #756336",
"_  c #75653B",
"`  c #7C6B3D",
"'  c #7E6535",
"]  c #695E44",
"[  c #7F6E41",
"{  c #786C47",
"}  c #846422",
"|  c #826C22",
" . c #8B6A2D",
".. c #867225",
"X. c #8B7523",
"o. c #8F7924",
"O. c #8B752F",
"+. c #8E792B",
"@. c #86732F",
"#. c #927A23",
"$. c #987F22",
"%. c #947D2A",
"&. c #98772B",
"*. c #836C3D",
"=. c #806D32",
"-. c #8B7534",
";. c #83703E",
":. c #8E7A3C",
">. c #957E34",
",. c #967237",
"<. c #A17E30",
"1. c #857344",
"2. c #8E7A43",
"3. c #8F7E48",
"4. c #927D42",
"5. c #9C8324",
"6. c #9C832C",
"7. c #9B8333",
"8. c #A28723",
"9. c #A58B24",
"0. c #A0872D",
"q. c #A78B2C",
"w. c #AA8E2A",
"e. c #AA8E24",
"r. c #AE922D",
"t. c #B0942D",
"y. c #AA8E32",
"u. c #A88D39",
"i. c #AD9231",
"p. c #AD923B",
"a. c #B39633",
"s. c #B69934",
"d. c #B89A36",
"f. c #B29639",
"g. c #B6993A",
"h. c #BD9E3B",
"j. c #BFA13B",
"k. c #C2A23E",
"l. c #978040",
"z. c #9B8442",
"x. c #9A8959",
"c. c #A48C44",
"v. c #AA8F43",
"b. c #AD934A",
"n. c #AA9043",
"m. c #B99B42",
"M. c #B5994C",
"N. c #BB9E4E",
"B. c #B39748",
"V. c #B09557",
"C. c #B79D57",
"Z. c #BFA148",
"A. c #AE9A62",
"S. c #BBA365",
"D. c #C3A442",
"F. c #C8A745",
"G. c #CAA945",
"H. c #C2A34B",
"J. c #C8A748",
"K. c #C7A84A",
"L. c #CDAC4B",
"P. c #D1AF4D",
"I. c #D4B24E",
"U. c #C4A754",
"Y. c #CBAB52",
"T. c #C7A958",
"R. c #CEAD59",
"E. c #D1AE52",
"W. c #D5B353",
"Q. c #D9B655",
"!. c #DDB957",
"~. c #DDB959",
"^. c #DCB95C",
"/. c #D5B45D",
"(. c #C0A560",
"). c #C8AE68",
"_. c #CEB264",
"`. c #C9B16E",
"'. c #D2B360",
"]. c #DBBB64",
"[. c #DCBE6E",
"{. c #D4B769",
"}. c #D3B970",
"|. c #E0BE63",
" X c #DFC06E",
".X c #DFC477",
"XX c #DFC378",
"oX c #E2C26C",
"OX c #E2C474",
"+X c #E5C97E",
/* pixels */
"                                                                                                    ",
"                                                                                                    ",
"                                                                                                    ",
"                                                                                                    ",
"                                                                                                    ",
"                                                                                                    ",
"                                                                                                    ",
"                                                                                                    ",
"                                                                                                    ",
"                                          @ = # % 6 9 5 # = - %                                     ",
"                                    % $ ; m E L l L m b 7 y y 7 2 5 4 @                             ",
"                                @ 9 R *.T m I ] M P C.C.2.D b.b.1.f y t ; = %                       ",
"                              % 6 ' ' R y 4.'.].U.Z.P.Q.~.K.j.Q.!.b.z.E.c.d 5 @                     ",
"                          @ 6 T ) l { x.1.m.L.W.Q.Q.F.i.k.F.r.d.L.Q.D.W.~.c.n b $                   ",
"                          : Z J y c.~.^.~.W.F.6.+.6.%.c k | ..S ~ r.w.a.W.D.m.W._ #                 ",
"                        @ 5 n { 3.J.P.F.g.f.6.C 8 8 r h g r g h r g C k r.s.h.Q.Y.0                 ",
"                      # 4 N T.oX|.Q.W.y.s e 6 8 s 5 6 u , 6 h C B S B r c $.6.W.W.v @               ",
"                    X 4 8 :.I.P.D.p.O.s 6 5 % % %           % & = r Z Z h e C h.D.m.N +             ",
"                    = I A._.W.Q.' 9 5 * %                         % = 9 ! Z g 8.d.Q.b.;             ",
"                  @ P /.OX].W.b.y 5 =                                 = h Z e S H.~.H.6             ",
"                  : M.Q.P.v.L f s $                                     = s h D W.Q.u.:             ",
"                = { }.[.!.2.r } C =                                     = Z s %.G.h.^ =             ",
"              @ _ ].OX].M.y Z } r %                                   @ 5 C 0 +.d.F.7.;             ",
"              : n.W.E.z.f r r } Z >                                 % e k y ` H.Q.W.O.4 @           ",
"              , 0.D.P.` h } g Z } r %                         X = > 9 G r c.!.W.P.i.s 4             ",
"              e U..X^.Y Z &.:.e H Z h 6 @ @ @     o o X # : ; 9 ~ Q g t C t.d.a...g g ,             ",
"            * 4.oX X4.e G <.b.) l Z } ! C =.W 9 0 F C w / B.7.o.X.z 2.(.Y.P.L.g.r C ! >             ",
"            ; M.~.Y.( 3 k &.K.P.N.f Z | 9.G.Q.f.8.G.I.r.e.7.D v m -.P.L.L.F.a.Q r  .x $             ",
"            ; 7.k.].C.3 r } y.J.!.` x x C #.>.>.$.5.@.W C s l._.[.W.L.k.o.Q k r Z e =               ",
"            # A d.OXV.= = h H -.Q.K.L.R.[ z ( P x s ) x.x.c.j.G.P.I.L.a.c r J ,.V %                 ",
"              9 g.~.4.= . # 4 e i.F.h.^.].D.P.[.}.m.k.Q.oX].W.h.5...~ j r Z K x ;                   ",
"              s d.L.H._ %     # C 5.$.7.L.W.h.D.W.Q.L.d.d.D.k.w.c 9 g j e ; - %                     ",
"              w 9.t.].`.8       # < i 9 ~ w.w.~ %.a.a.5.C p a < = : , ; @                           ",
"              ; ~ w.].XXP ; O         O ; w s , > w i 1 * X O                                       ",
"                : F Y.^.Y.b.n O                                                                     ",
"                  6 p.W.W.OX).f q 4 @                                                               ",
"                  % j i.s.W. XY.'.S.U 6 9 5 % X @ @                                                 ",
"                    $ w A 7.P.Q.W.+X].H.Y.N.;.f *.;.m 0 > @                                         ",
"                        % e 5.d.r.D.Q.W.L.Q.Q.Y.Q.!.W.y.o.e @                                       ",
"                          @ , g s c y.k.s.g.P.Q.J.D.I.u.$.5.9                                       ",
"                              X X % 9 C S s ^ q.q.| ..#.C #.C @                                     ",
"                                      @ @ @ # , 1 ; - < 8 5 >                                       ",
"                                                                                                    ",
"                                                                                                    ",
"                                                                                                    ",
"                                                                                                    ",
"                                                                                                    ",
"                                                                                                    ",
"                                                                                                    ",
"                                                                                                    "
};
