/* XPM */
static char *_f576fb29a4e41b7ebc7014ab59858efllVXbJGD5gs5AMLF[] = {
/* columns rows colors chars-per-pixel */
"50 50 20 1 ",
"  c #AC8C3E",
". c #202020",
"X c #4B4F52",
"o c #981000",
"O c #B83010",
"+ c #C03010",
"@ c #CB3223",
"# c #C84020",
"$ c #D04020",
"% c #D84828",
"& c #E14525",
"* c #E54C2C",
"= c #E84C2C",
"- c #EC4F2F",
"; c #E05931",
": c #E35931",
"> c #E76038",
", c #EA6038",
"< c #EE643B",
"1 c #C95E56",
/* pixels */
"                                                  ",
"         o%%%%%%%%%%%%%%%%%%%%%%%%%%%%%%o         ",
"        o%%%%%--------------------%%%%%%%o        ",
"        o%%%%-<<<<<<<<<<<<<<<<<<<<---%%%%o        ",
"       oo%%%-<<------------------<<<<-%%%oo       ",
"       o$$$==,======================,,=$$$o       ",
"      o$$$=,,,=$$$$$$$$$$$$$$$$$$$$==,,=$$$o      ",
"     o###*>>**#oooooooooooooooooooo#**>**###o     ",
"     o++&::&++o....................o#&&::&++o     ",
"     o+&::&++.......................o#&&::++o     ",
"    o++:&&+oo........................oo#+::++o    ",
"   o++::++o............................o#+:+++o   ",
"   o+::OOo..............................o#::OOo   ",
"   o+:+OOo..............................o#O::Oo   ",
"   o+:++o................................oOO:Oo   ",
"   o+:+o.................................oOO;Oo   ",
"   o+:+o.................................oOO:Oo   ",
"   o+:+o..................................oO:Oo   ",
"   o+:+o..................................oO:Oo   ",
"   o+:+o..................................oO:Oo   ",
"   o+:+o..................................oO:Oo   ",
"   o+:+o..................................oO:Oo   ",
"   o+:+o..................................oO:Oo   ",
"   o+:+o..................................oO:Oo   ",
"   oo:+o..................................oO:Oo   ",
"   o+:+o..................................oO:Oo   ",
"   o+:+o..................................oO:Oo   ",
"   o+:+o..................................oO:Oo   ",
"   ++:+o..................................oO:OO   ",
"   ++:+o..................................oO:OO   ",
"   ++:+o..................................oO:OO   ",
"   ++:+o..................................oO:OO   ",
"   ++:+o..................................oO:OO   ",
"   ++:+o..................................oO:OO   ",
"   ++:+o..................................oO:OO   ",
"   ++:+o..................................oO:OO   ",
"   ++11o..................................oO111   ",
"   1111o..................................o1111   ",
"   1111o..................................o1111   ",
"   @11@o..................................o@111   ",
"   @@1@o..................................o@1@1   ",
"   @@1@o..................................o@@@1   ",
"   @@@@o..................................o@@@@   ",
"   @@@@o..................................o@@@@   ",
"   @@@@o..................................o@@@@   ",
"   @@@@o..................................o@@@@   ",
"   @@@oo..................................o@@@@   ",
"   @@@oXXXXXXXXXXXXXXXXXXXXXXXXXXXXXXXXXXXo@@@@   ",
"   ooo.XXXXXXXXXXXXXXXXXXXXXXXXXXXXXXXXXXX.oooo   ",
"                                                  "
};
