/* XPM */
static char *_0350228eaf84d1afdb5be078d8ddfeeV5WsOeoydmTiif2p[] = {
/* columns rows colors chars-per-pixel */
"46 50 134 2 ",
"   c None",
".  c #202020",
"X  c #4B4F52",
"o  c #981000",
"O  c #B83010",
"+  c #C03010",
"@  c #CB3223",
"#  c #C84020",
"$  c #D04020",
"%  c #D84828",
"&  c #E14525",
"*  c #E54C2C",
"=  c #EA4E2E",
"-  c #E25931",
";  c #E76038",
":  c #ED633A",
">  c #C95E56",
",  c #BBCCCC",
"<  c #C3CAD9",
"1  c #C1D2D2",
"2  c #D6DFDF",
"3  c #DFDFDF",
"4  c #CFCFE0",
"5  c #D6DFE5",
"6  c #DCDCE5",
"7  c #D7DFE8",
"8  c #D7E0E4",
"9  c #DAE3E4",
"0  c #D7E0E8",
"q  c #DAE3EB",
"w  c #DEE9EF",
"e  c #DFE8F0",
"r  c #E3E3E3",
"t  c #E4ECED",
"y  c #E4ECF4",
"u  c #E8EFF6",
"i  c #E7F0F6",
"p  c #E9F1F5",
"a  c #E9F1F4",
"s  c #EAF2F4",
"d  c #EAF2F5",
"f  c #E8F0F6",
"g  c #E8F1F7",
"h  c #EBF3F6",
"j  c #EAF2F7",
"k  c #ECF3F4",
"l  c #ECF4F4",
"z  c #ECF4F5",
"x  c #EDF5F5",
"c  c #ECF4F6",
"v  c #EDF5F6",
"b  c #ECF4F7",
"n  c #EDF4F7",
"m  c #ECF6F6",
"M  c #EEF6F6",
"N  c #EFF6F6",
"B  c #EFF7F7",
"V  c #EAF2F2",
"C  c #E8F0F8",
"Z  c #E9F1F8",
"A  c #E9F1F9",
"S  c #EBF3F8",
"D  c #EAF2FA",
"F  c #EBF3FB",
"G  c #ECF4F8",
"H  c #EDF5F8",
"J  c #EDF5F9",
"K  c #EEF6F8",
"L  c #EEF7F9",
"P  c #EEF6FA",
"I  c #ECF4FC",
"U  c #EDF5FC",
"Y  c #EDF5FD",
"T  c #EEF4FD",
"R  c #EFF6FC",
"E  c #EEF6FD",
"W  c #EEF6FE",
"Q  c #EFF7FE",
"!  c #F0F7F7",
"~  c #F4F7F9",
"^  c #F0F7FF",
"/  c #F0F8F8",
"(  c #F0F8F9",
")  c #F1F9F9",
"_  c #F0F8FB",
"`  c #F2FAFA",
"'  c #F3FAFA",
"]  c #F3FBFB",
"[  c #F4FAFA",
"{  c #F4FBFB",
"}  c #F6FAFA",
"|  c #F1F9FC",
" . c #F3FAFC",
".. c #F2FAFD",
"X. c #F3FAFD",
"o. c #F3FBFD",
"O. c #F0F8FE",
"+. c #F1F9FE",
"@. c AliceBlue",
"#. c #F1F9FF",
"$. c #F2F9FE",
"%. c #F2FAFE",
"&. c #F4FBFD",
"*. c #F5FBFF",
"=. c #F6FAFE",
"-. c #F4FCFC",
";. c #F4FCFD",
":. c #F5FDFD",
">. c #F7FCFC",
",. c #F6FDFD",
"<. c #F5FDFF",
"1. c #F7FDFE",
"2. c #F7FDFF",
"3. c #F6FEFE",
"4. c #F7FEFE",
"5. c #F7FEFF",
"6. c #F7FFFF",
"7. c #F9FCFC",
"8. c #F9FDFD",
"9. c #FBFDFD",
"0. c #F9FDFE",
"q. c #F8FEFE",
"w. c #F8FFFF",
"e. c #F9FFFF",
"r. c #FBFEFE",
"t. c #FAFFFF",
"y. c #FBFFFF",
"u. c #FCFEFE",
"i. c #FDFEFE",
"p. c #FCFFFF",
"a. c #FDFFFF",
"s. c #FEFEFE",
"d. c #FEFFFF",
"f. c white",
/* pixels */
"                                                                                            ",
"                                                                                            ",
"              o % % % % % % % % % % % % % % % % % % % % % % % % % % % % % % o               ",
"            o % % % % % = = = = = = = = = = = = = = = = = = = = % % % % % % % o             ",
"            o % % % % = : : : : : : : : : : : : : : : : : : : : = = = % % % % o             ",
"          o o % % % = : : = = = = = = = = = = = = = = = = = = : : : : = % % % o o           ",
"          o $ $ $ * * ; * * * * * * * * * * * * * * * * * * * * * * ; ; * $ $ $ o           ",
"        o $ $ $ * ; ; ; * $ $ $ $ $ $ $ $ $ $ $ $ $ $ $ $ $ $ $ $ * * ; ; * $ $ $ o         ",
"      o # # # * ; ; * * # o o o o o o o o o o o o o o o o o o o o # * * ; * * # # # o       ",
"      o + + & - - & + + o :.] z } f.f.f.f.r.< < q 2 2 2 7 q t ! f.o # & & - - & + + o       ",
"      o + & - - & + + o f...F J :.f.f.f.f.} < < q 2 2 2 5 q i :.f.f.o # & & - - + + o       ",
"    o + + - & & + o o f.r.I h ..r.f.f.f.=.k < < 5 2 2 5 q t z r.f.f.f.o o # + - - + + o     ",
"  o + + - - + + o f.f.f.] F h r.f.f.f.f.I t < < 2 2 2 5 w h r.f.f.f.f.f.f.o # + - + + + o   ",
"  o + - - O O o f.f.f.:.z u ..r.f.f.f.:.u 9 < < 2 2 2 q y ..r.f.f.f.f.f.f.f.o # - - O O o   ",
"  o + - + O O o f.f.:.F u z f.f.f.f.:.F q 5 < < 2 q q y z r.f.f.f.f.f.f.f.f.o # O - - O o   ",
"  o + - + + o f.f.f.z u u :.f.f.f.f.] y 8 8 < < 2 5 q u ] r.f.f.f.f.f.f.f.f.f.o O O - O o   ",
"  o + - + o f.f.f.} k u J r.f.f.f.r.u w 8 8 < < 2 0 e J r.f.f.f.f.f.f.f.f.f.f.o O O - O o   ",
"  o + - + o f.f.f.z t u :.f.f.f.f.! e q 2 2 < < 2 q u :.f.f.f.f.f.f.f.f.f.f.f.o O O - O o   ",
"  o + - O o f.f.~ u y F r.f.f.r.] k q 5 2 2 < < 9 y I r.f.f.f.f.f.f.f.f.f.f.f.r o O - O o   ",
"  o + - O o f.:.k t k } f.f.f.=.u w 0 q 2 2 < < w k :.f.f.f.f.f.f.f.f.f.f.f.f.r o O - O o   ",
"  o + - O o r.z t t z r.f.f.r.] y 0 q q 2 2 < < u z r.f.f.f.f.f.f.f.f.f.f.f.f.r o O - O o   ",
"  o + - + o ] k t k :.f.f.r.=.h w 5 5 5 2 2 < < h :.r.f.f.f.f.f.f.f.f.f.f.f.f.r o O - O o   ",
"  o + - + o k t t z r.f.f.:.F y 5 2 2 2 2 2 < < ] :.f.f.f.f.f.f.f.f.f.f.f.f.f.r o O - O o   ",
"  o + - + o y y h :.f.f.f.] y q 5 2 2 2 5 q < < :.r.f.f.f.f.f.f.f.f.f.f.f.f.f.r o O - O o   ",
"  o + - + o w t ] r.f.r.:.u w 0 2 2 7 q 5 w < < r.r.f.f.f.f.f.f.f.r.f.f.r.r.r.3 o O - O o   ",
"  o o - + o w h ] r.r.:.z y q 5 2 2 q q q y < < r.r.f.r.r.r.f.f.f.r.r.r.r.r.r.3 o O - O o   ",
"  o + - + o u J :.r.r...h q 8 5 2 2 q 8 w u < < r.r.r.r.r.r.r.r.r.r.r.r.r.r.:.6 o O - O o   ",
"  o + - + o k :.:.r.] F w 9 2 2 2 2 q 9 u I < < r.r.r.r.r.r.r.r.r.r.r.r.r.:.I 4 o O - O o   ",
"  o + - + o z :.:.r.z y q 2 2 2 2 2 q t u ..< < r.r.r.r.r.r.r.r.r.r.:.:.:...I 4 o O - O o   ",
"o + + - + o ..r.:.I k w 5 2 2 2 2 5 w y I :.< < r.:.:.:.:.:.:.:.:.:.:.:...I i , o O - O O o ",
"o + + - + o :.:.:.I t 9 2 2 2 2 2 q w F ..:.< < :.:.:.:.:.:.:.-...........F y , o O - O O o ",
"o + + - + o :.:.J y q 8 2 2 2 5 5 w u I ....< < ........................I u q , o O - O O o ",
"o + + - + o :.] h e 0 2 2 2 2 5 w e u I ....< < ..................O.] I F y q , o O - O O o ",
"o + + - + o ..J t q 5 2 2 2 2 8 w y I ......< < ] ........I I ..I I z F y w 8 , o O - O O o ",
"o + + - + o J u w 7 2 2 2 7 q q y F I ......< < ] I I I I I I I ] z F u w q 8 , o O - O O o ",
"o + + - + o u t q 7 2 2 2 5 q w u F I I I I < < ] ] ] ] z z z z I F u y w 8 8 , o O - O O o ",
"o + + - + o y w 5 5 2 5 5 5 w y h J J J J J < < z z z J F h z h F u y w 0 8 8 , o O - O O o ",
"o + + > > o w q 5 2 2 q q 5 w u h z h h z z < < z z z F F h h h F u w q q q 8 , o O > > > o ",
"o > > > > o q q 5 2 2 7 q q y u h z F F z z < < k k k F F F F u u w q 7 q q 8 , o > > > > o ",
"o > > > > o 5 2 2 2 2 7 q 9 u F F F F F F F < < F F F F F F u y e w 7 7 5 2 9 1 o > > > > o ",
"o @ > > @ o 5 2 2 2 2 0 q t u F F F F F F F < < F F F F F u u y w q 7 7 5 5 q 1 o @ > > > o ",
"o @ @ > @ o 5 2 2 2 5 q q u u F F F F F F F < < u h h u u u y w q 7 7 7 5 q q 1 o @ > @ > o ",
"o @ @ > @ o 2 2 2 2 q w t u u C F F u u u u < < u t u u u y w q 8 5 q q 5 w q 1 o @ @ @ > o ",
"o @ @ @ @ o 2 2 2 2 q w t u u u u u u u u u < < u t t t t t w q 8 8 7 q q w w 1 o @ @ @ @ o ",
"o @ @ @ @ o q q 7 0 w y u u u u u u u u t t < < t t t y y w q 5 2 2 8 q q w w 1 o @ @ @ @ o ",
"o @ @ @ @ o q q 7 w w t t t t t t t t t t t < < t t t y w w q 7 2 2 8 q q w w 1 o @ @ @ @ o ",
"o @ @ @ @ o q 5 q w e t t t t t t t t t t t < < t t t w w q q 7 5 5 0 q q w w 1 o @ @ @ @ o ",
"o @ @ @ o o q 0 9 w y t t t t t t t t t y y < < y y w w q 7 q q q q q q w w q 1 o @ @ @ @ o ",
"o @ @ @ o X X X X X X X X X X X X X X X X X X X X X X X X X X X X X X X X X X X o @ @ @ @ o ",
"X o o o . X X X X X X X X X X X X X X X X X X X X X X X X X X X X X X X X X X X . o o o o X "
};
