/* XPM */
static char *_ff6ed438ec4499cff574da0aec8bcaabSJ0vABHpGlGCB4A[] = {
/* columns rows colors chars-per-pixel */
"50 50 186 2 ",
"   c None",
".  c #0E0E0E",
"X  c #1B190F",
"o  c #16120F",
"O  c #0F0F10",
"+  c #0F1010",
"@  c #131212",
"#  c #1A1A1B",
"$  c #241E0E",
"%  c #281E0D",
"&  c #2C250D",
"*  c #32240B",
"=  c #342C0E",
"-  c #3C330D",
";  c #2C261A",
":  c #2C2C2C",
">  c #333333",
",  c gray23",
"<  c #36353D",
"1  c #451E06",
"2  c #442F0B",
"3  c #41340C",
"4  c #463A0C",
"5  c #4A3B0C",
"6  c #5C3C06",
"7  c #513C0A",
"8  c #5D4B0A",
"9  c #58450B",
"0  c #5B510A",
"q  c #4B4817",
"w  c #694604",
"e  c #634E0A",
"r  c #794C01",
"t  c #635509",
"y  c #6B5509",
"u  c #745506",
"i  c #7A5C06",
"p  c #755B08",
"a  c #6D600A",
"s  c #74630C",
"d  c #7B6308",
"f  c #766E08",
"g  c #44402C",
"h  c #655826",
"j  c #3A3A42",
"k  c #434343",
"l  c #57564D",
"z  c #535454",
"x  c #5A5A5A",
"c  c #727041",
"v  c #5D5E62",
"b  c #676664",
"n  c #666669",
"m  c #747066",
"M  c #90100F",
"N  c #BE0000",
"B  c #BB070C",
"V  c #BB2600",
"C  c #AF3101",
"Z  c #C00000",
"A  c #DE0000",
"S  c #E00000",
"D  c #E20B00",
"F  c #CE2800",
"G  c #C12708",
"H  c #D02120",
"J  c #E83539",
"K  c #8A5C01",
"L  c #875B07",
"P  c #AC5B00",
"I  c #896A06",
"U  c #806708",
"Y  c #826908",
"T  c #8B6804",
"R  c #936200",
"E  c #946A01",
"W  c #9A6A08",
"Q  c #837C08",
"!  c #9B7402",
"~  c #997805",
"^  c #8D6310",
"/  c #966F18",
"(  c #A37902",
")  c #AC7C01",
"_  c #A57601",
"`  c #B27C00",
"'  c #BA7800",
"]  c #B95C20",
"[  c #82722D",
"{  c #9B7922",
"}  c #CC430B",
"|  c #D5550F",
" . c #E64800",
".. c #D47600",
"X. c #ED7B00",
"o. c #E44A2A",
"O. c #AD8302",
"+. c #A98504",
"@. c #B38200",
"#. c #B98400",
"$. c #B38C02",
"%. c #BB8B00",
"&. c #AF9C05",
"*. c #BB9C02",
"=. c #B99203",
"-. c #AA831B",
";. c #B28D11",
":. c #A89417",
">. c #BDAB02",
",. c #B2A400",
"<. c #B3992D",
"1. c #A89A38",
"2. c #CC8602",
"3. c #C48E00",
"4. c #DC8404",
"5. c #C39200",
"6. c #C49B01",
"7. c #CB9E01",
"8. c #C79405",
"9. c #C59C18",
"0. c #E59C02",
"q. c #C3A400",
"w. c #CFA401",
"e. c #CCAA01",
"r. c #C7A900",
"t. c #D2A301",
"y. c #D3AD01",
"u. c #DCAC01",
"i. c #DBA905",
"p. c #C6BA05",
"a. c #D5B301",
"s. c #DDB200",
"d. c #D4BD01",
"f. c #DCBD01",
"g. c #CDA21F",
"h. c #D1A310",
"j. c #D7B514",
"k. c #E4AC00",
"l. c #E7A500",
"z. c #E5B400",
"x. c #E8B700",
"c. c #E3BB01",
"v. c #E9B900",
"b. c #EBBF09",
"n. c #C8A82C",
"m. c #D5B12C",
"M. c #D8B424",
"N. c #CBB13C",
"B. c #D4C302",
"V. c #DECB1B",
"C. c #EBC300",
"Z. c #E5CB01",
"A. c #ECCA01",
"S. c #E1C100",
"D. c #F1C100",
"F. c #F0CF00",
"G. c #EAD400",
"H. c #EAD706",
"J. c #F2D300",
"K. c #F4DC00",
"L. c #F6D907",
"P. c #EDD319",
"I. c #F6E400",
"U. c #F9E500",
"Y. c #F7E800",
"T. c #F8E900",
"R. c #FCEF16",
"E. c #F8EB1A",
"W. c #D2C03E",
"Q. c #E6CC2E",
"!. c #EDDA27",
"~. c #F7EE2E",
"^. c #FCF022",
"/. c #F5E736",
"(. c #F8EF3A",
"). c #F4E739",
"_. c #FCF335",
"`. c #9D9740",
"'. c #E6DA53",
"]. c #F4E94B",
"[. c #F7EE5E",
"{. c #F2EB68",
"}. c #F7F46A",
"|. c #F8F877",
" X c #F8F87A",
".X c #F8F773",
/* pixels */
"                                                                                                    ",
"                                                                                                    ",
"                                                                                                    ",
"                                                                                                    ",
"                                                                                                    ",
"                            @ @                                                                     ",
"                            @ @                                                                     ",
"                            > , .                                                                   ",
"                          @ x z #                                   : > @                           ",
"                          @ x n [ &                           # k k x , @                           ",
"                          @ z `.H.0                       t.d.c n b < @                             ",
"                            y I.T.e.$                   s.I.T.1.b < @ .                             ",
"                            7.Y.T.y.$               $.A.Y.T.T.Z.g + @                               ",
"                              J.J.w.5 8.i.b.u.3.R ! Z.T.T.T.T.f.$ O                                 ",
"                              8.s.h.n.{.{.}.].L.c.G.T.T.U.Z.*.8                                     ",
"                              6.a.[. X X X X X_.T.T.T.K.6.d @                 M.6.                  ",
"                            ( K.Y.~..X|.|.}./.:.f Z.T.C.K                 m.P.^.e.                  ",
"                            5.:.q B.R.E.E.R.,.m j t Y.A.=.X             m.).T.K.6.                  ",
"                          @.>.l v p.T.T.T.T.>.; < s T.A.7.*         g.Q.).K.C.v.z.)                 ",
"                          O.d.3 h H.G.a.I.T.I.&.Q z.X.l.z.E       s.!.(.A.v.v.v.v.)                 ",
"                        * ] L.d.B.J.G.f.K.G.S.T.U. .S F k.~ 2 R Z.J.A.C.v.v.v.v.v.)                 ",
"                          M 0.T.T.K.2.V G } C.T.J.D A N 2.W <.n.;.s.x.x.v.v.v.v.v._                 ",
"                      / { 1 C I.T.T.l.B J o.I.T.K. .Z V W Q.Z.(.N.) v.v.v.v.v.z.$.8                 ",
"                    ^ W.V.%.P I.T.T.J.| H 4.Y.T.T.J...' r.Y.T.U.*.I v.v.v.z.%.i                     ",
"                      j.T.A.6.q.Y.U.T.J.z.Y.T.T.T.T.d.r.Y.T.J.c.a 7.v.v.7.u                         ",
"                      E t.v.u.3.Z.T.T.T.T.T.T.T.T.T.I.Y.T.J.v.$.8 v.z.$.R                           ",
"                        8 w.z.c.T.T.T.T.T.T.T.T.T.T.T.T.J.v.=.3 L 7.x.Y                             ",
"                          9 O.K.T.T.T.T.T.T.T.T.T.T.T.J.v.v.p     R t.z.Y                           ",
"                            6.Y.T.T.T.T.T.T.T.T.T.T.T.A.k.#.w   R @.z.v.w.t                         ",
"                          E G.T.T.T.T.T.T.T.T.T.T.T.T.A.t.5.y t f.v.t.+.w                           ",
"                          e.Y.T.T.T.T.T.T.T.T.T.T.I.F.C.z.@.y.D.t.d u                               ",
"                        L ( G.T.T.T.T.T.T.T.T.T.Y.C.x.v.7.y z.s.e                                   ",
"                      -.'.9.$.G.T.T.T.T.T.T.T.T.K.v.v.v.7.X U u.$.-                                 ",
"                      ` c.s.s.6.T.T.T.T.T.T.I.J.v.v.v.v.7.@ * K #.O.4                               ",
"                      _ u.v.z.7.y.F.Y.U.Y.F.C.x.v.v.v.v.t.6 w r 2 8 4                               ",
"                        K 7.D.%.@.v.C.C.C.v.x.v.v.v.v.z.E 6 % $                                     ",
"                          ~ +.I $.D.v.v.v.v.v.v.v.v.v.u.= o                                         ",
"                              5 d d I 5.z.v.v.v.v.v.v.E $                                           ",
"                                      7 7 ! u.z.s.7.i =                                             ",
"                                          * u 3.e & o                                               ",
"                                          K ` ` ) $                                                 ",
"                                          R %.%.p                                                   ",
"                                            3 3                                                     ",
"                                                                                                    ",
"                                                                                                    ",
"                                                                                                    ",
"                                                                                                    ",
"                                                                                                    ",
"                                                                                                    ",
"                                                                                                    "
};
