/* XPM */
static char *_7ede4381caa45a1baa2c1eeaf9c47f2Jf2g62neaRaP8k1D[] = {
/* columns rows colors chars-per-pixel */
"50 50 12 1 ",
"  c #101010",
". c gray40",
"X c #B00000",
"o c #E00000",
"O c #805000",
"+ c #F84848",
"@ c #C08800",
"# c #E8B800",
"$ c #F8E800",
"% c #F8F878",
"& c #DAF4E8",
"* c #F8F8F8",
/* pixels */
"&&&&&&&&&&&&&&&&&&&&&&&&&&&&&&&&&&&& &&&&&&&&&&&&&",
"&&&&&&&&&&&&&&&&&&&&&&&&&&&&&&&&&&&   &&&&&&&&&&&&",
"&&&&&&&&&&&&&&&&&&&&&&&&&&&&&&&&&&&   &&&&&&&&&&&&",
"&&&&&&&&&&&&&&&&&&&&&&&&&&&&&&&&&&  . &&&&&&&&&&&&",
"&&&&&&&&&   &&&&&&&&&&&&&&&&&&&&&&  .. &&&&&&&&&&&",
"&&&&&&&&& ..   &&&&&&&&&&&&&&&&&&  ... &&&&&&&&&&&",
"&&&&&&&&&  ....  &&&&&&&&&&&&&&&& #... &&&&&&&&&&&",
"&&&&&&&&&&  ....$#@&&&&&&&&&&&&&& $$.. &&&&&&&&&&&",
"&&&&&&&&&&   ...$$$@&&&&&&&&&&&& #$$$ &&&&&&&&&&&&",
"&&&&&&&&&&&   .#$$$$#@&&&&&&&&&& #$$$@&&&&&&&&&&&&",
"&&&&&&&&&&&&   $$$$$$$O&&&&&&&&& #$$$@&&&&&&&&&&&&",
"&&&&&&&&&&&&&  #$$$$$$$OO@@###@@ ##$#&&&&&&&&&&&&&",
"&&&&&&&&&&&&&&& ##$$$$$$#$$%%%%%@@##@&&&&&&&&&&&&&",
"&&&&@@&&&&&&&&&&  ##$$$$$$%%%%%%%%#O&&&&&&&&&&&&&&",
"&&&O$%#@&&&&&&&&&& O#$$$$$%%%%%%%%$$#&&&&&&&&&&&&&",
"&&&O$$$%@&&&&&&&&&&O#$$#  #$%%%%%$$$$O&&&&&&&&&&&&",
"&&&O#$$$%@&&&&&&&& ##$$  * $$$$$$$  #@&&&&&&&&&&&&",
"&&O####$$%#@&&&&&& ##$$ .  $$$$$$$ * $@&&&&&&&&&&&",
"&&O######$%%@&&&&&O##$$#  #$$$$$$$.  $O&&&&&&&&&&&",
"&&O#######$$$##&& ###oo$$$$$$$#O$$# @$#O&&&&&&&&&&",
"&&O##########$$OO ##Xooo$$$@$$$$$#$$$$+ &&&&&&&&&&",
"&&O###########O@%OO#Xooo$$$#XXXX@$$$$#o &&&&&&&&&&",
"&& ##########O%%$@%OXXoo$$$$++XX$$$$$X &O&&&&&&&&&",
"&&& O########O@$$$$O#XX$$$$$X++X$$$$$XOO%O&&&&&&&&",
"&&&&& O###### $$$$$$O#$$$$$$$XX$$$$$$O#$$%O&&&&&&&",
"&&&&&&& O##### ##$$$$O$$$$$$$$$$$$$$O##$$@&&&&&&&&",
"&&&&&&&&&O#### ###$$$$$$$$$$$$$$$$$@@####O&&&&&&&&",
"&&&&&&&&&& ###O ###$$$$$$$$$$$$$$$$$@### &&&&&&&&&",
"&&&&&&&&& ###O&& ###$$$$$$$$$$$$$$$$### &&&&&&&&&&",
"&&&&&&&& ###O&&& ####$$$$$$$$$$$$$$$$O &&&&&&&&&&&",
"&&&&&&& #####OO&&O@##$$$$$$$$$$$$$$$$@&&&&&&&&&&&&",
"&&&&&&&& O####$  O#@#$$$$$$$$$$$$$$$$$O&&&&&&&&&&&",
"&&&&&&&&&& O####$O###$$$$$$$$$$$$$$$$$@&&&&&&&&&&&",
"&&&&&&&&&&&&  ####O####$$$$$$$$$$$$$$$$O&&&&&&&&&&",
"&&&&&&&&&&&&&& ### #####$$$$$$$$$$$$$$OOO&&&&&&&&&",
"&&&&&&&&&&&&& ###  #####$$$$$$$$$$$$$O@%%O&&&&&&&&",
"&&&&&&&&&&&& #@@ & ######$$$$$$$$$$$O$@$@@&&&&&&&&",
"&&&&&&&&&&& #@OOO  ########$$$$$$$$$@####O&&&&&&&&",
"&&&&&&&&&&&&   OOOO##########$$$$##O####@&&&&&&&&&",
"&&&&&&&&&&&&&&&   OO###############O###O&&&&&&&&&&",
"&&&&&&&&&&&&&&&&&&  ############### ### &&&&&&&&&&",
"&&&&&&&&&&&&&&&&&&& @###############  O&&&&&&&&&&&",
"&&&&&&&&&&&&&&&&&&&& #########@O    &&&&&&&&&&&&&&",
"&&&&&&&&&&&&&&&&&&&&& O#####O  &&&&&&&&&&&&&&&&&&&",
"&&&&&&&&&&&&&&&&&&&&&&   @@  &&&&&&&&&&&&&&&&&&&&&",
"&&&&&&&&&&&&&&&&&&&&&&& @@@@O&&&&&&&&&&&&&&&&&&&&&",
"&&&&&&&&&&&&&&&&&&&&&&& @@O@O&&&&&&&&&&&&&&&&&&&&&",
"&&&&&&&&&&&&&&&&&&&&&&&& #@#O&&&&&&&&&&&&&&&&&&&&&",
"&&&&&&&&&&&&&&&&&&&&&&&&&   &&&&&&&&&&&&&&&&&&&&&&",
"&&&&&&&&&&&&&&&&&&&&&&&&&&&&&&&&&&&&&&&&&&&&&&&&&&"
};
